<?xml version="1.0" encoding="utf-8" standalone="no"?>
<!DOCTYPE svg PUBLIC "-//W3C//DTD SVG 1.1//EN"
  "http://www.w3.org/Graphics/SVG/1.1/DTD/svg11.dtd">
<svg xmlns:xlink="http://www.w3.org/1999/xlink" width="856.764687pt" height="712.769687pt" viewBox="0 0 856.764687 712.769687" xmlns="http://www.w3.org/2000/svg" version="1.1">
 <metadata>
  <rdf:RDF xmlns:dc="http://purl.org/dc/elements/1.1/" xmlns:cc="http://creativecommons.org/ns#" xmlns:rdf="http://www.w3.org/1999/02/22-rdf-syntax-ns#">
   <cc:Work>
    <dc:type rdf:resource="http://purl.org/dc/dcmitype/StillImage"/>
    <dc:date>2025-05-09T18:42:03.303068</dc:date>
    <dc:format>image/svg+xml</dc:format>
    <dc:creator>
     <cc:Agent>
      <dc:title>Matplotlib v3.9.4, https://matplotlib.org/</dc:title>
     </cc:Agent>
    </dc:creator>
   </cc:Work>
  </rdf:RDF>
 </metadata>
 <defs>
  <style type="text/css">*{stroke-linejoin: round; stroke-linecap: butt}</style>
 </defs>
 <g id="figure_1">
  <g id="patch_1">
   <path d="M 0 712.769687 
L 856.764687 712.769687 
L 856.764687 0 
L 0 0 
z
" style="fill: #ffffff"/>
  </g>
  <g id="axes_1">
   <g id="patch_2">
    <path d="M 48.98125 675.663437 
L 849.564687 675.663437 
L 849.564687 7.2 
L 48.98125 7.2 
z
" style="fill: #ffffff"/>
   </g>
   <g id="matplotlib.axis_1">
    <g id="xtick_1">
     <g id="line2d_1">
      <path d="M 91.869648 675.663437 
L 91.869648 7.2 
" clip-path="url(#p736f0e970d)" style="fill: none; stroke-dasharray: 2.96,1.28; stroke-dashoffset: 0; stroke: #b0b0b0; stroke-opacity: 0.7; stroke-width: 0.8"/>
     </g>
     <g id="line2d_2">
      <defs>
       <path id="m946316647b" d="M 0 0 
L 0 3.5 
" style="stroke: #000000; stroke-width: 0.8"/>
      </defs>
      <g>
       <use xlink:href="#m946316647b" x="91.869648" y="675.663437" style="stroke: #000000; stroke-width: 0.8"/>
      </g>
     </g>
     <g id="text_1">
      <!-- 0 -->
      <g transform="translate(89.369648 689.538437) scale(0.1 -0.1)">
       <defs>
        <path id="SimHei-30" d="M 225 2537 
Q 250 3200 412 3587 
Q 575 3975 875 4225 
Q 1175 4475 1612 4475 
Q 2050 4475 2375 4112 
Q 2700 3750 2800 3200 
Q 2900 2650 2862 1937 
Q 2825 1225 2612 775 
Q 2400 325 1975 150 
Q 1550 -25 1125 187 
Q 700 400 525 750 
Q 350 1100 275 1487 
Q 200 1875 225 2537 
z
M 750 2687 
Q 675 2000 800 1462 
Q 925 925 1212 700 
Q 1500 475 1800 612 
Q 2100 750 2237 1162 
Q 2375 1575 2375 2062 
Q 2375 2550 2337 2950 
Q 2300 3350 2112 3675 
Q 1925 4000 1612 4012 
Q 1300 4025 1062 3700 
Q 825 3375 750 2687 
z
" transform="scale(0.015625)"/>
       </defs>
       <use xlink:href="#SimHei-30"/>
      </g>
     </g>
    </g>
    <g id="xtick_2">
     <g id="line2d_3">
      <path d="M 215.453093 675.663437 
L 215.453093 7.2 
" clip-path="url(#p736f0e970d)" style="fill: none; stroke-dasharray: 2.96,1.28; stroke-dashoffset: 0; stroke: #b0b0b0; stroke-opacity: 0.7; stroke-width: 0.8"/>
     </g>
     <g id="line2d_4">
      <g>
       <use xlink:href="#m946316647b" x="215.453093" y="675.663437" style="stroke: #000000; stroke-width: 0.8"/>
      </g>
     </g>
     <g id="text_2">
      <!-- 500 -->
      <g transform="translate(207.953093 689.538437) scale(0.1 -0.1)">
       <defs>
        <path id="SimHei-35" d="M 550 1325 
Q 725 650 1150 575 
Q 1575 500 1837 662 
Q 2100 825 2212 1087 
Q 2325 1350 2312 1675 
Q 2300 2000 2137 2225 
Q 1975 2450 1725 2525 
Q 1475 2600 1162 2525 
Q 850 2450 650 2175 
L 225 2225 
Q 275 2375 700 4375 
L 2675 4375 
L 2675 3925 
L 1075 3925 
Q 950 3250 825 2850 
Q 1200 3025 1525 3012 
Q 1850 3000 2150 2862 
Q 2450 2725 2587 2487 
Q 2725 2250 2787 2012 
Q 2850 1775 2837 1500 
Q 2825 1225 2725 937 
Q 2625 650 2425 462 
Q 2225 275 1937 162 
Q 1650 50 1275 75 
Q 900 100 562 350 
Q 225 600 100 1200 
L 550 1325 
z
" transform="scale(0.015625)"/>
       </defs>
       <use xlink:href="#SimHei-35"/>
       <use xlink:href="#SimHei-30" x="50"/>
       <use xlink:href="#SimHei-30" x="100"/>
      </g>
     </g>
    </g>
    <g id="xtick_3">
     <g id="line2d_5">
      <path d="M 339.036537 675.663437 
L 339.036537 7.2 
" clip-path="url(#p736f0e970d)" style="fill: none; stroke-dasharray: 2.96,1.28; stroke-dashoffset: 0; stroke: #b0b0b0; stroke-opacity: 0.7; stroke-width: 0.8"/>
     </g>
     <g id="line2d_6">
      <g>
       <use xlink:href="#m946316647b" x="339.036537" y="675.663437" style="stroke: #000000; stroke-width: 0.8"/>
      </g>
     </g>
     <g id="text_3">
      <!-- 1000 -->
      <g transform="translate(329.036537 689.538437) scale(0.1 -0.1)">
       <defs>
        <path id="SimHei-31" d="M 1400 3600 
Q 1075 3275 575 2975 
L 575 3450 
Q 1200 3875 1600 4450 
L 1900 4450 
L 1900 150 
L 1400 150 
L 1400 3600 
z
" transform="scale(0.015625)"/>
       </defs>
       <use xlink:href="#SimHei-31"/>
       <use xlink:href="#SimHei-30" x="50"/>
       <use xlink:href="#SimHei-30" x="100"/>
       <use xlink:href="#SimHei-30" x="150"/>
      </g>
     </g>
    </g>
    <g id="xtick_4">
     <g id="line2d_7">
      <path d="M 462.619981 675.663437 
L 462.619981 7.2 
" clip-path="url(#p736f0e970d)" style="fill: none; stroke-dasharray: 2.96,1.28; stroke-dashoffset: 0; stroke: #b0b0b0; stroke-opacity: 0.7; stroke-width: 0.8"/>
     </g>
     <g id="line2d_8">
      <g>
       <use xlink:href="#m946316647b" x="462.619981" y="675.663437" style="stroke: #000000; stroke-width: 0.8"/>
      </g>
     </g>
     <g id="text_4">
      <!-- 1500 -->
      <g transform="translate(452.619981 689.538437) scale(0.1 -0.1)">
       <use xlink:href="#SimHei-31"/>
       <use xlink:href="#SimHei-35" x="50"/>
       <use xlink:href="#SimHei-30" x="100"/>
       <use xlink:href="#SimHei-30" x="150"/>
      </g>
     </g>
    </g>
    <g id="xtick_5">
     <g id="line2d_9">
      <path d="M 586.203425 675.663437 
L 586.203425 7.2 
" clip-path="url(#p736f0e970d)" style="fill: none; stroke-dasharray: 2.96,1.28; stroke-dashoffset: 0; stroke: #b0b0b0; stroke-opacity: 0.7; stroke-width: 0.8"/>
     </g>
     <g id="line2d_10">
      <g>
       <use xlink:href="#m946316647b" x="586.203425" y="675.663437" style="stroke: #000000; stroke-width: 0.8"/>
      </g>
     </g>
     <g id="text_5">
      <!-- 2000 -->
      <g transform="translate(576.203425 689.538437) scale(0.1 -0.1)">
       <defs>
        <path id="SimHei-32" d="M 300 250 
Q 325 625 650 925 
Q 975 1225 1475 1862 
Q 1975 2500 2125 2850 
Q 2275 3200 2237 3450 
Q 2200 3700 2000 3862 
Q 1800 4025 1537 4000 
Q 1275 3975 1037 3800 
Q 800 3625 675 3275 
L 200 3350 
Q 400 3925 712 4187 
Q 1025 4450 1450 4475 
Q 1700 4500 1900 4462 
Q 2100 4425 2312 4287 
Q 2525 4150 2662 3875 
Q 2800 3600 2762 3212 
Q 2725 2825 2375 2287 
Q 2025 1750 1025 600 
L 2825 600 
L 2825 150 
L 300 150 
L 300 250 
z
" transform="scale(0.015625)"/>
       </defs>
       <use xlink:href="#SimHei-32"/>
       <use xlink:href="#SimHei-30" x="50"/>
       <use xlink:href="#SimHei-30" x="100"/>
       <use xlink:href="#SimHei-30" x="150"/>
      </g>
     </g>
    </g>
    <g id="xtick_6">
     <g id="line2d_11">
      <path d="M 709.786869 675.663437 
L 709.786869 7.2 
" clip-path="url(#p736f0e970d)" style="fill: none; stroke-dasharray: 2.96,1.28; stroke-dashoffset: 0; stroke: #b0b0b0; stroke-opacity: 0.7; stroke-width: 0.8"/>
     </g>
     <g id="line2d_12">
      <g>
       <use xlink:href="#m946316647b" x="709.786869" y="675.663437" style="stroke: #000000; stroke-width: 0.8"/>
      </g>
     </g>
     <g id="text_6">
      <!-- 2500 -->
      <g transform="translate(699.786869 689.538437) scale(0.1 -0.1)">
       <use xlink:href="#SimHei-32"/>
       <use xlink:href="#SimHei-35" x="50"/>
       <use xlink:href="#SimHei-30" x="100"/>
       <use xlink:href="#SimHei-30" x="150"/>
      </g>
     </g>
    </g>
    <g id="xtick_7">
     <g id="line2d_13">
      <path d="M 833.370313 675.663437 
L 833.370313 7.2 
" clip-path="url(#p736f0e970d)" style="fill: none; stroke-dasharray: 2.96,1.28; stroke-dashoffset: 0; stroke: #b0b0b0; stroke-opacity: 0.7; stroke-width: 0.8"/>
     </g>
     <g id="line2d_14">
      <g>
       <use xlink:href="#m946316647b" x="833.370313" y="675.663437" style="stroke: #000000; stroke-width: 0.8"/>
      </g>
     </g>
     <g id="text_7">
      <!-- 3000 -->
      <g transform="translate(823.370313 689.538437) scale(0.1 -0.1)">
       <defs>
        <path id="SimHei-33" d="M 250 1225 
L 700 1300 
Q 800 975 1025 762 
Q 1250 550 1587 562 
Q 1925 575 2125 837 
Q 2325 1100 2300 1437 
Q 2275 1775 2037 1962 
Q 1800 2150 1275 2225 
L 1275 2550 
Q 1800 2600 2037 2825 
Q 2275 3050 2250 3412 
Q 2225 3775 1925 3937 
Q 1625 4100 1287 3975 
Q 950 3850 750 3275 
L 300 3350 
Q 450 3800 712 4100 
Q 975 4400 1425 4450 
Q 1875 4500 2212 4337 
Q 2550 4175 2687 3837 
Q 2825 3500 2725 3100 
Q 2625 2700 2150 2400 
Q 2500 2250 2687 1950 
Q 2875 1650 2812 1162 
Q 2750 675 2375 375 
Q 2000 75 1525 87 
Q 1050 100 700 387 
Q 350 675 250 1225 
z
" transform="scale(0.015625)"/>
       </defs>
       <use xlink:href="#SimHei-33"/>
       <use xlink:href="#SimHei-30" x="50"/>
       <use xlink:href="#SimHei-30" x="100"/>
       <use xlink:href="#SimHei-30" x="150"/>
      </g>
     </g>
    </g>
    <g id="text_8">
     <!-- X坐标 -->
     <g transform="translate(434.272969 704.069687) scale(0.12 -0.12)">
      <defs>
       <path id="SimHei-58" d="M 3000 125 
L 2400 125 
L 1550 1875 
L 700 125 
L 100 125 
L 1275 2375 
L 225 4400 
L 825 4400 
L 1550 2850 
L 2275 4400 
L 2875 4400 
L 1825 2375 
L 3000 125 
z
" transform="scale(0.015625)"/>
       <path id="SimHei-5750" d="M 3450 5100 
Q 3425 4675 3425 4150 
L 3425 1500 
L 4550 1500 
Q 4975 1500 5450 1525 
L 5450 1075 
Q 5000 1100 4500 1100 
L 3425 1100 
L 3425 50 
L 5075 50 
Q 5500 50 5975 75 
L 5975 -375 
Q 5525 -350 5075 -350 
L 1475 -350 
Q 925 -350 400 -375 
L 400 75 
Q 925 50 1475 50 
L 2925 50 
L 2925 1100 
L 2050 1100 
Q 1450 1100 950 1075 
L 950 1525 
Q 1450 1500 2050 1500 
L 2925 1500 
L 2925 4150 
Q 2925 4675 2900 5100 
L 3450 5100 
z
M 5200 4450 
Q 5050 4250 4825 3600 
Q 5200 3300 5975 2500 
Q 5775 2400 5575 2150 
Q 5075 2800 4650 3150 
Q 4375 2500 3975 1925 
Q 3725 2125 3525 2200 
Q 3875 2575 4212 3362 
Q 4550 4150 4600 4650 
Q 4900 4525 5200 4450 
z
M 350 2150 
Q 600 2375 950 3087 
Q 1300 3800 1450 4575 
Q 1625 4475 2050 4400 
Q 1950 4275 1862 4050 
Q 1775 3825 1700 3575 
Q 2400 2950 2700 2475 
Q 2425 2325 2250 2150 
Q 2025 2550 1887 2725 
Q 1750 2900 1500 3125 
Q 1250 2525 800 1875 
Q 575 2050 350 2150 
z
" transform="scale(0.015625)"/>
       <path id="SimHei-6807" d="M 1275 4400 
Q 1275 4800 1250 5175 
L 1750 5175 
Q 1725 4825 1725 4400 
L 1725 3800 
Q 2125 3800 2575 3825 
L 2575 3350 
Q 2125 3375 1725 3375 
L 1725 2525 
Q 1900 2650 2075 2800 
Q 2400 2275 2650 1775 
Q 2375 1650 2175 1500 
Q 2025 2000 1725 2425 
L 1725 475 
Q 1725 -50 1750 -575 
L 1250 -575 
Q 1275 -25 1275 475 
L 1275 2100 
Q 1025 1400 500 750 
Q 350 950 125 1125 
Q 550 1550 812 2187 
Q 1075 2825 1150 3375 
Q 675 3375 325 3325 
L 325 3825 
Q 800 3800 1275 3800 
L 1275 4400 
z
M 5175 3125 
Q 5675 3125 6050 3150 
L 6050 2675 
Q 5675 2700 5275 2700 
L 4500 2700 
L 4500 175 
Q 4500 -225 4275 -350 
Q 4050 -475 3475 -550 
Q 3425 -250 3275 25 
Q 3775 25 3900 62 
Q 4025 100 4025 350 
L 4025 2700 
L 3400 2700 
Q 2775 2700 2500 2650 
L 2500 3150 
Q 2825 3125 3400 3125 
L 5175 3125 
z
M 4900 4775 
Q 5425 4775 5750 4800 
L 5750 4300 
Q 5275 4350 4750 4350 
L 3525 4350 
Q 3125 4350 2750 4300 
L 2750 4800 
Q 3100 4775 3525 4775 
L 4900 4775 
z
M 5275 2025 
Q 5825 1175 6200 500 
Q 5925 375 5650 200 
Q 5375 925 4825 1725 
Q 5075 1850 5275 2025 
z
M 3600 1775 
Q 3500 1625 3225 975 
Q 2950 325 2800 50 
Q 2575 175 2300 275 
Q 2625 775 2787 1187 
Q 2950 1600 3050 2000 
Q 3325 1875 3600 1775 
z
" transform="scale(0.015625)"/>
      </defs>
      <use xlink:href="#SimHei-58"/>
      <use xlink:href="#SimHei-5750" x="50"/>
      <use xlink:href="#SimHei-6807" x="150"/>
     </g>
    </g>
   </g>
   <g id="matplotlib.axis_2">
    <g id="ytick_1">
     <g id="line2d_15">
      <path d="M 48.98125 622.236857 
L 849.564687 622.236857 
" clip-path="url(#p736f0e970d)" style="fill: none; stroke-dasharray: 2.96,1.28; stroke-dashoffset: 0; stroke: #b0b0b0; stroke-opacity: 0.7; stroke-width: 0.8"/>
     </g>
     <g id="line2d_16">
      <defs>
       <path id="mc9529f3155" d="M 0 0 
L -3.5 0 
" style="stroke: #000000; stroke-width: 0.8"/>
      </defs>
      <g>
       <use xlink:href="#mc9529f3155" x="48.98125" y="622.236857" style="stroke: #000000; stroke-width: 0.8"/>
      </g>
     </g>
     <g id="text_9">
      <!-- 0 -->
      <g transform="translate(36.98125 625.674357) scale(0.1 -0.1)">
       <use xlink:href="#SimHei-30"/>
      </g>
     </g>
    </g>
    <g id="ytick_2">
     <g id="line2d_17">
      <path d="M 48.98125 521.409159 
L 849.564687 521.409159 
" clip-path="url(#p736f0e970d)" style="fill: none; stroke-dasharray: 2.96,1.28; stroke-dashoffset: 0; stroke: #b0b0b0; stroke-opacity: 0.7; stroke-width: 0.8"/>
     </g>
     <g id="line2d_18">
      <g>
       <use xlink:href="#mc9529f3155" x="48.98125" y="521.409159" style="stroke: #000000; stroke-width: 0.8"/>
      </g>
     </g>
     <g id="text_10">
      <!-- 500 -->
      <g transform="translate(26.98125 524.846659) scale(0.1 -0.1)">
       <use xlink:href="#SimHei-35"/>
       <use xlink:href="#SimHei-30" x="50"/>
       <use xlink:href="#SimHei-30" x="100"/>
      </g>
     </g>
    </g>
    <g id="ytick_3">
     <g id="line2d_19">
      <path d="M 48.98125 420.581461 
L 849.564687 420.581461 
" clip-path="url(#p736f0e970d)" style="fill: none; stroke-dasharray: 2.96,1.28; stroke-dashoffset: 0; stroke: #b0b0b0; stroke-opacity: 0.7; stroke-width: 0.8"/>
     </g>
     <g id="line2d_20">
      <g>
       <use xlink:href="#mc9529f3155" x="48.98125" y="420.581461" style="stroke: #000000; stroke-width: 0.8"/>
      </g>
     </g>
     <g id="text_11">
      <!-- 1000 -->
      <g transform="translate(21.98125 424.018961) scale(0.1 -0.1)">
       <use xlink:href="#SimHei-31"/>
       <use xlink:href="#SimHei-30" x="50"/>
       <use xlink:href="#SimHei-30" x="100"/>
       <use xlink:href="#SimHei-30" x="150"/>
      </g>
     </g>
    </g>
    <g id="ytick_4">
     <g id="line2d_21">
      <path d="M 48.98125 319.753764 
L 849.564687 319.753764 
" clip-path="url(#p736f0e970d)" style="fill: none; stroke-dasharray: 2.96,1.28; stroke-dashoffset: 0; stroke: #b0b0b0; stroke-opacity: 0.7; stroke-width: 0.8"/>
     </g>
     <g id="line2d_22">
      <g>
       <use xlink:href="#mc9529f3155" x="48.98125" y="319.753764" style="stroke: #000000; stroke-width: 0.8"/>
      </g>
     </g>
     <g id="text_12">
      <!-- 1500 -->
      <g transform="translate(21.98125 323.191264) scale(0.1 -0.1)">
       <use xlink:href="#SimHei-31"/>
       <use xlink:href="#SimHei-35" x="50"/>
       <use xlink:href="#SimHei-30" x="100"/>
       <use xlink:href="#SimHei-30" x="150"/>
      </g>
     </g>
    </g>
    <g id="ytick_5">
     <g id="line2d_23">
      <path d="M 48.98125 218.926066 
L 849.564687 218.926066 
" clip-path="url(#p736f0e970d)" style="fill: none; stroke-dasharray: 2.96,1.28; stroke-dashoffset: 0; stroke: #b0b0b0; stroke-opacity: 0.7; stroke-width: 0.8"/>
     </g>
     <g id="line2d_24">
      <g>
       <use xlink:href="#mc9529f3155" x="48.98125" y="218.926066" style="stroke: #000000; stroke-width: 0.8"/>
      </g>
     </g>
     <g id="text_13">
      <!-- 2000 -->
      <g transform="translate(21.98125 222.363566) scale(0.1 -0.1)">
       <use xlink:href="#SimHei-32"/>
       <use xlink:href="#SimHei-30" x="50"/>
       <use xlink:href="#SimHei-30" x="100"/>
       <use xlink:href="#SimHei-30" x="150"/>
      </g>
     </g>
    </g>
    <g id="ytick_6">
     <g id="line2d_25">
      <path d="M 48.98125 118.098368 
L 849.564687 118.098368 
" clip-path="url(#p736f0e970d)" style="fill: none; stroke-dasharray: 2.96,1.28; stroke-dashoffset: 0; stroke: #b0b0b0; stroke-opacity: 0.7; stroke-width: 0.8"/>
     </g>
     <g id="line2d_26">
      <g>
       <use xlink:href="#mc9529f3155" x="48.98125" y="118.098368" style="stroke: #000000; stroke-width: 0.8"/>
      </g>
     </g>
     <g id="text_14">
      <!-- 2500 -->
      <g transform="translate(21.98125 121.535868) scale(0.1 -0.1)">
       <use xlink:href="#SimHei-32"/>
       <use xlink:href="#SimHei-35" x="50"/>
       <use xlink:href="#SimHei-30" x="100"/>
       <use xlink:href="#SimHei-30" x="150"/>
      </g>
     </g>
    </g>
    <g id="ytick_7">
     <g id="line2d_27">
      <path d="M 48.98125 17.27067 
L 849.564687 17.27067 
" clip-path="url(#p736f0e970d)" style="fill: none; stroke-dasharray: 2.96,1.28; stroke-dashoffset: 0; stroke: #b0b0b0; stroke-opacity: 0.7; stroke-width: 0.8"/>
     </g>
     <g id="line2d_28">
      <g>
       <use xlink:href="#mc9529f3155" x="48.98125" y="17.27067" style="stroke: #000000; stroke-width: 0.8"/>
      </g>
     </g>
     <g id="text_15">
      <!-- 3000 -->
      <g transform="translate(21.98125 20.70817) scale(0.1 -0.1)">
       <use xlink:href="#SimHei-33"/>
       <use xlink:href="#SimHei-30" x="50"/>
       <use xlink:href="#SimHei-30" x="100"/>
       <use xlink:href="#SimHei-30" x="150"/>
      </g>
     </g>
    </g>
    <g id="text_16">
     <!-- Y坐标 -->
     <g transform="translate(16.48125 356.431719) rotate(-90) scale(0.12 -0.12)">
      <defs>
       <path id="SimHei-59" d="M 3025 4400 
L 1850 2050 
L 1850 125 
L 1275 125 
L 1275 2050 
L 100 4400 
L 675 4400 
L 1550 2575 
L 1575 2575 
L 2450 4400 
L 3025 4400 
z
" transform="scale(0.015625)"/>
      </defs>
      <use xlink:href="#SimHei-59"/>
      <use xlink:href="#SimHei-5750" x="50"/>
      <use xlink:href="#SimHei-6807" x="150"/>
     </g>
    </g>
   </g>
   <g id="patch_3">
    <path d="M 48.98125 675.663437 
L 48.98125 7.2 
" style="fill: none; stroke: #000000; stroke-width: 0.8; stroke-linejoin: miter; stroke-linecap: square"/>
   </g>
   <g id="patch_4">
    <path d="M 849.564687 675.663437 
L 849.564687 7.2 
" style="fill: none; stroke: #000000; stroke-width: 0.8; stroke-linejoin: miter; stroke-linecap: square"/>
   </g>
   <g id="patch_5">
    <path d="M 48.98125 675.663437 
L 849.564687 675.663437 
" style="fill: none; stroke: #000000; stroke-width: 0.8; stroke-linejoin: miter; stroke-linecap: square"/>
   </g>
   <g id="patch_6">
    <path d="M 48.98125 7.2 
L 849.564687 7.2 
" style="fill: none; stroke: #000000; stroke-width: 0.8; stroke-linejoin: miter; stroke-linecap: square"/>
   </g>
   <g id="patch_7">
    <path d="M 436.109915 339.038705 
Q 381.724818 312.334102 329.84866 286.861458 
" style="fill: none; opacity: 0.7; stroke: #0000ff; stroke-width: 2.5; stroke-linecap: round"/>
    <path d="M 332.557643 290.419746 
L 329.84866 286.861458 
L 334.32068 286.829244 
" style="fill: none; opacity: 0.7; stroke: #0000ff; stroke-width: 2.5; stroke-linecap: round"/>
   </g>
   <g id="patch_8">
    <path d="M 326.257402 282.882858 
Q 340.099495 246.865054 352.9389 213.456295 
" style="fill: none; opacity: 0.7; stroke: #0000ff; stroke-width: 2.5; stroke-linecap: round"/>
    <path d="M 349.637088 216.472591 
L 352.9389 213.456295 
L 353.370849 217.907522 
" style="fill: none; opacity: 0.7; stroke: #0000ff; stroke-width: 2.5; stroke-linecap: round"/>
   </g>
   <g id="patch_9">
    <path d="M 352.659138 208.992818 
Q 311.292304 209.165944 272.720531 209.327372 
" style="fill: none; opacity: 0.7; stroke: #0000ff; stroke-width: 2.5; stroke-linecap: round"/>
    <path d="M 276.728866 211.310614 
L 272.720531 209.327372 
L 276.712126 207.310649 
" style="fill: none; opacity: 0.7; stroke: #0000ff; stroke-width: 2.5; stroke-linecap: round"/>
   </g>
   <g id="patch_10">
    <path d="M 265.948345 209.07873 
Q 200.822375 200.232823 138.466057 191.763111 
" style="fill: none; opacity: 0.7; stroke: #0000ff; stroke-width: 2.5; stroke-linecap: round"/>
    <path d="M 142.160478 194.283281 
L 138.466057 191.763111 
L 142.698845 190.319676 
" style="fill: none; opacity: 0.7; stroke: #0000ff; stroke-width: 2.5; stroke-linecap: round"/>
   </g>
   <g id="patch_11">
    <path d="M 133.263001 193.069907 
Q 124.705461 230.028528 116.778425 264.264105 
" style="fill: none; opacity: 0.7; stroke: #0000ff; stroke-width: 2.5; stroke-linecap: round"/>
    <path d="M 119.62918 260.818355 
L 116.778425 264.264105 
L 115.732277 259.916051 
" style="fill: none; opacity: 0.7; stroke: #0000ff; stroke-width: 2.5; stroke-linecap: round"/>
   </g>
   <g id="patch_12">
    <path d="M 117.684984 269.151547 
Q 209.717978 279.099945 298.972075 288.747955 
" style="fill: none; opacity: 0.7; stroke: #0000ff; stroke-width: 2.5; stroke-linecap: round"/>
    <path d="M 295.210182 286.329659 
L 298.972075 288.747955 
L 294.780302 290.306492 
" style="fill: none; opacity: 0.7; stroke: #0000ff; stroke-width: 2.5; stroke-linecap: round"/>
   </g>
   <g id="patch_13">
    <path d="M 302.070246 288.163961 
Q 264.578405 263.492496 229.421461 240.357508 
" style="fill: none; opacity: 0.7; stroke: #0000ff; stroke-width: 2.5; stroke-linecap: round"/>
    <path d="M 231.66348 244.227049 
L 229.421461 240.357508 
L 233.862305 240.885618 
" style="fill: none; opacity: 0.7; stroke: #0000ff; stroke-width: 2.5; stroke-linecap: round"/>
   </g>
   <g id="patch_14">
    <path d="M 227.213412 238.585834 
Q 331.65658 288.818852 433.580859 337.840385 
" style="fill: none; opacity: 0.7; stroke: #0000ff; stroke-width: 2.5; stroke-linecap: round"/>
    <path d="M 430.842987 334.304277 
L 433.580859 337.840385 
L 429.10925 337.909018 
" style="fill: none; opacity: 0.7; stroke: #0000ff; stroke-width: 2.5; stroke-linecap: round"/>
   </g>
   <g id="patch_15">
    <path d="M 439.901692 339.900691 
Q 564.564176 338.739617 686.431697 337.604575 
" style="fill: none; opacity: 0.7; stroke: #ff0000; stroke-width: 2.5; stroke-linecap: round"/>
    <path d="M 682.413244 335.641915 
L 686.431697 337.604575 
L 682.450498 339.641742 
" style="fill: none; opacity: 0.7; stroke: #ff0000; stroke-width: 2.5; stroke-linecap: round"/>
   </g>
   <g id="patch_16">
    <path d="M 692.752395 338.85028 
Q 708.068367 351.786139 721.248973 362.91847 
" style="fill: none; opacity: 0.7; stroke: #ff0000; stroke-width: 2.5; stroke-linecap: round"/>
    <path d="M 719.483587 358.809527 
L 721.248973 362.91847 
L 716.902587 361.865413 
" style="fill: none; opacity: 0.7; stroke: #ff0000; stroke-width: 2.5; stroke-linecap: round"/>
   </g>
   <g id="patch_17">
    <path d="M 724.780787 368.010941 
Q 724.172062 377.173937 723.748614 383.547996 
" style="fill: none; opacity: 0.7; stroke: #ff0000; stroke-width: 2.5; stroke-linecap: round"/>
    <path d="M 726.009362 379.689367 
L 723.748614 383.547996 
L 722.01816 379.424219 
" style="fill: none; opacity: 0.7; stroke: #ff0000; stroke-width: 2.5; stroke-linecap: round"/>
   </g>
   <g id="patch_18">
    <path d="M 722.737967 390.210982 
Q 721.132103 394.557091 720.494993 396.281365 
" style="fill: none; opacity: 0.7; stroke: #ff0000; stroke-width: 2.5; stroke-linecap: round"/>
    <path d="M 723.757393 393.222485 
L 720.494993 396.281365 
L 720.005329 391.836117 
" style="fill: none; opacity: 0.7; stroke: #ff0000; stroke-width: 2.5; stroke-linecap: round"/>
   </g>
   <g id="patch_19">
    <path d="M 718.485395 398.811475 
Q 713.605982 371.208314 709.213113 346.357566 
" style="fill: none; opacity: 0.7; stroke: #ff0000; stroke-width: 2.5; stroke-linecap: round"/>
    <path d="M 707.939933 350.644641 
L 709.213113 346.357566 
L 711.878865 349.948355 
" style="fill: none; opacity: 0.7; stroke: #ff0000; stroke-width: 2.5; stroke-linecap: round"/>
   </g>
   <g id="patch_20">
    <path d="M 710.257008 342.315517 
Q 718.820656 345.424436 724.756996 347.579547 
" style="fill: none; opacity: 0.7; stroke: #ff0000; stroke-width: 2.5; stroke-linecap: round"/>
    <path d="M 721.679589 344.334617 
L 724.756996 347.579547 
L 720.314608 348.094514 
" style="fill: none; opacity: 0.7; stroke: #ff0000; stroke-width: 2.5; stroke-linecap: round"/>
   </g>
   <g id="patch_21">
    <path d="M 727.267453 349.151926 
Q 583.585448 344.567524 442.697107 340.072258 
" style="fill: none; opacity: 0.7; stroke: #ff0000; stroke-width: 2.5; stroke-linecap: round"/>
    <path d="M 446.631292 342.198802 
L 442.697107 340.072258 
L 446.758853 338.200836 
" style="fill: none; opacity: 0.7; stroke: #ff0000; stroke-width: 2.5; stroke-linecap: round"/>
   </g>
   <g id="patch_22">
    <path d="M 437.205058 341.793778 
Q 427.522788 367.786723 418.816185 391.160399 
" style="fill: none; opacity: 0.7; stroke: #008000; stroke-width: 2.5; stroke-linecap: round"/>
    <path d="M 422.086644 388.110137 
L 418.816185 391.160399 
L 418.33825 386.713875 
" style="fill: none; opacity: 0.7; stroke: #008000; stroke-width: 2.5; stroke-linecap: round"/>
   </g>
   <g id="patch_23">
    <path d="M 416.014599 397.307485 
Q 399.35869 421.709158 384.278543 443.802267 
" style="fill: none; opacity: 0.7; stroke: #008000; stroke-width: 2.5; stroke-linecap: round"/>
    <path d="M 388.185466 441.626042 
L 384.278543 443.802267 
L 384.881716 439.370994 
" style="fill: none; opacity: 0.7; stroke: #008000; stroke-width: 2.5; stroke-linecap: round"/>
   </g>
   <g id="patch_24">
    <path d="M 380.182192 449.199989 
Q 354.621674 475.5615 331.006859 499.916336 
" style="fill: none; opacity: 0.7; stroke: #008000; stroke-width: 2.5; stroke-linecap: round"/>
    <path d="M 335.227181 498.436848 
L 331.006859 499.916336 
L 332.355462 495.652386 
" style="fill: none; opacity: 0.7; stroke: #008000; stroke-width: 2.5; stroke-linecap: round"/>
   </g>
   <g id="patch_25">
    <path d="M 329.550512 504.03761 
Q 346.082043 509.975747 359.983044 514.968996 
" style="fill: none; opacity: 0.7; stroke: #008000; stroke-width: 2.5; stroke-linecap: round"/>
    <path d="M 356.894643 511.734529 
L 359.983044 514.968996 
L 355.54243 515.499036 
" style="fill: none; opacity: 0.7; stroke: #008000; stroke-width: 2.5; stroke-linecap: round"/>
   </g>
   <g id="patch_26">
    <path d="M 366.485323 516.74857 
Q 393.151146 518.878178 417.030756 520.785271 
" style="fill: none; opacity: 0.7; stroke: #008000; stroke-width: 2.5; stroke-linecap: round"/>
    <path d="M 413.20267 518.473181 
L 417.030756 520.785271 
L 412.884233 522.460486 
" style="fill: none; opacity: 0.7; stroke: #008000; stroke-width: 2.5; stroke-linecap: round"/>
   </g>
   <g id="patch_27">
    <path d="M 423.283482 519.812333 
Q 449.766712 495.416323 474.194168 472.914066 
" style="fill: none; opacity: 0.7; stroke: #008000; stroke-width: 2.5; stroke-linecap: round"/>
    <path d="M 469.897126 474.153191 
L 474.194168 472.914066 
L 472.607243 477.095174 
" style="fill: none; opacity: 0.7; stroke: #008000; stroke-width: 2.5; stroke-linecap: round"/>
   </g>
   <g id="patch_28">
    <path d="M 475.939641 468.756251 
Q 412.975938 436.67327 352.502653 405.859274 
" style="fill: none; opacity: 0.7; stroke: #008000; stroke-width: 2.5; stroke-linecap: round"/>
    <path d="M 355.158635 409.457295 
L 352.502653 405.859274 
L 356.974659 405.893301 
" style="fill: none; opacity: 0.7; stroke: #008000; stroke-width: 2.5; stroke-linecap: round"/>
   </g>
   <g id="patch_29">
    <path d="M 348.024371 405.674088 
Q 340.976633 473.547831 334.217573 538.641436 
" style="fill: none; opacity: 0.7; stroke: #008000; stroke-width: 2.5; stroke-linecap: round"/>
    <path d="M 336.62 534.869389 
L 334.217573 538.641436 
L 332.641391 534.456266 
" style="fill: none; opacity: 0.7; stroke: #008000; stroke-width: 2.5; stroke-linecap: round"/>
   </g>
   <g id="patch_30">
    <path d="M 335.387531 544.516746 
Q 379.113599 573.586796 420.512036 601.109385 
" style="fill: none; opacity: 0.7; stroke: #008000; stroke-width: 2.5; stroke-linecap: round"/>
    <path d="M 418.288274 597.229323 
L 420.512036 601.109385 
L 416.073729 600.560357 
" style="fill: none; opacity: 0.7; stroke: #008000; stroke-width: 2.5; stroke-linecap: round"/>
   </g>
   <g id="patch_31">
    <path d="M 424.60844 601.764316 
Q 431.205252 471.838671 437.660329 344.704516 
" style="fill: none; opacity: 0.7; stroke: #008000; stroke-width: 2.5; stroke-linecap: round"/>
    <path d="M 435.460068 348.597953 
L 437.660329 344.704516 
L 439.454922 348.800787 
" style="fill: none; opacity: 0.7; stroke: #008000; stroke-width: 2.5; stroke-linecap: round"/>
   </g>
   <g id="patch_32">
    <path d="M 439.022711 338.263868 
Q 496.593085 253.126798 552.597765 170.305132 
" style="fill: none; opacity: 0.7; stroke: #ffa500; stroke-width: 2.5; stroke-linecap: round"/>
    <path d="M 548.700356 172.498349 
L 552.597765 170.305132 
L 552.013893 174.738989 
" style="fill: none; opacity: 0.7; stroke: #ffa500; stroke-width: 2.5; stroke-linecap: round"/>
   </g>
   <g id="patch_33">
    <path d="M 554.762511 168.267379 
Q 543.715106 209.308331 533.394222 247.650271 
" style="fill: none; opacity: 0.7; stroke: #ffa500; stroke-width: 2.5; stroke-linecap: round"/>
    <path d="M 536.365189 244.307614 
L 533.394222 247.650271 
L 532.502677 243.267903 
" style="fill: none; opacity: 0.7; stroke: #ffa500; stroke-width: 2.5; stroke-linecap: round"/>
   </g>
   <g id="patch_34">
    <path d="M 534.117304 252.611645 
Q 593.368717 262.594113 649.863888 272.112218 
" style="fill: none; opacity: 0.7; stroke: #ffa500; stroke-width: 2.5; stroke-linecap: round"/>
    <path d="M 646.251746 269.475472 
L 649.863888 272.112218 
L 645.587206 273.419884 
" style="fill: none; opacity: 0.7; stroke: #ffa500; stroke-width: 2.5; stroke-linecap: round"/>
   </g>
   <g id="patch_35">
    <path d="M 653.100821 271.577968 
Q 581.43211 207.703057 511.850021 145.687854 
" style="fill: none; opacity: 0.7; stroke: #ffa500; stroke-width: 2.5; stroke-linecap: round"/>
    <path d="M 513.505453 149.842314 
L 511.850021 145.687854 
L 516.166849 146.856184 
" style="fill: none; opacity: 0.7; stroke: #ffa500; stroke-width: 2.5; stroke-linecap: round"/>
   </g>
   <g id="patch_36">
    <path d="M 507.955747 144.471751 
Q 490.8713 251.15978 474.228813 355.087886 
" style="fill: none; opacity: 0.7; stroke: #ffa500; stroke-width: 2.5; stroke-linecap: round"/>
    <path d="M 476.836133 351.454446 
L 474.228813 355.087886 
L 472.886454 350.821966 
" style="fill: none; opacity: 0.7; stroke: #ffa500; stroke-width: 2.5; stroke-linecap: round"/>
   </g>
   <g id="patch_37">
    <path d="M 474.802156 358.330982 
Q 513.646559 314.814355 550.629652 273.382919 
" style="fill: none; opacity: 0.7; stroke: #ffa500; stroke-width: 2.5; stroke-linecap: round"/>
    <path d="M 546.473919 275.035155 
L 550.629652 273.382919 
L 549.458001 277.698847 
" style="fill: none; opacity: 0.7; stroke: #ffa500; stroke-width: 2.5; stroke-linecap: round"/>
   </g>
   <g id="patch_38">
    <path d="M 552.115884 270.837225 
Q 495.865276 304.860697 442.006296 337.43758 
" style="fill: none; opacity: 0.7; stroke: #ffa500; stroke-width: 2.5; stroke-linecap: round"/>
    <path d="M 446.464009 337.078701 
L 442.006296 337.43758 
L 444.39382 333.656082 
" style="fill: none; opacity: 0.7; stroke: #ffa500; stroke-width: 2.5; stroke-linecap: round"/>
   </g>
   <g id="patch_39">
    <path d="M 437.354923 337.992857 
Q 403.806479 220.135505 371.023266 104.966447 
" style="fill: none; opacity: 0.7; stroke: #800080; stroke-width: 2.5; stroke-linecap: round"/>
    <path d="M 370.194789 109.361174 
L 371.023266 104.966447 
L 374.041961 108.266065 
" style="fill: none; opacity: 0.7; stroke: #800080; stroke-width: 2.5; stroke-linecap: round"/>
   </g>
   <g id="patch_40">
    <path d="M 368.496579 101.943191 
Q 365.2489 106.200288 363.696542 108.235136 
" style="fill: none; opacity: 0.7; stroke: #800080; stroke-width: 2.5; stroke-linecap: round"/>
    <path d="M 367.7128 106.267988 
L 363.696542 108.235136 
L 364.532578 103.841841 
" style="fill: none; opacity: 0.7; stroke: #800080; stroke-width: 2.5; stroke-linecap: round"/>
   </g>
   <g id="patch_41">
    <path d="M 358.821383 112.40861 
Q 319.759637 119.559982 283.447279 126.208 
" style="fill: none; opacity: 0.7; stroke: #800080; stroke-width: 2.5; stroke-linecap: round"/>
    <path d="M 287.742054 127.45496 
L 283.447279 126.208 
L 287.021712 123.520356 
" style="fill: none; opacity: 0.7; stroke: #800080; stroke-width: 2.5; stroke-linecap: round"/>
   </g>
   <g id="patch_42">
    <path d="M 280.31328 128.287504 
Q 287.326981 133.664445 292.122449 137.340814 
" style="fill: none; opacity: 0.7; stroke: #800080; stroke-width: 2.5; stroke-linecap: round"/>
    <path d="M 290.164804 133.319916 
L 292.122449 137.340814 
L 287.731143 136.494391 
" style="fill: none; opacity: 0.7; stroke: #800080; stroke-width: 2.5; stroke-linecap: round"/>
   </g>
   <g id="patch_43">
    <path d="M 294.58749 138.773147 
Q 273.054593 114.931556 253.395134 93.164267 
" style="fill: none; opacity: 0.7; stroke: #800080; stroke-width: 2.5; stroke-linecap: round"/>
    <path d="M 254.59193 97.47329 
L 253.395134 93.164267 
L 257.56043 94.792244 
" style="fill: none; opacity: 0.7; stroke: #800080; stroke-width: 2.5; stroke-linecap: round"/>
   </g>
   <g id="patch_44">
    <path d="M 248.564842 90.785322 
Q 235.313705 100.473136 224.318946 108.511329 
" style="fill: none; opacity: 0.7; stroke: #800080; stroke-width: 2.5; stroke-linecap: round"/>
    <path d="M 228.728386 107.765114 
L 224.318946 108.511329 
L 226.367638 104.536047 
" style="fill: none; opacity: 0.7; stroke: #800080; stroke-width: 2.5; stroke-linecap: round"/>
   </g>
   <g id="patch_45">
    <path d="M 220.73859 113.323176 
Q 224.894956 141.440576 228.642588 166.792937 
" style="fill: none; opacity: 0.7; stroke: #800080; stroke-width: 2.5; stroke-linecap: round"/>
    <path d="M 230.036158 162.543471 
L 228.642588 166.792937 
L 226.079157 163.128402 
" style="fill: none; opacity: 0.7; stroke: #800080; stroke-width: 2.5; stroke-linecap: round"/>
   </g>
   <g id="patch_46">
    <path d="M 229.156646 169.544626 
Q 224.239687 117.219168 219.584227 67.676535 
" style="fill: none; opacity: 0.7; stroke: #800080; stroke-width: 2.5; stroke-linecap: round"/>
    <path d="M 217.967226 71.846104 
L 219.584227 67.676535 
L 221.949682 71.471877 
" style="fill: none; opacity: 0.7; stroke: #800080; stroke-width: 2.5; stroke-linecap: round"/>
   </g>
   <g id="patch_47">
    <path d="M 220.375993 64.475579 
Q 328.519781 201.412543 434.931259 336.15597 
" style="fill: none; opacity: 0.7; stroke: #800080; stroke-width: 2.5; stroke-linecap: round"/>
    <path d="M 434.021745 331.777296 
L 434.931259 336.15597 
L 430.882612 334.256377 
" style="fill: none; opacity: 0.7; stroke: #800080; stroke-width: 2.5; stroke-linecap: round"/>
   </g>
   <g id="patch_48">
    <path d="M 439.686741 339.004513 
Q 572.870571 270.690083 703.5674 203.651319 
" style="fill: none; opacity: 0.7; stroke: #00ffff; stroke-width: 2.5; stroke-linecap: round"/>
    <path d="M 699.095501 203.69735 
L 703.5674 203.651319 
L 700.921086 207.256457 
" style="fill: none; opacity: 0.7; stroke: #00ffff; stroke-width: 2.5; stroke-linecap: round"/>
   </g>
   <g id="patch_49">
    <path d="M 707.992682 199.471239 
Q 708.563431 192.296995 708.912516 187.909033 
" style="fill: none; opacity: 0.7; stroke: #00ffff; stroke-width: 2.5; stroke-linecap: round"/>
    <path d="M 706.601596 191.737826 
L 708.912516 187.909033 
L 710.588998 192.055044 
" style="fill: none; opacity: 0.7; stroke: #00ffff; stroke-width: 2.5; stroke-linecap: round"/>
   </g>
   <g id="patch_50">
    <path d="M 707.754022 181.856626 
Q 689.507095 166.72779 673.411867 153.382964 
" style="fill: none; opacity: 0.7; stroke: #00ffff; stroke-width: 2.5; stroke-linecap: round"/>
    <path d="M 675.214594 157.475662 
L 673.411867 153.382964 
L 677.767661 154.396401 
" style="fill: none; opacity: 0.7; stroke: #00ffff; stroke-width: 2.5; stroke-linecap: round"/>
   </g>
   <g id="patch_51">
    <path d="M 671.53245 149.482236 
Q 717.819563 127.999755 761.571343 107.693956 
" style="fill: none; opacity: 0.7; stroke: #00ffff; stroke-width: 2.5; stroke-linecap: round"/>
    <path d="M 757.101103 107.563751 
L 761.571343 107.693956 
L 758.785035 111.192025 
" style="fill: none; opacity: 0.7; stroke: #00ffff; stroke-width: 2.5; stroke-linecap: round"/>
   </g>
   <g id="patch_52">
    <path d="M 763.98339 105.165804 
Q 728.968041 95.926627 696.655279 87.400556 
" style="fill: none; opacity: 0.7; stroke: #00ffff; stroke-width: 2.5; stroke-linecap: round"/>
    <path d="M 700.01265 90.354886 
L 696.655279 87.400556 
L 701.033165 86.487258 
" style="fill: none; opacity: 0.7; stroke: #00ffff; stroke-width: 2.5; stroke-linecap: round"/>
   </g>
   <g id="patch_53">
    <path d="M 690.131246 86.841258 
Q 646.412894 102.268555 605.330331 116.765738 
" style="fill: none; opacity: 0.7; stroke: #00ffff; stroke-width: 2.5; stroke-linecap: round"/>
    <path d="M 609.767902 117.320683 
L 605.330331 116.765738 
L 608.43683 113.548648 
" style="fill: none; opacity: 0.7; stroke: #00ffff; stroke-width: 2.5; stroke-linecap: round"/>
   </g>
   <g id="patch_54">
    <path d="M 601.450983 116.46525 
Q 609.622706 92.265664 616.900192 70.714255 
" style="fill: none; opacity: 0.7; stroke: #00ffff; stroke-width: 2.5; stroke-linecap: round"/>
    <path d="M 613.725583 73.864153 
L 616.900192 70.714255 
L 617.515345 75.143881 
" style="fill: none; opacity: 0.7; stroke: #00ffff; stroke-width: 2.5; stroke-linecap: round"/>
   </g>
   <g id="patch_55">
    <path d="M 620.35547 66.728851 
Q 681.522798 84.45201 740.005463 101.397291 
" style="fill: none; opacity: 0.7; stroke: #00ffff; stroke-width: 2.5; stroke-linecap: round"/>
    <path d="M 736.720092 98.363096 
L 740.005463 101.397291 
L 735.606885 102.205071 
" style="fill: none; opacity: 0.7; stroke: #00ffff; stroke-width: 2.5; stroke-linecap: round"/>
   </g>
   <g id="patch_56">
    <path d="M 743.028499 103.957322 
Q 591.256224 221.327129 441.695016 336.987056 
" style="fill: none; opacity: 0.7; stroke: #00ffff; stroke-width: 2.5; stroke-linecap: round"/>
    <path d="M 446.082725 336.122185 
L 441.695016 336.987056 
L 443.635745 332.957965 
" style="fill: none; opacity: 0.7; stroke: #00ffff; stroke-width: 2.5; stroke-linecap: round"/>
   </g>
   <g id="patch_57">
    <path d="M 435.93898 340.309077 
Q 325.959563 362.132011 218.721779 383.41093 
" style="fill: none; opacity: 0.7; stroke: #ff00ff; stroke-width: 2.5; stroke-linecap: round"/>
    <path d="M 223.03455 384.594152 
L 218.721779 383.41093 
L 222.256019 380.670647 
" style="fill: none; opacity: 0.7; stroke: #ff00ff; stroke-width: 2.5; stroke-linecap: round"/>
   </g>
   <g id="patch_58">
    <path d="M 213.530646 386.285075 
Q 203.737085 425.170302 194.626171 461.345088 
" style="fill: none; opacity: 0.7; stroke: #ff00ff; stroke-width: 2.5; stroke-linecap: round"/>
    <path d="M 197.542529 457.954682 
L 194.626171 461.345088 
L 193.663661 456.977757 
" style="fill: none; opacity: 0.7; stroke: #ff00ff; stroke-width: 2.5; stroke-linecap: round"/>
   </g>
   <g id="patch_59">
    <path d="M 191.558179 466.637633 
Q 159.88706 477.378692 130.862942 487.222039 
" style="fill: none; opacity: 0.7; stroke: #ff00ff; stroke-width: 2.5; stroke-linecap: round"/>
    <path d="M 135.293372 487.831375 
L 130.862942 487.222039 
L 134.008669 484.043297 
" style="fill: none; opacity: 0.7; stroke: #ff00ff; stroke-width: 2.5; stroke-linecap: round"/>
   </g>
   <g id="patch_60">
    <path d="M 127.143574 490.584431 
Q 144.527988 529.292625 160.767275 565.451076 
" style="fill: none; opacity: 0.7; stroke: #ff00ff; stroke-width: 2.5; stroke-linecap: round"/>
    <path d="M 160.952951 560.982796 
L 160.767275 565.451076 
L 157.304056 562.621568 
" style="fill: none; opacity: 0.7; stroke: #ff00ff; stroke-width: 2.5; stroke-linecap: round"/>
   </g>
   <g id="patch_61">
    <path d="M 164.293372 568.576301 
Q 196.606421 542.694043 226.737925 518.55917 
" style="fill: none; opacity: 0.7; stroke: #ff00ff; stroke-width: 2.5; stroke-linecap: round"/>
    <path d="M 222.365623 519.498837 
L 226.737925 518.55917 
L 224.866277 522.620812 
" style="fill: none; opacity: 0.7; stroke: #ff00ff; stroke-width: 2.5; stroke-linecap: round"/>
   </g>
   <g id="patch_62">
    <path d="M 229.963462 517.495021 
Q 216.515301 567.761929 203.789518 615.328713 
" style="fill: none; opacity: 0.7; stroke: #ff00ff; stroke-width: 2.5; stroke-linecap: round"/>
    <path d="M 206.755353 611.981502 
L 203.789518 615.328713 
L 202.891249 610.947719 
" style="fill: none; opacity: 0.7; stroke: #ff00ff; stroke-width: 2.5; stroke-linecap: round"/>
   </g>
   <g id="patch_63">
    <path d="M 204.180665 618.799405 
Q 223.707567 604.915298 240.956506 592.650879 
" style="fill: none; opacity: 0.7; stroke: #ff00ff; stroke-width: 2.5; stroke-linecap: round"/>
    <path d="M 236.537597 593.338809 
L 240.956506 592.650879 
L 238.855505 596.598764 
" style="fill: none; opacity: 0.7; stroke: #ff00ff; stroke-width: 2.5; stroke-linecap: round"/>
   </g>
   <g id="patch_64">
    <path d="M 246.088341 588.288371 
Q 341.385566 464.894013 434.974337 343.711823 
" style="fill: none; opacity: 0.7; stroke: #ff00ff; stroke-width: 2.5; stroke-linecap: round"/>
    <path d="M 430.946499 345.65515 
L 434.974337 343.711823 
L 434.112296 348.10009 
" style="fill: none; opacity: 0.7; stroke: #ff00ff; stroke-width: 2.5; stroke-linecap: round"/>
   </g>
   <g id="patch_65">
    <path d="M 439.584867 341.005432 
Q 521.014132 393.600599 600.095487 444.67925 
" style="fill: none; opacity: 0.7; stroke: #a52a2a; stroke-width: 2.5; stroke-linecap: round"/>
    <path d="M 597.820562 440.828962 
L 600.095487 444.67925 
L 595.650302 444.189017 
" style="fill: none; opacity: 0.7; stroke: #a52a2a; stroke-width: 2.5; stroke-linecap: round"/>
   </g>
   <g id="patch_66">
    <path d="M 603.009393 448.944127 
Q 583.151083 478.607549 564.847687 505.948313 
" style="fill: none; opacity: 0.7; stroke: #a52a2a; stroke-width: 2.5; stroke-linecap: round"/>
    <path d="M 568.734858 503.737001 
L 564.847687 505.948313 
L 565.410939 501.511789 
" style="fill: none; opacity: 0.7; stroke: #a52a2a; stroke-width: 2.5; stroke-linecap: round"/>
   </g>
   <g id="patch_67">
    <path d="M 561.62717 511.856881 
Q 549.882667 552.775205 538.909284 591.006918 
" style="fill: none; opacity: 0.7; stroke: #a52a2a; stroke-width: 2.5; stroke-linecap: round"/>
    <path d="M 541.935201 587.713922 
L 538.909284 591.006918 
L 538.090438 586.610386 
" style="fill: none; opacity: 0.7; stroke: #a52a2a; stroke-width: 2.5; stroke-linecap: round"/>
   </g>
   <g id="patch_68">
    <path d="M 539.48015 594.980546 
Q 585.263043 579.566962 628.396948 565.045205 
" style="fill: none; opacity: 0.7; stroke: #a52a2a; stroke-width: 2.5; stroke-linecap: round"/>
    <path d="M 623.967883 564.426021 
L 628.396948 565.045205 
L 625.244162 568.216946 
" style="fill: none; opacity: 0.7; stroke: #a52a2a; stroke-width: 2.5; stroke-linecap: round"/>
   </g>
   <g id="patch_69">
    <path d="M 634.937888 563.644936 
Q 691.841779 567.356291 745.956512 570.885732 
" style="fill: none; opacity: 0.7; stroke: #a52a2a; stroke-width: 2.5; stroke-linecap: round"/>
    <path d="M 742.095159 568.62964 
L 745.956512 570.885732 
L 741.834826 572.621159 
" style="fill: none; opacity: 0.7; stroke: #a52a2a; stroke-width: 2.5; stroke-linecap: round"/>
   </g>
   <g id="patch_70">
    <path d="M 752.588417 570.422224 
Q 766.797264 564.451935 778.429259 559.56439 
" style="fill: none; opacity: 0.7; stroke: #a52a2a; stroke-width: 2.5; stroke-linecap: round"/>
    <path d="M 773.966821 559.270043 
L 778.429259 559.56439 
L 775.516318 562.957733 
" style="fill: none; opacity: 0.7; stroke: #a52a2a; stroke-width: 2.5; stroke-linecap: round"/>
   </g>
   <g id="patch_71">
    <path d="M 781.639013 559.301525 
Q 774.865067 568.224571 769.781183 574.921366 
" style="fill: none; opacity: 0.7; stroke: #a52a2a; stroke-width: 2.5; stroke-linecap: round"/>
    <path d="M 773.792777 572.944726 
L 769.781183 574.921366 
L 770.606827 570.526106 
" style="fill: none; opacity: 0.7; stroke: #a52a2a; stroke-width: 2.5; stroke-linecap: round"/>
   </g>
   <g id="patch_72">
    <path d="M 765.033238 577.979702 
Q 654.877892 532.701511 547.307759 488.485945 
" style="fill: none; opacity: 0.7; stroke: #a52a2a; stroke-width: 2.5; stroke-linecap: round"/>
    <path d="M 550.247063 491.856478 
L 547.307759 488.485945 
L 551.767768 488.156821 
" style="fill: none; opacity: 0.7; stroke: #a52a2a; stroke-width: 2.5; stroke-linecap: round"/>
   </g>
   <g id="patch_73">
    <path d="M 543.464255 488.575072 
Q 548.992065 506.505578 553.69642 521.76505 
" style="fill: none; opacity: 0.7; stroke: #a52a2a; stroke-width: 2.5; stroke-linecap: round"/>
    <path d="M 554.429223 517.353361 
L 553.69642 521.76505 
L 550.606751 518.531794 
" style="fill: none; opacity: 0.7; stroke: #a52a2a; stroke-width: 2.5; stroke-linecap: round"/>
   </g>
   <g id="patch_74">
    <path d="M 554.045715 524.657119 
Q 496.507047 433.135283 440.456042 343.979744 
" style="fill: none; opacity: 0.7; stroke: #a52a2a; stroke-width: 2.5; stroke-linecap: round"/>
    <path d="M 440.891826 348.430597 
L 440.456042 343.979744 
L 444.278195 346.301628 
" style="fill: none; opacity: 0.7; stroke: #a52a2a; stroke-width: 2.5; stroke-linecap: round"/>
   </g>
   <g id="text_17">
    <g id="patch_75">
     <path d="M 445.903292 339.169303 
L 475.903292 339.169303 
Q 478.903292 339.169303 478.903292 336.169303 
L 478.903292 326.911491 
Q 478.903292 323.911491 475.903292 323.911491 
L 445.903292 323.911491 
Q 442.903292 323.911491 442.903292 326.911491 
L 442.903292 336.169303 
Q 442.903292 339.169303 445.903292 339.169303 
z
" style="fill: #ffffff; opacity: 0.8; stroke: #808080; stroke-linejoin: miter"/>
    </g>
    <!-- 起降点 -->
    <g transform="translate(445.903292 334.919303) scale(0.1 -0.1)">
     <defs>
      <path id="SimHei-8d77" d="M 225 -200 
Q 425 75 537 362 
Q 650 650 725 1025 
Q 800 1400 875 1950 
Q 1100 1875 1450 1850 
Q 1150 1350 1375 1012 
Q 1600 675 1775 525 
L 1775 2550 
Q 800 2550 475 2525 
L 475 2975 
Q 800 2950 1675 2950 
L 1675 3925 
Q 1125 3925 675 3900 
L 675 4350 
Q 1000 4325 1675 4325 
Q 1675 4800 1650 5225 
L 2150 5225 
Q 2125 4775 2125 4325 
Q 2700 4325 2975 4350 
L 2975 3900 
Q 2700 3925 2125 3925 
L 2125 2950 
Q 2825 2950 3225 2975 
L 3225 2525 
Q 2825 2550 2225 2550 
L 2225 1750 
Q 2675 1750 3150 1775 
L 3150 1325 
Q 2700 1350 2225 1350 
L 2225 275 
Q 2550 0 3887 -50 
Q 5225 -100 6200 50 
Q 6050 -200 5975 -550 
Q 4800 -550 4025 -537 
Q 3250 -525 2687 -400 
Q 2125 -275 1775 -12 
Q 1425 250 1125 675 
Q 875 0 625 -575 
Q 425 -275 225 -200 
z
M 6000 1475 
Q 5850 850 5725 650 
Q 5600 450 5225 450 
L 4025 450 
Q 3500 450 3500 1025 
L 3500 2225 
Q 3500 2575 3475 3000 
L 5150 3000 
L 5150 4275 
Q 3700 4275 3325 4250 
L 3325 4675 
Q 3700 4650 4125 4650 
L 5650 4650 
Q 5625 4275 5625 3600 
Q 5625 2950 5650 2575 
L 3975 2575 
L 3975 1250 
Q 3950 875 4350 875 
L 5050 875 
Q 5250 875 5312 1050 
Q 5375 1225 5425 1700 
Q 5650 1550 6000 1475 
z
" transform="scale(0.015625)"/>
      <path id="SimHei-964d" d="M 4075 5050 
Q 3850 4800 3775 4625 
L 5650 4625 
Q 5425 4175 5187 3837 
Q 4950 3500 4650 3200 
Q 4900 3025 5275 2925 
Q 5650 2825 6200 2800 
Q 6025 2525 5975 2300 
Q 5375 2400 4950 2562 
Q 4525 2725 4275 2900 
Q 3950 2700 3550 2500 
Q 3150 2300 2525 2125 
Q 2450 2350 2250 2550 
Q 2775 2650 3212 2825 
Q 3650 3000 3875 3200 
Q 3550 3525 3325 3875 
Q 3000 3450 2825 3275 
Q 2650 3450 2450 3550 
Q 2775 3850 3075 4325 
Q 3375 4800 3575 5300 
Q 3950 5100 4075 5050 
z
M 2350 4975 
Q 2225 4650 2025 4062 
Q 1825 3475 1675 2975 
Q 2075 2450 2200 2175 
Q 2325 1900 2287 1550 
Q 2250 1200 2012 1012 
Q 1775 825 1350 775 
Q 1300 1025 1150 1325 
Q 1650 1300 1737 1512 
Q 1825 1725 1787 1962 
Q 1750 2200 1200 2925 
L 1450 3600 
Q 1600 4025 1725 4550 
L 975 4550 
L 975 -600 
L 500 -600 
Q 525 325 525 875 
L 525 3750 
Q 525 4325 500 4975 
L 2350 4975 
z
M 5100 2075 
Q 5275 2075 5725 2100 
L 5725 1650 
Q 5450 1675 5150 1675 
L 4575 1675 
L 4575 900 
L 5200 900 
Q 5675 900 6050 925 
L 6050 475 
Q 5700 500 5225 500 
L 4575 500 
L 4575 125 
Q 4575 -250 4600 -600 
L 4100 -600 
Q 4125 -225 4125 100 
L 4125 500 
L 2375 500 
Q 2500 1100 2500 1400 
L 3025 1325 
Q 2925 1025 2925 900 
L 4125 900 
L 4125 1675 
L 3475 1675 
Q 3100 1675 2775 1650 
L 2775 2100 
Q 3225 2075 3475 2075 
L 4125 2075 
Q 4125 2375 4100 2625 
L 4575 2625 
Q 4550 2225 4550 2075 
L 5100 2075 
z
M 4275 3475 
Q 4600 3725 4925 4250 
L 3550 4250 
Q 4025 3650 4275 3475 
z
" transform="scale(0.015625)"/>
      <path id="SimHei-70b9" d="M 3325 5200 
Q 3300 4925 3300 4375 
L 4900 4375 
Q 5275 4375 5725 4400 
L 5725 3925 
Q 5300 3950 4900 3950 
L 3300 3950 
L 3300 3225 
L 5225 3225 
Q 5200 2700 5200 2150 
Q 5200 1625 5225 1175 
L 1175 1175 
Q 1200 1625 1200 2175 
Q 1200 2725 1175 3225 
L 2775 3225 
L 2775 4500 
Q 2775 4900 2750 5200 
L 3325 5200 
z
M 4700 1600 
L 4700 2800 
L 1725 2800 
L 1725 1600 
L 4700 1600 
z
M 1500 750 
Q 1025 -250 825 -625 
Q 625 -475 325 -375 
Q 650 50 950 925 
Q 1200 800 1500 750 
z
M 5325 850 
Q 5775 150 6075 -350 
Q 5925 -425 5575 -625 
Q 5375 -150 4900 575 
Q 5150 700 5325 850 
z
M 3975 -575 
Q 3775 -100 3400 575 
Q 3575 675 3825 825 
Q 4350 -75 4450 -325 
Q 4200 -450 3975 -575 
z
M 2375 -575 
Q 2350 -300 1975 550 
Q 2200 625 2425 775 
Q 2800 -75 2900 -350 
Q 2625 -450 2375 -575 
z
" transform="scale(0.015625)"/>
     </defs>
     <use xlink:href="#SimHei-8d77"/>
     <use xlink:href="#SimHei-964d" x="100"/>
     <use xlink:href="#SimHei-70b9" x="200"/>
    </g>
   </g>
   <g id="PathCollection_1">
    <defs>
     <path id="meed63b32c5" d="M 0 5.477226 
C 1.452577 5.477226 2.845856 4.900111 3.872983 3.872983 
C 4.900111 2.845856 5.477226 1.452577 5.477226 0 
C 5.477226 -1.452577 4.900111 -2.845856 3.872983 -3.872983 
C 2.845856 -4.900111 1.452577 -5.477226 0 -5.477226 
C -1.452577 -5.477226 -2.845856 -4.900111 -3.872983 -3.872983 
C -4.900111 -2.845856 -5.477226 -1.452577 -5.477226 0 
C -5.477226 1.452577 -4.900111 2.845856 -3.872983 3.872983 
C -2.845856 4.900111 -1.452577 5.477226 0 5.477226 
z
" style="stroke: #0000ff"/>
    </defs>
    <g clip-path="url(#p736f0e970d)">
     <use xlink:href="#meed63b32c5" x="325.541225" y="284.746387" style="fill: #0000ff; stroke: #0000ff"/>
     <use xlink:href="#meed63b32c5" x="354.657484" y="208.984455" style="fill: #0000ff; stroke: #0000ff"/>
     <use xlink:href="#meed63b32c5" x="267.926623" y="209.347435" style="fill: #0000ff; stroke: #0000ff"/>
     <use xlink:href="#meed63b32c5" x="133.715003" y="191.117787" style="fill: #0000ff; stroke: #0000ff"/>
     <use xlink:href="#meed63b32c5" x="115.696536" y="268.936604" style="fill: #0000ff; stroke: #0000ff"/>
     <use xlink:href="#meed63b32c5" x="303.741105" y="289.263468" style="fill: #0000ff; stroke: #0000ff"/>
     <use xlink:href="#meed63b32c5" x="225.413918" y="237.720349" style="fill: #0000ff; stroke: #0000ff"/>
    </g>
   </g>
   <g id="PathCollection_2">
    <defs>
     <path id="m84d5f864ad" d="M -5.477226 5.477226 
L 5.477226 5.477226 
L 5.477226 -5.477226 
L -5.477226 -5.477226 
z
" style="stroke: #ff0000"/>
    </defs>
    <g clip-path="url(#p736f0e970d)">
     <use xlink:href="#m84d5f864ad" x="691.224636" y="337.559935" style="fill: #ff0000; stroke: #ff0000"/>
     <use xlink:href="#m84d5f864ad" x="724.913482" y="366.013511" style="fill: #ff0000; stroke: #ff0000"/>
     <use xlink:href="#m84d5f864ad" x="723.430481" y="388.336764" style="fill: #ff0000; stroke: #ff0000"/>
     <use xlink:href="#m84d5f864ad" x="718.833177" y="400.778902" style="fill: #ff0000; stroke: #ff0000"/>
     <use xlink:href="#m84d5f864ad" x="708.378018" y="341.633374" style="fill: #ff0000; stroke: #ff0000"/>
     <use xlink:href="#m84d5f864ad" x="729.26362" y="349.215617" style="fill: #ff0000; stroke: #ff0000"/>
    </g>
   </g>
   <g id="PathCollection_3">
    <defs>
     <path id="m41820fd7b2" d="M 0 -5.477226 
L -5.477226 5.477226 
L 5.477226 5.477226 
z
" style="stroke: #008000"/>
    </defs>
    <g clip-path="url(#p736f0e970d)">
     <use xlink:href="#m41820fd7b2" x="417.141273" y="395.656855" style="fill: #008000; stroke: #008000"/>
     <use xlink:href="#m41820fd7b2" x="381.573958" y="447.764609" style="fill: #008000; stroke: #008000"/>
     <use xlink:href="#m41820fd7b2" x="327.66686" y="503.361001" style="fill: #008000; stroke: #008000"/>
     <use xlink:href="#m41820fd7b2" x="364.494726" y="516.589595" style="fill: #008000; stroke: #008000"/>
     <use xlink:href="#m41820fd7b2" x="421.812727" y="521.167173" style="fill: #008000; stroke: #008000"/>
     <use xlink:href="#m41820fd7b2" x="477.721878" y="469.664385" style="fill: #008000; stroke: #008000"/>
     <use xlink:href="#m41820fd7b2" x="348.231145" y="403.682739" style="fill: #008000; stroke: #008000"/>
     <use xlink:href="#m41820fd7b2" x="333.722449" y="543.409763" style="fill: #008000; stroke: #008000"/>
     <use xlink:href="#m41820fd7b2" x="424.506847" y="603.765223" style="fill: #008000; stroke: #008000"/>
    </g>
   </g>
   <g id="PathCollection_4">
    <defs>
     <path id="m9b9fd0b24b" d="M -0 7.745967 
L 7.745967 0 
L 0 -7.745967 
L -7.745967 -0 
z
" style="stroke: #ffa500"/>
    </defs>
    <g clip-path="url(#p736f0e970d)">
     <use xlink:href="#m9b9fd0b24b" x="555.282847" y="166.334339" style="fill: #ffa500; stroke: #ffa500"/>
     <use xlink:href="#m9b9fd0b24b" x="532.148026" y="252.279868" style="fill: #ffa500; stroke: #ffa500"/>
     <use xlink:href="#m9b9fd0b24b" x="654.594503" y="272.909215" style="fill: #ffa500; stroke: #ffa500"/>
     <use xlink:href="#m9b9fd0b24b" x="508.271705" y="142.498671" style="fill: #ffa500; stroke: #ffa500"/>
     <use xlink:href="#m9b9fd0b24b" x="473.470607" y="359.822691" style="fill: #ffa500; stroke: #ffa500"/>
     <use xlink:href="#m9b9fd0b24b" x="553.824562" y="269.803722" style="fill: #ffa500; stroke: #ffa500"/>
    </g>
   </g>
   <g id="PathCollection_5">
    <defs>
     <path id="m53091938f4" d="M -1.825742 5.477226 
L 1.825742 5.477226 
L 1.825742 1.825742 
L 5.477226 1.825742 
L 5.477226 -1.825742 
L 1.825742 -1.825742 
L 1.825742 -5.477226 
L -1.825742 -5.477226 
L -1.825742 -1.825742 
L -5.477226 -1.825742 
L -5.477226 1.825742 
L -1.825742 1.825742 
z
" style="stroke: #800080"/>
    </defs>
    <g clip-path="url(#p736f0e970d)">
     <use xlink:href="#m53091938f4" x="369.709947" y="100.352693" style="fill: #800080; stroke: #800080"/>
     <use xlink:href="#m53091938f4" x="360.787223" y="112.048706" style="fill: #800080; stroke: #800080"/>
     <use xlink:href="#m53091938f4" x="278.727816" y="127.072033" style="fill: #800080; stroke: #800080"/>
     <use xlink:href="#m53091938f4" x="295.930631" y="140.260296" style="fill: #800080; stroke: #800080"/>
     <use xlink:href="#m53091938f4" x="250.18004" y="89.604461" style="fill: #800080; stroke: #800080"/>
     <use xlink:href="#m53091938f4" x="220.445864" y="111.342912" style="fill: #800080; stroke: #800080"/>
     <use xlink:href="#m53091938f4" x="229.343872" y="171.537048" style="fill: #800080; stroke: #800080"/>
     <use xlink:href="#m53091938f4" x="219.135879" y="62.905286" style="fill: #800080; stroke: #800080"/>
    </g>
   </g>
   <g id="PathCollection_6">
    <defs>
     <path id="m8b2874b386" d="M -2.738613 5.477226 
L 0 2.738613 
L 2.738613 5.477226 
L 5.477226 2.738613 
L 2.738613 0 
L 5.477226 -2.738613 
L 2.738613 -5.477226 
L 0 -2.738613 
L -2.738613 -5.477226 
L -5.477226 -2.738613 
L -2.738613 0 
L -5.477226 2.738613 
z
" style="stroke: #00ffff"/>
    </defs>
    <g clip-path="url(#p736f0e970d)">
     <use xlink:href="#m8b2874b386" x="707.83425" y="201.462709" style="fill: #00ffff; stroke: #00ffff"/>
     <use xlink:href="#m8b2874b386" x="709.292535" y="183.132233" style="fill: #00ffff; stroke: #00ffff"/>
     <use xlink:href="#m8b2874b386" x="669.721116" y="150.3229" style="fill: #00ffff; stroke: #00ffff"/>
     <use xlink:href="#m8b2874b386" x="765.918469" y="105.676396" style="fill: #00ffff; stroke: #00ffff"/>
     <use xlink:href="#m8b2874b386" x="692.01557" y="86.176319" style="fill: #00ffff; stroke: #00ffff"/>
     <use xlink:href="#m8b2874b386" x="600.810988" y="118.36052" style="fill: #00ffff; stroke: #00ffff"/>
     <use xlink:href="#m8b2874b386" x="618.433987" y="66.172104" style="fill: #00ffff; stroke: #00ffff"/>
     <use xlink:href="#m8b2874b386" x="744.612683" y="102.732227" style="fill: #00ffff; stroke: #00ffff"/>
    </g>
   </g>
   <g id="PathCollection_7">
    <defs>
     <path id="m70ed28b93a" d="M 0 -5.477226 
L -1.229714 -1.692556 
L -5.209151 -1.692556 
L -1.989719 0.646499 
L -3.219432 4.431169 
L -0 2.092114 
L 3.219432 4.431169 
L 1.989719 0.646499 
L 5.209151 -1.692556 
L 1.229714 -1.692556 
z
" style="stroke: #ff00ff"/>
    </defs>
    <g clip-path="url(#p736f0e970d)">
     <use xlink:href="#m70ed28b93a" x="214.019525" y="384.343987" style="fill: #ff00ff; stroke: #ff00ff"/>
     <use xlink:href="#m70ed28b93a" x="193.455239" y="465.994257" style="fill: #ff00ff; stroke: #ff00ff"/>
     <use xlink:href="#m70ed28b93a" x="126.324713" y="488.761151" style="fill: #ff00ff; stroke: #ff00ff"/>
     <use xlink:href="#m70ed28b93a" x="162.732395" y="569.82662" style="fill: #ff00ff; stroke: #ff00ff"/>
     <use xlink:href="#m70ed28b93a" x="230.480839" y="515.561153" style="fill: #ff00ff; stroke: #ff00ff"/>
     <use xlink:href="#m70ed28b93a" x="202.550981" y="619.958151" style="fill: #ff00ff; stroke: #ff00ff"/>
     <use xlink:href="#m70ed28b93a" x="244.865952" y="589.871166" style="fill: #ff00ff; stroke: #ff00ff"/>
    </g>
   </g>
   <g id="PathCollection_8">
    <defs>
     <path id="ma1f52b178d" d="M -0 5.477226 
L 5.477226 -5.477226 
L -5.477226 -5.477226 
z
" style="stroke: #a52a2a"/>
    </defs>
    <g clip-path="url(#p736f0e970d)">
     <use xlink:href="#ma1f52b178d" x="604.123024" y="447.280636" style="fill: #a52a2a; stroke: #a52a2a"/>
     <use xlink:href="#ma1f52b178d" x="562.178803" y="509.934967" style="fill: #a52a2a; stroke: #a52a2a"/>
     <use xlink:href="#ma1f52b178d" x="537.585698" y="595.618345" style="fill: #a52a2a; stroke: #a52a2a"/>
     <use xlink:href="#ma1f52b178d" x="632.942683" y="563.514806" style="fill: #a52a2a; stroke: #a52a2a"/>
     <use xlink:href="#ma1f52b178d" x="750.742422" y="571.197876" style="fill: #a52a2a; stroke: #a52a2a"/>
     <use xlink:href="#ma1f52b178d" x="782.849401" y="557.70713" style="fill: #a52a2a; stroke: #a52a2a"/>
     <use xlink:href="#ma1f52b178d" x="766.88242" y="578.739788" style="fill: #a52a2a; stroke: #a52a2a"/>
     <use xlink:href="#ma1f52b178d" x="542.875069" y="486.663935" style="fill: #a52a2a; stroke: #a52a2a"/>
     <use xlink:href="#ma1f52b178d" x="555.10983" y="526.349716" style="fill: #a52a2a; stroke: #a52a2a"/>
    </g>
   </g>
   <g id="PathCollection_9">
    <defs>
     <path id="m90fc344d41" d="M 0 -8.660254 
L -1.944348 -2.676166 
L -8.236391 -2.676166 
L -3.146021 1.022204 
L -5.09037 7.006293 
L -0 3.307923 
L 5.09037 7.006293 
L 3.146021 1.022204 
L 8.236391 -2.676166 
L 1.944348 -2.676166 
z
" style="stroke: #000000"/>
    </defs>
    <g clip-path="url(#p736f0e970d)">
     <use xlink:href="#m90fc344d41" x="437.903292" y="339.919303" style="stroke: #000000"/>
    </g>
   </g>
   <g id="text_18">
    <!-- 1 -->
    <g style="fill: #ffffff" transform="translate(323.541225 286.996387) scale(0.08 -0.08)">
     <use xlink:href="#SimHei-31"/>
    </g>
   </g>
   <g id="text_19">
    <!-- 2 -->
    <g style="fill: #ffffff" transform="translate(352.657484 211.234455) scale(0.08 -0.08)">
     <use xlink:href="#SimHei-32"/>
    </g>
   </g>
   <g id="text_20">
    <!-- 3 -->
    <g style="fill: #ffffff" transform="translate(265.926623 211.597435) scale(0.08 -0.08)">
     <use xlink:href="#SimHei-33"/>
    </g>
   </g>
   <g id="text_21">
    <!-- 4 -->
    <g style="fill: #ffffff" transform="translate(131.715003 193.367787) scale(0.08 -0.08)">
     <defs>
      <path id="SimHei-34" d="M 2000 1100 
L 75 1100 
L 75 1525 
L 2100 4450 
L 2475 4450 
L 2475 1525 
L 3075 1525 
L 3075 1100 
L 2475 1100 
L 2475 150 
L 2000 150 
L 2000 1100 
z
M 2000 1525 
L 2000 3500 
L 600 1525 
L 2000 1525 
z
" transform="scale(0.015625)"/>
     </defs>
     <use xlink:href="#SimHei-34"/>
    </g>
   </g>
   <g id="text_22">
    <!-- 5 -->
    <g style="fill: #ffffff" transform="translate(113.696536 271.186604) scale(0.08 -0.08)">
     <use xlink:href="#SimHei-35"/>
    </g>
   </g>
   <g id="text_23">
    <!-- 6 -->
    <g style="fill: #ffffff" transform="translate(301.741105 291.513468) scale(0.08 -0.08)">
     <defs>
      <path id="SimHei-36" d="M 250 1612 
Q 275 1975 387 2225 
Q 500 2475 725 2850 
L 1750 4450 
L 2325 4450 
L 1275 2800 
Q 1950 2975 2350 2750 
Q 2750 2525 2887 2237 
Q 3025 1950 3037 1612 
Q 3050 1275 2937 950 
Q 2825 625 2537 362 
Q 2250 100 1737 75 
Q 1225 50 862 262 
Q 500 475 362 862 
Q 225 1250 250 1612 
z
M 1025 787 
Q 1250 550 1625 525 
Q 2000 500 2250 775 
Q 2500 1050 2500 1575 
Q 2500 2100 2187 2300 
Q 1875 2500 1487 2450 
Q 1100 2400 925 2075 
Q 750 1750 775 1387 
Q 800 1025 1025 787 
z
" transform="scale(0.015625)"/>
     </defs>
     <use xlink:href="#SimHei-36"/>
    </g>
   </g>
   <g id="text_24">
    <!-- 7 -->
    <g style="fill: #ffffff" transform="translate(223.413918 239.970349) scale(0.08 -0.08)">
     <defs>
      <path id="SimHei-37" d="M 850 150 
Q 1300 2050 2425 3925 
L 275 3925 
L 275 4375 
L 2950 4375 
L 2950 3950 
Q 1775 2050 1400 150 
L 850 150 
z
" transform="scale(0.015625)"/>
     </defs>
     <use xlink:href="#SimHei-37"/>
    </g>
   </g>
   <g id="text_25">
    <!-- 1 -->
    <g style="fill: #ffffff" transform="translate(689.224636 339.809935) scale(0.08 -0.08)">
     <use xlink:href="#SimHei-31"/>
    </g>
   </g>
   <g id="text_26">
    <!-- 2 -->
    <g style="fill: #ffffff" transform="translate(722.913482 368.263511) scale(0.08 -0.08)">
     <use xlink:href="#SimHei-32"/>
    </g>
   </g>
   <g id="text_27">
    <!-- 3 -->
    <g style="fill: #ffffff" transform="translate(721.430481 390.586764) scale(0.08 -0.08)">
     <use xlink:href="#SimHei-33"/>
    </g>
   </g>
   <g id="text_28">
    <!-- 4 -->
    <g style="fill: #ffffff" transform="translate(716.833177 403.028902) scale(0.08 -0.08)">
     <use xlink:href="#SimHei-34"/>
    </g>
   </g>
   <g id="text_29">
    <!-- 5 -->
    <g style="fill: #ffffff" transform="translate(706.378018 343.883374) scale(0.08 -0.08)">
     <use xlink:href="#SimHei-35"/>
    </g>
   </g>
   <g id="text_30">
    <!-- 6 -->
    <g style="fill: #ffffff" transform="translate(727.26362 351.465617) scale(0.08 -0.08)">
     <use xlink:href="#SimHei-36"/>
    </g>
   </g>
   <g id="text_31">
    <!-- 1 -->
    <g style="fill: #ffffff" transform="translate(415.141273 397.906855) scale(0.08 -0.08)">
     <use xlink:href="#SimHei-31"/>
    </g>
   </g>
   <g id="text_32">
    <!-- 2 -->
    <g style="fill: #ffffff" transform="translate(379.573958 450.014609) scale(0.08 -0.08)">
     <use xlink:href="#SimHei-32"/>
    </g>
   </g>
   <g id="text_33">
    <!-- 3 -->
    <g style="fill: #ffffff" transform="translate(325.66686 505.611001) scale(0.08 -0.08)">
     <use xlink:href="#SimHei-33"/>
    </g>
   </g>
   <g id="text_34">
    <!-- 4 -->
    <g style="fill: #ffffff" transform="translate(362.494726 518.839595) scale(0.08 -0.08)">
     <use xlink:href="#SimHei-34"/>
    </g>
   </g>
   <g id="text_35">
    <!-- 5 -->
    <g style="fill: #ffffff" transform="translate(419.812727 523.417173) scale(0.08 -0.08)">
     <use xlink:href="#SimHei-35"/>
    </g>
   </g>
   <g id="text_36">
    <!-- 6 -->
    <g style="fill: #ffffff" transform="translate(475.721878 471.914385) scale(0.08 -0.08)">
     <use xlink:href="#SimHei-36"/>
    </g>
   </g>
   <g id="text_37">
    <!-- 7 -->
    <g style="fill: #ffffff" transform="translate(346.231145 405.932739) scale(0.08 -0.08)">
     <use xlink:href="#SimHei-37"/>
    </g>
   </g>
   <g id="text_38">
    <!-- 8 -->
    <g style="fill: #ffffff" transform="translate(331.722449 545.659763) scale(0.08 -0.08)">
     <defs>
      <path id="SimHei-38" d="M 175 1375 
Q 175 1675 325 1962 
Q 475 2250 825 2425 
Q 525 2600 425 2812 
Q 325 3025 312 3300 
Q 300 3575 387 3775 
Q 475 3975 650 4150 
Q 825 4325 1037 4387 
Q 1250 4450 1500 4450 
Q 1750 4450 1950 4400 
Q 2150 4350 2375 4187 
Q 2600 4025 2700 3725 
Q 2800 3425 2687 3025 
Q 2575 2625 2100 2400 
Q 2525 2275 2700 2012 
Q 2875 1750 2875 1375 
Q 2875 1000 2762 775 
Q 2650 550 2512 400 
Q 2375 250 2137 162 
Q 1900 75 1537 75 
Q 1175 75 912 162 
Q 650 250 475 425 
Q 300 600 237 837 
Q 175 1075 175 1375 
z
M 687 1400 
Q 675 1100 787 875 
Q 900 650 1200 587 
Q 1500 525 1825 600 
Q 2150 675 2275 950 
Q 2400 1225 2362 1500 
Q 2325 1775 2050 1962 
Q 1775 2150 1450 2125 
Q 1125 2100 912 1900 
Q 700 1700 687 1400 
z
M 775 3350 
Q 775 3100 950 2875 
Q 1125 2650 1500 2650 
Q 1875 2650 2062 2875 
Q 2250 3100 2237 3412 
Q 2225 3725 2012 3875 
Q 1800 4025 1437 4000 
Q 1075 3975 925 3787 
Q 775 3600 775 3350 
z
" transform="scale(0.015625)"/>
     </defs>
     <use xlink:href="#SimHei-38"/>
    </g>
   </g>
   <g id="text_39">
    <!-- 9 -->
    <g style="fill: #ffffff" transform="translate(422.506847 606.015223) scale(0.08 -0.08)">
     <defs>
      <path id="SimHei-39" d="M 800 75 
Q 1350 1000 1700 1750 
Q 1075 1650 662 1912 
Q 250 2175 162 2625 
Q 75 3075 175 3437 
Q 275 3800 487 4037 
Q 700 4275 1000 4375 
Q 1300 4475 1537 4475 
Q 1775 4475 2025 4375 
Q 2275 4275 2475 4075 
Q 2675 3875 2750 3662 
Q 2825 3450 2825 3112 
Q 2825 2775 2575 2250 
Q 2325 1725 1350 75 
L 800 75 
z
M 662 2875 
Q 700 2550 937 2337 
Q 1175 2125 1450 2150 
Q 1725 2175 1887 2300 
Q 2050 2425 2200 2725 
Q 2300 3100 2250 3362 
Q 2200 3625 1987 3800 
Q 1775 3975 1525 3975 
Q 1375 4000 1137 3900 
Q 900 3800 762 3500 
Q 625 3200 662 2875 
z
" transform="scale(0.015625)"/>
     </defs>
     <use xlink:href="#SimHei-39"/>
    </g>
   </g>
   <g id="text_40">
    <!-- 1 -->
    <g style="fill: #ffffff" transform="translate(553.282847 168.584339) scale(0.08 -0.08)">
     <use xlink:href="#SimHei-31"/>
    </g>
   </g>
   <g id="text_41">
    <!-- 2 -->
    <g style="fill: #ffffff" transform="translate(530.148026 254.529868) scale(0.08 -0.08)">
     <use xlink:href="#SimHei-32"/>
    </g>
   </g>
   <g id="text_42">
    <!-- 3 -->
    <g style="fill: #ffffff" transform="translate(652.594503 275.159215) scale(0.08 -0.08)">
     <use xlink:href="#SimHei-33"/>
    </g>
   </g>
   <g id="text_43">
    <!-- 4 -->
    <g style="fill: #ffffff" transform="translate(506.271705 144.748671) scale(0.08 -0.08)">
     <use xlink:href="#SimHei-34"/>
    </g>
   </g>
   <g id="text_44">
    <!-- 5 -->
    <g style="fill: #ffffff" transform="translate(471.470607 362.072691) scale(0.08 -0.08)">
     <use xlink:href="#SimHei-35"/>
    </g>
   </g>
   <g id="text_45">
    <!-- 6 -->
    <g style="fill: #ffffff" transform="translate(551.824562 272.053722) scale(0.08 -0.08)">
     <use xlink:href="#SimHei-36"/>
    </g>
   </g>
   <g id="text_46">
    <!-- 1 -->
    <g style="fill: #ffffff" transform="translate(367.709947 102.602693) scale(0.08 -0.08)">
     <use xlink:href="#SimHei-31"/>
    </g>
   </g>
   <g id="text_47">
    <!-- 2 -->
    <g style="fill: #ffffff" transform="translate(358.787223 114.298706) scale(0.08 -0.08)">
     <use xlink:href="#SimHei-32"/>
    </g>
   </g>
   <g id="text_48">
    <!-- 3 -->
    <g style="fill: #ffffff" transform="translate(276.727816 129.322033) scale(0.08 -0.08)">
     <use xlink:href="#SimHei-33"/>
    </g>
   </g>
   <g id="text_49">
    <!-- 4 -->
    <g style="fill: #ffffff" transform="translate(293.930631 142.510296) scale(0.08 -0.08)">
     <use xlink:href="#SimHei-34"/>
    </g>
   </g>
   <g id="text_50">
    <!-- 5 -->
    <g style="fill: #ffffff" transform="translate(248.18004 91.854461) scale(0.08 -0.08)">
     <use xlink:href="#SimHei-35"/>
    </g>
   </g>
   <g id="text_51">
    <!-- 6 -->
    <g style="fill: #ffffff" transform="translate(218.445864 113.592912) scale(0.08 -0.08)">
     <use xlink:href="#SimHei-36"/>
    </g>
   </g>
   <g id="text_52">
    <!-- 7 -->
    <g style="fill: #ffffff" transform="translate(227.343872 173.787048) scale(0.08 -0.08)">
     <use xlink:href="#SimHei-37"/>
    </g>
   </g>
   <g id="text_53">
    <!-- 8 -->
    <g style="fill: #ffffff" transform="translate(217.135879 65.155286) scale(0.08 -0.08)">
     <use xlink:href="#SimHei-38"/>
    </g>
   </g>
   <g id="text_54">
    <!-- 1 -->
    <g style="fill: #ffffff" transform="translate(705.83425 203.712709) scale(0.08 -0.08)">
     <use xlink:href="#SimHei-31"/>
    </g>
   </g>
   <g id="text_55">
    <!-- 2 -->
    <g style="fill: #ffffff" transform="translate(707.292535 185.382233) scale(0.08 -0.08)">
     <use xlink:href="#SimHei-32"/>
    </g>
   </g>
   <g id="text_56">
    <!-- 3 -->
    <g style="fill: #ffffff" transform="translate(667.721116 152.5729) scale(0.08 -0.08)">
     <use xlink:href="#SimHei-33"/>
    </g>
   </g>
   <g id="text_57">
    <!-- 4 -->
    <g style="fill: #ffffff" transform="translate(763.918469 107.926396) scale(0.08 -0.08)">
     <use xlink:href="#SimHei-34"/>
    </g>
   </g>
   <g id="text_58">
    <!-- 5 -->
    <g style="fill: #ffffff" transform="translate(690.01557 88.426319) scale(0.08 -0.08)">
     <use xlink:href="#SimHei-35"/>
    </g>
   </g>
   <g id="text_59">
    <!-- 6 -->
    <g style="fill: #ffffff" transform="translate(598.810988 120.61052) scale(0.08 -0.08)">
     <use xlink:href="#SimHei-36"/>
    </g>
   </g>
   <g id="text_60">
    <!-- 7 -->
    <g style="fill: #ffffff" transform="translate(616.433987 68.422104) scale(0.08 -0.08)">
     <use xlink:href="#SimHei-37"/>
    </g>
   </g>
   <g id="text_61">
    <!-- 8 -->
    <g style="fill: #ffffff" transform="translate(742.612683 104.982227) scale(0.08 -0.08)">
     <use xlink:href="#SimHei-38"/>
    </g>
   </g>
   <g id="text_62">
    <!-- 1 -->
    <g style="fill: #ffffff" transform="translate(212.019525 386.593987) scale(0.08 -0.08)">
     <use xlink:href="#SimHei-31"/>
    </g>
   </g>
   <g id="text_63">
    <!-- 2 -->
    <g style="fill: #ffffff" transform="translate(191.455239 468.244257) scale(0.08 -0.08)">
     <use xlink:href="#SimHei-32"/>
    </g>
   </g>
   <g id="text_64">
    <!-- 3 -->
    <g style="fill: #ffffff" transform="translate(124.324713 491.011151) scale(0.08 -0.08)">
     <use xlink:href="#SimHei-33"/>
    </g>
   </g>
   <g id="text_65">
    <!-- 4 -->
    <g style="fill: #ffffff" transform="translate(160.732395 572.07662) scale(0.08 -0.08)">
     <use xlink:href="#SimHei-34"/>
    </g>
   </g>
   <g id="text_66">
    <!-- 5 -->
    <g style="fill: #ffffff" transform="translate(228.480839 517.811153) scale(0.08 -0.08)">
     <use xlink:href="#SimHei-35"/>
    </g>
   </g>
   <g id="text_67">
    <!-- 6 -->
    <g style="fill: #ffffff" transform="translate(200.550981 622.208151) scale(0.08 -0.08)">
     <use xlink:href="#SimHei-36"/>
    </g>
   </g>
   <g id="text_68">
    <!-- 7 -->
    <g style="fill: #ffffff" transform="translate(242.865952 592.121166) scale(0.08 -0.08)">
     <use xlink:href="#SimHei-37"/>
    </g>
   </g>
   <g id="text_69">
    <!-- 1 -->
    <g style="fill: #ffffff" transform="translate(602.123024 449.530636) scale(0.08 -0.08)">
     <use xlink:href="#SimHei-31"/>
    </g>
   </g>
   <g id="text_70">
    <!-- 2 -->
    <g style="fill: #ffffff" transform="translate(560.178803 512.184967) scale(0.08 -0.08)">
     <use xlink:href="#SimHei-32"/>
    </g>
   </g>
   <g id="text_71">
    <!-- 3 -->
    <g style="fill: #ffffff" transform="translate(535.585698 597.868345) scale(0.08 -0.08)">
     <use xlink:href="#SimHei-33"/>
    </g>
   </g>
   <g id="text_72">
    <!-- 4 -->
    <g style="fill: #ffffff" transform="translate(630.942683 565.764806) scale(0.08 -0.08)">
     <use xlink:href="#SimHei-34"/>
    </g>
   </g>
   <g id="text_73">
    <!-- 5 -->
    <g style="fill: #ffffff" transform="translate(748.742422 573.447876) scale(0.08 -0.08)">
     <use xlink:href="#SimHei-35"/>
    </g>
   </g>
   <g id="text_74">
    <!-- 6 -->
    <g style="fill: #ffffff" transform="translate(780.849401 559.95713) scale(0.08 -0.08)">
     <use xlink:href="#SimHei-36"/>
    </g>
   </g>
   <g id="text_75">
    <!-- 7 -->
    <g style="fill: #ffffff" transform="translate(764.88242 580.989788) scale(0.08 -0.08)">
     <use xlink:href="#SimHei-37"/>
    </g>
   </g>
   <g id="text_76">
    <!-- 8 -->
    <g style="fill: #ffffff" transform="translate(540.875069 488.913935) scale(0.08 -0.08)">
     <use xlink:href="#SimHei-38"/>
    </g>
   </g>
   <g id="text_77">
    <!-- 9 -->
    <g style="fill: #ffffff" transform="translate(553.10983 528.599716) scale(0.08 -0.08)">
     <use xlink:href="#SimHei-39"/>
    </g>
   </g>
  </g>
 </g>
 <defs>
  <clipPath id="p736f0e970d">
   <rect x="48.98125" y="7.2" width="800.583437" height="668.463438"/>
  </clipPath>
 </defs>
</svg>
