<?xml version="1.0" encoding="utf-8" standalone="no"?>
<!DOCTYPE svg PUBLIC "-//W3C//DTD SVG 1.1//EN"
  "http://www.w3.org/Graphics/SVG/1.1/DTD/svg11.dtd">
<svg xmlns:xlink="http://www.w3.org/1999/xlink" width="847.398936pt" height="712.769687pt" viewBox="0 0 847.398936 712.769687" xmlns="http://www.w3.org/2000/svg" version="1.1">
 <metadata>
  <rdf:RDF xmlns:dc="http://purl.org/dc/elements/1.1/" xmlns:cc="http://creativecommons.org/ns#" xmlns:rdf="http://www.w3.org/1999/02/22-rdf-syntax-ns#">
   <cc:Work>
    <dc:type rdf:resource="http://purl.org/dc/dcmitype/StillImage"/>
    <dc:date>2025-05-09T18:41:24.333885</dc:date>
    <dc:format>image/svg+xml</dc:format>
    <dc:creator>
     <cc:Agent>
      <dc:title>Matplotlib v3.9.4, https://matplotlib.org/</dc:title>
     </cc:Agent>
    </dc:creator>
   </cc:Work>
  </rdf:RDF>
 </metadata>
 <defs>
  <style type="text/css">*{stroke-linejoin: round; stroke-linecap: butt}</style>
 </defs>
 <g id="figure_1">
  <g id="patch_1">
   <path d="M 0 712.769687 
L 847.398936 712.769687 
L 847.398936 0 
L 0 0 
z
" style="fill: #ffffff"/>
  </g>
  <g id="axes_1">
   <g id="patch_2">
    <path d="M 48.98125 675.663437 
L 840.198936 675.663437 
L 840.198936 7.2 
L 48.98125 7.2 
z
" style="fill: #ffffff"/>
   </g>
   <g id="matplotlib.axis_1">
    <g id="xtick_1">
     <g id="line2d_1">
      <path d="M 97.792342 675.663437 
L 97.792342 7.2 
" clip-path="url(#p9e843b12ee)" style="fill: none; stroke-dasharray: 2.96,1.28; stroke-dashoffset: 0; stroke: #b0b0b0; stroke-opacity: 0.7; stroke-width: 0.8"/>
     </g>
     <g id="line2d_2">
      <defs>
       <path id="ma6853465ff" d="M 0 0 
L 0 3.5 
" style="stroke: #000000; stroke-width: 0.8"/>
      </defs>
      <g>
       <use xlink:href="#ma6853465ff" x="97.792342" y="675.663437" style="stroke: #000000; stroke-width: 0.8"/>
      </g>
     </g>
     <g id="text_1">
      <!-- 0 -->
      <g transform="translate(95.292342 689.538437) scale(0.1 -0.1)">
       <defs>
        <path id="SimHei-30" d="M 225 2537 
Q 250 3200 412 3587 
Q 575 3975 875 4225 
Q 1175 4475 1612 4475 
Q 2050 4475 2375 4112 
Q 2700 3750 2800 3200 
Q 2900 2650 2862 1937 
Q 2825 1225 2612 775 
Q 2400 325 1975 150 
Q 1550 -25 1125 187 
Q 700 400 525 750 
Q 350 1100 275 1487 
Q 200 1875 225 2537 
z
M 750 2687 
Q 675 2000 800 1462 
Q 925 925 1212 700 
Q 1500 475 1800 612 
Q 2100 750 2237 1162 
Q 2375 1575 2375 2062 
Q 2375 2550 2337 2950 
Q 2300 3350 2112 3675 
Q 1925 4000 1612 4012 
Q 1300 4025 1062 3700 
Q 825 3375 750 2687 
z
" transform="scale(0.015625)"/>
       </defs>
       <use xlink:href="#SimHei-30"/>
      </g>
     </g>
    </g>
    <g id="xtick_2">
     <g id="line2d_3">
      <path d="M 239.544948 675.663437 
L 239.544948 7.2 
" clip-path="url(#p9e843b12ee)" style="fill: none; stroke-dasharray: 2.96,1.28; stroke-dashoffset: 0; stroke: #b0b0b0; stroke-opacity: 0.7; stroke-width: 0.8"/>
     </g>
     <g id="line2d_4">
      <g>
       <use xlink:href="#ma6853465ff" x="239.544948" y="675.663437" style="stroke: #000000; stroke-width: 0.8"/>
      </g>
     </g>
     <g id="text_2">
      <!-- 500 -->
      <g transform="translate(232.044948 689.538437) scale(0.1 -0.1)">
       <defs>
        <path id="SimHei-35" d="M 550 1325 
Q 725 650 1150 575 
Q 1575 500 1837 662 
Q 2100 825 2212 1087 
Q 2325 1350 2312 1675 
Q 2300 2000 2137 2225 
Q 1975 2450 1725 2525 
Q 1475 2600 1162 2525 
Q 850 2450 650 2175 
L 225 2225 
Q 275 2375 700 4375 
L 2675 4375 
L 2675 3925 
L 1075 3925 
Q 950 3250 825 2850 
Q 1200 3025 1525 3012 
Q 1850 3000 2150 2862 
Q 2450 2725 2587 2487 
Q 2725 2250 2787 2012 
Q 2850 1775 2837 1500 
Q 2825 1225 2725 937 
Q 2625 650 2425 462 
Q 2225 275 1937 162 
Q 1650 50 1275 75 
Q 900 100 562 350 
Q 225 600 100 1200 
L 550 1325 
z
" transform="scale(0.015625)"/>
       </defs>
       <use xlink:href="#SimHei-35"/>
       <use xlink:href="#SimHei-30" x="50"/>
       <use xlink:href="#SimHei-30" x="100"/>
      </g>
     </g>
    </g>
    <g id="xtick_3">
     <g id="line2d_5">
      <path d="M 381.297554 675.663437 
L 381.297554 7.2 
" clip-path="url(#p9e843b12ee)" style="fill: none; stroke-dasharray: 2.96,1.28; stroke-dashoffset: 0; stroke: #b0b0b0; stroke-opacity: 0.7; stroke-width: 0.8"/>
     </g>
     <g id="line2d_6">
      <g>
       <use xlink:href="#ma6853465ff" x="381.297554" y="675.663437" style="stroke: #000000; stroke-width: 0.8"/>
      </g>
     </g>
     <g id="text_3">
      <!-- 1000 -->
      <g transform="translate(371.297554 689.538437) scale(0.1 -0.1)">
       <defs>
        <path id="SimHei-31" d="M 1400 3600 
Q 1075 3275 575 2975 
L 575 3450 
Q 1200 3875 1600 4450 
L 1900 4450 
L 1900 150 
L 1400 150 
L 1400 3600 
z
" transform="scale(0.015625)"/>
       </defs>
       <use xlink:href="#SimHei-31"/>
       <use xlink:href="#SimHei-30" x="50"/>
       <use xlink:href="#SimHei-30" x="100"/>
       <use xlink:href="#SimHei-30" x="150"/>
      </g>
     </g>
    </g>
    <g id="xtick_4">
     <g id="line2d_7">
      <path d="M 523.05016 675.663437 
L 523.05016 7.2 
" clip-path="url(#p9e843b12ee)" style="fill: none; stroke-dasharray: 2.96,1.28; stroke-dashoffset: 0; stroke: #b0b0b0; stroke-opacity: 0.7; stroke-width: 0.8"/>
     </g>
     <g id="line2d_8">
      <g>
       <use xlink:href="#ma6853465ff" x="523.05016" y="675.663437" style="stroke: #000000; stroke-width: 0.8"/>
      </g>
     </g>
     <g id="text_4">
      <!-- 1500 -->
      <g transform="translate(513.05016 689.538437) scale(0.1 -0.1)">
       <use xlink:href="#SimHei-31"/>
       <use xlink:href="#SimHei-35" x="50"/>
       <use xlink:href="#SimHei-30" x="100"/>
       <use xlink:href="#SimHei-30" x="150"/>
      </g>
     </g>
    </g>
    <g id="xtick_5">
     <g id="line2d_9">
      <path d="M 664.802766 675.663437 
L 664.802766 7.2 
" clip-path="url(#p9e843b12ee)" style="fill: none; stroke-dasharray: 2.96,1.28; stroke-dashoffset: 0; stroke: #b0b0b0; stroke-opacity: 0.7; stroke-width: 0.8"/>
     </g>
     <g id="line2d_10">
      <g>
       <use xlink:href="#ma6853465ff" x="664.802766" y="675.663437" style="stroke: #000000; stroke-width: 0.8"/>
      </g>
     </g>
     <g id="text_5">
      <!-- 2000 -->
      <g transform="translate(654.802766 689.538437) scale(0.1 -0.1)">
       <defs>
        <path id="SimHei-32" d="M 300 250 
Q 325 625 650 925 
Q 975 1225 1475 1862 
Q 1975 2500 2125 2850 
Q 2275 3200 2237 3450 
Q 2200 3700 2000 3862 
Q 1800 4025 1537 4000 
Q 1275 3975 1037 3800 
Q 800 3625 675 3275 
L 200 3350 
Q 400 3925 712 4187 
Q 1025 4450 1450 4475 
Q 1700 4500 1900 4462 
Q 2100 4425 2312 4287 
Q 2525 4150 2662 3875 
Q 2800 3600 2762 3212 
Q 2725 2825 2375 2287 
Q 2025 1750 1025 600 
L 2825 600 
L 2825 150 
L 300 150 
L 300 250 
z
" transform="scale(0.015625)"/>
       </defs>
       <use xlink:href="#SimHei-32"/>
       <use xlink:href="#SimHei-30" x="50"/>
       <use xlink:href="#SimHei-30" x="100"/>
       <use xlink:href="#SimHei-30" x="150"/>
      </g>
     </g>
    </g>
    <g id="xtick_6">
     <g id="line2d_11">
      <path d="M 806.555372 675.663437 
L 806.555372 7.2 
" clip-path="url(#p9e843b12ee)" style="fill: none; stroke-dasharray: 2.96,1.28; stroke-dashoffset: 0; stroke: #b0b0b0; stroke-opacity: 0.7; stroke-width: 0.8"/>
     </g>
     <g id="line2d_12">
      <g>
       <use xlink:href="#ma6853465ff" x="806.555372" y="675.663437" style="stroke: #000000; stroke-width: 0.8"/>
      </g>
     </g>
     <g id="text_6">
      <!-- 2500 -->
      <g transform="translate(796.555372 689.538437) scale(0.1 -0.1)">
       <use xlink:href="#SimHei-32"/>
       <use xlink:href="#SimHei-35" x="50"/>
       <use xlink:href="#SimHei-30" x="100"/>
       <use xlink:href="#SimHei-30" x="150"/>
      </g>
     </g>
    </g>
    <g id="text_7">
     <!-- X坐标 -->
     <g transform="translate(429.590093 704.069687) scale(0.12 -0.12)">
      <defs>
       <path id="SimHei-58" d="M 3000 125 
L 2400 125 
L 1550 1875 
L 700 125 
L 100 125 
L 1275 2375 
L 225 4400 
L 825 4400 
L 1550 2850 
L 2275 4400 
L 2875 4400 
L 1825 2375 
L 3000 125 
z
" transform="scale(0.015625)"/>
       <path id="SimHei-5750" d="M 3450 5100 
Q 3425 4675 3425 4150 
L 3425 1500 
L 4550 1500 
Q 4975 1500 5450 1525 
L 5450 1075 
Q 5000 1100 4500 1100 
L 3425 1100 
L 3425 50 
L 5075 50 
Q 5500 50 5975 75 
L 5975 -375 
Q 5525 -350 5075 -350 
L 1475 -350 
Q 925 -350 400 -375 
L 400 75 
Q 925 50 1475 50 
L 2925 50 
L 2925 1100 
L 2050 1100 
Q 1450 1100 950 1075 
L 950 1525 
Q 1450 1500 2050 1500 
L 2925 1500 
L 2925 4150 
Q 2925 4675 2900 5100 
L 3450 5100 
z
M 5200 4450 
Q 5050 4250 4825 3600 
Q 5200 3300 5975 2500 
Q 5775 2400 5575 2150 
Q 5075 2800 4650 3150 
Q 4375 2500 3975 1925 
Q 3725 2125 3525 2200 
Q 3875 2575 4212 3362 
Q 4550 4150 4600 4650 
Q 4900 4525 5200 4450 
z
M 350 2150 
Q 600 2375 950 3087 
Q 1300 3800 1450 4575 
Q 1625 4475 2050 4400 
Q 1950 4275 1862 4050 
Q 1775 3825 1700 3575 
Q 2400 2950 2700 2475 
Q 2425 2325 2250 2150 
Q 2025 2550 1887 2725 
Q 1750 2900 1500 3125 
Q 1250 2525 800 1875 
Q 575 2050 350 2150 
z
" transform="scale(0.015625)"/>
       <path id="SimHei-6807" d="M 1275 4400 
Q 1275 4800 1250 5175 
L 1750 5175 
Q 1725 4825 1725 4400 
L 1725 3800 
Q 2125 3800 2575 3825 
L 2575 3350 
Q 2125 3375 1725 3375 
L 1725 2525 
Q 1900 2650 2075 2800 
Q 2400 2275 2650 1775 
Q 2375 1650 2175 1500 
Q 2025 2000 1725 2425 
L 1725 475 
Q 1725 -50 1750 -575 
L 1250 -575 
Q 1275 -25 1275 475 
L 1275 2100 
Q 1025 1400 500 750 
Q 350 950 125 1125 
Q 550 1550 812 2187 
Q 1075 2825 1150 3375 
Q 675 3375 325 3325 
L 325 3825 
Q 800 3800 1275 3800 
L 1275 4400 
z
M 5175 3125 
Q 5675 3125 6050 3150 
L 6050 2675 
Q 5675 2700 5275 2700 
L 4500 2700 
L 4500 175 
Q 4500 -225 4275 -350 
Q 4050 -475 3475 -550 
Q 3425 -250 3275 25 
Q 3775 25 3900 62 
Q 4025 100 4025 350 
L 4025 2700 
L 3400 2700 
Q 2775 2700 2500 2650 
L 2500 3150 
Q 2825 3125 3400 3125 
L 5175 3125 
z
M 4900 4775 
Q 5425 4775 5750 4800 
L 5750 4300 
Q 5275 4350 4750 4350 
L 3525 4350 
Q 3125 4350 2750 4300 
L 2750 4800 
Q 3100 4775 3525 4775 
L 4900 4775 
z
M 5275 2025 
Q 5825 1175 6200 500 
Q 5925 375 5650 200 
Q 5375 925 4825 1725 
Q 5075 1850 5275 2025 
z
M 3600 1775 
Q 3500 1625 3225 975 
Q 2950 325 2800 50 
Q 2575 175 2300 275 
Q 2625 775 2787 1187 
Q 2950 1600 3050 2000 
Q 3325 1875 3600 1775 
z
" transform="scale(0.015625)"/>
      </defs>
      <use xlink:href="#SimHei-58"/>
      <use xlink:href="#SimHei-5750" x="50"/>
      <use xlink:href="#SimHei-6807" x="150"/>
     </g>
    </g>
   </g>
   <g id="matplotlib.axis_2">
    <g id="ytick_1">
     <g id="line2d_13">
      <path d="M 48.98125 670.8953 
L 840.198936 670.8953 
" clip-path="url(#p9e843b12ee)" style="fill: none; stroke-dasharray: 2.96,1.28; stroke-dashoffset: 0; stroke: #b0b0b0; stroke-opacity: 0.7; stroke-width: 0.8"/>
     </g>
     <g id="line2d_14">
      <defs>
       <path id="m74e21bbd4c" d="M 0 0 
L -3.5 0 
" style="stroke: #000000; stroke-width: 0.8"/>
      </defs>
      <g>
       <use xlink:href="#m74e21bbd4c" x="48.98125" y="670.8953" style="stroke: #000000; stroke-width: 0.8"/>
      </g>
     </g>
     <g id="text_8">
      <!-- 0 -->
      <g transform="translate(36.98125 674.3328) scale(0.1 -0.1)">
       <use xlink:href="#SimHei-30"/>
      </g>
     </g>
    </g>
    <g id="ytick_2">
     <g id="line2d_15">
      <path d="M 48.98125 539.613988 
L 840.198936 539.613988 
" clip-path="url(#p9e843b12ee)" style="fill: none; stroke-dasharray: 2.96,1.28; stroke-dashoffset: 0; stroke: #b0b0b0; stroke-opacity: 0.7; stroke-width: 0.8"/>
     </g>
     <g id="line2d_16">
      <g>
       <use xlink:href="#m74e21bbd4c" x="48.98125" y="539.613988" style="stroke: #000000; stroke-width: 0.8"/>
      </g>
     </g>
     <g id="text_9">
      <!-- 500 -->
      <g transform="translate(26.98125 543.051488) scale(0.1 -0.1)">
       <use xlink:href="#SimHei-35"/>
       <use xlink:href="#SimHei-30" x="50"/>
       <use xlink:href="#SimHei-30" x="100"/>
      </g>
     </g>
    </g>
    <g id="ytick_3">
     <g id="line2d_17">
      <path d="M 48.98125 408.332676 
L 840.198936 408.332676 
" clip-path="url(#p9e843b12ee)" style="fill: none; stroke-dasharray: 2.96,1.28; stroke-dashoffset: 0; stroke: #b0b0b0; stroke-opacity: 0.7; stroke-width: 0.8"/>
     </g>
     <g id="line2d_18">
      <g>
       <use xlink:href="#m74e21bbd4c" x="48.98125" y="408.332676" style="stroke: #000000; stroke-width: 0.8"/>
      </g>
     </g>
     <g id="text_10">
      <!-- 1000 -->
      <g transform="translate(21.98125 411.770176) scale(0.1 -0.1)">
       <use xlink:href="#SimHei-31"/>
       <use xlink:href="#SimHei-30" x="50"/>
       <use xlink:href="#SimHei-30" x="100"/>
       <use xlink:href="#SimHei-30" x="150"/>
      </g>
     </g>
    </g>
    <g id="ytick_4">
     <g id="line2d_19">
      <path d="M 48.98125 277.051363 
L 840.198936 277.051363 
" clip-path="url(#p9e843b12ee)" style="fill: none; stroke-dasharray: 2.96,1.28; stroke-dashoffset: 0; stroke: #b0b0b0; stroke-opacity: 0.7; stroke-width: 0.8"/>
     </g>
     <g id="line2d_20">
      <g>
       <use xlink:href="#m74e21bbd4c" x="48.98125" y="277.051363" style="stroke: #000000; stroke-width: 0.8"/>
      </g>
     </g>
     <g id="text_11">
      <!-- 1500 -->
      <g transform="translate(21.98125 280.488863) scale(0.1 -0.1)">
       <use xlink:href="#SimHei-31"/>
       <use xlink:href="#SimHei-35" x="50"/>
       <use xlink:href="#SimHei-30" x="100"/>
       <use xlink:href="#SimHei-30" x="150"/>
      </g>
     </g>
    </g>
    <g id="ytick_5">
     <g id="line2d_21">
      <path d="M 48.98125 145.770051 
L 840.198936 145.770051 
" clip-path="url(#p9e843b12ee)" style="fill: none; stroke-dasharray: 2.96,1.28; stroke-dashoffset: 0; stroke: #b0b0b0; stroke-opacity: 0.7; stroke-width: 0.8"/>
     </g>
     <g id="line2d_22">
      <g>
       <use xlink:href="#m74e21bbd4c" x="48.98125" y="145.770051" style="stroke: #000000; stroke-width: 0.8"/>
      </g>
     </g>
     <g id="text_12">
      <!-- 2000 -->
      <g transform="translate(21.98125 149.207551) scale(0.1 -0.1)">
       <use xlink:href="#SimHei-32"/>
       <use xlink:href="#SimHei-30" x="50"/>
       <use xlink:href="#SimHei-30" x="100"/>
       <use xlink:href="#SimHei-30" x="150"/>
      </g>
     </g>
    </g>
    <g id="ytick_6">
     <g id="line2d_23">
      <path d="M 48.98125 14.488738 
L 840.198936 14.488738 
" clip-path="url(#p9e843b12ee)" style="fill: none; stroke-dasharray: 2.96,1.28; stroke-dashoffset: 0; stroke: #b0b0b0; stroke-opacity: 0.7; stroke-width: 0.8"/>
     </g>
     <g id="line2d_24">
      <g>
       <use xlink:href="#m74e21bbd4c" x="48.98125" y="14.488738" style="stroke: #000000; stroke-width: 0.8"/>
      </g>
     </g>
     <g id="text_13">
      <!-- 2500 -->
      <g transform="translate(21.98125 17.926238) scale(0.1 -0.1)">
       <use xlink:href="#SimHei-32"/>
       <use xlink:href="#SimHei-35" x="50"/>
       <use xlink:href="#SimHei-30" x="100"/>
       <use xlink:href="#SimHei-30" x="150"/>
      </g>
     </g>
    </g>
    <g id="text_14">
     <!-- Y坐标 -->
     <g transform="translate(16.48125 356.431719) rotate(-90) scale(0.12 -0.12)">
      <defs>
       <path id="SimHei-59" d="M 3025 4400 
L 1850 2050 
L 1850 125 
L 1275 125 
L 1275 2050 
L 100 4400 
L 675 4400 
L 1550 2575 
L 1575 2575 
L 2450 4400 
L 3025 4400 
z
" transform="scale(0.015625)"/>
      </defs>
      <use xlink:href="#SimHei-59"/>
      <use xlink:href="#SimHei-5750" x="50"/>
      <use xlink:href="#SimHei-6807" x="150"/>
     </g>
    </g>
   </g>
   <g id="patch_3">
    <path d="M 48.98125 675.663437 
L 48.98125 7.2 
" style="fill: none; stroke: #000000; stroke-width: 0.8; stroke-linejoin: miter; stroke-linecap: square"/>
   </g>
   <g id="patch_4">
    <path d="M 840.198936 675.663437 
L 840.198936 7.2 
" style="fill: none; stroke: #000000; stroke-width: 0.8; stroke-linejoin: miter; stroke-linecap: square"/>
   </g>
   <g id="patch_5">
    <path d="M 48.98125 675.663437 
L 840.198936 675.663437 
" style="fill: none; stroke: #000000; stroke-width: 0.8; stroke-linejoin: miter; stroke-linecap: square"/>
   </g>
   <g id="patch_6">
    <path d="M 48.98125 7.2 
L 840.198936 7.2 
" style="fill: none; stroke: #000000; stroke-width: 0.8; stroke-linejoin: miter; stroke-linecap: square"/>
   </g>
   <g id="patch_7">
    <path d="M 436.807063 354.212347 
Q 407.351107 314.465759 379.559374 276.964803 
" style="fill: none; opacity: 0.7; stroke: #0000ff; stroke-width: 2.5; stroke-linecap: round"/>
    <path d="M 380.334174 281.36931 
L 379.559374 276.964803 
L 383.54786 278.987667 
" style="fill: none; opacity: 0.7; stroke: #0000ff; stroke-width: 2.5; stroke-linecap: round"/>
   </g>
   <g id="patch_8">
    <path d="M 375.235637 271.759403 
Q 368.539947 265.590622 363.899908 261.315725 
" style="fill: none; opacity: 0.7; stroke: #0000ff; stroke-width: 2.5; stroke-linecap: round"/>
    <path d="M 365.486564 265.496936 
L 363.899908 261.315725 
L 368.19687 262.555128 
" style="fill: none; opacity: 0.7; stroke: #0000ff; stroke-width: 2.5; stroke-linecap: round"/>
   </g>
   <g id="patch_9">
    <path d="M 361.503505 256.415723 
Q 385.196737 221.727975 407.313465 189.348285 
" style="fill: none; opacity: 0.7; stroke: #0000ff; stroke-width: 2.5; stroke-linecap: round"/>
    <path d="M 403.405844 191.523255 
L 407.313465 189.348285 
L 406.708869 193.779364 
" style="fill: none; opacity: 0.7; stroke: #0000ff; stroke-width: 2.5; stroke-linecap: round"/>
   </g>
   <g id="patch_10">
    <path d="M 410.194695 187.382682 
Q 411.09383 197.44101 411.744099 204.715355 
" style="fill: none; opacity: 0.7; stroke: #0000ff; stroke-width: 2.5; stroke-linecap: round"/>
    <path d="M 413.380007 200.553168 
L 411.744099 204.715355 
L 409.395894 200.909316 
" style="fill: none; opacity: 0.7; stroke: #0000ff; stroke-width: 2.5; stroke-linecap: round"/>
   </g>
   <g id="patch_11">
    <path d="M 412.372548 207.506876 
Q 417.926462 152.67511 423.198703 100.6242 
" style="fill: none; opacity: 0.7; stroke: #0000ff; stroke-width: 2.5; stroke-linecap: round"/>
    <path d="M 420.805787 104.402289 
L 423.198703 100.6242 
L 424.785424 104.805386 
" style="fill: none; opacity: 0.7; stroke: #0000ff; stroke-width: 2.5; stroke-linecap: round"/>
   </g>
   <g id="patch_12">
    <path d="M 421.697931 96.099963 
Q 376.649635 101.619954 334.375673 106.799992 
" style="fill: none; opacity: 0.7; stroke: #0000ff; stroke-width: 2.5; stroke-linecap: round"/>
    <path d="M 338.589228 108.298643 
L 334.375673 106.799992 
L 338.102727 104.328338 
" style="fill: none; opacity: 0.7; stroke: #0000ff; stroke-width: 2.5; stroke-linecap: round"/>
   </g>
   <g id="patch_13">
    <path d="M 329.453032 105.38807 
Q 327.814241 85.143665 326.400976 67.685232 
" style="fill: none; opacity: 0.7; stroke: #0000ff; stroke-width: 2.5; stroke-linecap: round"/>
    <path d="M 324.730242 71.833562 
L 326.400976 67.685232 
L 328.717201 71.510817 
" style="fill: none; opacity: 0.7; stroke: #0000ff; stroke-width: 2.5; stroke-linecap: round"/>
   </g>
   <g id="patch_14">
    <path d="M 328.003862 63.076654 
Q 418.23788 70.847771 505.687122 78.379059 
" style="fill: none; opacity: 0.7; stroke: #0000ff; stroke-width: 2.5; stroke-linecap: round"/>
    <path d="M 501.873482 76.043218 
L 505.687122 78.379059 
L 501.530265 80.028466 
" style="fill: none; opacity: 0.7; stroke: #0000ff; stroke-width: 2.5; stroke-linecap: round"/>
   </g>
   <g id="patch_15">
    <path d="M 508.728627 77.787132 
Q 504.040711 75.074818 501.772124 73.762269 
" style="fill: none; opacity: 0.7; stroke: #0000ff; stroke-width: 2.5; stroke-linecap: round"/>
    <path d="M 504.232797 77.496582 
L 501.772124 73.762269 
L 506.235978 74.034318 
" style="fill: none; opacity: 0.7; stroke: #0000ff; stroke-width: 2.5; stroke-linecap: round"/>
   </g>
   <g id="patch_16">
    <path d="M 497.823495 73.349842 
Q 504.707558 140.586248 511.306933 205.042105 
" style="fill: none; opacity: 0.7; stroke: #0000ff; stroke-width: 2.5; stroke-linecap: round"/>
    <path d="M 512.889118 200.8592 
L 511.306933 205.042105 
L 508.90992 201.266614 
" style="fill: none; opacity: 0.7; stroke: #0000ff; stroke-width: 2.5; stroke-linecap: round"/>
   </g>
   <g id="patch_17">
    <path d="M 512.93496 211.448833 
Q 528.321584 233.58157 542.112739 253.419319 
" style="fill: none; opacity: 0.7; stroke: #0000ff; stroke-width: 2.5; stroke-linecap: round"/>
    <path d="M 541.471647 248.993372 
L 542.112739 253.419319 
L 538.187327 251.276624 
" style="fill: none; opacity: 0.7; stroke: #0000ff; stroke-width: 2.5; stroke-linecap: round"/>
   </g>
   <g id="patch_18">
    <path d="M 542.903833 257.81285 
Q 523.433529 262.347708 506.685448 266.248529 
" style="fill: none; opacity: 0.7; stroke: #0000ff; stroke-width: 2.5; stroke-linecap: round"/>
    <path d="M 511.034856 267.289033 
L 506.685448 266.248529 
L 510.127496 263.393305 
" style="fill: none; opacity: 0.7; stroke: #0000ff; stroke-width: 2.5; stroke-linecap: round"/>
   </g>
   <g id="patch_19">
    <path d="M 503.855574 266.550012 
Q 520.459281 259.458303 534.492548 253.464471 
" style="fill: none; opacity: 0.7; stroke: #0000ff; stroke-width: 2.5; stroke-linecap: round"/>
    <path d="M 530.028456 253.196366 
L 534.492548 253.464471 
L 531.599608 256.874882 
" style="fill: none; opacity: 0.7; stroke: #0000ff; stroke-width: 2.5; stroke-linecap: round"/>
   </g>
   <g id="patch_20">
    <path d="M 537.509379 253.017452 
Q 488.45094 303.698793 441.336508 352.371818 
" style="fill: none; opacity: 0.7; stroke: #0000ff; stroke-width: 2.5; stroke-linecap: round"/>
    <path d="M 445.555579 350.888767 
L 441.336508 352.371818 
L 442.68151 348.106731 
" style="fill: none; opacity: 0.7; stroke: #0000ff; stroke-width: 2.5; stroke-linecap: round"/>
   </g>
   <g id="patch_21">
    <path d="M 439.078262 357.501475 
Q 473.733991 411.469617 506.87943 463.085839 
" style="fill: none; opacity: 0.7; stroke: #ff0000; stroke-width: 2.5; stroke-linecap: round"/>
    <path d="M 506.400977 458.63937 
L 506.87943 463.085839 
L 503.035184 460.80072 
" style="fill: none; opacity: 0.7; stroke: #ff0000; stroke-width: 2.5; stroke-linecap: round"/>
   </g>
   <g id="patch_22">
    <path d="M 510.018754 469.042895 
Q 528.152786 532.601923 545.519952 593.473124 
" style="fill: none; opacity: 0.7; stroke: #ff0000; stroke-width: 2.5; stroke-linecap: round"/>
    <path d="M 546.345758 589.077894 
L 545.519952 593.473124 
L 542.499252 590.175341 
" style="fill: none; opacity: 0.7; stroke: #ff0000; stroke-width: 2.5; stroke-linecap: round"/>
   </g>
   <g id="patch_23">
    <path d="M 548.546633 599.117544 
Q 562.298811 607.406063 573.657085 614.251762 
" style="fill: none; opacity: 0.7; stroke: #ff0000; stroke-width: 2.5; stroke-linecap: round"/>
    <path d="M 571.263608 610.474029 
L 573.657085 614.251762 
L 569.198812 613.899904 
" style="fill: none; opacity: 0.7; stroke: #ff0000; stroke-width: 2.5; stroke-linecap: round"/>
   </g>
   <g id="patch_24">
    <path d="M 577.145952 614.827627 
Q 568.297482 587.728251 560.316585 563.285908 
" style="fill: none; opacity: 0.7; stroke: #ff0000; stroke-width: 2.5; stroke-linecap: round"/>
    <path d="M 559.656936 567.709126 
L 560.316585 563.285908 
L 563.45937 566.467558 
" style="fill: none; opacity: 0.7; stroke: #ff0000; stroke-width: 2.5; stroke-linecap: round"/>
   </g>
   <g id="patch_25">
    <path d="M 557.207119 559.902178 
Q 531.440625 578.552958 507.938311 595.564839 
" style="fill: none; opacity: 0.7; stroke: #ff0000; stroke-width: 2.5; stroke-linecap: round"/>
    <path d="M 512.351241 594.839551 
L 507.938311 595.564839 
L 510.005838 591.599321 
" style="fill: none; opacity: 0.7; stroke: #ff0000; stroke-width: 2.5; stroke-linecap: round"/>
   </g>
   <g id="patch_26">
    <path d="M 502.268924 597.482406 
Q 501.560313 597.128139 503.351756 598.023764 
" style="fill: none; opacity: 0.7; stroke: #ff0000; stroke-width: 2.5; stroke-linecap: round"/>
    <path d="M 506.035192 601.601357 
L 503.351756 598.023764 
L 507.823892 598.023571 
" style="fill: none; opacity: 0.7; stroke: #ff0000; stroke-width: 2.5; stroke-linecap: round"/>
   </g>
   <g id="patch_27">
    <path d="M 502.253219 595.344681 
Q 508.705338 588.765159 513.20045 584.181287 
" style="fill: none; opacity: 0.7; stroke: #ff0000; stroke-width: 2.5; stroke-linecap: round"/>
    <path d="M 508.971838 585.636909 
L 513.20045 584.181287 
L 511.82778 588.43755 
" style="fill: none; opacity: 0.7; stroke: #ff0000; stroke-width: 2.5; stroke-linecap: round"/>
   </g>
   <g id="patch_28">
    <path d="M 517.845788 579.231116 
Q 532.519037 561.840148 545.389844 546.585463 
" style="fill: none; opacity: 0.7; stroke: #ff0000; stroke-width: 2.5; stroke-linecap: round"/>
    <path d="M 541.2818 548.35294 
L 545.389844 546.585463 
L 544.338999 550.932384 
" style="fill: none; opacity: 0.7; stroke: #ff0000; stroke-width: 2.5; stroke-linecap: round"/>
   </g>
   <g id="patch_29">
    <path d="M 546.546821 543.430801 
Q 499.209038 555.879304 454.574434 567.616948 
" style="fill: none; opacity: 0.7; stroke: #ff0000; stroke-width: 2.5; stroke-linecap: round"/>
    <path d="M 458.951559 568.533886 
L 454.574434 567.616948 
L 457.934259 564.665411 
" style="fill: none; opacity: 0.7; stroke: #ff0000; stroke-width: 2.5; stroke-linecap: round"/>
   </g>
   <g id="patch_30">
    <path d="M 449.822161 566.838223 
Q 443.966397 462.32896 438.267 360.610404 
" style="fill: none; opacity: 0.7; stroke: #ff0000; stroke-width: 2.5; stroke-linecap: round"/>
    <path d="M 436.493905 364.716026 
L 438.267 360.610404 
L 440.487641 364.492253 
" style="fill: none; opacity: 0.7; stroke: #ff0000; stroke-width: 2.5; stroke-linecap: round"/>
   </g>
   <g id="patch_31">
    <path d="M 436.011868 356.018905 
Q 276.461018 371.980511 119.691369 387.663883 
" style="fill: none; opacity: 0.7; stroke: #008000; stroke-width: 2.5; stroke-linecap: round"/>
    <path d="M 123.87059 389.255774 
L 119.691369 387.663883 
L 123.472414 385.275641 
" style="fill: none; opacity: 0.7; stroke: #008000; stroke-width: 2.5; stroke-linecap: round"/>
   </g>
   <g id="patch_32">
    <path d="M 116.064928 389.775533 
Q 167.421168 462.814343 217.169722 533.566703 
" style="fill: none; opacity: 0.7; stroke: #008000; stroke-width: 2.5; stroke-linecap: round"/>
    <path d="M 216.50504 529.144238 
L 217.169722 533.566703 
L 213.232941 531.44497 
" style="fill: none; opacity: 0.7; stroke: #008000; stroke-width: 2.5; stroke-linecap: round"/>
   </g>
   <g id="patch_33">
    <path d="M 218.839971 535.808292 
Q 172.396266 464.034606 127.471039 394.607562 
" style="fill: none; opacity: 0.7; stroke: #008000; stroke-width: 2.5; stroke-linecap: round"/>
    <path d="M 127.964987 399.052336 
L 127.471039 394.607562 
L 131.323227 396.879268 
" style="fill: none; opacity: 0.7; stroke: #008000; stroke-width: 2.5; stroke-linecap: round"/>
   </g>
   <g id="patch_34">
    <path d="M 126.209362 392.066234 
Q 153.614764 422.340663 179.14437 450.542921 
" style="fill: none; opacity: 0.7; stroke: #008000; stroke-width: 2.5; stroke-linecap: round"/>
    <path d="M 177.942674 446.235262 
L 179.14437 450.542921 
L 174.977225 448.919683 
" style="fill: none; opacity: 0.7; stroke: #008000; stroke-width: 2.5; stroke-linecap: round"/>
   </g>
   <g id="patch_35">
    <path d="M 181.843636 456.027512 
Q 165.479292 516.967662 149.839836 575.208361 
" style="fill: none; opacity: 0.7; stroke: #008000; stroke-width: 2.5; stroke-linecap: round"/>
    <path d="M 152.808781 571.863908 
L 149.839836 575.208361 
L 148.94564 570.826533 
" style="fill: none; opacity: 0.7; stroke: #008000; stroke-width: 2.5; stroke-linecap: round"/>
   </g>
   <g id="patch_36">
    <path d="M 150.179586 578.613139 
Q 293.297475 467.829414 434.205095 358.756599 
" style="fill: none; opacity: 0.7; stroke: #008000; stroke-width: 2.5; stroke-linecap: round"/>
    <path d="M 429.817789 359.623514 
L 434.205095 358.756599 
L 432.266244 362.786593 
" style="fill: none; opacity: 0.7; stroke: #008000; stroke-width: 2.5; stroke-linecap: round"/>
   </g>
   <g id="patch_37">
    <path d="M 439.447168 354.43664 
Q 521.421246 276.144337 601.374031 199.782543 
" style="fill: none; opacity: 0.7; stroke: #ffa500; stroke-width: 2.5; stroke-linecap: round"/>
    <path d="M 597.100029 201.098944 
L 601.374031 199.782543 
L 599.86275 203.991585 
" style="fill: none; opacity: 0.7; stroke: #ffa500; stroke-width: 2.5; stroke-linecap: round"/>
   </g>
   <g id="patch_38">
    <path d="M 605.292368 194.519514 
Q 617.259316 142.735836 628.59692 93.67547 
" style="fill: none; opacity: 0.7; stroke: #ffa500; stroke-width: 2.5; stroke-linecap: round"/>
    <path d="M 625.747633 97.122435 
L 628.59692 93.67547 
L 629.64492 98.023078 
" style="fill: none; opacity: 0.7; stroke: #ffa500; stroke-width: 2.5; stroke-linecap: round"/>
   </g>
   <g id="patch_39">
    <path d="M 629.591593 91.00134 
Q 627.422615 142.041408 625.372309 190.288913 
" style="fill: none; opacity: 0.7; stroke: #ffa500; stroke-width: 2.5; stroke-linecap: round"/>
    <path d="M 627.540334 186.377434 
L 625.372309 190.288913 
L 623.543941 186.207605 
" style="fill: none; opacity: 0.7; stroke: #ffa500; stroke-width: 2.5; stroke-linecap: round"/>
   </g>
   <g id="patch_40">
    <path d="M 626.909124 194.096096 
Q 699.715349 152.964879 770.087988 113.208495 
" style="fill: none; opacity: 0.7; stroke: #ffa500; stroke-width: 2.5; stroke-linecap: round"/>
    <path d="M 765.621574 113.434662 
L 770.087988 113.208495 
L 767.589074 116.917326 
" style="fill: none; opacity: 0.7; stroke: #ffa500; stroke-width: 2.5; stroke-linecap: round"/>
   </g>
   <g id="patch_41">
    <path d="M 772.31431 111.293409 
Q 732.829128 120.288511 696.06921 128.662771 
" style="fill: none; opacity: 0.7; stroke: #ffa500; stroke-width: 2.5; stroke-linecap: round"/>
    <path d="M 700.413526 129.724335 
L 696.06921 128.662771 
L 699.52505 125.824257 
" style="fill: none; opacity: 0.7; stroke: #ffa500; stroke-width: 2.5; stroke-linecap: round"/>
   </g>
   <g id="patch_42">
    <path d="M 689.905008 131.057411 
Q 564.698458 242.77258 441.577499 352.626886 
" style="fill: none; opacity: 0.7; stroke: #ffa500; stroke-width: 2.5; stroke-linecap: round"/>
    <path d="M 445.893679 351.456164 
L 441.577499 352.626886 
L 443.23063 348.471508 
" style="fill: none; opacity: 0.7; stroke: #ffa500; stroke-width: 2.5; stroke-linecap: round"/>
   </g>
   <g id="patch_43">
    <path d="M 436.007693 355.615723 
Q 352.718898 347.06355 272.210568 338.796879 
" style="fill: none; opacity: 0.7; stroke: #800080; stroke-width: 2.5; stroke-linecap: round"/>
    <path d="M 275.985359 341.194994 
L 272.210568 338.796879 
L 276.393935 337.215915 
" style="fill: none; opacity: 0.7; stroke: #800080; stroke-width: 2.5; stroke-linecap: round"/>
   </g>
   <g id="patch_44">
    <path d="M 265.756518 339.379466 
Q 244.394608 352.970251 225.390962 365.060672 
" style="fill: none; opacity: 0.7; stroke: #800080; stroke-width: 2.5; stroke-linecap: round"/>
    <path d="M 229.839407 364.600961 
L 225.390962 365.060672 
L 227.69226 361.226089 
" style="fill: none; opacity: 0.7; stroke: #800080; stroke-width: 2.5; stroke-linecap: round"/>
   </g>
   <g id="patch_45">
    <path d="M 222.456737 365.97684 
Q 230.740515 353.630132 237.467015 343.604498 
" style="fill: none; opacity: 0.7; stroke: #800080; stroke-width: 2.5; stroke-linecap: round"/>
    <path d="M 233.577594 345.811851 
L 237.467015 343.604498 
L 236.899245 348.040446 
" style="fill: none; opacity: 0.7; stroke: #800080; stroke-width: 2.5; stroke-linecap: round"/>
   </g>
   <g id="patch_46">
    <path d="M 238.213606 339.072179 
Q 190.738478 325.572638 145.951858 312.837574 
" style="fill: none; opacity: 0.7; stroke: #800080; stroke-width: 2.5; stroke-linecap: round"/>
    <path d="M 149.252323 315.855344 
L 145.951858 312.837574 
L 150.346353 312.007864 
" style="fill: none; opacity: 0.7; stroke: #800080; stroke-width: 2.5; stroke-linecap: round"/>
   </g>
   <g id="patch_47">
    <path d="M 142.613264 309.983966 
Q 199.102987 241.644724 253.811905 175.459836 
" style="fill: none; opacity: 0.7; stroke: #800080; stroke-width: 2.5; stroke-linecap: round"/>
    <path d="M 249.721896 177.268655 
L 253.811905 175.459836 
L 252.804955 179.817135 
" style="fill: none; opacity: 0.7; stroke: #800080; stroke-width: 2.5; stroke-linecap: round"/>
   </g>
   <g id="patch_48">
    <path d="M 255.564651 173.283579 
Q 243.344768 187.542772 232.943707 199.679612 
" style="fill: none; opacity: 0.7; stroke: #800080; stroke-width: 2.5; stroke-linecap: round"/>
    <path d="M 237.065226 197.943787 
L 232.943707 199.679612 
L 234.027959 195.340902 
" style="fill: none; opacity: 0.7; stroke: #800080; stroke-width: 2.5; stroke-linecap: round"/>
   </g>
   <g id="patch_49">
    <path d="M 228.372144 201.941555 
Q 223.27128 197.07434 220.192612 194.136692 
" style="fill: none; opacity: 0.7; stroke: #800080; stroke-width: 2.5; stroke-linecap: round"/>
    <path d="M 221.705856 198.345028 
L 220.192612 194.136692 
L 224.467227 195.451099 
" style="fill: none; opacity: 0.7; stroke: #800080; stroke-width: 2.5; stroke-linecap: round"/>
   </g>
   <g id="patch_50">
    <path d="M 218.44775 189.815186 
Q 239.33071 177.580456 257.802003 166.758652 
" style="fill: none; opacity: 0.7; stroke: #800080; stroke-width: 2.5; stroke-linecap: round"/>
    <path d="M 253.339698 167.05502 
L 257.802003 166.758652 
L 255.361714 170.506317 
" style="fill: none; opacity: 0.7; stroke: #800080; stroke-width: 2.5; stroke-linecap: round"/>
   </g>
   <g id="patch_51">
    <path d="M 263.195493 165.894925 
Q 292.461298 202.352424 319.977393 236.630242 
" style="fill: none; opacity: 0.7; stroke: #800080; stroke-width: 2.5; stroke-linecap: round"/>
    <path d="M 319.033062 232.258945 
L 319.977393 236.630242 
L 315.913756 234.762929 
" style="fill: none; opacity: 0.7; stroke: #800080; stroke-width: 2.5; stroke-linecap: round"/>
   </g>
   <g id="patch_52">
    <path d="M 324.395092 241.791221 
Q 380.491329 298.097529 434.614841 352.423723 
" style="fill: none; opacity: 0.7; stroke: #800080; stroke-width: 2.5; stroke-linecap: round"/>
    <path d="M 433.208559 348.178447 
L 434.614841 352.423723 
L 430.37485 351.001583 
" style="fill: none; opacity: 0.7; stroke: #800080; stroke-width: 2.5; stroke-linecap: round"/>
   </g>
   <g id="patch_53">
    <path d="M 438.074739 357.819627 
Q 440.238263 414.633529 442.295426 468.654371 
" style="fill: none; opacity: 0.7; stroke: #00ffff; stroke-width: 2.5; stroke-linecap: round"/>
    <path d="M 444.141764 464.581161 
L 442.295426 468.654371 
L 440.144661 464.733374 
" style="fill: none; opacity: 0.7; stroke: #00ffff; stroke-width: 2.5; stroke-linecap: round"/>
   </g>
   <g id="patch_54">
    <path d="M 440.731681 472.463885 
Q 434.253302 468.81227 430.209841 466.533126 
" style="fill: none; opacity: 0.7; stroke: #00ffff; stroke-width: 2.5; stroke-linecap: round"/>
    <path d="M 432.712352 470.239531 
L 430.209841 466.533126 
L 434.676471 466.75496 
" style="fill: none; opacity: 0.7; stroke: #00ffff; stroke-width: 2.5; stroke-linecap: round"/>
   </g>
   <g id="patch_55">
    <path d="M 424.068924 463.795517 
Q 386.272444 456.407769 351.219138 449.556206 
" style="fill: none; opacity: 0.7; stroke: #00ffff; stroke-width: 2.5; stroke-linecap: round"/>
    <path d="M 354.761187 452.286387 
L 351.219138 449.556206 
L 355.528512 448.360675 
" style="fill: none; opacity: 0.7; stroke: #00ffff; stroke-width: 2.5; stroke-linecap: round"/>
   </g>
   <g id="patch_56">
    <path d="M 344.586436 448.076787 
Q 309.227846 437.804551 276.553367 428.312092 
" style="fill: none; opacity: 0.7; stroke: #00ffff; stroke-width: 2.5; stroke-linecap: round"/>
    <path d="M 279.83659 431.34861 
L 276.553367 428.312092 
L 280.952516 427.507425 
" style="fill: none; opacity: 0.7; stroke: #00ffff; stroke-width: 2.5; stroke-linecap: round"/>
   </g>
   <g id="patch_57">
    <path d="M 273.920201 427.33712 
Q 290.505855 430.388091 304.342548 432.933385 
" style="fill: none; opacity: 0.7; stroke: #00ffff; stroke-width: 2.5; stroke-linecap: round"/>
    <path d="M 300.770389 430.24272 
L 304.342548 432.933385 
L 300.046721 434.176714 
" style="fill: none; opacity: 0.7; stroke: #00ffff; stroke-width: 2.5; stroke-linecap: round"/>
   </g>
   <g id="patch_58">
    <path d="M 310.331171 432.259602 
Q 317.749128 423.26025 323.389268 416.417718 
" style="fill: none; opacity: 0.7; stroke: #00ffff; stroke-width: 2.5; stroke-linecap: round"/>
    <path d="M 319.301771 418.232205 
L 323.389268 416.417718 
L 322.388359 420.776409 
" style="fill: none; opacity: 0.7; stroke: #00ffff; stroke-width: 2.5; stroke-linecap: round"/>
   </g>
   <g id="patch_59">
    <path d="M 326.240389 414.705525 
Q 321.052797 466.554938 316.143467 515.623152 
" style="fill: none; opacity: 0.7; stroke: #00ffff; stroke-width: 2.5; stroke-linecap: round"/>
    <path d="M 318.531748 511.842131 
L 316.143467 515.623152 
L 314.551619 511.443915 
" style="fill: none; opacity: 0.7; stroke: #00ffff; stroke-width: 2.5; stroke-linecap: round"/>
   </g>
   <g id="patch_60">
    <path d="M 317.428653 519.448728 
Q 408.669899 470.494422 497.448178 422.861589 
" style="fill: none; opacity: 0.7; stroke: #00ffff; stroke-width: 2.5; stroke-linecap: round"/>
    <path d="M 492.977897 422.990371 
L 497.448178 422.861589 
L 494.869035 426.515083 
" style="fill: none; opacity: 0.7; stroke: #00ffff; stroke-width: 2.5; stroke-linecap: round"/>
   </g>
   <g id="patch_61">
    <path d="M 500.300211 422.045408 
Q 407.309876 520.275491 316.241086 616.475756 
" style="fill: none; opacity: 0.7; stroke: #00ffff; stroke-width: 2.5; stroke-linecap: round"/>
    <path d="M 320.443398 614.945862 
L 316.241086 616.475756 
L 317.538558 612.19597 
" style="fill: none; opacity: 0.7; stroke: #00ffff; stroke-width: 2.5; stroke-linecap: round"/>
   </g>
   <g id="patch_62">
    <path d="M 313.558977 618.057024 
Q 354.463545 491.513262 394.508415 367.62909 
" style="fill: none; opacity: 0.7; stroke: #00ffff; stroke-width: 2.5; stroke-linecap: round"/>
    <path d="M 391.375068 370.820036 
L 394.508415 367.62909 
L 395.181163 372.050336 
" style="fill: none; opacity: 0.7; stroke: #00ffff; stroke-width: 2.5; stroke-linecap: round"/>
   </g>
   <g id="patch_63">
    <path d="M 395.717754 365.049406 
Q 382.374814 464.731576 369.402703 561.643368 
" style="fill: none; opacity: 0.7; stroke: #00ffff; stroke-width: 2.5; stroke-linecap: round"/>
    <path d="M 371.915709 557.944071 
L 369.402703 561.643368 
L 367.951069 557.413385 
" style="fill: none; opacity: 0.7; stroke: #00ffff; stroke-width: 2.5; stroke-linecap: round"/>
   </g>
   <g id="patch_64">
    <path d="M 369.390954 564.49642 
Q 403.382285 461.108753 436.500632 360.376345 
" style="fill: none; opacity: 0.7; stroke: #00ffff; stroke-width: 2.5; stroke-linecap: round"/>
    <path d="M 433.35137 363.551586 
L 436.500632 360.376345 
L 437.151267 364.800899 
" style="fill: none; opacity: 0.7; stroke: #00ffff; stroke-width: 2.5; stroke-linecap: round"/>
   </g>
   <g id="patch_65">
    <path d="M 439.9104 355.241984 
Q 571.570824 315.42527 700.55583 276.417655 
" style="fill: none; opacity: 0.7; stroke: #ff00ff; stroke-width: 2.5; stroke-linecap: round"/>
    <path d="M 696.14814 275.661171 
L 700.55583 276.417655 
L 697.306029 279.489917 
" style="fill: none; opacity: 0.7; stroke: #ff00ff; stroke-width: 2.5; stroke-linecap: round"/>
   </g>
   <g id="patch_66">
    <path d="M 705.88395 276.886294 
Q 713.352419 295.665506 719.787973 311.847492 
" style="fill: none; opacity: 0.7; stroke: #ff00ff; stroke-width: 2.5; stroke-linecap: round"/>
    <path d="M 720.168212 307.39155 
L 719.787973 311.847492 
L 716.451363 308.869736 
" style="fill: none; opacity: 0.7; stroke: #ff00ff; stroke-width: 2.5; stroke-linecap: round"/>
   </g>
   <g id="patch_67">
    <path d="M 720.051528 317.623364 
Q 670.159213 361.230515 622.37143 402.998252 
" style="fill: none; opacity: 0.7; stroke: #ff00ff; stroke-width: 2.5; stroke-linecap: round"/>
    <path d="M 626.699369 401.871777 
L 622.37143 402.998252 
L 624.067013 398.860016 
" style="fill: none; opacity: 0.7; stroke: #ff00ff; stroke-width: 2.5; stroke-linecap: round"/>
   </g>
   <g id="patch_68">
    <path d="M 620.037475 404.617108 
Q 657.118875 359.969724 692.414453 317.472536 
" style="fill: none; opacity: 0.7; stroke: #ff00ff; stroke-width: 2.5; stroke-linecap: round"/>
    <path d="M 688.320238 319.271815 
L 692.414453 317.472536 
L 691.397348 321.827475 
" style="fill: none; opacity: 0.7; stroke: #ff00ff; stroke-width: 2.5; stroke-linecap: round"/>
   </g>
   <g id="patch_69">
    <path d="M 693.501832 314.10651 
Q 566.738527 334.801978 442.733786 355.04708 
" style="fill: none; opacity: 0.7; stroke: #ff00ff; stroke-width: 2.5; stroke-linecap: round"/>
    <path d="M 447.003775 356.376438 
L 442.733786 355.04708 
L 446.359265 352.428703 
" style="fill: none; opacity: 0.7; stroke: #ff00ff; stroke-width: 2.5; stroke-linecap: round"/>
   </g>
   <g id="patch_70">
    <path d="M 439.735674 356.817601 
Q 553.459131 422.118957 664.758686 486.02848 
" style="fill: none; opacity: 0.7; stroke: #a52a2a; stroke-width: 2.5; stroke-linecap: round"/>
    <path d="M 662.285795 482.302247 
L 664.758686 486.02848 
L 660.293965 485.771053 
" style="fill: none; opacity: 0.7; stroke: #a52a2a; stroke-width: 2.5; stroke-linecap: round"/>
   </g>
   <g id="patch_71">
    <path d="M 669.94294 490.125754 
Q 706.30826 550.589656 741.232988 608.658314 
" style="fill: none; opacity: 0.7; stroke: #a52a2a; stroke-width: 2.5; stroke-linecap: round"/>
    <path d="M 740.885278 604.199715 
L 741.232988 608.658314 
L 737.457483 606.261323 
" style="fill: none; opacity: 0.7; stroke: #a52a2a; stroke-width: 2.5; stroke-linecap: round"/>
   </g>
   <g id="patch_72">
    <path d="M 744.01831 610.790131 
Q 752.433947 558.231428 760.407668 508.432654 
" style="fill: none; opacity: 0.7; stroke: #a52a2a; stroke-width: 2.5; stroke-linecap: round"/>
    <path d="M 757.800404 512.066134 
L 760.407668 508.432654 
L 761.750093 512.698553 
" style="fill: none; opacity: 0.7; stroke: #a52a2a; stroke-width: 2.5; stroke-linecap: round"/>
   </g>
   <g id="patch_73">
    <path d="M 760.111739 505.395131 
Q 747.34467 525.974889 736.051078 544.179492 
" style="fill: none; opacity: 0.7; stroke: #a52a2a; stroke-width: 2.5; stroke-linecap: round"/>
    <path d="M 739.859269 541.834778 
L 736.051078 544.179492 
L 736.460222 539.726111 
" style="fill: none; opacity: 0.7; stroke: #a52a2a; stroke-width: 2.5; stroke-linecap: round"/>
   </g>
   <g id="patch_74">
    <path d="M 731.8492 547.16147 
Q 585.761249 452.036052 442.015585 358.43582 
" style="fill: none; opacity: 0.7; stroke: #a52a2a; stroke-width: 2.5; stroke-linecap: round"/>
    <path d="M 444.276262 362.294491 
L 442.015585 358.43582 
L 446.458928 358.942481 
" style="fill: none; opacity: 0.7; stroke: #a52a2a; stroke-width: 2.5; stroke-linecap: round"/>
   </g>
   <g id="text_15">
    <g id="patch_75">
     <path d="M 445.998597 355.070151 
L 475.998597 355.070151 
Q 478.998597 355.070151 478.998597 352.070151 
L 478.998597 342.812338 
Q 478.998597 339.812338 475.998597 339.812338 
L 445.998597 339.812338 
Q 442.998597 339.812338 442.998597 342.812338 
L 442.998597 352.070151 
Q 442.998597 355.070151 445.998597 355.070151 
z
" style="fill: #ffffff; opacity: 0.8; stroke: #808080; stroke-linejoin: miter"/>
    </g>
    <!-- 起降点 -->
    <g transform="translate(445.998597 350.820151) scale(0.1 -0.1)">
     <defs>
      <path id="SimHei-8d77" d="M 225 -200 
Q 425 75 537 362 
Q 650 650 725 1025 
Q 800 1400 875 1950 
Q 1100 1875 1450 1850 
Q 1150 1350 1375 1012 
Q 1600 675 1775 525 
L 1775 2550 
Q 800 2550 475 2525 
L 475 2975 
Q 800 2950 1675 2950 
L 1675 3925 
Q 1125 3925 675 3900 
L 675 4350 
Q 1000 4325 1675 4325 
Q 1675 4800 1650 5225 
L 2150 5225 
Q 2125 4775 2125 4325 
Q 2700 4325 2975 4350 
L 2975 3900 
Q 2700 3925 2125 3925 
L 2125 2950 
Q 2825 2950 3225 2975 
L 3225 2525 
Q 2825 2550 2225 2550 
L 2225 1750 
Q 2675 1750 3150 1775 
L 3150 1325 
Q 2700 1350 2225 1350 
L 2225 275 
Q 2550 0 3887 -50 
Q 5225 -100 6200 50 
Q 6050 -200 5975 -550 
Q 4800 -550 4025 -537 
Q 3250 -525 2687 -400 
Q 2125 -275 1775 -12 
Q 1425 250 1125 675 
Q 875 0 625 -575 
Q 425 -275 225 -200 
z
M 6000 1475 
Q 5850 850 5725 650 
Q 5600 450 5225 450 
L 4025 450 
Q 3500 450 3500 1025 
L 3500 2225 
Q 3500 2575 3475 3000 
L 5150 3000 
L 5150 4275 
Q 3700 4275 3325 4250 
L 3325 4675 
Q 3700 4650 4125 4650 
L 5650 4650 
Q 5625 4275 5625 3600 
Q 5625 2950 5650 2575 
L 3975 2575 
L 3975 1250 
Q 3950 875 4350 875 
L 5050 875 
Q 5250 875 5312 1050 
Q 5375 1225 5425 1700 
Q 5650 1550 6000 1475 
z
" transform="scale(0.015625)"/>
      <path id="SimHei-964d" d="M 4075 5050 
Q 3850 4800 3775 4625 
L 5650 4625 
Q 5425 4175 5187 3837 
Q 4950 3500 4650 3200 
Q 4900 3025 5275 2925 
Q 5650 2825 6200 2800 
Q 6025 2525 5975 2300 
Q 5375 2400 4950 2562 
Q 4525 2725 4275 2900 
Q 3950 2700 3550 2500 
Q 3150 2300 2525 2125 
Q 2450 2350 2250 2550 
Q 2775 2650 3212 2825 
Q 3650 3000 3875 3200 
Q 3550 3525 3325 3875 
Q 3000 3450 2825 3275 
Q 2650 3450 2450 3550 
Q 2775 3850 3075 4325 
Q 3375 4800 3575 5300 
Q 3950 5100 4075 5050 
z
M 2350 4975 
Q 2225 4650 2025 4062 
Q 1825 3475 1675 2975 
Q 2075 2450 2200 2175 
Q 2325 1900 2287 1550 
Q 2250 1200 2012 1012 
Q 1775 825 1350 775 
Q 1300 1025 1150 1325 
Q 1650 1300 1737 1512 
Q 1825 1725 1787 1962 
Q 1750 2200 1200 2925 
L 1450 3600 
Q 1600 4025 1725 4550 
L 975 4550 
L 975 -600 
L 500 -600 
Q 525 325 525 875 
L 525 3750 
Q 525 4325 500 4975 
L 2350 4975 
z
M 5100 2075 
Q 5275 2075 5725 2100 
L 5725 1650 
Q 5450 1675 5150 1675 
L 4575 1675 
L 4575 900 
L 5200 900 
Q 5675 900 6050 925 
L 6050 475 
Q 5700 500 5225 500 
L 4575 500 
L 4575 125 
Q 4575 -250 4600 -600 
L 4100 -600 
Q 4125 -225 4125 100 
L 4125 500 
L 2375 500 
Q 2500 1100 2500 1400 
L 3025 1325 
Q 2925 1025 2925 900 
L 4125 900 
L 4125 1675 
L 3475 1675 
Q 3100 1675 2775 1650 
L 2775 2100 
Q 3225 2075 3475 2075 
L 4125 2075 
Q 4125 2375 4100 2625 
L 4575 2625 
Q 4550 2225 4550 2075 
L 5100 2075 
z
M 4275 3475 
Q 4600 3725 4925 4250 
L 3550 4250 
Q 4025 3650 4275 3475 
z
" transform="scale(0.015625)"/>
      <path id="SimHei-70b9" d="M 3325 5200 
Q 3300 4925 3300 4375 
L 4900 4375 
Q 5275 4375 5725 4400 
L 5725 3925 
Q 5300 3950 4900 3950 
L 3300 3950 
L 3300 3225 
L 5225 3225 
Q 5200 2700 5200 2150 
Q 5200 1625 5225 1175 
L 1175 1175 
Q 1200 1625 1200 2175 
Q 1200 2725 1175 3225 
L 2775 3225 
L 2775 4500 
Q 2775 4900 2750 5200 
L 3325 5200 
z
M 4700 1600 
L 4700 2800 
L 1725 2800 
L 1725 1600 
L 4700 1600 
z
M 1500 750 
Q 1025 -250 825 -625 
Q 625 -475 325 -375 
Q 650 50 950 925 
Q 1200 800 1500 750 
z
M 5325 850 
Q 5775 150 6075 -350 
Q 5925 -425 5575 -625 
Q 5375 -150 4900 575 
Q 5150 700 5325 850 
z
M 3975 -575 
Q 3775 -100 3400 575 
Q 3575 675 3825 825 
Q 4350 -75 4450 -325 
Q 4200 -450 3975 -575 
z
M 2375 -575 
Q 2350 -300 1975 550 
Q 2200 625 2425 775 
Q 2800 -75 2900 -350 
Q 2625 -450 2375 -575 
z
" transform="scale(0.015625)"/>
     </defs>
     <use xlink:href="#SimHei-8d77"/>
     <use xlink:href="#SimHei-964d" x="100"/>
     <use xlink:href="#SimHei-70b9" x="200"/>
    </g>
   </g>
   <g id="PathCollection_1">
    <defs>
     <path id="mb80465a725" d="M 0 5.477226 
C 1.452577 5.477226 2.845856 4.900111 3.872983 3.872983 
C 4.900111 2.845856 5.477226 1.452577 5.477226 0 
C 5.477226 -1.452577 4.900111 -2.845856 3.872983 -3.872983 
C 2.845856 -4.900111 1.452577 -5.477226 0 -5.477226 
C -1.452577 -5.477226 -2.845856 -4.900111 -3.872983 -3.872983 
C -4.900111 -2.845856 -5.477226 -1.452577 -5.477226 0 
C -5.477226 1.452577 -4.900111 2.845856 -3.872983 3.872983 
C -2.845856 4.900111 -1.452577 5.477226 0 5.477226 
z
" style="stroke: #0000ff"/>
    </defs>
    <g clip-path="url(#p9e843b12ee)">
     <use xlink:href="#mb80465a725" x="376.70477" y="273.112924" style="fill: #0000ff; stroke: #0000ff"/>
     <use xlink:href="#mb80465a725" x="360.37487" y="258.068085" style="fill: #0000ff; stroke: #0000ff"/>
     <use xlink:href="#mb80465a725" x="410.016632" y="185.390751" style="fill: #0000ff; stroke: #0000ff"/>
     <use xlink:href="#mb80465a725" x="412.171272" y="209.494" style="fill: #0000ff; stroke: #0000ff"/>
     <use xlink:href="#mb80465a725" x="423.681584" y="95.856896" style="fill: #0000ff; stroke: #0000ff"/>
     <use xlink:href="#mb80465a725" x="329.614554" y="107.383395" style="fill: #0000ff; stroke: #0000ff"/>
     <use xlink:href="#mb80465a725" x="326.014038" y="62.905286" style="fill: #0000ff; stroke: #0000ff"/>
     <use xlink:href="#mb80465a725" x="510.462529" y="78.790325" style="fill: #0000ff; stroke: #0000ff"/>
     <use xlink:href="#mb80465a725" x="497.619743" y="71.359803" style="fill: #0000ff; stroke: #0000ff"/>
     <use xlink:href="#mb80465a725" x="511.795003" y="209.809075" style="fill: #0000ff; stroke: #0000ff"/>
     <use xlink:href="#mb80465a725" x="544.851711" y="257.359166" style="fill: #0000ff; stroke: #0000ff"/>
     <use xlink:href="#mb80465a725" x="502.014074" y="267.336546" style="fill: #0000ff; stroke: #0000ff"/>
     <use xlink:href="#mb80465a725" x="538.898102" y="251.582789" style="fill: #0000ff; stroke: #0000ff"/>
    </g>
   </g>
   <g id="PathCollection_2">
    <defs>
     <path id="m8725f4408e" d="M -5.477226 5.477226 
L 5.477226 5.477226 
L 5.477226 -5.477226 
L -5.477226 -5.477226 
z
" style="stroke: #ff0000"/>
    </defs>
    <g clip-path="url(#p9e843b12ee)">
     <use xlink:href="#m8725f4408e" x="509.470261" y="467.120447" style="fill: #ff0000; stroke: #ff0000"/>
     <use xlink:href="#m8725f4408e" x="546.836248" y="598.086684" style="fill: #ff0000; stroke: #ff0000"/>
     <use xlink:href="#m8725f4408e" x="577.766666" y="616.728631" style="fill: #ff0000; stroke: #ff0000"/>
     <use xlink:href="#m8725f4408e" x="558.828518" y="558.728547" style="fill: #ff0000; stroke: #ff0000"/>
     <use xlink:href="#m8725f4408e" x="504.055311" y="598.375503" style="fill: #ff0000; stroke: #ff0000"/>
     <use xlink:href="#m8725f4408e" x="500.851702" y="596.773871" style="fill: #ff0000; stroke: #ff0000"/>
     <use xlink:href="#m8725f4408e" x="516.557891" y="580.757551" style="fill: #ff0000; stroke: #ff0000"/>
     <use xlink:href="#m8725f4408e" x="548.480578" y="542.922277" style="fill: #ff0000; stroke: #ff0000"/>
     <use xlink:href="#m8725f4408e" x="449.934166" y="568.837208" style="fill: #ff0000; stroke: #ff0000"/>
    </g>
   </g>
   <g id="PathCollection_3">
    <defs>
     <path id="m5fe092b4cd" d="M 0 -5.477226 
L -5.477226 5.477226 
L 5.477226 5.477226 
z
" style="stroke: #008000"/>
    </defs>
    <g clip-path="url(#p9e843b12ee)">
     <use xlink:href="#m5fe092b4cd" x="114.916057" y="388.14161" style="fill: #008000; stroke: #008000"/>
     <use xlink:href="#m5fe092b4cd" x="219.926388" y="537.487231" style="fill: #008000; stroke: #008000"/>
     <use xlink:href="#m5fe092b4cd" x="124.86709" y="390.583442" style="fill: #008000; stroke: #008000"/>
     <use xlink:href="#m5fe092b4cd" x="182.361947" y="454.097341" style="fill: #008000; stroke: #008000"/>
     <use xlink:href="#m5fe092b4cd" x="148.596476" y="579.838582" style="fill: #008000; stroke: #008000"/>
    </g>
   </g>
   <g id="PathCollection_4">
    <defs>
     <path id="m095f249d26" d="M -0 7.745967 
L 7.745967 0 
L 0 -7.745967 
L -7.745967 -0 
z
" style="stroke: #ffa500"/>
    </defs>
    <g clip-path="url(#p9e843b12ee)">
     <use xlink:href="#m095f249d26" x="604.841414" y="196.470894" style="fill: #ffa500; stroke: #ffa500"/>
     <use xlink:href="#m095f249d26" x="629.676471" y="89.004011" style="fill: #ffa500; stroke: #ffa500"/>
     <use xlink:href="#m095f249d26" x="625.168738" y="195.079312" style="fill: #ffa500; stroke: #ffa500"/>
     <use xlink:href="#m095f249d26" x="774.264129" y="110.849222" style="fill: #ffa500; stroke: #ffa500"/>
     <use xlink:href="#m095f249d26" x="691.395555" y="129.727474" style="fill: #ffa500; stroke: #ffa500"/>
    </g>
   </g>
   <g id="PathCollection_5">
    <defs>
     <path id="m518b942e44" d="M -1.825742 5.477226 
L 1.825742 5.477226 
L 1.825742 1.825742 
L 5.477226 1.825742 
L 5.477226 -1.825742 
L 1.825742 -1.825742 
L 1.825742 -5.477226 
L -1.825742 -5.477226 
L -1.825742 -1.825742 
L -5.477226 -1.825742 
L -5.477226 1.825742 
L -1.825742 1.825742 
z
" style="stroke: #800080"/>
    </defs>
    <g clip-path="url(#p9e843b12ee)">
     <use xlink:href="#m518b942e44" x="267.441861" y="338.307224" style="fill: #800080; stroke: #800080"/>
     <use xlink:href="#m518b942e44" x="221.343914" y="367.635469" style="fill: #800080; stroke: #800080"/>
     <use xlink:href="#m518b942e44" x="240.140309" y="339.620037" style="fill: #800080; stroke: #800080"/>
     <use xlink:href="#m518b942e44" x="141.338743" y="311.525836" style="fill: #800080; stroke: #800080"/>
     <use xlink:href="#m518b942e44" x="256.867117" y="171.763751" style="fill: #800080; stroke: #800080"/>
     <use xlink:href="#m518b942e44" x="229.82072" y="203.323778" style="fill: #800080; stroke: #800080"/>
     <use xlink:href="#m518b942e44" x="216.722779" y="190.825797" style="fill: #800080; stroke: #800080"/>
     <use xlink:href="#m518b942e44" x="261.94186" y="164.333228" style="fill: #800080; stroke: #800080"/>
     <use xlink:href="#m518b942e44" x="322.980532" y="240.371364" style="fill: #800080; stroke: #800080"/>
    </g>
   </g>
   <g id="PathCollection_6">
    <defs>
     <path id="m07d6ebe1d7" d="M -2.738613 5.477226 
L 0 2.738613 
L 2.738613 5.477226 
L 5.477226 2.738613 
L 2.738613 0 
L 5.477226 -2.738613 
L 2.738613 -5.477226 
L 0 -2.738613 
L -2.738613 -5.477226 
L -5.477226 -2.738613 
L -2.738613 0 
L -5.477226 2.738613 
z
" style="stroke: #00ffff"/>
    </defs>
    <g clip-path="url(#p9e843b12ee)">
     <use xlink:href="#m07d6ebe1d7" x="442.477979" y="473.448206" style="fill: #00ffff; stroke: #00ffff"/>
     <use xlink:href="#m07d6ebe1d7" x="426.034677" y="464.179746" style="fill: #00ffff; stroke: #00ffff"/>
     <use xlink:href="#m07d6ebe1d7" x="346.511465" y="448.636038" style="fill: #00ffff; stroke: #00ffff"/>
     <use xlink:href="#m07d6ebe1d7" x="271.949594" y="426.974622" style="fill: #00ffff; stroke: #00ffff"/>
     <use xlink:href="#m07d6ebe1d7" x="309.060426" y="433.80125" style="fill: #00ffff; stroke: #00ffff"/>
     <use xlink:href="#m07d6ebe1d7" x="326.439296" y="412.717471" style="fill: #00ffff; stroke: #00ffff"/>
     <use xlink:href="#m07d6ebe1d7" x="315.666098" y="520.394404" style="fill: #00ffff; stroke: #00ffff"/>
     <use xlink:href="#m07d6ebe1d7" x="501.673867" y="420.59435" style="fill: #00ffff; stroke: #00ffff"/>
     <use xlink:href="#m07d6ebe1d7" x="312.944448" y="619.958151" style="fill: #00ffff; stroke: #00ffff"/>
     <use xlink:href="#m07d6ebe1d7" x="395.983124" y="363.066879" style="fill: #00ffff; stroke: #00ffff"/>
     <use xlink:href="#m07d6ebe1d7" x="368.766624" y="566.395376" style="fill: #00ffff; stroke: #00ffff"/>
    </g>
   </g>
   <g id="PathCollection_7">
    <defs>
     <path id="m30dc5a05e5" d="M 0 -5.477226 
L -1.229714 -1.692556 
L -5.209151 -1.692556 
L -1.989719 0.646499 
L -3.219432 4.431169 
L -0 2.092114 
L 3.219432 4.431169 
L 1.989719 0.646499 
L 5.209151 -1.692556 
L 1.229714 -1.692556 
z
" style="stroke: #ff00ff"/>
    </defs>
    <g clip-path="url(#p9e843b12ee)">
     <use xlink:href="#m30dc5a05e5" x="705.145558" y="275.029631" style="fill: #ff00ff; stroke: #ff00ff"/>
     <use xlink:href="#m30dc5a05e5" x="721.56051" y="316.304476" style="fill: #ff00ff; stroke: #ff00ff"/>
     <use xlink:href="#m30dc5a05e5" x="618.76152" y="406.153406" style="fill: #ff00ff; stroke: #ff00ff"/>
     <use xlink:href="#m30dc5a05e5" x="695.47803" y="313.783874" style="fill: #ff00ff; stroke: #ff00ff"/>
    </g>
   </g>
   <g id="PathCollection_8">
    <defs>
     <path id="m2e1fa7a60a" d="M -0 5.477226 
L 5.477226 -5.477226 
L -5.477226 -5.477226 
z
" style="stroke: #a52a2a"/>
    </defs>
    <g clip-path="url(#p9e843b12ee)">
     <use xlink:href="#m2e1fa7a60a" x="668.913592" y="488.414276" style="fill: #a52a2a; stroke: #a52a2a"/>
     <use xlink:href="#m2e1fa7a60a" x="743.702267" y="612.763935" style="fill: #a52a2a; stroke: #a52a2a"/>
     <use xlink:href="#m2e1fa7a60a" x="761.166188" y="503.695421" style="fill: #a52a2a; stroke: #a52a2a"/>
     <use xlink:href="#m2e1fa7a60a" x="733.52443" y="548.252298" style="fill: #a52a2a; stroke: #a52a2a"/>
    </g>
   </g>
   <g id="PathCollection_9">
    <defs>
     <path id="mb54045b012" d="M 0 -8.660254 
L -1.944348 -2.676166 
L -8.236391 -2.676166 
L -3.146021 1.022204 
L -5.09037 7.006293 
L -0 3.307923 
L 5.09037 7.006293 
L 3.146021 1.022204 
L 8.236391 -2.676166 
L 1.944348 -2.676166 
z
" style="stroke: #000000"/>
    </defs>
    <g clip-path="url(#p9e843b12ee)">
     <use xlink:href="#mb54045b012" x="437.998597" y="355.820151" style="stroke: #000000"/>
    </g>
   </g>
   <g id="text_16">
    <!-- 1 -->
    <g style="fill: #ffffff" transform="translate(374.70477 275.362924) scale(0.08 -0.08)">
     <use xlink:href="#SimHei-31"/>
    </g>
   </g>
   <g id="text_17">
    <!-- 2 -->
    <g style="fill: #ffffff" transform="translate(358.37487 260.318085) scale(0.08 -0.08)">
     <use xlink:href="#SimHei-32"/>
    </g>
   </g>
   <g id="text_18">
    <!-- 3 -->
    <g style="fill: #ffffff" transform="translate(408.016632 187.640751) scale(0.08 -0.08)">
     <defs>
      <path id="SimHei-33" d="M 250 1225 
L 700 1300 
Q 800 975 1025 762 
Q 1250 550 1587 562 
Q 1925 575 2125 837 
Q 2325 1100 2300 1437 
Q 2275 1775 2037 1962 
Q 1800 2150 1275 2225 
L 1275 2550 
Q 1800 2600 2037 2825 
Q 2275 3050 2250 3412 
Q 2225 3775 1925 3937 
Q 1625 4100 1287 3975 
Q 950 3850 750 3275 
L 300 3350 
Q 450 3800 712 4100 
Q 975 4400 1425 4450 
Q 1875 4500 2212 4337 
Q 2550 4175 2687 3837 
Q 2825 3500 2725 3100 
Q 2625 2700 2150 2400 
Q 2500 2250 2687 1950 
Q 2875 1650 2812 1162 
Q 2750 675 2375 375 
Q 2000 75 1525 87 
Q 1050 100 700 387 
Q 350 675 250 1225 
z
" transform="scale(0.015625)"/>
     </defs>
     <use xlink:href="#SimHei-33"/>
    </g>
   </g>
   <g id="text_19">
    <!-- 4 -->
    <g style="fill: #ffffff" transform="translate(410.171272 211.744) scale(0.08 -0.08)">
     <defs>
      <path id="SimHei-34" d="M 2000 1100 
L 75 1100 
L 75 1525 
L 2100 4450 
L 2475 4450 
L 2475 1525 
L 3075 1525 
L 3075 1100 
L 2475 1100 
L 2475 150 
L 2000 150 
L 2000 1100 
z
M 2000 1525 
L 2000 3500 
L 600 1525 
L 2000 1525 
z
" transform="scale(0.015625)"/>
     </defs>
     <use xlink:href="#SimHei-34"/>
    </g>
   </g>
   <g id="text_20">
    <!-- 5 -->
    <g style="fill: #ffffff" transform="translate(421.681584 98.106896) scale(0.08 -0.08)">
     <use xlink:href="#SimHei-35"/>
    </g>
   </g>
   <g id="text_21">
    <!-- 6 -->
    <g style="fill: #ffffff" transform="translate(327.614554 109.633395) scale(0.08 -0.08)">
     <defs>
      <path id="SimHei-36" d="M 250 1612 
Q 275 1975 387 2225 
Q 500 2475 725 2850 
L 1750 4450 
L 2325 4450 
L 1275 2800 
Q 1950 2975 2350 2750 
Q 2750 2525 2887 2237 
Q 3025 1950 3037 1612 
Q 3050 1275 2937 950 
Q 2825 625 2537 362 
Q 2250 100 1737 75 
Q 1225 50 862 262 
Q 500 475 362 862 
Q 225 1250 250 1612 
z
M 1025 787 
Q 1250 550 1625 525 
Q 2000 500 2250 775 
Q 2500 1050 2500 1575 
Q 2500 2100 2187 2300 
Q 1875 2500 1487 2450 
Q 1100 2400 925 2075 
Q 750 1750 775 1387 
Q 800 1025 1025 787 
z
" transform="scale(0.015625)"/>
     </defs>
     <use xlink:href="#SimHei-36"/>
    </g>
   </g>
   <g id="text_22">
    <!-- 7 -->
    <g style="fill: #ffffff" transform="translate(324.014038 65.155286) scale(0.08 -0.08)">
     <defs>
      <path id="SimHei-37" d="M 850 150 
Q 1300 2050 2425 3925 
L 275 3925 
L 275 4375 
L 2950 4375 
L 2950 3950 
Q 1775 2050 1400 150 
L 850 150 
z
" transform="scale(0.015625)"/>
     </defs>
     <use xlink:href="#SimHei-37"/>
    </g>
   </g>
   <g id="text_23">
    <!-- 8 -->
    <g style="fill: #ffffff" transform="translate(508.462529 81.040325) scale(0.08 -0.08)">
     <defs>
      <path id="SimHei-38" d="M 175 1375 
Q 175 1675 325 1962 
Q 475 2250 825 2425 
Q 525 2600 425 2812 
Q 325 3025 312 3300 
Q 300 3575 387 3775 
Q 475 3975 650 4150 
Q 825 4325 1037 4387 
Q 1250 4450 1500 4450 
Q 1750 4450 1950 4400 
Q 2150 4350 2375 4187 
Q 2600 4025 2700 3725 
Q 2800 3425 2687 3025 
Q 2575 2625 2100 2400 
Q 2525 2275 2700 2012 
Q 2875 1750 2875 1375 
Q 2875 1000 2762 775 
Q 2650 550 2512 400 
Q 2375 250 2137 162 
Q 1900 75 1537 75 
Q 1175 75 912 162 
Q 650 250 475 425 
Q 300 600 237 837 
Q 175 1075 175 1375 
z
M 687 1400 
Q 675 1100 787 875 
Q 900 650 1200 587 
Q 1500 525 1825 600 
Q 2150 675 2275 950 
Q 2400 1225 2362 1500 
Q 2325 1775 2050 1962 
Q 1775 2150 1450 2125 
Q 1125 2100 912 1900 
Q 700 1700 687 1400 
z
M 775 3350 
Q 775 3100 950 2875 
Q 1125 2650 1500 2650 
Q 1875 2650 2062 2875 
Q 2250 3100 2237 3412 
Q 2225 3725 2012 3875 
Q 1800 4025 1437 4000 
Q 1075 3975 925 3787 
Q 775 3600 775 3350 
z
" transform="scale(0.015625)"/>
     </defs>
     <use xlink:href="#SimHei-38"/>
    </g>
   </g>
   <g id="text_24">
    <!-- 9 -->
    <g style="fill: #ffffff" transform="translate(495.619743 73.609803) scale(0.08 -0.08)">
     <defs>
      <path id="SimHei-39" d="M 800 75 
Q 1350 1000 1700 1750 
Q 1075 1650 662 1912 
Q 250 2175 162 2625 
Q 75 3075 175 3437 
Q 275 3800 487 4037 
Q 700 4275 1000 4375 
Q 1300 4475 1537 4475 
Q 1775 4475 2025 4375 
Q 2275 4275 2475 4075 
Q 2675 3875 2750 3662 
Q 2825 3450 2825 3112 
Q 2825 2775 2575 2250 
Q 2325 1725 1350 75 
L 800 75 
z
M 662 2875 
Q 700 2550 937 2337 
Q 1175 2125 1450 2150 
Q 1725 2175 1887 2300 
Q 2050 2425 2200 2725 
Q 2300 3100 2250 3362 
Q 2200 3625 1987 3800 
Q 1775 3975 1525 3975 
Q 1375 4000 1137 3900 
Q 900 3800 762 3500 
Q 625 3200 662 2875 
z
" transform="scale(0.015625)"/>
     </defs>
     <use xlink:href="#SimHei-39"/>
    </g>
   </g>
   <g id="text_25">
    <!-- 10 -->
    <g style="fill: #ffffff" transform="translate(507.795003 212.059075) scale(0.08 -0.08)">
     <use xlink:href="#SimHei-31"/>
     <use xlink:href="#SimHei-30" x="50"/>
    </g>
   </g>
   <g id="text_26">
    <!-- 11 -->
    <g style="fill: #ffffff" transform="translate(540.851711 259.609166) scale(0.08 -0.08)">
     <use xlink:href="#SimHei-31"/>
     <use xlink:href="#SimHei-31" x="50"/>
    </g>
   </g>
   <g id="text_27">
    <!-- 12 -->
    <g style="fill: #ffffff" transform="translate(498.014074 269.586546) scale(0.08 -0.08)">
     <use xlink:href="#SimHei-31"/>
     <use xlink:href="#SimHei-32" x="50"/>
    </g>
   </g>
   <g id="text_28">
    <!-- 13 -->
    <g style="fill: #ffffff" transform="translate(534.898102 253.832789) scale(0.08 -0.08)">
     <use xlink:href="#SimHei-31"/>
     <use xlink:href="#SimHei-33" x="50"/>
    </g>
   </g>
   <g id="text_29">
    <!-- 1 -->
    <g style="fill: #ffffff" transform="translate(507.470261 469.370447) scale(0.08 -0.08)">
     <use xlink:href="#SimHei-31"/>
    </g>
   </g>
   <g id="text_30">
    <!-- 2 -->
    <g style="fill: #ffffff" transform="translate(544.836248 600.336684) scale(0.08 -0.08)">
     <use xlink:href="#SimHei-32"/>
    </g>
   </g>
   <g id="text_31">
    <!-- 3 -->
    <g style="fill: #ffffff" transform="translate(575.766666 618.978631) scale(0.08 -0.08)">
     <use xlink:href="#SimHei-33"/>
    </g>
   </g>
   <g id="text_32">
    <!-- 4 -->
    <g style="fill: #ffffff" transform="translate(556.828518 560.978547) scale(0.08 -0.08)">
     <use xlink:href="#SimHei-34"/>
    </g>
   </g>
   <g id="text_33">
    <!-- 5 -->
    <g style="fill: #ffffff" transform="translate(502.055311 600.625503) scale(0.08 -0.08)">
     <use xlink:href="#SimHei-35"/>
    </g>
   </g>
   <g id="text_34">
    <!-- 6 -->
    <g style="fill: #ffffff" transform="translate(498.851702 599.023871) scale(0.08 -0.08)">
     <use xlink:href="#SimHei-36"/>
    </g>
   </g>
   <g id="text_35">
    <!-- 7 -->
    <g style="fill: #ffffff" transform="translate(514.557891 583.007551) scale(0.08 -0.08)">
     <use xlink:href="#SimHei-37"/>
    </g>
   </g>
   <g id="text_36">
    <!-- 8 -->
    <g style="fill: #ffffff" transform="translate(546.480578 545.172277) scale(0.08 -0.08)">
     <use xlink:href="#SimHei-38"/>
    </g>
   </g>
   <g id="text_37">
    <!-- 9 -->
    <g style="fill: #ffffff" transform="translate(447.934166 571.087208) scale(0.08 -0.08)">
     <use xlink:href="#SimHei-39"/>
    </g>
   </g>
   <g id="text_38">
    <!-- 1 -->
    <g style="fill: #ffffff" transform="translate(112.916057 390.39161) scale(0.08 -0.08)">
     <use xlink:href="#SimHei-31"/>
    </g>
   </g>
   <g id="text_39">
    <!-- 2 -->
    <g style="fill: #ffffff" transform="translate(217.926388 539.737231) scale(0.08 -0.08)">
     <use xlink:href="#SimHei-32"/>
    </g>
   </g>
   <g id="text_40">
    <!-- 3 -->
    <g style="fill: #ffffff" transform="translate(122.86709 392.833442) scale(0.08 -0.08)">
     <use xlink:href="#SimHei-33"/>
    </g>
   </g>
   <g id="text_41">
    <!-- 4 -->
    <g style="fill: #ffffff" transform="translate(180.361947 456.347341) scale(0.08 -0.08)">
     <use xlink:href="#SimHei-34"/>
    </g>
   </g>
   <g id="text_42">
    <!-- 5 -->
    <g style="fill: #ffffff" transform="translate(146.596476 582.088582) scale(0.08 -0.08)">
     <use xlink:href="#SimHei-35"/>
    </g>
   </g>
   <g id="text_43">
    <!-- 1 -->
    <g style="fill: #ffffff" transform="translate(602.841414 198.720894) scale(0.08 -0.08)">
     <use xlink:href="#SimHei-31"/>
    </g>
   </g>
   <g id="text_44">
    <!-- 2 -->
    <g style="fill: #ffffff" transform="translate(627.676471 91.254011) scale(0.08 -0.08)">
     <use xlink:href="#SimHei-32"/>
    </g>
   </g>
   <g id="text_45">
    <!-- 3 -->
    <g style="fill: #ffffff" transform="translate(623.168738 197.329312) scale(0.08 -0.08)">
     <use xlink:href="#SimHei-33"/>
    </g>
   </g>
   <g id="text_46">
    <!-- 4 -->
    <g style="fill: #ffffff" transform="translate(772.264129 113.099222) scale(0.08 -0.08)">
     <use xlink:href="#SimHei-34"/>
    </g>
   </g>
   <g id="text_47">
    <!-- 5 -->
    <g style="fill: #ffffff" transform="translate(689.395555 131.977474) scale(0.08 -0.08)">
     <use xlink:href="#SimHei-35"/>
    </g>
   </g>
   <g id="text_48">
    <!-- 1 -->
    <g style="fill: #ffffff" transform="translate(265.441861 340.557224) scale(0.08 -0.08)">
     <use xlink:href="#SimHei-31"/>
    </g>
   </g>
   <g id="text_49">
    <!-- 2 -->
    <g style="fill: #ffffff" transform="translate(219.343914 369.885469) scale(0.08 -0.08)">
     <use xlink:href="#SimHei-32"/>
    </g>
   </g>
   <g id="text_50">
    <!-- 3 -->
    <g style="fill: #ffffff" transform="translate(238.140309 341.870037) scale(0.08 -0.08)">
     <use xlink:href="#SimHei-33"/>
    </g>
   </g>
   <g id="text_51">
    <!-- 4 -->
    <g style="fill: #ffffff" transform="translate(139.338743 313.775836) scale(0.08 -0.08)">
     <use xlink:href="#SimHei-34"/>
    </g>
   </g>
   <g id="text_52">
    <!-- 5 -->
    <g style="fill: #ffffff" transform="translate(254.867117 174.013751) scale(0.08 -0.08)">
     <use xlink:href="#SimHei-35"/>
    </g>
   </g>
   <g id="text_53">
    <!-- 6 -->
    <g style="fill: #ffffff" transform="translate(227.82072 205.573778) scale(0.08 -0.08)">
     <use xlink:href="#SimHei-36"/>
    </g>
   </g>
   <g id="text_54">
    <!-- 7 -->
    <g style="fill: #ffffff" transform="translate(214.722779 193.075797) scale(0.08 -0.08)">
     <use xlink:href="#SimHei-37"/>
    </g>
   </g>
   <g id="text_55">
    <!-- 8 -->
    <g style="fill: #ffffff" transform="translate(259.94186 166.583228) scale(0.08 -0.08)">
     <use xlink:href="#SimHei-38"/>
    </g>
   </g>
   <g id="text_56">
    <!-- 9 -->
    <g style="fill: #ffffff" transform="translate(320.980532 242.621364) scale(0.08 -0.08)">
     <use xlink:href="#SimHei-39"/>
    </g>
   </g>
   <g id="text_57">
    <!-- 1 -->
    <g style="fill: #ffffff" transform="translate(440.477979 475.698206) scale(0.08 -0.08)">
     <use xlink:href="#SimHei-31"/>
    </g>
   </g>
   <g id="text_58">
    <!-- 2 -->
    <g style="fill: #ffffff" transform="translate(424.034677 466.429746) scale(0.08 -0.08)">
     <use xlink:href="#SimHei-32"/>
    </g>
   </g>
   <g id="text_59">
    <!-- 3 -->
    <g style="fill: #ffffff" transform="translate(344.511465 450.886038) scale(0.08 -0.08)">
     <use xlink:href="#SimHei-33"/>
    </g>
   </g>
   <g id="text_60">
    <!-- 4 -->
    <g style="fill: #ffffff" transform="translate(269.949594 429.224622) scale(0.08 -0.08)">
     <use xlink:href="#SimHei-34"/>
    </g>
   </g>
   <g id="text_61">
    <!-- 5 -->
    <g style="fill: #ffffff" transform="translate(307.060426 436.05125) scale(0.08 -0.08)">
     <use xlink:href="#SimHei-35"/>
    </g>
   </g>
   <g id="text_62">
    <!-- 6 -->
    <g style="fill: #ffffff" transform="translate(324.439296 414.967471) scale(0.08 -0.08)">
     <use xlink:href="#SimHei-36"/>
    </g>
   </g>
   <g id="text_63">
    <!-- 7 -->
    <g style="fill: #ffffff" transform="translate(313.666098 522.644404) scale(0.08 -0.08)">
     <use xlink:href="#SimHei-37"/>
    </g>
   </g>
   <g id="text_64">
    <!-- 8 -->
    <g style="fill: #ffffff" transform="translate(499.673867 422.84435) scale(0.08 -0.08)">
     <use xlink:href="#SimHei-38"/>
    </g>
   </g>
   <g id="text_65">
    <!-- 9 -->
    <g style="fill: #ffffff" transform="translate(310.944448 622.208151) scale(0.08 -0.08)">
     <use xlink:href="#SimHei-39"/>
    </g>
   </g>
   <g id="text_66">
    <!-- 10 -->
    <g style="fill: #ffffff" transform="translate(391.983124 365.316879) scale(0.08 -0.08)">
     <use xlink:href="#SimHei-31"/>
     <use xlink:href="#SimHei-30" x="50"/>
    </g>
   </g>
   <g id="text_67">
    <!-- 11 -->
    <g style="fill: #ffffff" transform="translate(364.766624 568.645376) scale(0.08 -0.08)">
     <use xlink:href="#SimHei-31"/>
     <use xlink:href="#SimHei-31" x="50"/>
    </g>
   </g>
   <g id="text_68">
    <!-- 1 -->
    <g style="fill: #ffffff" transform="translate(703.145558 277.279631) scale(0.08 -0.08)">
     <use xlink:href="#SimHei-31"/>
    </g>
   </g>
   <g id="text_69">
    <!-- 2 -->
    <g style="fill: #ffffff" transform="translate(719.56051 318.554476) scale(0.08 -0.08)">
     <use xlink:href="#SimHei-32"/>
    </g>
   </g>
   <g id="text_70">
    <!-- 3 -->
    <g style="fill: #ffffff" transform="translate(616.76152 408.403406) scale(0.08 -0.08)">
     <use xlink:href="#SimHei-33"/>
    </g>
   </g>
   <g id="text_71">
    <!-- 4 -->
    <g style="fill: #ffffff" transform="translate(693.47803 316.033874) scale(0.08 -0.08)">
     <use xlink:href="#SimHei-34"/>
    </g>
   </g>
   <g id="text_72">
    <!-- 1 -->
    <g style="fill: #ffffff" transform="translate(666.913592 490.664276) scale(0.08 -0.08)">
     <use xlink:href="#SimHei-31"/>
    </g>
   </g>
   <g id="text_73">
    <!-- 2 -->
    <g style="fill: #ffffff" transform="translate(741.702267 615.013935) scale(0.08 -0.08)">
     <use xlink:href="#SimHei-32"/>
    </g>
   </g>
   <g id="text_74">
    <!-- 3 -->
    <g style="fill: #ffffff" transform="translate(759.166188 505.945421) scale(0.08 -0.08)">
     <use xlink:href="#SimHei-33"/>
    </g>
   </g>
   <g id="text_75">
    <!-- 4 -->
    <g style="fill: #ffffff" transform="translate(731.52443 550.502298) scale(0.08 -0.08)">
     <use xlink:href="#SimHei-34"/>
    </g>
   </g>
  </g>
 </g>
 <defs>
  <clipPath id="p9e843b12ee">
   <rect x="48.98125" y="7.2" width="791.217686" height="668.463438"/>
  </clipPath>
 </defs>
</svg>
