<?xml version="1.0" encoding="utf-8" standalone="no"?>
<!DOCTYPE svg PUBLIC "-//W3C//DTD SVG 1.1//EN"
  "http://www.w3.org/Graphics/SVG/1.1/DTD/svg11.dtd">
<svg xmlns:xlink="http://www.w3.org/1999/xlink" width="856.764687pt" height="712.769687pt" viewBox="0 0 856.764687 712.769687" xmlns="http://www.w3.org/2000/svg" version="1.1">
 <metadata>
  <rdf:RDF xmlns:dc="http://purl.org/dc/elements/1.1/" xmlns:cc="http://creativecommons.org/ns#" xmlns:rdf="http://www.w3.org/1999/02/22-rdf-syntax-ns#">
   <cc:Work>
    <dc:type rdf:resource="http://purl.org/dc/dcmitype/StillImage"/>
    <dc:date>2025-05-09T18:31:35.956347</dc:date>
    <dc:format>image/svg+xml</dc:format>
    <dc:creator>
     <cc:Agent>
      <dc:title>Matplotlib v3.9.4, https://matplotlib.org/</dc:title>
     </cc:Agent>
    </dc:creator>
   </cc:Work>
  </rdf:RDF>
 </metadata>
 <defs>
  <style type="text/css">*{stroke-linejoin: round; stroke-linecap: butt}</style>
 </defs>
 <g id="figure_1">
  <g id="patch_1">
   <path d="M 0 712.769687 
L 856.764687 712.769687 
L 856.764687 0 
L 0 0 
z
" style="fill: #ffffff"/>
  </g>
  <g id="axes_1">
   <g id="patch_2">
    <path d="M 48.98125 675.663437 
L 849.564687 675.663437 
L 849.564687 7.2 
L 48.98125 7.2 
z
" style="fill: #ffffff"/>
   </g>
   <g id="matplotlib.axis_1">
    <g id="xtick_1">
     <g id="line2d_1">
      <path d="M 91.869648 675.663437 
L 91.869648 7.2 
" clip-path="url(#p4e706d2811)" style="fill: none; stroke-dasharray: 2.96,1.28; stroke-dashoffset: 0; stroke: #b0b0b0; stroke-opacity: 0.7; stroke-width: 0.8"/>
     </g>
     <g id="line2d_2">
      <defs>
       <path id="me8298ffe4f" d="M 0 0 
L 0 3.5 
" style="stroke: #000000; stroke-width: 0.8"/>
      </defs>
      <g>
       <use xlink:href="#me8298ffe4f" x="91.869648" y="675.663437" style="stroke: #000000; stroke-width: 0.8"/>
      </g>
     </g>
     <g id="text_1">
      <!-- 0 -->
      <g transform="translate(89.369648 689.538437) scale(0.1 -0.1)">
       <defs>
        <path id="SimHei-30" d="M 225 2537 
Q 250 3200 412 3587 
Q 575 3975 875 4225 
Q 1175 4475 1612 4475 
Q 2050 4475 2375 4112 
Q 2700 3750 2800 3200 
Q 2900 2650 2862 1937 
Q 2825 1225 2612 775 
Q 2400 325 1975 150 
Q 1550 -25 1125 187 
Q 700 400 525 750 
Q 350 1100 275 1487 
Q 200 1875 225 2537 
z
M 750 2687 
Q 675 2000 800 1462 
Q 925 925 1212 700 
Q 1500 475 1800 612 
Q 2100 750 2237 1162 
Q 2375 1575 2375 2062 
Q 2375 2550 2337 2950 
Q 2300 3350 2112 3675 
Q 1925 4000 1612 4012 
Q 1300 4025 1062 3700 
Q 825 3375 750 2687 
z
" transform="scale(0.015625)"/>
       </defs>
       <use xlink:href="#SimHei-30"/>
      </g>
     </g>
    </g>
    <g id="xtick_2">
     <g id="line2d_3">
      <path d="M 215.453093 675.663437 
L 215.453093 7.2 
" clip-path="url(#p4e706d2811)" style="fill: none; stroke-dasharray: 2.96,1.28; stroke-dashoffset: 0; stroke: #b0b0b0; stroke-opacity: 0.7; stroke-width: 0.8"/>
     </g>
     <g id="line2d_4">
      <g>
       <use xlink:href="#me8298ffe4f" x="215.453093" y="675.663437" style="stroke: #000000; stroke-width: 0.8"/>
      </g>
     </g>
     <g id="text_2">
      <!-- 500 -->
      <g transform="translate(207.953093 689.538437) scale(0.1 -0.1)">
       <defs>
        <path id="SimHei-35" d="M 550 1325 
Q 725 650 1150 575 
Q 1575 500 1837 662 
Q 2100 825 2212 1087 
Q 2325 1350 2312 1675 
Q 2300 2000 2137 2225 
Q 1975 2450 1725 2525 
Q 1475 2600 1162 2525 
Q 850 2450 650 2175 
L 225 2225 
Q 275 2375 700 4375 
L 2675 4375 
L 2675 3925 
L 1075 3925 
Q 950 3250 825 2850 
Q 1200 3025 1525 3012 
Q 1850 3000 2150 2862 
Q 2450 2725 2587 2487 
Q 2725 2250 2787 2012 
Q 2850 1775 2837 1500 
Q 2825 1225 2725 937 
Q 2625 650 2425 462 
Q 2225 275 1937 162 
Q 1650 50 1275 75 
Q 900 100 562 350 
Q 225 600 100 1200 
L 550 1325 
z
" transform="scale(0.015625)"/>
       </defs>
       <use xlink:href="#SimHei-35"/>
       <use xlink:href="#SimHei-30" x="50"/>
       <use xlink:href="#SimHei-30" x="100"/>
      </g>
     </g>
    </g>
    <g id="xtick_3">
     <g id="line2d_5">
      <path d="M 339.036537 675.663437 
L 339.036537 7.2 
" clip-path="url(#p4e706d2811)" style="fill: none; stroke-dasharray: 2.96,1.28; stroke-dashoffset: 0; stroke: #b0b0b0; stroke-opacity: 0.7; stroke-width: 0.8"/>
     </g>
     <g id="line2d_6">
      <g>
       <use xlink:href="#me8298ffe4f" x="339.036537" y="675.663437" style="stroke: #000000; stroke-width: 0.8"/>
      </g>
     </g>
     <g id="text_3">
      <!-- 1000 -->
      <g transform="translate(329.036537 689.538437) scale(0.1 -0.1)">
       <defs>
        <path id="SimHei-31" d="M 1400 3600 
Q 1075 3275 575 2975 
L 575 3450 
Q 1200 3875 1600 4450 
L 1900 4450 
L 1900 150 
L 1400 150 
L 1400 3600 
z
" transform="scale(0.015625)"/>
       </defs>
       <use xlink:href="#SimHei-31"/>
       <use xlink:href="#SimHei-30" x="50"/>
       <use xlink:href="#SimHei-30" x="100"/>
       <use xlink:href="#SimHei-30" x="150"/>
      </g>
     </g>
    </g>
    <g id="xtick_4">
     <g id="line2d_7">
      <path d="M 462.619981 675.663437 
L 462.619981 7.2 
" clip-path="url(#p4e706d2811)" style="fill: none; stroke-dasharray: 2.96,1.28; stroke-dashoffset: 0; stroke: #b0b0b0; stroke-opacity: 0.7; stroke-width: 0.8"/>
     </g>
     <g id="line2d_8">
      <g>
       <use xlink:href="#me8298ffe4f" x="462.619981" y="675.663437" style="stroke: #000000; stroke-width: 0.8"/>
      </g>
     </g>
     <g id="text_4">
      <!-- 1500 -->
      <g transform="translate(452.619981 689.538437) scale(0.1 -0.1)">
       <use xlink:href="#SimHei-31"/>
       <use xlink:href="#SimHei-35" x="50"/>
       <use xlink:href="#SimHei-30" x="100"/>
       <use xlink:href="#SimHei-30" x="150"/>
      </g>
     </g>
    </g>
    <g id="xtick_5">
     <g id="line2d_9">
      <path d="M 586.203425 675.663437 
L 586.203425 7.2 
" clip-path="url(#p4e706d2811)" style="fill: none; stroke-dasharray: 2.96,1.28; stroke-dashoffset: 0; stroke: #b0b0b0; stroke-opacity: 0.7; stroke-width: 0.8"/>
     </g>
     <g id="line2d_10">
      <g>
       <use xlink:href="#me8298ffe4f" x="586.203425" y="675.663437" style="stroke: #000000; stroke-width: 0.8"/>
      </g>
     </g>
     <g id="text_5">
      <!-- 2000 -->
      <g transform="translate(576.203425 689.538437) scale(0.1 -0.1)">
       <defs>
        <path id="SimHei-32" d="M 300 250 
Q 325 625 650 925 
Q 975 1225 1475 1862 
Q 1975 2500 2125 2850 
Q 2275 3200 2237 3450 
Q 2200 3700 2000 3862 
Q 1800 4025 1537 4000 
Q 1275 3975 1037 3800 
Q 800 3625 675 3275 
L 200 3350 
Q 400 3925 712 4187 
Q 1025 4450 1450 4475 
Q 1700 4500 1900 4462 
Q 2100 4425 2312 4287 
Q 2525 4150 2662 3875 
Q 2800 3600 2762 3212 
Q 2725 2825 2375 2287 
Q 2025 1750 1025 600 
L 2825 600 
L 2825 150 
L 300 150 
L 300 250 
z
" transform="scale(0.015625)"/>
       </defs>
       <use xlink:href="#SimHei-32"/>
       <use xlink:href="#SimHei-30" x="50"/>
       <use xlink:href="#SimHei-30" x="100"/>
       <use xlink:href="#SimHei-30" x="150"/>
      </g>
     </g>
    </g>
    <g id="xtick_6">
     <g id="line2d_11">
      <path d="M 709.786869 675.663437 
L 709.786869 7.2 
" clip-path="url(#p4e706d2811)" style="fill: none; stroke-dasharray: 2.96,1.28; stroke-dashoffset: 0; stroke: #b0b0b0; stroke-opacity: 0.7; stroke-width: 0.8"/>
     </g>
     <g id="line2d_12">
      <g>
       <use xlink:href="#me8298ffe4f" x="709.786869" y="675.663437" style="stroke: #000000; stroke-width: 0.8"/>
      </g>
     </g>
     <g id="text_6">
      <!-- 2500 -->
      <g transform="translate(699.786869 689.538437) scale(0.1 -0.1)">
       <use xlink:href="#SimHei-32"/>
       <use xlink:href="#SimHei-35" x="50"/>
       <use xlink:href="#SimHei-30" x="100"/>
       <use xlink:href="#SimHei-30" x="150"/>
      </g>
     </g>
    </g>
    <g id="xtick_7">
     <g id="line2d_13">
      <path d="M 833.370313 675.663437 
L 833.370313 7.2 
" clip-path="url(#p4e706d2811)" style="fill: none; stroke-dasharray: 2.96,1.28; stroke-dashoffset: 0; stroke: #b0b0b0; stroke-opacity: 0.7; stroke-width: 0.8"/>
     </g>
     <g id="line2d_14">
      <g>
       <use xlink:href="#me8298ffe4f" x="833.370313" y="675.663437" style="stroke: #000000; stroke-width: 0.8"/>
      </g>
     </g>
     <g id="text_7">
      <!-- 3000 -->
      <g transform="translate(823.370313 689.538437) scale(0.1 -0.1)">
       <defs>
        <path id="SimHei-33" d="M 250 1225 
L 700 1300 
Q 800 975 1025 762 
Q 1250 550 1587 562 
Q 1925 575 2125 837 
Q 2325 1100 2300 1437 
Q 2275 1775 2037 1962 
Q 1800 2150 1275 2225 
L 1275 2550 
Q 1800 2600 2037 2825 
Q 2275 3050 2250 3412 
Q 2225 3775 1925 3937 
Q 1625 4100 1287 3975 
Q 950 3850 750 3275 
L 300 3350 
Q 450 3800 712 4100 
Q 975 4400 1425 4450 
Q 1875 4500 2212 4337 
Q 2550 4175 2687 3837 
Q 2825 3500 2725 3100 
Q 2625 2700 2150 2400 
Q 2500 2250 2687 1950 
Q 2875 1650 2812 1162 
Q 2750 675 2375 375 
Q 2000 75 1525 87 
Q 1050 100 700 387 
Q 350 675 250 1225 
z
" transform="scale(0.015625)"/>
       </defs>
       <use xlink:href="#SimHei-33"/>
       <use xlink:href="#SimHei-30" x="50"/>
       <use xlink:href="#SimHei-30" x="100"/>
       <use xlink:href="#SimHei-30" x="150"/>
      </g>
     </g>
    </g>
    <g id="text_8">
     <!-- X坐标 -->
     <g transform="translate(434.272969 704.069687) scale(0.12 -0.12)">
      <defs>
       <path id="SimHei-58" d="M 3000 125 
L 2400 125 
L 1550 1875 
L 700 125 
L 100 125 
L 1275 2375 
L 225 4400 
L 825 4400 
L 1550 2850 
L 2275 4400 
L 2875 4400 
L 1825 2375 
L 3000 125 
z
" transform="scale(0.015625)"/>
       <path id="SimHei-5750" d="M 3450 5100 
Q 3425 4675 3425 4150 
L 3425 1500 
L 4550 1500 
Q 4975 1500 5450 1525 
L 5450 1075 
Q 5000 1100 4500 1100 
L 3425 1100 
L 3425 50 
L 5075 50 
Q 5500 50 5975 75 
L 5975 -375 
Q 5525 -350 5075 -350 
L 1475 -350 
Q 925 -350 400 -375 
L 400 75 
Q 925 50 1475 50 
L 2925 50 
L 2925 1100 
L 2050 1100 
Q 1450 1100 950 1075 
L 950 1525 
Q 1450 1500 2050 1500 
L 2925 1500 
L 2925 4150 
Q 2925 4675 2900 5100 
L 3450 5100 
z
M 5200 4450 
Q 5050 4250 4825 3600 
Q 5200 3300 5975 2500 
Q 5775 2400 5575 2150 
Q 5075 2800 4650 3150 
Q 4375 2500 3975 1925 
Q 3725 2125 3525 2200 
Q 3875 2575 4212 3362 
Q 4550 4150 4600 4650 
Q 4900 4525 5200 4450 
z
M 350 2150 
Q 600 2375 950 3087 
Q 1300 3800 1450 4575 
Q 1625 4475 2050 4400 
Q 1950 4275 1862 4050 
Q 1775 3825 1700 3575 
Q 2400 2950 2700 2475 
Q 2425 2325 2250 2150 
Q 2025 2550 1887 2725 
Q 1750 2900 1500 3125 
Q 1250 2525 800 1875 
Q 575 2050 350 2150 
z
" transform="scale(0.015625)"/>
       <path id="SimHei-6807" d="M 1275 4400 
Q 1275 4800 1250 5175 
L 1750 5175 
Q 1725 4825 1725 4400 
L 1725 3800 
Q 2125 3800 2575 3825 
L 2575 3350 
Q 2125 3375 1725 3375 
L 1725 2525 
Q 1900 2650 2075 2800 
Q 2400 2275 2650 1775 
Q 2375 1650 2175 1500 
Q 2025 2000 1725 2425 
L 1725 475 
Q 1725 -50 1750 -575 
L 1250 -575 
Q 1275 -25 1275 475 
L 1275 2100 
Q 1025 1400 500 750 
Q 350 950 125 1125 
Q 550 1550 812 2187 
Q 1075 2825 1150 3375 
Q 675 3375 325 3325 
L 325 3825 
Q 800 3800 1275 3800 
L 1275 4400 
z
M 5175 3125 
Q 5675 3125 6050 3150 
L 6050 2675 
Q 5675 2700 5275 2700 
L 4500 2700 
L 4500 175 
Q 4500 -225 4275 -350 
Q 4050 -475 3475 -550 
Q 3425 -250 3275 25 
Q 3775 25 3900 62 
Q 4025 100 4025 350 
L 4025 2700 
L 3400 2700 
Q 2775 2700 2500 2650 
L 2500 3150 
Q 2825 3125 3400 3125 
L 5175 3125 
z
M 4900 4775 
Q 5425 4775 5750 4800 
L 5750 4300 
Q 5275 4350 4750 4350 
L 3525 4350 
Q 3125 4350 2750 4300 
L 2750 4800 
Q 3100 4775 3525 4775 
L 4900 4775 
z
M 5275 2025 
Q 5825 1175 6200 500 
Q 5925 375 5650 200 
Q 5375 925 4825 1725 
Q 5075 1850 5275 2025 
z
M 3600 1775 
Q 3500 1625 3225 975 
Q 2950 325 2800 50 
Q 2575 175 2300 275 
Q 2625 775 2787 1187 
Q 2950 1600 3050 2000 
Q 3325 1875 3600 1775 
z
" transform="scale(0.015625)"/>
      </defs>
      <use xlink:href="#SimHei-58"/>
      <use xlink:href="#SimHei-5750" x="50"/>
      <use xlink:href="#SimHei-6807" x="150"/>
     </g>
    </g>
   </g>
   <g id="matplotlib.axis_2">
    <g id="ytick_1">
     <g id="line2d_15">
      <path d="M 48.98125 622.236857 
L 849.564687 622.236857 
" clip-path="url(#p4e706d2811)" style="fill: none; stroke-dasharray: 2.96,1.28; stroke-dashoffset: 0; stroke: #b0b0b0; stroke-opacity: 0.7; stroke-width: 0.8"/>
     </g>
     <g id="line2d_16">
      <defs>
       <path id="m6d8d95b8f5" d="M 0 0 
L -3.5 0 
" style="stroke: #000000; stroke-width: 0.8"/>
      </defs>
      <g>
       <use xlink:href="#m6d8d95b8f5" x="48.98125" y="622.236857" style="stroke: #000000; stroke-width: 0.8"/>
      </g>
     </g>
     <g id="text_9">
      <!-- 0 -->
      <g transform="translate(36.98125 625.674357) scale(0.1 -0.1)">
       <use xlink:href="#SimHei-30"/>
      </g>
     </g>
    </g>
    <g id="ytick_2">
     <g id="line2d_17">
      <path d="M 48.98125 521.409159 
L 849.564687 521.409159 
" clip-path="url(#p4e706d2811)" style="fill: none; stroke-dasharray: 2.96,1.28; stroke-dashoffset: 0; stroke: #b0b0b0; stroke-opacity: 0.7; stroke-width: 0.8"/>
     </g>
     <g id="line2d_18">
      <g>
       <use xlink:href="#m6d8d95b8f5" x="48.98125" y="521.409159" style="stroke: #000000; stroke-width: 0.8"/>
      </g>
     </g>
     <g id="text_10">
      <!-- 500 -->
      <g transform="translate(26.98125 524.846659) scale(0.1 -0.1)">
       <use xlink:href="#SimHei-35"/>
       <use xlink:href="#SimHei-30" x="50"/>
       <use xlink:href="#SimHei-30" x="100"/>
      </g>
     </g>
    </g>
    <g id="ytick_3">
     <g id="line2d_19">
      <path d="M 48.98125 420.581461 
L 849.564687 420.581461 
" clip-path="url(#p4e706d2811)" style="fill: none; stroke-dasharray: 2.96,1.28; stroke-dashoffset: 0; stroke: #b0b0b0; stroke-opacity: 0.7; stroke-width: 0.8"/>
     </g>
     <g id="line2d_20">
      <g>
       <use xlink:href="#m6d8d95b8f5" x="48.98125" y="420.581461" style="stroke: #000000; stroke-width: 0.8"/>
      </g>
     </g>
     <g id="text_11">
      <!-- 1000 -->
      <g transform="translate(21.98125 424.018961) scale(0.1 -0.1)">
       <use xlink:href="#SimHei-31"/>
       <use xlink:href="#SimHei-30" x="50"/>
       <use xlink:href="#SimHei-30" x="100"/>
       <use xlink:href="#SimHei-30" x="150"/>
      </g>
     </g>
    </g>
    <g id="ytick_4">
     <g id="line2d_21">
      <path d="M 48.98125 319.753764 
L 849.564687 319.753764 
" clip-path="url(#p4e706d2811)" style="fill: none; stroke-dasharray: 2.96,1.28; stroke-dashoffset: 0; stroke: #b0b0b0; stroke-opacity: 0.7; stroke-width: 0.8"/>
     </g>
     <g id="line2d_22">
      <g>
       <use xlink:href="#m6d8d95b8f5" x="48.98125" y="319.753764" style="stroke: #000000; stroke-width: 0.8"/>
      </g>
     </g>
     <g id="text_12">
      <!-- 1500 -->
      <g transform="translate(21.98125 323.191264) scale(0.1 -0.1)">
       <use xlink:href="#SimHei-31"/>
       <use xlink:href="#SimHei-35" x="50"/>
       <use xlink:href="#SimHei-30" x="100"/>
       <use xlink:href="#SimHei-30" x="150"/>
      </g>
     </g>
    </g>
    <g id="ytick_5">
     <g id="line2d_23">
      <path d="M 48.98125 218.926066 
L 849.564687 218.926066 
" clip-path="url(#p4e706d2811)" style="fill: none; stroke-dasharray: 2.96,1.28; stroke-dashoffset: 0; stroke: #b0b0b0; stroke-opacity: 0.7; stroke-width: 0.8"/>
     </g>
     <g id="line2d_24">
      <g>
       <use xlink:href="#m6d8d95b8f5" x="48.98125" y="218.926066" style="stroke: #000000; stroke-width: 0.8"/>
      </g>
     </g>
     <g id="text_13">
      <!-- 2000 -->
      <g transform="translate(21.98125 222.363566) scale(0.1 -0.1)">
       <use xlink:href="#SimHei-32"/>
       <use xlink:href="#SimHei-30" x="50"/>
       <use xlink:href="#SimHei-30" x="100"/>
       <use xlink:href="#SimHei-30" x="150"/>
      </g>
     </g>
    </g>
    <g id="ytick_6">
     <g id="line2d_25">
      <path d="M 48.98125 118.098368 
L 849.564687 118.098368 
" clip-path="url(#p4e706d2811)" style="fill: none; stroke-dasharray: 2.96,1.28; stroke-dashoffset: 0; stroke: #b0b0b0; stroke-opacity: 0.7; stroke-width: 0.8"/>
     </g>
     <g id="line2d_26">
      <g>
       <use xlink:href="#m6d8d95b8f5" x="48.98125" y="118.098368" style="stroke: #000000; stroke-width: 0.8"/>
      </g>
     </g>
     <g id="text_14">
      <!-- 2500 -->
      <g transform="translate(21.98125 121.535868) scale(0.1 -0.1)">
       <use xlink:href="#SimHei-32"/>
       <use xlink:href="#SimHei-35" x="50"/>
       <use xlink:href="#SimHei-30" x="100"/>
       <use xlink:href="#SimHei-30" x="150"/>
      </g>
     </g>
    </g>
    <g id="ytick_7">
     <g id="line2d_27">
      <path d="M 48.98125 17.27067 
L 849.564687 17.27067 
" clip-path="url(#p4e706d2811)" style="fill: none; stroke-dasharray: 2.96,1.28; stroke-dashoffset: 0; stroke: #b0b0b0; stroke-opacity: 0.7; stroke-width: 0.8"/>
     </g>
     <g id="line2d_28">
      <g>
       <use xlink:href="#m6d8d95b8f5" x="48.98125" y="17.27067" style="stroke: #000000; stroke-width: 0.8"/>
      </g>
     </g>
     <g id="text_15">
      <!-- 3000 -->
      <g transform="translate(21.98125 20.70817) scale(0.1 -0.1)">
       <use xlink:href="#SimHei-33"/>
       <use xlink:href="#SimHei-30" x="50"/>
       <use xlink:href="#SimHei-30" x="100"/>
       <use xlink:href="#SimHei-30" x="150"/>
      </g>
     </g>
    </g>
    <g id="text_16">
     <!-- Y坐标 -->
     <g transform="translate(16.48125 356.431719) rotate(-90) scale(0.12 -0.12)">
      <defs>
       <path id="SimHei-59" d="M 3025 4400 
L 1850 2050 
L 1850 125 
L 1275 125 
L 1275 2050 
L 100 4400 
L 675 4400 
L 1550 2575 
L 1575 2575 
L 2450 4400 
L 3025 4400 
z
" transform="scale(0.015625)"/>
      </defs>
      <use xlink:href="#SimHei-59"/>
      <use xlink:href="#SimHei-5750" x="50"/>
      <use xlink:href="#SimHei-6807" x="150"/>
     </g>
    </g>
   </g>
   <g id="patch_3">
    <path d="M 48.98125 675.663437 
L 48.98125 7.2 
" style="fill: none; stroke: #000000; stroke-width: 0.8; stroke-linejoin: miter; stroke-linecap: square"/>
   </g>
   <g id="patch_4">
    <path d="M 849.564687 675.663437 
L 849.564687 7.2 
" style="fill: none; stroke: #000000; stroke-width: 0.8; stroke-linejoin: miter; stroke-linecap: square"/>
   </g>
   <g id="patch_5">
    <path d="M 48.98125 675.663437 
L 849.564687 675.663437 
" style="fill: none; stroke: #000000; stroke-width: 0.8; stroke-linejoin: miter; stroke-linecap: square"/>
   </g>
   <g id="patch_6">
    <path d="M 48.98125 7.2 
L 849.564687 7.2 
" style="fill: none; stroke: #000000; stroke-width: 0.8; stroke-linejoin: miter; stroke-linecap: square"/>
   </g>
   <g id="patch_7">
    <path d="M 436.109915 339.038705 
Q 381.724818 312.334102 329.84866 286.861458 
" style="fill: none; opacity: 0.7; stroke: #0000ff; stroke-width: 2.5; stroke-linecap: round"/>
    <path d="M 332.557643 290.419746 
L 329.84866 286.861458 
L 334.32068 286.829244 
" style="fill: none; opacity: 0.7; stroke: #0000ff; stroke-width: 2.5; stroke-linecap: round"/>
   </g>
   <g id="patch_8">
    <path d="M 323.585281 285.151667 
Q 314.644259 287.004286 308.440185 288.289798 
" style="fill: none; opacity: 0.7; stroke: #0000ff; stroke-width: 2.5; stroke-linecap: round"/>
    <path d="M 312.762777 289.43662 
L 308.440185 288.289798 
L 311.951198 285.519818 
" style="fill: none; opacity: 0.7; stroke: #0000ff; stroke-width: 2.5; stroke-linecap: round"/>
   </g>
   <g id="patch_9">
    <path d="M 304.811704 287.575472 
Q 329.198381 249.125402 352.08801 213.035703 
" style="fill: none; opacity: 0.7; stroke: #0000ff; stroke-width: 2.5; stroke-linecap: round"/>
    <path d="M 348.256666 215.34239 
L 352.08801 213.035703 
L 351.634553 217.48479 
" style="fill: none; opacity: 0.7; stroke: #0000ff; stroke-width: 2.5; stroke-linecap: round"/>
   </g>
   <g id="patch_10">
    <path d="M 352.659138 208.992818 
Q 311.292304 209.165944 272.720531 209.327372 
" style="fill: none; opacity: 0.7; stroke: #0000ff; stroke-width: 2.5; stroke-linecap: round"/>
    <path d="M 276.728866 211.310614 
L 272.720531 209.327372 
L 276.712126 207.310649 
" style="fill: none; opacity: 0.7; stroke: #0000ff; stroke-width: 2.5; stroke-linecap: round"/>
   </g>
   <g id="patch_11">
    <path d="M 268.745258 211.174129 
Q 285.834676 249.307264 301.781012 284.889739 
" style="fill: none; opacity: 0.7; stroke: #0000ff; stroke-width: 2.5; stroke-linecap: round"/>
    <path d="M 301.97027 280.421609 
L 301.781012 284.889739 
L 298.320063 282.057455 
" style="fill: none; opacity: 0.7; stroke: #0000ff; stroke-width: 2.5; stroke-linecap: round"/>
   </g>
   <g id="patch_12">
    <path d="M 302.010645 288.264579 
Q 218.72952 240.191474 137.869126 193.515708 
" style="fill: none; opacity: 0.7; stroke: #0000ff; stroke-width: 2.5; stroke-linecap: round"/>
    <path d="M 140.333539 197.247553 
L 137.869126 193.515708 
L 142.33325 193.783285 
" style="fill: none; opacity: 0.7; stroke: #0000ff; stroke-width: 2.5; stroke-linecap: round"/>
   </g>
   <g id="patch_13">
    <path d="M 133.263001 193.069907 
Q 124.705461 230.028528 116.778425 264.264105 
" style="fill: none; opacity: 0.7; stroke: #0000ff; stroke-width: 2.5; stroke-linecap: round"/>
    <path d="M 119.62918 260.818355 
L 116.778425 264.264105 
L 115.732277 259.916051 
" style="fill: none; opacity: 0.7; stroke: #0000ff; stroke-width: 2.5; stroke-linecap: round"/>
   </g>
   <g id="patch_14">
    <path d="M 117.650839 269.36714 
Q 276.800954 304.428183 433.221438 338.887883 
" style="fill: none; opacity: 0.7; stroke: #0000ff; stroke-width: 2.5; stroke-linecap: round"/>
    <path d="M 429.745393 336.074146 
L 433.221438 338.887883 
L 428.884822 339.980477 
" style="fill: none; opacity: 0.7; stroke: #0000ff; stroke-width: 2.5; stroke-linecap: round"/>
   </g>
   <g id="patch_15">
    <path d="M 439.901692 339.900691 
Q 564.564176 338.739617 686.431697 337.604575 
" style="fill: none; opacity: 0.7; stroke: #ff0000; stroke-width: 2.5; stroke-linecap: round"/>
    <path d="M 682.413244 335.641915 
L 686.431697 337.604575 
L 682.450498 339.641742 
" style="fill: none; opacity: 0.7; stroke: #ff0000; stroke-width: 2.5; stroke-linecap: round"/>
   </g>
   <g id="patch_16">
    <path d="M 692.025054 339.39276 
Q 705.029055 369.16976 716.914426 396.385282 
" style="fill: none; opacity: 0.7; stroke: #ff0000; stroke-width: 2.5; stroke-linecap: round"/>
    <path d="M 717.146417 391.919167 
L 716.914426 396.385282 
L 713.480729 393.520021 
" style="fill: none; opacity: 0.7; stroke: #ff0000; stroke-width: 2.5; stroke-linecap: round"/>
   </g>
   <g id="patch_17">
    <path d="M 719.178312 398.805524 
Q 721.873324 383.39624 724.086798 370.740249 
" style="fill: none; opacity: 0.7; stroke: #ff0000; stroke-width: 2.5; stroke-linecap: round"/>
    <path d="M 721.427581 374.335881 
L 724.086798 370.740249 
L 725.367773 375.025002 
" style="fill: none; opacity: 0.7; stroke: #ff0000; stroke-width: 2.5; stroke-linecap: round"/>
   </g>
   <g id="patch_18">
    <path d="M 724.780787 368.010941 
Q 724.172062 377.173937 723.748614 383.547996 
" style="fill: none; opacity: 0.7; stroke: #ff0000; stroke-width: 2.5; stroke-linecap: round"/>
    <path d="M 726.009362 379.689367 
L 723.748614 383.547996 
L 722.01816 379.424219 
" style="fill: none; opacity: 0.7; stroke: #ff0000; stroke-width: 2.5; stroke-linecap: round"/>
   </g>
   <g id="patch_19">
    <path d="M 723.725983 386.354919 
Q 726.3471 368.775861 728.556013 353.961326 
" style="fill: none; opacity: 0.7; stroke: #ff0000; stroke-width: 2.5; stroke-linecap: round"/>
    <path d="M 725.987985 357.622641 
L 728.556013 353.961326 
L 729.944248 358.212538 
" style="fill: none; opacity: 0.7; stroke: #ff0000; stroke-width: 2.5; stroke-linecap: round"/>
   </g>
   <g id="patch_20">
    <path d="M 728.761272 351.155413 
Q 727.087728 357.617743 726.114909 361.374248 
" style="fill: none; opacity: 0.7; stroke: #ff0000; stroke-width: 2.5; stroke-linecap: round"/>
    <path d="M 729.053835 358.003386 
L 726.114909 361.374248 
L 725.181575 357.00059 
" style="fill: none; opacity: 0.7; stroke: #ff0000; stroke-width: 2.5; stroke-linecap: round"/>
   </g>
   <g id="patch_21">
    <path d="M 722.920843 365.832346 
Q 581.405819 352.966174 442.674399 340.35308 
" style="fill: none; opacity: 0.7; stroke: #ff0000; stroke-width: 2.5; stroke-linecap: round"/>
    <path d="M 446.476881 342.70704 
L 442.674399 340.35308 
L 446.839057 338.72347 
" style="fill: none; opacity: 0.7; stroke: #ff0000; stroke-width: 2.5; stroke-linecap: round"/>
   </g>
   <g id="patch_22">
    <path d="M 436.275029 341.077117 
Q 393.068557 371.80007 352.139995 400.903262 
" style="fill: none; opacity: 0.7; stroke: #008000; stroke-width: 2.5; stroke-linecap: round"/>
    <path d="M 356.558882 400.215189 
L 352.139995 400.903262 
L 354.240869 396.955309 
" style="fill: none; opacity: 0.7; stroke: #008000; stroke-width: 2.5; stroke-linecap: round"/>
   </g>
   <g id="patch_23">
    <path d="M 347.827616 405.638706 
Q 337.94935 453.520185 328.635835 498.664229 
" style="fill: none; opacity: 0.7; stroke: #008000; stroke-width: 2.5; stroke-linecap: round"/>
    <path d="M 331.402791 495.150832 
L 328.635835 498.664229 
L 327.485291 494.342626 
" style="fill: none; opacity: 0.7; stroke: #008000; stroke-width: 2.5; stroke-linecap: round"/>
   </g>
   <g id="patch_24">
    <path d="M 327.966239 505.340951 
Q 330.695028 523.387854 333.005935 538.671087 
" style="fill: none; opacity: 0.7; stroke: #008000; stroke-width: 2.5; stroke-linecap: round"/>
    <path d="M 334.385433 534.417032 
L 333.005935 538.671087 
L 330.43039 535.015056 
" style="fill: none; opacity: 0.7; stroke: #008000; stroke-width: 2.5; stroke-linecap: round"/>
   </g>
   <g id="patch_25">
    <path d="M 334.61762 541.620503 
Q 357.647978 495.587635 379.427732 452.054465 
" style="fill: none; opacity: 0.7; stroke: #008000; stroke-width: 2.5; stroke-linecap: round"/>
    <path d="M 375.849374 454.736881 
L 379.427732 452.054465 
L 379.42665 456.526601 
" style="fill: none; opacity: 0.7; stroke: #008000; stroke-width: 2.5; stroke-linecap: round"/>
   </g>
   <g id="patch_26">
    <path d="M 382.700633 446.113979 
Q 399.356542 421.712305 414.436688 399.619196 
" style="fill: none; opacity: 0.7; stroke: #008000; stroke-width: 2.5; stroke-linecap: round"/>
    <path d="M 410.529766 401.795421 
L 414.436688 399.619196 
L 413.833515 404.050469 
" style="fill: none; opacity: 0.7; stroke: #008000; stroke-width: 2.5; stroke-linecap: round"/>
   </g>
   <g id="patch_27">
    <path d="M 415.860649 397.198397 
Q 372.402976 449.51024 330.731384 499.672104 
" style="fill: none; opacity: 0.7; stroke: #008000; stroke-width: 2.5; stroke-linecap: round"/>
    <path d="M 334.825815 497.873317 
L 330.731384 499.672104 
L 331.749013 495.317287 
" style="fill: none; opacity: 0.7; stroke: #008000; stroke-width: 2.5; stroke-linecap: round"/>
   </g>
   <g id="patch_28">
    <path d="M 329.550512 504.03761 
Q 346.082043 509.975747 359.983044 514.968996 
" style="fill: none; opacity: 0.7; stroke: #008000; stroke-width: 2.5; stroke-linecap: round"/>
    <path d="M 356.894643 511.734529 
L 359.983044 514.968996 
L 355.54243 515.499036 
" style="fill: none; opacity: 0.7; stroke: #008000; stroke-width: 2.5; stroke-linecap: round"/>
   </g>
   <g id="patch_29">
    <path d="M 366.485323 516.74857 
Q 393.151146 518.878178 417.030756 520.785271 
" style="fill: none; opacity: 0.7; stroke: #008000; stroke-width: 2.5; stroke-linecap: round"/>
    <path d="M 413.20267 518.473181 
L 417.030756 520.785271 
L 412.884233 522.460486 
" style="fill: none; opacity: 0.7; stroke: #008000; stroke-width: 2.5; stroke-linecap: round"/>
   </g>
   <g id="patch_30">
    <path d="M 421.877926 523.166082 
Q 423.159734 562.464558 424.350421 598.969435 
" style="fill: none; opacity: 0.7; stroke: #008000; stroke-width: 2.5; stroke-linecap: round"/>
    <path d="M 426.218959 594.906362 
L 424.350421 598.969435 
L 422.221085 595.036761 
" style="fill: none; opacity: 0.7; stroke: #008000; stroke-width: 2.5; stroke-linecap: round"/>
   </g>
   <g id="patch_31">
    <path d="M 424.60844 601.764316 
Q 431.205252 471.838671 437.660329 344.704516 
" style="fill: none; opacity: 0.7; stroke: #008000; stroke-width: 2.5; stroke-linecap: round"/>
    <path d="M 435.460068 348.597953 
L 437.660329 344.704516 
L 439.454922 348.800787 
" style="fill: none; opacity: 0.7; stroke: #008000; stroke-width: 2.5; stroke-linecap: round"/>
   </g>
   <g id="patch_32">
    <path d="M 439.61197 338.8858 
Q 495.862578 304.862329 549.721558 272.285445 
" style="fill: none; opacity: 0.7; stroke: #ffa500; stroke-width: 2.5; stroke-linecap: round"/>
    <path d="M 545.263845 272.644325 
L 549.721558 272.285445 
L 547.334034 276.066943 
" style="fill: none; opacity: 0.7; stroke: #ffa500; stroke-width: 2.5; stroke-linecap: round"/>
   </g>
   <g id="patch_33">
    <path d="M 555.826553 269.865419 
Q 604.211334 271.356524 649.802357 272.761533 
" style="fill: none; opacity: 0.7; stroke: #ffa500; stroke-width: 2.5; stroke-linecap: round"/>
    <path d="M 645.865861 270.63927 
L 649.802357 272.761533 
L 645.742649 274.637371 
" style="fill: none; opacity: 0.7; stroke: #ffa500; stroke-width: 2.5; stroke-linecap: round"/>
   </g>
   <g id="patch_34">
    <path d="M 653.233695 271.448885 
Q 604.941309 219.624603 558.554436 169.845198 
" style="fill: none; opacity: 0.7; stroke: #ffa500; stroke-width: 2.5; stroke-linecap: round"/>
    <path d="M 559.818193 174.13506 
L 558.554436 169.845198 
L 562.74458 171.40811 
" style="fill: none; opacity: 0.7; stroke: #ffa500; stroke-width: 2.5; stroke-linecap: round"/>
   </g>
   <g id="patch_35">
    <path d="M 554.762511 168.267379 
Q 543.715106 209.308331 533.394222 247.650271 
" style="fill: none; opacity: 0.7; stroke: #ffa500; stroke-width: 2.5; stroke-linecap: round"/>
    <path d="M 536.365189 244.307614 
L 533.394222 247.650271 
L 532.502677 243.267903 
" style="fill: none; opacity: 0.7; stroke: #ffa500; stroke-width: 2.5; stroke-linecap: round"/>
   </g>
   <g id="patch_36">
    <path d="M 531.723225 250.326669 
Q 520.209665 197.388348 509.290122 147.181261 
" style="fill: none; opacity: 0.7; stroke: #ffa500; stroke-width: 2.5; stroke-linecap: round"/>
    <path d="M 508.185896 151.51493 
L 509.290122 147.181261 
L 512.094522 150.664843 
" style="fill: none; opacity: 0.7; stroke: #ffa500; stroke-width: 2.5; stroke-linecap: round"/>
   </g>
   <g id="patch_37">
    <path d="M 510.05356 143.40211 
Q 531.775157 154.415431 551.003795 164.164767 
" style="fill: none; opacity: 0.7; stroke: #ffa500; stroke-width: 2.5; stroke-linecap: round"/>
    <path d="M 548.340596 160.572084 
L 551.003795 164.164767 
L 546.531729 164.139716 
" style="fill: none; opacity: 0.7; stroke: #ffa500; stroke-width: 2.5; stroke-linecap: round"/>
   </g>
   <g id="patch_38">
    <path d="M 554.163428 167.989774 
Q 496.593054 253.126844 440.588374 335.94851 
" style="fill: none; opacity: 0.7; stroke: #ffa500; stroke-width: 2.5; stroke-linecap: round"/>
    <path d="M 444.485783 333.755293 
L 440.588374 335.94851 
L 441.172246 331.514653 
" style="fill: none; opacity: 0.7; stroke: #ffa500; stroke-width: 2.5; stroke-linecap: round"/>
   </g>
   <g id="patch_39">
    <path d="M 436.705881 338.318142 
Q 358.315871 233.496093 281.599815 130.912431 
" style="fill: none; opacity: 0.7; stroke: #800080; stroke-width: 2.5; stroke-linecap: round"/>
    <path d="M 282.393722 135.313534 
L 281.599815 130.912431 
L 285.597042 132.917967 
" style="fill: none; opacity: 0.7; stroke: #800080; stroke-width: 2.5; stroke-linecap: round"/>
   </g>
   <g id="patch_40">
    <path d="M 277.241837 128.41 
Q 254.036875 149.303612 232.909076 168.326959 
" style="fill: none; opacity: 0.7; stroke: #800080; stroke-width: 2.5; stroke-linecap: round"/>
    <path d="M 237.219923 167.13675 
L 232.909076 168.326959 
L 234.543417 164.164156 
" style="fill: none; opacity: 0.7; stroke: #800080; stroke-width: 2.5; stroke-linecap: round"/>
   </g>
   <g id="patch_41">
    <path d="M 229.051145 169.556784 
Q 224.89478 141.439385 221.147147 116.087024 
" style="fill: none; opacity: 0.7; stroke: #800080; stroke-width: 2.5; stroke-linecap: round"/>
    <path d="M 219.753578 120.33649 
L 221.147147 116.087024 
L 223.710578 119.751559 
" style="fill: none; opacity: 0.7; stroke: #800080; stroke-width: 2.5; stroke-linecap: round"/>
   </g>
   <g id="patch_42">
    <path d="M 220.73859 113.323176 
Q 224.894956 141.440576 228.642588 166.792937 
" style="fill: none; opacity: 0.7; stroke: #800080; stroke-width: 2.5; stroke-linecap: round"/>
    <path d="M 230.036158 162.543471 
L 228.642588 166.792937 
L 226.079157 163.128402 
" style="fill: none; opacity: 0.7; stroke: #800080; stroke-width: 2.5; stroke-linecap: round"/>
   </g>
   <g id="patch_43">
    <path d="M 229.83667 169.59925 
Q 239.762196 130.56981 248.998835 94.249232 
" style="fill: none; opacity: 0.7; stroke: #800080; stroke-width: 2.5; stroke-linecap: round"/>
    <path d="M 246.074676 97.632913 
L 248.998835 94.249232 
L 249.951284 98.618768 
" style="fill: none; opacity: 0.7; stroke: #800080; stroke-width: 2.5; stroke-linecap: round"/>
   </g>
   <g id="patch_44">
    <path d="M 252.141185 90.002413 
Q 305.48444 100.826748 356.088437 111.095236 
" style="fill: none; opacity: 0.7; stroke: #800080; stroke-width: 2.5; stroke-linecap: round"/>
    <path d="M 352.566061 108.33972 
L 356.088437 111.095236 
L 351.770599 112.259827 
" style="fill: none; opacity: 0.7; stroke: #800080; stroke-width: 2.5; stroke-linecap: round"/>
   </g>
   <g id="patch_45">
    <path d="M 362.000591 110.458208 
Q 365.248271 106.201112 366.800628 104.166264 
" style="fill: none; opacity: 0.7; stroke: #800080; stroke-width: 2.5; stroke-linecap: round"/>
    <path d="M 362.78437 106.133412 
L 366.800628 104.166264 
L 365.964592 108.559559 
" style="fill: none; opacity: 0.7; stroke: #800080; stroke-width: 2.5; stroke-linecap: round"/>
   </g>
   <g id="patch_46">
    <path d="M 367.951474 101.30386 
Q 332.822411 120.305347 300.151828 137.97703 
" style="fill: none; opacity: 0.7; stroke: #800080; stroke-width: 2.5; stroke-linecap: round"/>
    <path d="M 304.621648 137.833114 
L 300.151828 137.97703 
L 302.718587 134.314824 
" style="fill: none; opacity: 0.7; stroke: #800080; stroke-width: 2.5; stroke-linecap: round"/>
   </g>
   <g id="patch_47">
    <path d="M 297.089618 141.890203 
Q 366.917395 240.090409 435.125407 336.012708 
" style="fill: none; opacity: 0.7; stroke: #800080; stroke-width: 2.5; stroke-linecap: round"/>
    <path d="M 434.437327 331.593823 
L 435.125407 336.012708 
L 431.177451 333.911841 
" style="fill: none; opacity: 0.7; stroke: #800080; stroke-width: 2.5; stroke-linecap: round"/>
   </g>
   <g id="patch_48">
    <path d="M 439.686741 339.004513 
Q 572.870571 270.690083 703.5674 203.651319 
" style="fill: none; opacity: 0.7; stroke: #00ffff; stroke-width: 2.5; stroke-linecap: round"/>
    <path d="M 699.095501 203.69735 
L 703.5674 203.651319 
L 700.921086 207.256457 
" style="fill: none; opacity: 0.7; stroke: #00ffff; stroke-width: 2.5; stroke-linecap: round"/>
   </g>
   <g id="patch_49">
    <path d="M 708.871215 199.752656 
Q 736.876911 153.568643 763.433328 109.774626 
" style="fill: none; opacity: 0.7; stroke: #00ffff; stroke-width: 2.5; stroke-linecap: round"/>
    <path d="M 759.649145 112.157893 
L 763.433328 109.774626 
L 763.069431 114.231933 
" style="fill: none; opacity: 0.7; stroke: #00ffff; stroke-width: 2.5; stroke-linecap: round"/>
   </g>
   <g id="patch_50">
    <path d="M 763.925671 105.829489 
Q 683.366391 112.01833 605.593985 117.993074 
" style="fill: none; opacity: 0.7; stroke: #00ffff; stroke-width: 2.5; stroke-linecap: round"/>
    <path d="M 609.735429 119.680807 
L 605.593985 117.993074 
L 609.429038 115.692559 
" style="fill: none; opacity: 0.7; stroke: #00ffff; stroke-width: 2.5; stroke-linecap: round"/>
   </g>
   <g id="patch_51">
    <path d="M 602.803786 118.207427 
Q 683.363066 112.018586 761.135472 106.043842 
" style="fill: none; opacity: 0.7; stroke: #00ffff; stroke-width: 2.5; stroke-linecap: round"/>
    <path d="M 756.994028 104.356109 
L 761.135472 106.043842 
L 757.300419 108.344357 
" style="fill: none; opacity: 0.7; stroke: #00ffff; stroke-width: 2.5; stroke-linecap: round"/>
   </g>
   <g id="patch_52">
    <path d="M 764.738186 107.290847 
Q 737.605046 144.404939 712.1215 179.262631 
" style="fill: none; opacity: 0.7; stroke: #00ffff; stroke-width: 2.5; stroke-linecap: round"/>
    <path d="M 716.096756 177.213888 
L 712.1215 179.262631 
L 712.86766 174.853181 
" style="fill: none; opacity: 0.7; stroke: #00ffff; stroke-width: 2.5; stroke-linecap: round"/>
   </g>
   <g id="patch_53">
    <path d="M 708.064192 181.551016 
Q 663.863164 124.652043 621.376852 69.960387 
" style="fill: none; opacity: 0.7; stroke: #00ffff; stroke-width: 2.5; stroke-linecap: round"/>
    <path d="M 622.251329 74.346193 
L 621.376852 69.960387 
L 625.410183 71.892289 
" style="fill: none; opacity: 0.7; stroke: #00ffff; stroke-width: 2.5; stroke-linecap: round"/>
   </g>
   <g id="patch_54">
    <path d="M 619.474818 67.879876 
Q 644.077379 108.247219 667.225302 146.227823 
" style="fill: none; opacity: 0.7; stroke: #00ffff; stroke-width: 2.5; stroke-linecap: round"/>
    <path d="M 666.851404 141.771345 
L 667.225302 146.227823 
L 663.43578 143.853054 
" style="fill: none; opacity: 0.7; stroke: #00ffff; stroke-width: 2.5; stroke-linecap: round"/>
   </g>
   <g id="patch_55">
    <path d="M 671.410108 149.249612 
Q 707.168074 126.526818 740.56697 105.30312 
" style="fill: none; opacity: 0.7; stroke: #00ffff; stroke-width: 2.5; stroke-linecap: round"/>
    <path d="M 736.118278 105.76044 
L 740.56697 105.30312 
L 738.263611 109.136466 
" style="fill: none; opacity: 0.7; stroke: #00ffff; stroke-width: 2.5; stroke-linecap: round"/>
   </g>
   <g id="patch_56">
    <path d="M 743.028499 103.957322 
Q 591.256224 221.327129 441.695016 336.987056 
" style="fill: none; opacity: 0.7; stroke: #00ffff; stroke-width: 2.5; stroke-linecap: round"/>
    <path d="M 446.082725 336.122185 
L 441.695016 336.987056 
L 443.635745 332.957965 
" style="fill: none; opacity: 0.7; stroke: #00ffff; stroke-width: 2.5; stroke-linecap: round"/>
   </g>
   <g id="patch_57">
    <path d="M 436.099031 340.781203 
Q 282.113505 414.340465 130.650069 486.694917 
" style="fill: none; opacity: 0.7; stroke: #ff00ff; stroke-width: 2.5; stroke-linecap: round"/>
    <path d="M 135.121481 486.775396 
L 130.650069 486.694917 
L 133.3973 483.166075 
" style="fill: none; opacity: 0.7; stroke: #ff00ff; stroke-width: 2.5; stroke-linecap: round"/>
   </g>
   <g id="patch_58">
    <path d="M 127.611981 487.228416 
Q 170.173656 436.550739 210.937741 388.013429 
" style="fill: none; opacity: 0.7; stroke: #ff00ff; stroke-width: 2.5; stroke-linecap: round"/>
    <path d="M 206.833719 389.790224 
L 210.937741 388.013429 
L 209.896764 392.362724 
" style="fill: none; opacity: 0.7; stroke: #ff00ff; stroke-width: 2.5; stroke-linecap: round"/>
   </g>
   <g id="patch_59">
    <path d="M 213.486588 386.271381 
Q 188.376289 477.084114 164.010897 565.202852 
" style="fill: none; opacity: 0.7; stroke: #ff00ff; stroke-width: 2.5; stroke-linecap: round"/>
    <path d="M 167.004587 561.880531 
L 164.010897 565.202852 
L 163.149254 560.814506 
" style="fill: none; opacity: 0.7; stroke: #ff00ff; stroke-width: 2.5; stroke-linecap: round"/>
   </g>
   <g id="patch_60">
    <path d="M 164.293372 568.576301 
Q 196.606421 542.694043 226.737925 518.55917 
" style="fill: none; opacity: 0.7; stroke: #ff00ff; stroke-width: 2.5; stroke-linecap: round"/>
    <path d="M 222.365623 519.498837 
L 226.737925 518.55917 
L 224.866277 522.620812 
" style="fill: none; opacity: 0.7; stroke: #ff00ff; stroke-width: 2.5; stroke-linecap: round"/>
   </g>
   <g id="patch_61">
    <path d="M 230.861012 517.525034 
Q 237.673291 552.715616 243.954352 585.162058 
" style="fill: none; opacity: 0.7; stroke: #ff00ff; stroke-width: 2.5; stroke-linecap: round"/>
    <path d="M 245.157682 580.854855 
L 243.954352 585.162058 
L 241.230588 581.615072 
" style="fill: none; opacity: 0.7; stroke: #ff00ff; stroke-width: 2.5; stroke-linecap: round"/>
   </g>
   <g id="patch_62">
    <path d="M 243.236268 591.029912 
Q 223.709366 604.914019 206.460427 617.178438 
" style="fill: none; opacity: 0.7; stroke: #ff00ff; stroke-width: 2.5; stroke-linecap: round"/>
    <path d="M 210.879336 616.490508 
L 206.460427 617.178438 
L 208.561428 613.230553 
" style="fill: none; opacity: 0.7; stroke: #ff00ff; stroke-width: 2.5; stroke-linecap: round"/>
   </g>
   <g id="patch_63">
    <path d="M 201.30908 618.3946 
Q 182.643512 594.894682 165.716378 573.583449 
" style="fill: none; opacity: 0.7; stroke: #ff00ff; stroke-width: 2.5; stroke-linecap: round"/>
    <path d="M 166.638127 577.959564 
L 165.716378 573.583449 
L 169.770319 575.471719 
" style="fill: none; opacity: 0.7; stroke: #ff00ff; stroke-width: 2.5; stroke-linecap: round"/>
   </g>
   <g id="patch_64">
    <path d="M 164.267047 568.544407 
Q 300.317948 454.872875 434.223899 342.993463 
" style="fill: none; opacity: 0.7; stroke: #ff00ff; stroke-width: 2.5; stroke-linecap: round"/>
    <path d="M 429.871962 344.023337 
L 434.223899 342.993463 
L 432.436636 347.092937 
" style="fill: none; opacity: 0.7; stroke: #ff00ff; stroke-width: 2.5; stroke-linecap: round"/>
   </g>
   <g id="patch_65">
    <path d="M 439.595494 340.987705 
Q 610.377878 448.814184 778.796824 555.148464 
" style="fill: none; opacity: 0.7; stroke: #a52a2a; stroke-width: 2.5; stroke-linecap: round"/>
    <path d="M 776.482276 551.321864 
L 778.796824 555.148464 
L 774.346815 554.704142 
" style="fill: none; opacity: 0.7; stroke: #a52a2a; stroke-width: 2.5; stroke-linecap: round"/>
   </g>
   <g id="patch_66">
    <path d="M 781.150388 556.657391 
Q 693.486241 502.4939 608.199928 449.79956 
" style="fill: none; opacity: 0.7; stroke: #a52a2a; stroke-width: 2.5; stroke-linecap: round"/>
    <path d="M 610.551569 453.603477 
L 608.199928 449.79956 
L 612.654046 450.200597 
" style="fill: none; opacity: 0.7; stroke: #a52a2a; stroke-width: 2.5; stroke-linecap: round"/>
   </g>
   <g id="patch_67">
    <path d="M 603.009393 448.944127 
Q 583.151083 478.607549 564.847687 505.948313 
" style="fill: none; opacity: 0.7; stroke: #a52a2a; stroke-width: 2.5; stroke-linecap: round"/>
    <path d="M 568.734858 503.737001 
L 564.847687 505.948313 
L 565.410939 501.511789 
" style="fill: none; opacity: 0.7; stroke: #a52a2a; stroke-width: 2.5; stroke-linecap: round"/>
   </g>
   <g id="patch_68">
    <path d="M 561.38665 511.774413 
Q 558.644373 518.142212 557.007634 521.942857 
" style="fill: none; opacity: 0.7; stroke: #a52a2a; stroke-width: 2.5; stroke-linecap: round"/>
    <path d="M 560.426659 519.060103 
L 557.007634 521.942857 
L 556.752846 517.477985 
" style="fill: none; opacity: 0.7; stroke: #a52a2a; stroke-width: 2.5; stroke-linecap: round"/>
   </g>
   <g id="patch_69">
    <path d="M 554.618889 528.290287 
Q 546.347125 560.986557 538.760886 590.973113 
" style="fill: none; opacity: 0.7; stroke: #a52a2a; stroke-width: 2.5; stroke-linecap: round"/>
    <path d="M 541.680844 587.585806 
L 538.760886 590.973113 
L 537.803016 586.604762 
" style="fill: none; opacity: 0.7; stroke: #a52a2a; stroke-width: 2.5; stroke-linecap: round"/>
   </g>
   <g id="patch_70">
    <path d="M 539.565442 595.312329 
Q 660.218115 576.66265 778.108508 558.439946 
" style="fill: none; opacity: 0.7; stroke: #a52a2a; stroke-width: 2.5; stroke-linecap: round"/>
    <path d="M 773.849936 557.074455 
L 778.108508 558.439946 
L 774.460973 561.027509 
" style="fill: none; opacity: 0.7; stroke: #a52a2a; stroke-width: 2.5; stroke-linecap: round"/>
   </g>
   <g id="patch_71">
    <path d="M 781.003407 558.482782 
Q 766.794559 564.453072 755.162564 569.340616 
" style="fill: none; opacity: 0.7; stroke: #a52a2a; stroke-width: 2.5; stroke-linecap: round"/>
    <path d="M 759.625003 569.634964 
L 755.162564 569.340616 
L 758.075505 565.947274 
" style="fill: none; opacity: 0.7; stroke: #a52a2a; stroke-width: 2.5; stroke-linecap: round"/>
   </g>
   <g id="patch_72">
    <path d="M 752.551079 572.043027 
Q 758.812294 574.968773 762.541246 576.711241 
" style="fill: none; opacity: 0.7; stroke: #a52a2a; stroke-width: 2.5; stroke-linecap: round"/>
    <path d="M 759.764051 573.205932 
L 762.541246 576.711241 
L 758.070682 576.829811 
" style="fill: none; opacity: 0.7; stroke: #a52a2a; stroke-width: 2.5; stroke-linecap: round"/>
   </g>
   <g id="patch_73">
    <path d="M 764.8918 578.513514 
Q 699.90984 571.126989 637.70508 564.056149 
" style="fill: none; opacity: 0.7; stroke: #a52a2a; stroke-width: 2.5; stroke-linecap: round"/>
    <path d="M 641.4536 566.495125 
L 637.70508 564.056149 
L 641.905372 562.520719 
" style="fill: none; opacity: 0.7; stroke: #a52a2a; stroke-width: 2.5; stroke-linecap: round"/>
   </g>
   <g id="patch_74">
    <path d="M 631.630239 562.010204 
Q 535.424484 451.71877 441.056066 343.533682 
" style="fill: none; opacity: 0.7; stroke: #a52a2a; stroke-width: 2.5; stroke-linecap: round"/>
    <path d="M 442.178271 347.86273 
L 441.056066 343.533682 
L 445.192628 345.233347 
" style="fill: none; opacity: 0.7; stroke: #a52a2a; stroke-width: 2.5; stroke-linecap: round"/>
   </g>
   <g id="text_17">
    <g id="patch_75">
     <path d="M 445.903292 339.169303 
L 475.903292 339.169303 
Q 478.903292 339.169303 478.903292 336.169303 
L 478.903292 326.911491 
Q 478.903292 323.911491 475.903292 323.911491 
L 445.903292 323.911491 
Q 442.903292 323.911491 442.903292 326.911491 
L 442.903292 336.169303 
Q 442.903292 339.169303 445.903292 339.169303 
z
" style="fill: #ffffff; opacity: 0.8; stroke: #808080; stroke-linejoin: miter"/>
    </g>
    <!-- 起降点 -->
    <g transform="translate(445.903292 334.919303) scale(0.1 -0.1)">
     <defs>
      <path id="SimHei-8d77" d="M 225 -200 
Q 425 75 537 362 
Q 650 650 725 1025 
Q 800 1400 875 1950 
Q 1100 1875 1450 1850 
Q 1150 1350 1375 1012 
Q 1600 675 1775 525 
L 1775 2550 
Q 800 2550 475 2525 
L 475 2975 
Q 800 2950 1675 2950 
L 1675 3925 
Q 1125 3925 675 3900 
L 675 4350 
Q 1000 4325 1675 4325 
Q 1675 4800 1650 5225 
L 2150 5225 
Q 2125 4775 2125 4325 
Q 2700 4325 2975 4350 
L 2975 3900 
Q 2700 3925 2125 3925 
L 2125 2950 
Q 2825 2950 3225 2975 
L 3225 2525 
Q 2825 2550 2225 2550 
L 2225 1750 
Q 2675 1750 3150 1775 
L 3150 1325 
Q 2700 1350 2225 1350 
L 2225 275 
Q 2550 0 3887 -50 
Q 5225 -100 6200 50 
Q 6050 -200 5975 -550 
Q 4800 -550 4025 -537 
Q 3250 -525 2687 -400 
Q 2125 -275 1775 -12 
Q 1425 250 1125 675 
Q 875 0 625 -575 
Q 425 -275 225 -200 
z
M 6000 1475 
Q 5850 850 5725 650 
Q 5600 450 5225 450 
L 4025 450 
Q 3500 450 3500 1025 
L 3500 2225 
Q 3500 2575 3475 3000 
L 5150 3000 
L 5150 4275 
Q 3700 4275 3325 4250 
L 3325 4675 
Q 3700 4650 4125 4650 
L 5650 4650 
Q 5625 4275 5625 3600 
Q 5625 2950 5650 2575 
L 3975 2575 
L 3975 1250 
Q 3950 875 4350 875 
L 5050 875 
Q 5250 875 5312 1050 
Q 5375 1225 5425 1700 
Q 5650 1550 6000 1475 
z
" transform="scale(0.015625)"/>
      <path id="SimHei-964d" d="M 4075 5050 
Q 3850 4800 3775 4625 
L 5650 4625 
Q 5425 4175 5187 3837 
Q 4950 3500 4650 3200 
Q 4900 3025 5275 2925 
Q 5650 2825 6200 2800 
Q 6025 2525 5975 2300 
Q 5375 2400 4950 2562 
Q 4525 2725 4275 2900 
Q 3950 2700 3550 2500 
Q 3150 2300 2525 2125 
Q 2450 2350 2250 2550 
Q 2775 2650 3212 2825 
Q 3650 3000 3875 3200 
Q 3550 3525 3325 3875 
Q 3000 3450 2825 3275 
Q 2650 3450 2450 3550 
Q 2775 3850 3075 4325 
Q 3375 4800 3575 5300 
Q 3950 5100 4075 5050 
z
M 2350 4975 
Q 2225 4650 2025 4062 
Q 1825 3475 1675 2975 
Q 2075 2450 2200 2175 
Q 2325 1900 2287 1550 
Q 2250 1200 2012 1012 
Q 1775 825 1350 775 
Q 1300 1025 1150 1325 
Q 1650 1300 1737 1512 
Q 1825 1725 1787 1962 
Q 1750 2200 1200 2925 
L 1450 3600 
Q 1600 4025 1725 4550 
L 975 4550 
L 975 -600 
L 500 -600 
Q 525 325 525 875 
L 525 3750 
Q 525 4325 500 4975 
L 2350 4975 
z
M 5100 2075 
Q 5275 2075 5725 2100 
L 5725 1650 
Q 5450 1675 5150 1675 
L 4575 1675 
L 4575 900 
L 5200 900 
Q 5675 900 6050 925 
L 6050 475 
Q 5700 500 5225 500 
L 4575 500 
L 4575 125 
Q 4575 -250 4600 -600 
L 4100 -600 
Q 4125 -225 4125 100 
L 4125 500 
L 2375 500 
Q 2500 1100 2500 1400 
L 3025 1325 
Q 2925 1025 2925 900 
L 4125 900 
L 4125 1675 
L 3475 1675 
Q 3100 1675 2775 1650 
L 2775 2100 
Q 3225 2075 3475 2075 
L 4125 2075 
Q 4125 2375 4100 2625 
L 4575 2625 
Q 4550 2225 4550 2075 
L 5100 2075 
z
M 4275 3475 
Q 4600 3725 4925 4250 
L 3550 4250 
Q 4025 3650 4275 3475 
z
" transform="scale(0.015625)"/>
      <path id="SimHei-70b9" d="M 3325 5200 
Q 3300 4925 3300 4375 
L 4900 4375 
Q 5275 4375 5725 4400 
L 5725 3925 
Q 5300 3950 4900 3950 
L 3300 3950 
L 3300 3225 
L 5225 3225 
Q 5200 2700 5200 2150 
Q 5200 1625 5225 1175 
L 1175 1175 
Q 1200 1625 1200 2175 
Q 1200 2725 1175 3225 
L 2775 3225 
L 2775 4500 
Q 2775 4900 2750 5200 
L 3325 5200 
z
M 4700 1600 
L 4700 2800 
L 1725 2800 
L 1725 1600 
L 4700 1600 
z
M 1500 750 
Q 1025 -250 825 -625 
Q 625 -475 325 -375 
Q 650 50 950 925 
Q 1200 800 1500 750 
z
M 5325 850 
Q 5775 150 6075 -350 
Q 5925 -425 5575 -625 
Q 5375 -150 4900 575 
Q 5150 700 5325 850 
z
M 3975 -575 
Q 3775 -100 3400 575 
Q 3575 675 3825 825 
Q 4350 -75 4450 -325 
Q 4200 -450 3975 -575 
z
M 2375 -575 
Q 2350 -300 1975 550 
Q 2200 625 2425 775 
Q 2800 -75 2900 -350 
Q 2625 -450 2375 -575 
z
" transform="scale(0.015625)"/>
     </defs>
     <use xlink:href="#SimHei-8d77"/>
     <use xlink:href="#SimHei-964d" x="100"/>
     <use xlink:href="#SimHei-70b9" x="200"/>
    </g>
   </g>
   <g id="PathCollection_1">
    <defs>
     <path id="mb2590a2063" d="M 0 5.477226 
C 1.452577 5.477226 2.845856 4.900111 3.872983 3.872983 
C 4.900111 2.845856 5.477226 1.452577 5.477226 0 
C 5.477226 -1.452577 4.900111 -2.845856 3.872983 -3.872983 
C 2.845856 -4.900111 1.452577 -5.477226 0 -5.477226 
C -1.452577 -5.477226 -2.845856 -4.900111 -3.872983 -3.872983 
C -4.900111 -2.845856 -5.477226 -1.452577 -5.477226 0 
C -5.477226 1.452577 -4.900111 2.845856 -3.872983 3.872983 
C -2.845856 4.900111 -1.452577 5.477226 0 5.477226 
z
" style="stroke: #0000ff"/>
    </defs>
    <g clip-path="url(#p4e706d2811)">
     <use xlink:href="#mb2590a2063" x="325.541225" y="284.746387" style="fill: #0000ff; stroke: #0000ff"/>
     <use xlink:href="#mb2590a2063" x="303.741105" y="289.263468" style="fill: #0000ff; stroke: #0000ff"/>
     <use xlink:href="#mb2590a2063" x="354.657484" y="208.984455" style="fill: #0000ff; stroke: #0000ff"/>
     <use xlink:href="#mb2590a2063" x="267.926623" y="209.347435" style="fill: #0000ff; stroke: #0000ff"/>
     <use xlink:href="#mb2590a2063" x="303.741105" y="289.263468" style="fill: #0000ff; stroke: #0000ff"/>
     <use xlink:href="#mb2590a2063" x="133.715003" y="191.117787" style="fill: #0000ff; stroke: #0000ff"/>
     <use xlink:href="#mb2590a2063" x="115.696536" y="268.936604" style="fill: #0000ff; stroke: #0000ff"/>
    </g>
   </g>
   <g id="PathCollection_2">
    <defs>
     <path id="m3180f2ab30" d="M -5.477226 5.477226 
L 5.477226 5.477226 
L 5.477226 -5.477226 
L -5.477226 -5.477226 
z
" style="stroke: #ff0000"/>
    </defs>
    <g clip-path="url(#p4e706d2811)">
     <use xlink:href="#m3180f2ab30" x="691.224636" y="337.559935" style="fill: #ff0000; stroke: #ff0000"/>
     <use xlink:href="#m3180f2ab30" x="718.833177" y="400.778902" style="fill: #ff0000; stroke: #ff0000"/>
     <use xlink:href="#m3180f2ab30" x="724.913482" y="366.013511" style="fill: #ff0000; stroke: #ff0000"/>
     <use xlink:href="#m3180f2ab30" x="723.430481" y="388.336764" style="fill: #ff0000; stroke: #ff0000"/>
     <use xlink:href="#m3180f2ab30" x="729.26362" y="349.215617" style="fill: #ff0000; stroke: #ff0000"/>
     <use xlink:href="#m3180f2ab30" x="724.913482" y="366.013511" style="fill: #ff0000; stroke: #ff0000"/>
    </g>
   </g>
   <g id="PathCollection_3">
    <defs>
     <path id="m6bc89f85bb" d="M 0 -5.477226 
L -5.477226 5.477226 
L 5.477226 5.477226 
z
" style="stroke: #008000"/>
    </defs>
    <g clip-path="url(#p4e706d2811)">
     <use xlink:href="#m6bc89f85bb" x="348.231145" y="403.682739" style="fill: #008000; stroke: #008000"/>
     <use xlink:href="#m6bc89f85bb" x="327.66686" y="503.361001" style="fill: #008000; stroke: #008000"/>
     <use xlink:href="#m6bc89f85bb" x="333.722449" y="543.409763" style="fill: #008000; stroke: #008000"/>
     <use xlink:href="#m6bc89f85bb" x="381.573958" y="447.764609" style="fill: #008000; stroke: #008000"/>
     <use xlink:href="#m6bc89f85bb" x="417.141273" y="395.656855" style="fill: #008000; stroke: #008000"/>
     <use xlink:href="#m6bc89f85bb" x="327.66686" y="503.361001" style="fill: #008000; stroke: #008000"/>
     <use xlink:href="#m6bc89f85bb" x="364.494726" y="516.589595" style="fill: #008000; stroke: #008000"/>
     <use xlink:href="#m6bc89f85bb" x="421.812727" y="521.167173" style="fill: #008000; stroke: #008000"/>
     <use xlink:href="#m6bc89f85bb" x="424.506847" y="603.765223" style="fill: #008000; stroke: #008000"/>
    </g>
   </g>
   <g id="PathCollection_4">
    <defs>
     <path id="m73facb3549" d="M -0 7.745967 
L 7.745967 0 
L 0 -7.745967 
L -7.745967 -0 
z
" style="stroke: #ffa500"/>
    </defs>
    <g clip-path="url(#p4e706d2811)">
     <use xlink:href="#m73facb3549" x="553.824562" y="269.803722" style="fill: #ffa500; stroke: #ffa500"/>
     <use xlink:href="#m73facb3549" x="654.594503" y="272.909215" style="fill: #ffa500; stroke: #ffa500"/>
     <use xlink:href="#m73facb3549" x="555.282847" y="166.334339" style="fill: #ffa500; stroke: #ffa500"/>
     <use xlink:href="#m73facb3549" x="532.148026" y="252.279868" style="fill: #ffa500; stroke: #ffa500"/>
     <use xlink:href="#m73facb3549" x="508.271705" y="142.498671" style="fill: #ffa500; stroke: #ffa500"/>
     <use xlink:href="#m73facb3549" x="555.282847" y="166.334339" style="fill: #ffa500; stroke: #ffa500"/>
    </g>
   </g>
   <g id="PathCollection_5">
    <defs>
     <path id="m46f9dc5271" d="M -1.825742 5.477226 
L 1.825742 5.477226 
L 1.825742 1.825742 
L 5.477226 1.825742 
L 5.477226 -1.825742 
L 1.825742 -1.825742 
L 1.825742 -5.477226 
L -1.825742 -5.477226 
L -1.825742 -1.825742 
L -5.477226 -1.825742 
L -5.477226 1.825742 
L -1.825742 1.825742 
z
" style="stroke: #800080"/>
    </defs>
    <g clip-path="url(#p4e706d2811)">
     <use xlink:href="#m46f9dc5271" x="278.727816" y="127.072033" style="fill: #800080; stroke: #800080"/>
     <use xlink:href="#m46f9dc5271" x="229.343872" y="171.537048" style="fill: #800080; stroke: #800080"/>
     <use xlink:href="#m46f9dc5271" x="220.445864" y="111.342912" style="fill: #800080; stroke: #800080"/>
     <use xlink:href="#m46f9dc5271" x="229.343872" y="171.537048" style="fill: #800080; stroke: #800080"/>
     <use xlink:href="#m46f9dc5271" x="250.18004" y="89.604461" style="fill: #800080; stroke: #800080"/>
     <use xlink:href="#m46f9dc5271" x="360.787223" y="112.048706" style="fill: #800080; stroke: #800080"/>
     <use xlink:href="#m46f9dc5271" x="369.709947" y="100.352693" style="fill: #800080; stroke: #800080"/>
     <use xlink:href="#m46f9dc5271" x="295.930631" y="140.260296" style="fill: #800080; stroke: #800080"/>
    </g>
   </g>
   <g id="PathCollection_6">
    <defs>
     <path id="m71dfb75f69" d="M -2.738613 5.477226 
L 0 2.738613 
L 2.738613 5.477226 
L 5.477226 2.738613 
L 2.738613 0 
L 5.477226 -2.738613 
L 2.738613 -5.477226 
L 0 -2.738613 
L -2.738613 -5.477226 
L -5.477226 -2.738613 
L -2.738613 0 
L -5.477226 2.738613 
z
" style="stroke: #00ffff"/>
    </defs>
    <g clip-path="url(#p4e706d2811)">
     <use xlink:href="#m71dfb75f69" x="707.83425" y="201.462709" style="fill: #00ffff; stroke: #00ffff"/>
     <use xlink:href="#m71dfb75f69" x="765.918469" y="105.676396" style="fill: #00ffff; stroke: #00ffff"/>
     <use xlink:href="#m71dfb75f69" x="600.810988" y="118.36052" style="fill: #00ffff; stroke: #00ffff"/>
     <use xlink:href="#m71dfb75f69" x="765.918469" y="105.676396" style="fill: #00ffff; stroke: #00ffff"/>
     <use xlink:href="#m71dfb75f69" x="709.292535" y="183.132233" style="fill: #00ffff; stroke: #00ffff"/>
     <use xlink:href="#m71dfb75f69" x="618.433987" y="66.172104" style="fill: #00ffff; stroke: #00ffff"/>
     <use xlink:href="#m71dfb75f69" x="669.721116" y="150.3229" style="fill: #00ffff; stroke: #00ffff"/>
     <use xlink:href="#m71dfb75f69" x="744.612683" y="102.732227" style="fill: #00ffff; stroke: #00ffff"/>
    </g>
   </g>
   <g id="PathCollection_7">
    <defs>
     <path id="mf6af8f8a32" d="M 0 -5.477226 
L -1.229714 -1.692556 
L -5.209151 -1.692556 
L -1.989719 0.646499 
L -3.219432 4.431169 
L -0 2.092114 
L 3.219432 4.431169 
L 1.989719 0.646499 
L 5.209151 -1.692556 
L 1.229714 -1.692556 
z
" style="stroke: #ff00ff"/>
    </defs>
    <g clip-path="url(#p4e706d2811)">
     <use xlink:href="#mf6af8f8a32" x="126.324713" y="488.761151" style="fill: #ff00ff; stroke: #ff00ff"/>
     <use xlink:href="#mf6af8f8a32" x="214.019525" y="384.343987" style="fill: #ff00ff; stroke: #ff00ff"/>
     <use xlink:href="#mf6af8f8a32" x="162.732395" y="569.82662" style="fill: #ff00ff; stroke: #ff00ff"/>
     <use xlink:href="#mf6af8f8a32" x="230.480839" y="515.561153" style="fill: #ff00ff; stroke: #ff00ff"/>
     <use xlink:href="#mf6af8f8a32" x="244.865952" y="589.871166" style="fill: #ff00ff; stroke: #ff00ff"/>
     <use xlink:href="#mf6af8f8a32" x="202.550981" y="619.958151" style="fill: #ff00ff; stroke: #ff00ff"/>
     <use xlink:href="#mf6af8f8a32" x="162.732395" y="569.82662" style="fill: #ff00ff; stroke: #ff00ff"/>
    </g>
   </g>
   <g id="PathCollection_8">
    <defs>
     <path id="m416f671ca7" d="M -0 5.477226 
L 5.477226 -5.477226 
L -5.477226 -5.477226 
z
" style="stroke: #a52a2a"/>
    </defs>
    <g clip-path="url(#p4e706d2811)">
     <use xlink:href="#m416f671ca7" x="782.849401" y="557.70713" style="fill: #a52a2a; stroke: #a52a2a"/>
     <use xlink:href="#m416f671ca7" x="604.123024" y="447.280636" style="fill: #a52a2a; stroke: #a52a2a"/>
     <use xlink:href="#m416f671ca7" x="562.178803" y="509.934967" style="fill: #a52a2a; stroke: #a52a2a"/>
     <use xlink:href="#m416f671ca7" x="555.10983" y="526.349716" style="fill: #a52a2a; stroke: #a52a2a"/>
     <use xlink:href="#m416f671ca7" x="537.585698" y="595.618345" style="fill: #a52a2a; stroke: #a52a2a"/>
     <use xlink:href="#m416f671ca7" x="782.849401" y="557.70713" style="fill: #a52a2a; stroke: #a52a2a"/>
     <use xlink:href="#m416f671ca7" x="750.742422" y="571.197876" style="fill: #a52a2a; stroke: #a52a2a"/>
     <use xlink:href="#m416f671ca7" x="766.88242" y="578.739788" style="fill: #a52a2a; stroke: #a52a2a"/>
     <use xlink:href="#m416f671ca7" x="632.942683" y="563.514806" style="fill: #a52a2a; stroke: #a52a2a"/>
    </g>
   </g>
   <g id="PathCollection_9">
    <defs>
     <path id="mc529b034d6" d="M 0 -8.660254 
L -1.944348 -2.676166 
L -8.236391 -2.676166 
L -3.146021 1.022204 
L -5.09037 7.006293 
L -0 3.307923 
L 5.09037 7.006293 
L 3.146021 1.022204 
L 8.236391 -2.676166 
L 1.944348 -2.676166 
z
" style="stroke: #000000"/>
    </defs>
    <g clip-path="url(#p4e706d2811)">
     <use xlink:href="#mc529b034d6" x="437.903292" y="339.919303" style="stroke: #000000"/>
    </g>
   </g>
   <g id="text_18">
    <!-- 1 -->
    <g style="fill: #ffffff" transform="translate(323.541225 286.996387) scale(0.08 -0.08)">
     <use xlink:href="#SimHei-31"/>
    </g>
   </g>
   <g id="text_19">
    <!-- 2 -->
    <g style="fill: #ffffff" transform="translate(301.741105 291.513468) scale(0.08 -0.08)">
     <use xlink:href="#SimHei-32"/>
    </g>
   </g>
   <g id="text_20">
    <!-- 3 -->
    <g style="fill: #ffffff" transform="translate(352.657484 211.234455) scale(0.08 -0.08)">
     <use xlink:href="#SimHei-33"/>
    </g>
   </g>
   <g id="text_21">
    <!-- 4 -->
    <g style="fill: #ffffff" transform="translate(265.926623 211.597435) scale(0.08 -0.08)">
     <defs>
      <path id="SimHei-34" d="M 2000 1100 
L 75 1100 
L 75 1525 
L 2100 4450 
L 2475 4450 
L 2475 1525 
L 3075 1525 
L 3075 1100 
L 2475 1100 
L 2475 150 
L 2000 150 
L 2000 1100 
z
M 2000 1525 
L 2000 3500 
L 600 1525 
L 2000 1525 
z
" transform="scale(0.015625)"/>
     </defs>
     <use xlink:href="#SimHei-34"/>
    </g>
   </g>
   <g id="text_22">
    <!-- 5 -->
    <g style="fill: #ffffff" transform="translate(301.741105 291.513468) scale(0.08 -0.08)">
     <use xlink:href="#SimHei-35"/>
    </g>
   </g>
   <g id="text_23">
    <!-- 6 -->
    <g style="fill: #ffffff" transform="translate(131.715003 193.367787) scale(0.08 -0.08)">
     <defs>
      <path id="SimHei-36" d="M 250 1612 
Q 275 1975 387 2225 
Q 500 2475 725 2850 
L 1750 4450 
L 2325 4450 
L 1275 2800 
Q 1950 2975 2350 2750 
Q 2750 2525 2887 2237 
Q 3025 1950 3037 1612 
Q 3050 1275 2937 950 
Q 2825 625 2537 362 
Q 2250 100 1737 75 
Q 1225 50 862 262 
Q 500 475 362 862 
Q 225 1250 250 1612 
z
M 1025 787 
Q 1250 550 1625 525 
Q 2000 500 2250 775 
Q 2500 1050 2500 1575 
Q 2500 2100 2187 2300 
Q 1875 2500 1487 2450 
Q 1100 2400 925 2075 
Q 750 1750 775 1387 
Q 800 1025 1025 787 
z
" transform="scale(0.015625)"/>
     </defs>
     <use xlink:href="#SimHei-36"/>
    </g>
   </g>
   <g id="text_24">
    <!-- 7 -->
    <g style="fill: #ffffff" transform="translate(113.696536 271.186604) scale(0.08 -0.08)">
     <defs>
      <path id="SimHei-37" d="M 850 150 
Q 1300 2050 2425 3925 
L 275 3925 
L 275 4375 
L 2950 4375 
L 2950 3950 
Q 1775 2050 1400 150 
L 850 150 
z
" transform="scale(0.015625)"/>
     </defs>
     <use xlink:href="#SimHei-37"/>
    </g>
   </g>
   <g id="text_25">
    <!-- 1 -->
    <g style="fill: #ffffff" transform="translate(689.224636 339.809935) scale(0.08 -0.08)">
     <use xlink:href="#SimHei-31"/>
    </g>
   </g>
   <g id="text_26">
    <!-- 2 -->
    <g style="fill: #ffffff" transform="translate(716.833177 403.028902) scale(0.08 -0.08)">
     <use xlink:href="#SimHei-32"/>
    </g>
   </g>
   <g id="text_27">
    <!-- 3 -->
    <g style="fill: #ffffff" transform="translate(722.913482 368.263511) scale(0.08 -0.08)">
     <use xlink:href="#SimHei-33"/>
    </g>
   </g>
   <g id="text_28">
    <!-- 4 -->
    <g style="fill: #ffffff" transform="translate(721.430481 390.586764) scale(0.08 -0.08)">
     <use xlink:href="#SimHei-34"/>
    </g>
   </g>
   <g id="text_29">
    <!-- 5 -->
    <g style="fill: #ffffff" transform="translate(727.26362 351.465617) scale(0.08 -0.08)">
     <use xlink:href="#SimHei-35"/>
    </g>
   </g>
   <g id="text_30">
    <!-- 6 -->
    <g style="fill: #ffffff" transform="translate(722.913482 368.263511) scale(0.08 -0.08)">
     <use xlink:href="#SimHei-36"/>
    </g>
   </g>
   <g id="text_31">
    <!-- 1 -->
    <g style="fill: #ffffff" transform="translate(346.231145 405.932739) scale(0.08 -0.08)">
     <use xlink:href="#SimHei-31"/>
    </g>
   </g>
   <g id="text_32">
    <!-- 2 -->
    <g style="fill: #ffffff" transform="translate(325.66686 505.611001) scale(0.08 -0.08)">
     <use xlink:href="#SimHei-32"/>
    </g>
   </g>
   <g id="text_33">
    <!-- 3 -->
    <g style="fill: #ffffff" transform="translate(331.722449 545.659763) scale(0.08 -0.08)">
     <use xlink:href="#SimHei-33"/>
    </g>
   </g>
   <g id="text_34">
    <!-- 4 -->
    <g style="fill: #ffffff" transform="translate(379.573958 450.014609) scale(0.08 -0.08)">
     <use xlink:href="#SimHei-34"/>
    </g>
   </g>
   <g id="text_35">
    <!-- 5 -->
    <g style="fill: #ffffff" transform="translate(415.141273 397.906855) scale(0.08 -0.08)">
     <use xlink:href="#SimHei-35"/>
    </g>
   </g>
   <g id="text_36">
    <!-- 6 -->
    <g style="fill: #ffffff" transform="translate(325.66686 505.611001) scale(0.08 -0.08)">
     <use xlink:href="#SimHei-36"/>
    </g>
   </g>
   <g id="text_37">
    <!-- 7 -->
    <g style="fill: #ffffff" transform="translate(362.494726 518.839595) scale(0.08 -0.08)">
     <use xlink:href="#SimHei-37"/>
    </g>
   </g>
   <g id="text_38">
    <!-- 8 -->
    <g style="fill: #ffffff" transform="translate(419.812727 523.417173) scale(0.08 -0.08)">
     <defs>
      <path id="SimHei-38" d="M 175 1375 
Q 175 1675 325 1962 
Q 475 2250 825 2425 
Q 525 2600 425 2812 
Q 325 3025 312 3300 
Q 300 3575 387 3775 
Q 475 3975 650 4150 
Q 825 4325 1037 4387 
Q 1250 4450 1500 4450 
Q 1750 4450 1950 4400 
Q 2150 4350 2375 4187 
Q 2600 4025 2700 3725 
Q 2800 3425 2687 3025 
Q 2575 2625 2100 2400 
Q 2525 2275 2700 2012 
Q 2875 1750 2875 1375 
Q 2875 1000 2762 775 
Q 2650 550 2512 400 
Q 2375 250 2137 162 
Q 1900 75 1537 75 
Q 1175 75 912 162 
Q 650 250 475 425 
Q 300 600 237 837 
Q 175 1075 175 1375 
z
M 687 1400 
Q 675 1100 787 875 
Q 900 650 1200 587 
Q 1500 525 1825 600 
Q 2150 675 2275 950 
Q 2400 1225 2362 1500 
Q 2325 1775 2050 1962 
Q 1775 2150 1450 2125 
Q 1125 2100 912 1900 
Q 700 1700 687 1400 
z
M 775 3350 
Q 775 3100 950 2875 
Q 1125 2650 1500 2650 
Q 1875 2650 2062 2875 
Q 2250 3100 2237 3412 
Q 2225 3725 2012 3875 
Q 1800 4025 1437 4000 
Q 1075 3975 925 3787 
Q 775 3600 775 3350 
z
" transform="scale(0.015625)"/>
     </defs>
     <use xlink:href="#SimHei-38"/>
    </g>
   </g>
   <g id="text_39">
    <!-- 9 -->
    <g style="fill: #ffffff" transform="translate(422.506847 606.015223) scale(0.08 -0.08)">
     <defs>
      <path id="SimHei-39" d="M 800 75 
Q 1350 1000 1700 1750 
Q 1075 1650 662 1912 
Q 250 2175 162 2625 
Q 75 3075 175 3437 
Q 275 3800 487 4037 
Q 700 4275 1000 4375 
Q 1300 4475 1537 4475 
Q 1775 4475 2025 4375 
Q 2275 4275 2475 4075 
Q 2675 3875 2750 3662 
Q 2825 3450 2825 3112 
Q 2825 2775 2575 2250 
Q 2325 1725 1350 75 
L 800 75 
z
M 662 2875 
Q 700 2550 937 2337 
Q 1175 2125 1450 2150 
Q 1725 2175 1887 2300 
Q 2050 2425 2200 2725 
Q 2300 3100 2250 3362 
Q 2200 3625 1987 3800 
Q 1775 3975 1525 3975 
Q 1375 4000 1137 3900 
Q 900 3800 762 3500 
Q 625 3200 662 2875 
z
" transform="scale(0.015625)"/>
     </defs>
     <use xlink:href="#SimHei-39"/>
    </g>
   </g>
   <g id="text_40">
    <!-- 1 -->
    <g style="fill: #ffffff" transform="translate(551.824562 272.053722) scale(0.08 -0.08)">
     <use xlink:href="#SimHei-31"/>
    </g>
   </g>
   <g id="text_41">
    <!-- 2 -->
    <g style="fill: #ffffff" transform="translate(652.594503 275.159215) scale(0.08 -0.08)">
     <use xlink:href="#SimHei-32"/>
    </g>
   </g>
   <g id="text_42">
    <!-- 3 -->
    <g style="fill: #ffffff" transform="translate(553.282847 168.584339) scale(0.08 -0.08)">
     <use xlink:href="#SimHei-33"/>
    </g>
   </g>
   <g id="text_43">
    <!-- 4 -->
    <g style="fill: #ffffff" transform="translate(530.148026 254.529868) scale(0.08 -0.08)">
     <use xlink:href="#SimHei-34"/>
    </g>
   </g>
   <g id="text_44">
    <!-- 5 -->
    <g style="fill: #ffffff" transform="translate(506.271705 144.748671) scale(0.08 -0.08)">
     <use xlink:href="#SimHei-35"/>
    </g>
   </g>
   <g id="text_45">
    <!-- 6 -->
    <g style="fill: #ffffff" transform="translate(553.282847 168.584339) scale(0.08 -0.08)">
     <use xlink:href="#SimHei-36"/>
    </g>
   </g>
   <g id="text_46">
    <!-- 1 -->
    <g style="fill: #ffffff" transform="translate(276.727816 129.322033) scale(0.08 -0.08)">
     <use xlink:href="#SimHei-31"/>
    </g>
   </g>
   <g id="text_47">
    <!-- 2 -->
    <g style="fill: #ffffff" transform="translate(227.343872 173.787048) scale(0.08 -0.08)">
     <use xlink:href="#SimHei-32"/>
    </g>
   </g>
   <g id="text_48">
    <!-- 3 -->
    <g style="fill: #ffffff" transform="translate(218.445864 113.592912) scale(0.08 -0.08)">
     <use xlink:href="#SimHei-33"/>
    </g>
   </g>
   <g id="text_49">
    <!-- 4 -->
    <g style="fill: #ffffff" transform="translate(227.343872 173.787048) scale(0.08 -0.08)">
     <use xlink:href="#SimHei-34"/>
    </g>
   </g>
   <g id="text_50">
    <!-- 5 -->
    <g style="fill: #ffffff" transform="translate(248.18004 91.854461) scale(0.08 -0.08)">
     <use xlink:href="#SimHei-35"/>
    </g>
   </g>
   <g id="text_51">
    <!-- 6 -->
    <g style="fill: #ffffff" transform="translate(358.787223 114.298706) scale(0.08 -0.08)">
     <use xlink:href="#SimHei-36"/>
    </g>
   </g>
   <g id="text_52">
    <!-- 7 -->
    <g style="fill: #ffffff" transform="translate(367.709947 102.602693) scale(0.08 -0.08)">
     <use xlink:href="#SimHei-37"/>
    </g>
   </g>
   <g id="text_53">
    <!-- 8 -->
    <g style="fill: #ffffff" transform="translate(293.930631 142.510296) scale(0.08 -0.08)">
     <use xlink:href="#SimHei-38"/>
    </g>
   </g>
   <g id="text_54">
    <!-- 1 -->
    <g style="fill: #ffffff" transform="translate(705.83425 203.712709) scale(0.08 -0.08)">
     <use xlink:href="#SimHei-31"/>
    </g>
   </g>
   <g id="text_55">
    <!-- 2 -->
    <g style="fill: #ffffff" transform="translate(763.918469 107.926396) scale(0.08 -0.08)">
     <use xlink:href="#SimHei-32"/>
    </g>
   </g>
   <g id="text_56">
    <!-- 3 -->
    <g style="fill: #ffffff" transform="translate(598.810988 120.61052) scale(0.08 -0.08)">
     <use xlink:href="#SimHei-33"/>
    </g>
   </g>
   <g id="text_57">
    <!-- 4 -->
    <g style="fill: #ffffff" transform="translate(763.918469 107.926396) scale(0.08 -0.08)">
     <use xlink:href="#SimHei-34"/>
    </g>
   </g>
   <g id="text_58">
    <!-- 5 -->
    <g style="fill: #ffffff" transform="translate(707.292535 185.382233) scale(0.08 -0.08)">
     <use xlink:href="#SimHei-35"/>
    </g>
   </g>
   <g id="text_59">
    <!-- 6 -->
    <g style="fill: #ffffff" transform="translate(616.433987 68.422104) scale(0.08 -0.08)">
     <use xlink:href="#SimHei-36"/>
    </g>
   </g>
   <g id="text_60">
    <!-- 7 -->
    <g style="fill: #ffffff" transform="translate(667.721116 152.5729) scale(0.08 -0.08)">
     <use xlink:href="#SimHei-37"/>
    </g>
   </g>
   <g id="text_61">
    <!-- 8 -->
    <g style="fill: #ffffff" transform="translate(742.612683 104.982227) scale(0.08 -0.08)">
     <use xlink:href="#SimHei-38"/>
    </g>
   </g>
   <g id="text_62">
    <!-- 1 -->
    <g style="fill: #ffffff" transform="translate(124.324713 491.011151) scale(0.08 -0.08)">
     <use xlink:href="#SimHei-31"/>
    </g>
   </g>
   <g id="text_63">
    <!-- 2 -->
    <g style="fill: #ffffff" transform="translate(212.019525 386.593987) scale(0.08 -0.08)">
     <use xlink:href="#SimHei-32"/>
    </g>
   </g>
   <g id="text_64">
    <!-- 3 -->
    <g style="fill: #ffffff" transform="translate(160.732395 572.07662) scale(0.08 -0.08)">
     <use xlink:href="#SimHei-33"/>
    </g>
   </g>
   <g id="text_65">
    <!-- 4 -->
    <g style="fill: #ffffff" transform="translate(228.480839 517.811153) scale(0.08 -0.08)">
     <use xlink:href="#SimHei-34"/>
    </g>
   </g>
   <g id="text_66">
    <!-- 5 -->
    <g style="fill: #ffffff" transform="translate(242.865952 592.121166) scale(0.08 -0.08)">
     <use xlink:href="#SimHei-35"/>
    </g>
   </g>
   <g id="text_67">
    <!-- 6 -->
    <g style="fill: #ffffff" transform="translate(200.550981 622.208151) scale(0.08 -0.08)">
     <use xlink:href="#SimHei-36"/>
    </g>
   </g>
   <g id="text_68">
    <!-- 7 -->
    <g style="fill: #ffffff" transform="translate(160.732395 572.07662) scale(0.08 -0.08)">
     <use xlink:href="#SimHei-37"/>
    </g>
   </g>
   <g id="text_69">
    <!-- 1 -->
    <g style="fill: #ffffff" transform="translate(780.849401 559.95713) scale(0.08 -0.08)">
     <use xlink:href="#SimHei-31"/>
    </g>
   </g>
   <g id="text_70">
    <!-- 2 -->
    <g style="fill: #ffffff" transform="translate(602.123024 449.530636) scale(0.08 -0.08)">
     <use xlink:href="#SimHei-32"/>
    </g>
   </g>
   <g id="text_71">
    <!-- 3 -->
    <g style="fill: #ffffff" transform="translate(560.178803 512.184967) scale(0.08 -0.08)">
     <use xlink:href="#SimHei-33"/>
    </g>
   </g>
   <g id="text_72">
    <!-- 4 -->
    <g style="fill: #ffffff" transform="translate(553.10983 528.599716) scale(0.08 -0.08)">
     <use xlink:href="#SimHei-34"/>
    </g>
   </g>
   <g id="text_73">
    <!-- 5 -->
    <g style="fill: #ffffff" transform="translate(535.585698 597.868345) scale(0.08 -0.08)">
     <use xlink:href="#SimHei-35"/>
    </g>
   </g>
   <g id="text_74">
    <!-- 6 -->
    <g style="fill: #ffffff" transform="translate(780.849401 559.95713) scale(0.08 -0.08)">
     <use xlink:href="#SimHei-36"/>
    </g>
   </g>
   <g id="text_75">
    <!-- 7 -->
    <g style="fill: #ffffff" transform="translate(748.742422 573.447876) scale(0.08 -0.08)">
     <use xlink:href="#SimHei-37"/>
    </g>
   </g>
   <g id="text_76">
    <!-- 8 -->
    <g style="fill: #ffffff" transform="translate(764.88242 580.989788) scale(0.08 -0.08)">
     <use xlink:href="#SimHei-38"/>
    </g>
   </g>
   <g id="text_77">
    <!-- 9 -->
    <g style="fill: #ffffff" transform="translate(630.942683 565.764806) scale(0.08 -0.08)">
     <use xlink:href="#SimHei-39"/>
    </g>
   </g>
  </g>
 </g>
 <defs>
  <clipPath id="p4e706d2811">
   <rect x="48.98125" y="7.2" width="800.583437" height="668.463438"/>
  </clipPath>
 </defs>
</svg>
