<?xml version="1.0" encoding="utf-8" standalone="no"?>
<!DOCTYPE svg PUBLIC "-//W3C//DTD SVG 1.1//EN"
  "http://www.w3.org/Graphics/SVG/1.1/DTD/svg11.dtd">
<svg xmlns:xlink="http://www.w3.org/1999/xlink" width="856.764687pt" height="712.769688pt" viewBox="0 0 856.764687 712.769688" xmlns="http://www.w3.org/2000/svg" version="1.1">
 <metadata>
  <rdf:RDF xmlns:dc="http://purl.org/dc/elements/1.1/" xmlns:cc="http://creativecommons.org/ns#" xmlns:rdf="http://www.w3.org/1999/02/22-rdf-syntax-ns#">
   <cc:Work>
    <dc:type rdf:resource="http://purl.org/dc/dcmitype/StillImage"/>
    <dc:date>2025-05-09T18:29:25.364032</dc:date>
    <dc:format>image/svg+xml</dc:format>
    <dc:creator>
     <cc:Agent>
      <dc:title>Matplotlib v3.9.4, https://matplotlib.org/</dc:title>
     </cc:Agent>
    </dc:creator>
   </cc:Work>
  </rdf:RDF>
 </metadata>
 <defs>
  <style type="text/css">*{stroke-linejoin: round; stroke-linecap: butt}</style>
 </defs>
 <g id="figure_1">
  <g id="patch_1">
   <path d="M 0 712.769688 
L 856.764687 712.769688 
L 856.764687 0 
L 0 0 
z
" style="fill: #ffffff"/>
  </g>
  <g id="axes_1">
   <g id="patch_2">
    <path d="M 48.98125 675.663437 
L 849.564687 675.663437 
L 849.564687 7.2 
L 48.98125 7.2 
z
" style="fill: #ffffff"/>
   </g>
   <g id="matplotlib.axis_1">
    <g id="xtick_1">
     <g id="line2d_1">
      <path d="M 112.377368 675.663437 
L 112.377368 7.2 
" clip-path="url(#pc69f37cd33)" style="fill: none; stroke-dasharray: 2.96,1.28; stroke-dashoffset: 0; stroke: #b0b0b0; stroke-opacity: 0.7; stroke-width: 0.8"/>
     </g>
     <g id="line2d_2">
      <defs>
       <path id="m772286ac1c" d="M 0 0 
L 0 3.5 
" style="stroke: #000000; stroke-width: 0.8"/>
      </defs>
      <g>
       <use xlink:href="#m772286ac1c" x="112.377368" y="675.663437" style="stroke: #000000; stroke-width: 0.8"/>
      </g>
     </g>
     <g id="text_1">
      <!-- 0 -->
      <g transform="translate(109.877368 689.538437) scale(0.1 -0.1)">
       <defs>
        <path id="SimHei-30" d="M 225 2537 
Q 250 3200 412 3587 
Q 575 3975 875 4225 
Q 1175 4475 1612 4475 
Q 2050 4475 2375 4112 
Q 2700 3750 2800 3200 
Q 2900 2650 2862 1937 
Q 2825 1225 2612 775 
Q 2400 325 1975 150 
Q 1550 -25 1125 187 
Q 700 400 525 750 
Q 350 1100 275 1487 
Q 200 1875 225 2537 
z
M 750 2687 
Q 675 2000 800 1462 
Q 925 925 1212 700 
Q 1500 475 1800 612 
Q 2100 750 2237 1162 
Q 2375 1575 2375 2062 
Q 2375 2550 2337 2950 
Q 2300 3350 2112 3675 
Q 1925 4000 1612 4012 
Q 1300 4025 1062 3700 
Q 825 3375 750 2687 
z
" transform="scale(0.015625)"/>
       </defs>
       <use xlink:href="#SimHei-30"/>
      </g>
     </g>
    </g>
    <g id="xtick_2">
     <g id="line2d_3">
      <path d="M 281.722699 675.663437 
L 281.722699 7.2 
" clip-path="url(#pc69f37cd33)" style="fill: none; stroke-dasharray: 2.96,1.28; stroke-dashoffset: 0; stroke: #b0b0b0; stroke-opacity: 0.7; stroke-width: 0.8"/>
     </g>
     <g id="line2d_4">
      <g>
       <use xlink:href="#m772286ac1c" x="281.722699" y="675.663437" style="stroke: #000000; stroke-width: 0.8"/>
      </g>
     </g>
     <g id="text_2">
      <!-- 500 -->
      <g transform="translate(274.222699 689.538437) scale(0.1 -0.1)">
       <defs>
        <path id="SimHei-35" d="M 550 1325 
Q 725 650 1150 575 
Q 1575 500 1837 662 
Q 2100 825 2212 1087 
Q 2325 1350 2312 1675 
Q 2300 2000 2137 2225 
Q 1975 2450 1725 2525 
Q 1475 2600 1162 2525 
Q 850 2450 650 2175 
L 225 2225 
Q 275 2375 700 4375 
L 2675 4375 
L 2675 3925 
L 1075 3925 
Q 950 3250 825 2850 
Q 1200 3025 1525 3012 
Q 1850 3000 2150 2862 
Q 2450 2725 2587 2487 
Q 2725 2250 2787 2012 
Q 2850 1775 2837 1500 
Q 2825 1225 2725 937 
Q 2625 650 2425 462 
Q 2225 275 1937 162 
Q 1650 50 1275 75 
Q 900 100 562 350 
Q 225 600 100 1200 
L 550 1325 
z
" transform="scale(0.015625)"/>
       </defs>
       <use xlink:href="#SimHei-35"/>
       <use xlink:href="#SimHei-30" x="50"/>
       <use xlink:href="#SimHei-30" x="100"/>
      </g>
     </g>
    </g>
    <g id="xtick_3">
     <g id="line2d_5">
      <path d="M 451.068029 675.663437 
L 451.068029 7.2 
" clip-path="url(#pc69f37cd33)" style="fill: none; stroke-dasharray: 2.96,1.28; stroke-dashoffset: 0; stroke: #b0b0b0; stroke-opacity: 0.7; stroke-width: 0.8"/>
     </g>
     <g id="line2d_6">
      <g>
       <use xlink:href="#m772286ac1c" x="451.068029" y="675.663437" style="stroke: #000000; stroke-width: 0.8"/>
      </g>
     </g>
     <g id="text_3">
      <!-- 1000 -->
      <g transform="translate(441.068029 689.538437) scale(0.1 -0.1)">
       <defs>
        <path id="SimHei-31" d="M 1400 3600 
Q 1075 3275 575 2975 
L 575 3450 
Q 1200 3875 1600 4450 
L 1900 4450 
L 1900 150 
L 1400 150 
L 1400 3600 
z
" transform="scale(0.015625)"/>
       </defs>
       <use xlink:href="#SimHei-31"/>
       <use xlink:href="#SimHei-30" x="50"/>
       <use xlink:href="#SimHei-30" x="100"/>
       <use xlink:href="#SimHei-30" x="150"/>
      </g>
     </g>
    </g>
    <g id="xtick_4">
     <g id="line2d_7">
      <path d="M 620.41336 675.663437 
L 620.41336 7.2 
" clip-path="url(#pc69f37cd33)" style="fill: none; stroke-dasharray: 2.96,1.28; stroke-dashoffset: 0; stroke: #b0b0b0; stroke-opacity: 0.7; stroke-width: 0.8"/>
     </g>
     <g id="line2d_8">
      <g>
       <use xlink:href="#m772286ac1c" x="620.41336" y="675.663437" style="stroke: #000000; stroke-width: 0.8"/>
      </g>
     </g>
     <g id="text_4">
      <!-- 1500 -->
      <g transform="translate(610.41336 689.538437) scale(0.1 -0.1)">
       <use xlink:href="#SimHei-31"/>
       <use xlink:href="#SimHei-35" x="50"/>
       <use xlink:href="#SimHei-30" x="100"/>
       <use xlink:href="#SimHei-30" x="150"/>
      </g>
     </g>
    </g>
    <g id="xtick_5">
     <g id="line2d_9">
      <path d="M 789.758691 675.663437 
L 789.758691 7.2 
" clip-path="url(#pc69f37cd33)" style="fill: none; stroke-dasharray: 2.96,1.28; stroke-dashoffset: 0; stroke: #b0b0b0; stroke-opacity: 0.7; stroke-width: 0.8"/>
     </g>
     <g id="line2d_10">
      <g>
       <use xlink:href="#m772286ac1c" x="789.758691" y="675.663437" style="stroke: #000000; stroke-width: 0.8"/>
      </g>
     </g>
     <g id="text_5">
      <!-- 2000 -->
      <g transform="translate(779.758691 689.538437) scale(0.1 -0.1)">
       <defs>
        <path id="SimHei-32" d="M 300 250 
Q 325 625 650 925 
Q 975 1225 1475 1862 
Q 1975 2500 2125 2850 
Q 2275 3200 2237 3450 
Q 2200 3700 2000 3862 
Q 1800 4025 1537 4000 
Q 1275 3975 1037 3800 
Q 800 3625 675 3275 
L 200 3350 
Q 400 3925 712 4187 
Q 1025 4450 1450 4475 
Q 1700 4500 1900 4462 
Q 2100 4425 2312 4287 
Q 2525 4150 2662 3875 
Q 2800 3600 2762 3212 
Q 2725 2825 2375 2287 
Q 2025 1750 1025 600 
L 2825 600 
L 2825 150 
L 300 150 
L 300 250 
z
" transform="scale(0.015625)"/>
       </defs>
       <use xlink:href="#SimHei-32"/>
       <use xlink:href="#SimHei-30" x="50"/>
       <use xlink:href="#SimHei-30" x="100"/>
       <use xlink:href="#SimHei-30" x="150"/>
      </g>
     </g>
    </g>
    <g id="text_6">
     <!-- X坐标 -->
     <g transform="translate(434.272969 704.069687) scale(0.12 -0.12)">
      <defs>
       <path id="SimHei-58" d="M 3000 125 
L 2400 125 
L 1550 1875 
L 700 125 
L 100 125 
L 1275 2375 
L 225 4400 
L 825 4400 
L 1550 2850 
L 2275 4400 
L 2875 4400 
L 1825 2375 
L 3000 125 
z
" transform="scale(0.015625)"/>
       <path id="SimHei-5750" d="M 3450 5100 
Q 3425 4675 3425 4150 
L 3425 1500 
L 4550 1500 
Q 4975 1500 5450 1525 
L 5450 1075 
Q 5000 1100 4500 1100 
L 3425 1100 
L 3425 50 
L 5075 50 
Q 5500 50 5975 75 
L 5975 -375 
Q 5525 -350 5075 -350 
L 1475 -350 
Q 925 -350 400 -375 
L 400 75 
Q 925 50 1475 50 
L 2925 50 
L 2925 1100 
L 2050 1100 
Q 1450 1100 950 1075 
L 950 1525 
Q 1450 1500 2050 1500 
L 2925 1500 
L 2925 4150 
Q 2925 4675 2900 5100 
L 3450 5100 
z
M 5200 4450 
Q 5050 4250 4825 3600 
Q 5200 3300 5975 2500 
Q 5775 2400 5575 2150 
Q 5075 2800 4650 3150 
Q 4375 2500 3975 1925 
Q 3725 2125 3525 2200 
Q 3875 2575 4212 3362 
Q 4550 4150 4600 4650 
Q 4900 4525 5200 4450 
z
M 350 2150 
Q 600 2375 950 3087 
Q 1300 3800 1450 4575 
Q 1625 4475 2050 4400 
Q 1950 4275 1862 4050 
Q 1775 3825 1700 3575 
Q 2400 2950 2700 2475 
Q 2425 2325 2250 2150 
Q 2025 2550 1887 2725 
Q 1750 2900 1500 3125 
Q 1250 2525 800 1875 
Q 575 2050 350 2150 
z
" transform="scale(0.015625)"/>
       <path id="SimHei-6807" d="M 1275 4400 
Q 1275 4800 1250 5175 
L 1750 5175 
Q 1725 4825 1725 4400 
L 1725 3800 
Q 2125 3800 2575 3825 
L 2575 3350 
Q 2125 3375 1725 3375 
L 1725 2525 
Q 1900 2650 2075 2800 
Q 2400 2275 2650 1775 
Q 2375 1650 2175 1500 
Q 2025 2000 1725 2425 
L 1725 475 
Q 1725 -50 1750 -575 
L 1250 -575 
Q 1275 -25 1275 475 
L 1275 2100 
Q 1025 1400 500 750 
Q 350 950 125 1125 
Q 550 1550 812 2187 
Q 1075 2825 1150 3375 
Q 675 3375 325 3325 
L 325 3825 
Q 800 3800 1275 3800 
L 1275 4400 
z
M 5175 3125 
Q 5675 3125 6050 3150 
L 6050 2675 
Q 5675 2700 5275 2700 
L 4500 2700 
L 4500 175 
Q 4500 -225 4275 -350 
Q 4050 -475 3475 -550 
Q 3425 -250 3275 25 
Q 3775 25 3900 62 
Q 4025 100 4025 350 
L 4025 2700 
L 3400 2700 
Q 2775 2700 2500 2650 
L 2500 3150 
Q 2825 3125 3400 3125 
L 5175 3125 
z
M 4900 4775 
Q 5425 4775 5750 4800 
L 5750 4300 
Q 5275 4350 4750 4350 
L 3525 4350 
Q 3125 4350 2750 4300 
L 2750 4800 
Q 3100 4775 3525 4775 
L 4900 4775 
z
M 5275 2025 
Q 5825 1175 6200 500 
Q 5925 375 5650 200 
Q 5375 925 4825 1725 
Q 5075 1850 5275 2025 
z
M 3600 1775 
Q 3500 1625 3225 975 
Q 2950 325 2800 50 
Q 2575 175 2300 275 
Q 2625 775 2787 1187 
Q 2950 1600 3050 2000 
Q 3325 1875 3600 1775 
z
" transform="scale(0.015625)"/>
      </defs>
      <use xlink:href="#SimHei-58"/>
      <use xlink:href="#SimHei-5750" x="50"/>
      <use xlink:href="#SimHei-6807" x="150"/>
     </g>
    </g>
   </g>
   <g id="matplotlib.axis_2">
    <g id="ytick_1">
     <g id="line2d_11">
      <path d="M 48.98125 623.646107 
L 849.564687 623.646107 
" clip-path="url(#pc69f37cd33)" style="fill: none; stroke-dasharray: 2.96,1.28; stroke-dashoffset: 0; stroke: #b0b0b0; stroke-opacity: 0.7; stroke-width: 0.8"/>
     </g>
     <g id="line2d_12">
      <defs>
       <path id="md565e73fc6" d="M 0 0 
L -3.5 0 
" style="stroke: #000000; stroke-width: 0.8"/>
      </defs>
      <g>
       <use xlink:href="#md565e73fc6" x="48.98125" y="623.646107" style="stroke: #000000; stroke-width: 0.8"/>
      </g>
     </g>
     <g id="text_7">
      <!-- 0 -->
      <g transform="translate(36.98125 627.083607) scale(0.1 -0.1)">
       <use xlink:href="#SimHei-30"/>
      </g>
     </g>
    </g>
    <g id="ytick_2">
     <g id="line2d_13">
      <path d="M 48.98125 480.702082 
L 849.564687 480.702082 
" clip-path="url(#pc69f37cd33)" style="fill: none; stroke-dasharray: 2.96,1.28; stroke-dashoffset: 0; stroke: #b0b0b0; stroke-opacity: 0.7; stroke-width: 0.8"/>
     </g>
     <g id="line2d_14">
      <g>
       <use xlink:href="#md565e73fc6" x="48.98125" y="480.702082" style="stroke: #000000; stroke-width: 0.8"/>
      </g>
     </g>
     <g id="text_8">
      <!-- 500 -->
      <g transform="translate(26.98125 484.139582) scale(0.1 -0.1)">
       <use xlink:href="#SimHei-35"/>
       <use xlink:href="#SimHei-30" x="50"/>
       <use xlink:href="#SimHei-30" x="100"/>
      </g>
     </g>
    </g>
    <g id="ytick_3">
     <g id="line2d_15">
      <path d="M 48.98125 337.758057 
L 849.564687 337.758057 
" clip-path="url(#pc69f37cd33)" style="fill: none; stroke-dasharray: 2.96,1.28; stroke-dashoffset: 0; stroke: #b0b0b0; stroke-opacity: 0.7; stroke-width: 0.8"/>
     </g>
     <g id="line2d_16">
      <g>
       <use xlink:href="#md565e73fc6" x="48.98125" y="337.758057" style="stroke: #000000; stroke-width: 0.8"/>
      </g>
     </g>
     <g id="text_9">
      <!-- 1000 -->
      <g transform="translate(21.98125 341.195557) scale(0.1 -0.1)">
       <use xlink:href="#SimHei-31"/>
       <use xlink:href="#SimHei-30" x="50"/>
       <use xlink:href="#SimHei-30" x="100"/>
       <use xlink:href="#SimHei-30" x="150"/>
      </g>
     </g>
    </g>
    <g id="ytick_4">
     <g id="line2d_17">
      <path d="M 48.98125 194.814033 
L 849.564687 194.814033 
" clip-path="url(#pc69f37cd33)" style="fill: none; stroke-dasharray: 2.96,1.28; stroke-dashoffset: 0; stroke: #b0b0b0; stroke-opacity: 0.7; stroke-width: 0.8"/>
     </g>
     <g id="line2d_18">
      <g>
       <use xlink:href="#md565e73fc6" x="48.98125" y="194.814033" style="stroke: #000000; stroke-width: 0.8"/>
      </g>
     </g>
     <g id="text_10">
      <!-- 1500 -->
      <g transform="translate(21.98125 198.251533) scale(0.1 -0.1)">
       <use xlink:href="#SimHei-31"/>
       <use xlink:href="#SimHei-35" x="50"/>
       <use xlink:href="#SimHei-30" x="100"/>
       <use xlink:href="#SimHei-30" x="150"/>
      </g>
     </g>
    </g>
    <g id="ytick_5">
     <g id="line2d_19">
      <path d="M 48.98125 51.870008 
L 849.564687 51.870008 
" clip-path="url(#pc69f37cd33)" style="fill: none; stroke-dasharray: 2.96,1.28; stroke-dashoffset: 0; stroke: #b0b0b0; stroke-opacity: 0.7; stroke-width: 0.8"/>
     </g>
     <g id="line2d_20">
      <g>
       <use xlink:href="#md565e73fc6" x="48.98125" y="51.870008" style="stroke: #000000; stroke-width: 0.8"/>
      </g>
     </g>
     <g id="text_11">
      <!-- 2000 -->
      <g transform="translate(21.98125 55.307508) scale(0.1 -0.1)">
       <use xlink:href="#SimHei-32"/>
       <use xlink:href="#SimHei-30" x="50"/>
       <use xlink:href="#SimHei-30" x="100"/>
       <use xlink:href="#SimHei-30" x="150"/>
      </g>
     </g>
    </g>
    <g id="text_12">
     <!-- Y坐标 -->
     <g transform="translate(16.48125 356.431719) rotate(-90) scale(0.12 -0.12)">
      <defs>
       <path id="SimHei-59" d="M 3025 4400 
L 1850 2050 
L 1850 125 
L 1275 125 
L 1275 2050 
L 100 4400 
L 675 4400 
L 1550 2575 
L 1575 2575 
L 2450 4400 
L 3025 4400 
z
" transform="scale(0.015625)"/>
      </defs>
      <use xlink:href="#SimHei-59"/>
      <use xlink:href="#SimHei-5750" x="50"/>
      <use xlink:href="#SimHei-6807" x="150"/>
     </g>
    </g>
   </g>
   <g id="patch_3">
    <path d="M 48.98125 675.663437 
L 48.98125 7.2 
" style="fill: none; stroke: #000000; stroke-width: 0.8; stroke-linejoin: miter; stroke-linecap: square"/>
   </g>
   <g id="patch_4">
    <path d="M 849.564687 675.663437 
L 849.564687 7.2 
" style="fill: none; stroke: #000000; stroke-width: 0.8; stroke-linejoin: miter; stroke-linecap: square"/>
   </g>
   <g id="patch_5">
    <path d="M 48.98125 675.663437 
L 849.564687 675.663437 
" style="fill: none; stroke: #000000; stroke-width: 0.8; stroke-linejoin: miter; stroke-linecap: square"/>
   </g>
   <g id="patch_6">
    <path d="M 48.98125 7.2 
L 849.564687 7.2 
" style="fill: none; stroke: #000000; stroke-width: 0.8; stroke-linejoin: miter; stroke-linecap: square"/>
   </g>
   <g id="patch_7">
    <path d="M 449.957879 336.098753 
Q 371.81533 219.301713 295.22704 104.82777 
" style="fill: none; opacity: 0.7; stroke: #0000ff; stroke-width: 2.5; stroke-linecap: round"/>
    <path d="M 295.78904 109.264453 
L 295.22704 104.82777 
L 299.113586 107.04018 
" style="fill: none; opacity: 0.7; stroke: #0000ff; stroke-width: 2.5; stroke-linecap: round"/>
   </g>
   <g id="patch_8">
    <path d="M 290.612791 100.384462 
Q 242.29828 89.020966 196.704612 78.297407 
" style="fill: none; opacity: 0.7; stroke: #0000ff; stroke-width: 2.5; stroke-linecap: round"/>
    <path d="M 200.140461 81.160087 
L 196.704612 78.297407 
L 201.056265 77.266335 
" style="fill: none; opacity: 0.7; stroke: #0000ff; stroke-width: 2.5; stroke-linecap: round"/>
   </g>
   <g id="patch_9">
    <path d="M 193.434914 78.625666 
Q 213.11918 98.711004 230.847053 116.800088 
" style="fill: none; opacity: 0.7; stroke: #0000ff; stroke-width: 2.5; stroke-linecap: round"/>
    <path d="M 229.475696 112.543402 
L 230.847053 116.800088 
L 226.61889 115.343162 
" style="fill: none; opacity: 0.7; stroke: #0000ff; stroke-width: 2.5; stroke-linecap: round"/>
   </g>
   <g id="patch_10">
    <path d="M 232.806897 118.799864 
Q 213.122631 98.714525 195.394757 80.625441 
" style="fill: none; opacity: 0.7; stroke: #0000ff; stroke-width: 2.5; stroke-linecap: round"/>
    <path d="M 196.766114 84.882128 
L 195.394757 80.625441 
L 199.62292 82.082367 
" style="fill: none; opacity: 0.7; stroke: #0000ff; stroke-width: 2.5; stroke-linecap: round"/>
   </g>
   <g id="patch_11">
    <path d="M 193.446475 78.617063 
Q 321.552622 207.478774 447.688165 334.358258 
" style="fill: none; opacity: 0.7; stroke: #0000ff; stroke-width: 2.5; stroke-linecap: round"/>
    <path d="M 446.286432 330.111478 
L 447.688165 334.358258 
L 443.4497 332.931576 
" style="fill: none; opacity: 0.7; stroke: #0000ff; stroke-width: 2.5; stroke-linecap: round"/>
   </g>
   <g id="patch_12">
    <path d="M 453.043852 337.440175 
Q 560.616493 320.133225 665.429537 303.270256 
" style="fill: none; opacity: 0.7; stroke: #ff0000; stroke-width: 2.5; stroke-linecap: round"/>
    <path d="M 661.162635 301.931022 
L 665.429537 303.270256 
L 661.798009 305.880238 
" style="fill: none; opacity: 0.7; stroke: #ff0000; stroke-width: 2.5; stroke-linecap: round"/>
   </g>
   <g id="patch_13">
    <path d="M 669.10172 304.20201 
Q 642.766428 346.078219 617.919132 385.58834 
" style="fill: none; opacity: 0.7; stroke: #ff0000; stroke-width: 2.5; stroke-linecap: round"/>
    <path d="M 621.741612 383.266994 
L 617.919132 385.58834 
L 618.355543 381.137549 
" style="fill: none; opacity: 0.7; stroke: #ff0000; stroke-width: 2.5; stroke-linecap: round"/>
   </g>
   <g id="patch_14">
    <path d="M 617.323986 390.073387 
Q 687.101944 405.2849 754.148956 419.90107 
" style="fill: none; opacity: 0.7; stroke: #ff0000; stroke-width: 2.5; stroke-linecap: round"/>
    <path d="M 750.666737 417.094979 
L 754.148956 419.90107 
L 749.814751 421.00319 
" style="fill: none; opacity: 0.7; stroke: #ff0000; stroke-width: 2.5; stroke-linecap: round"/>
   </g>
   <g id="patch_15">
    <path d="M 758.622563 418.931361 
Q 755.212099 387.143875 752.099807 358.135524 
" style="fill: none; opacity: 0.7; stroke: #ff0000; stroke-width: 2.5; stroke-linecap: round"/>
    <path d="M 750.537929 362.326053 
L 752.099807 358.135524 
L 754.515104 361.899344 
" style="fill: none; opacity: 0.7; stroke: #ff0000; stroke-width: 2.5; stroke-linecap: round"/>
   </g>
   <g id="patch_16">
    <path d="M 749.999824 354.586659 
Q 713.146539 382.87144 678.510562 409.454445 
" style="fill: none; opacity: 0.7; stroke: #ff0000; stroke-width: 2.5; stroke-linecap: round"/>
    <path d="M 682.901407 408.605636 
L 678.510562 409.454445 
L 680.466022 405.432483 
" style="fill: none; opacity: 0.7; stroke: #ff0000; stroke-width: 2.5; stroke-linecap: round"/>
   </g>
   <g id="patch_17">
    <path d="M 674.434695 410.396097 
Q 666.255509 350.625711 658.455281 293.624602 
" style="fill: none; opacity: 0.7; stroke: #ff0000; stroke-width: 2.5; stroke-linecap: round"/>
    <path d="M 657.016068 297.858828 
L 658.455281 293.624602 
L 660.979133 297.316508 
" style="fill: none; opacity: 0.7; stroke: #ff0000; stroke-width: 2.5; stroke-linecap: round"/>
   </g>
   <g id="patch_18">
    <path d="M 659.726409 289.440456 
Q 692.404106 299.120894 722.40184 308.00742 
" style="fill: none; opacity: 0.7; stroke: #ff0000; stroke-width: 2.5; stroke-linecap: round"/>
    <path d="M 719.134666 304.953639 
L 722.40184 308.00742 
L 717.998511 308.788891 
" style="fill: none; opacity: 0.7; stroke: #ff0000; stroke-width: 2.5; stroke-linecap: round"/>
   </g>
   <g id="patch_19">
    <path d="M 726.499821 311.308181 
Q 711.351576 370.107171 696.900652 426.199458 
" style="fill: none; opacity: 0.7; stroke: #ff0000; stroke-width: 2.5; stroke-linecap: round"/>
    <path d="M 699.835337 422.824902 
L 696.900652 426.199458 
L 695.961818 421.826977 
" style="fill: none; opacity: 0.7; stroke: #ff0000; stroke-width: 2.5; stroke-linecap: round"/>
   </g>
   <g id="patch_20">
    <path d="M 697.68102 430.532591 
Q 727.271349 425.882878 754.100475 421.66705 
" style="fill: none; opacity: 0.7; stroke: #ff0000; stroke-width: 2.5; stroke-linecap: round"/>
    <path d="M 749.8385 420.31222 
L 754.100475 421.66705 
L 750.459425 424.263732 
" style="fill: none; opacity: 0.7; stroke: #ff0000; stroke-width: 2.5; stroke-linecap: round"/>
   </g>
   <g id="patch_21">
    <path d="M 756.906107 420.401334 
Q 604.950746 379.3401 455.693692 339.007999 
" style="fill: none; opacity: 0.7; stroke: #ff0000; stroke-width: 2.5; stroke-linecap: round"/>
    <path d="M 459.033469 341.982203 
L 455.693692 339.007999 
L 460.076921 338.1207 
" style="fill: none; opacity: 0.7; stroke: #ff0000; stroke-width: 2.5; stroke-linecap: round"/>
   </g>
   <g id="patch_22">
    <path d="M 449.284628 338.669151 
Q 283.380086 423.425534 119.964623 506.910309 
" style="fill: none; opacity: 0.7; stroke: #008000; stroke-width: 2.5; stroke-linecap: round"/>
    <path d="M 124.436592 506.871574 
L 119.964623 506.910309 
L 122.616816 503.309493 
" style="fill: none; opacity: 0.7; stroke: #008000; stroke-width: 2.5; stroke-linecap: round"/>
   </g>
   <g id="patch_23">
    <path d="M 117.085724 510.529841 
Q 140.064898 534.334234 161.102813 556.127653 
" style="fill: none; opacity: 0.7; stroke: #008000; stroke-width: 2.5; stroke-linecap: round"/>
    <path d="M 159.763644 551.860731 
L 161.102813 556.127653 
L 156.885774 554.638835 
" style="fill: none; opacity: 0.7; stroke: #008000; stroke-width: 2.5; stroke-linecap: round"/>
   </g>
   <g id="patch_24">
    <path d="M 166.377442 559.115122 
Q 204.891164 549.929768 240.686056 541.392843 
" style="fill: none; opacity: 0.7; stroke: #008000; stroke-width: 2.5; stroke-linecap: round"/>
    <path d="M 236.331204 540.375363 
L 240.686056 541.392843 
L 237.25916 544.266236 
" style="fill: none; opacity: 0.7; stroke: #008000; stroke-width: 2.5; stroke-linecap: round"/>
   </g>
   <g id="patch_25">
    <path d="M 246.628569 541.816161 
Q 273.373573 573.858223 298.327498 603.754469 
" style="fill: none; opacity: 0.7; stroke: #008000; stroke-width: 2.5; stroke-linecap: round"/>
    <path d="M 297.299734 599.402032 
L 298.327498 603.754469 
L 294.228891 601.965217 
" style="fill: none; opacity: 0.7; stroke: #008000; stroke-width: 2.5; stroke-linecap: round"/>
   </g>
   <g id="patch_26">
    <path d="M 300.119378 605.901246 
Q 273.374374 573.859183 248.42045 543.962937 
" style="fill: none; opacity: 0.7; stroke: #008000; stroke-width: 2.5; stroke-linecap: round"/>
    <path d="M 249.448213 548.315374 
L 248.42045 543.962937 
L 252.519057 545.752189 
" style="fill: none; opacity: 0.7; stroke: #008000; stroke-width: 2.5; stroke-linecap: round"/>
   </g>
   <g id="patch_27">
    <path d="M 243.773805 541.510715 
Q 195.866968 578.945673 150.162552 614.659632 
" style="fill: none; opacity: 0.7; stroke: #008000; stroke-width: 2.5; stroke-linecap: round"/>
    <path d="M 154.545849 613.772665 
L 150.162552 614.659632 
L 152.082957 610.620814 
" style="fill: none; opacity: 0.7; stroke: #008000; stroke-width: 2.5; stroke-linecap: round"/>
   </g>
   <g id="patch_28">
    <path d="M 144.614162 616.673164 
Q 136.254639 612.224655 130.36258 609.089204 
" style="fill: none; opacity: 0.7; stroke: #008000; stroke-width: 2.5; stroke-linecap: round"/>
    <path d="M 132.95418 612.733873 
L 130.36258 609.089204 
L 134.833275 609.202726 
" style="fill: none; opacity: 0.7; stroke: #008000; stroke-width: 2.5; stroke-linecap: round"/>
   </g>
   <g id="patch_29">
    <path d="M 127.667726 605.561038 
Q 288.596831 472.29804 447.373147 340.817735 
" style="fill: none; opacity: 0.7; stroke: #008000; stroke-width: 2.5; stroke-linecap: round"/>
    <path d="M 443.016733 341.828507 
L 447.373147 340.817735 
L 445.567916 344.909329 
" style="fill: none; opacity: 0.7; stroke: #008000; stroke-width: 2.5; stroke-linecap: round"/>
   </g>
   <g id="patch_30">
    <path d="M 452.4756 336.334407 
Q 581.175905 206.163932 707.911041 77.981073 
" style="fill: none; opacity: 0.7; stroke: #ffa500; stroke-width: 2.5; stroke-linecap: round"/>
    <path d="M 703.676501 79.419358 
L 707.911041 77.981073 
L 706.520945 82.231676 
" style="fill: none; opacity: 0.7; stroke: #ffa500; stroke-width: 2.5; stroke-linecap: round"/>
   </g>
   <g id="patch_31">
    <path d="M 709.284429 74.663137 
Q 628.235093 78.457691 549.977783 82.121528 
" style="fill: none; opacity: 0.7; stroke: #ffa500; stroke-width: 2.5; stroke-linecap: round"/>
    <path d="M 554.066939 83.932273 
L 549.977783 82.121528 
L 553.879873 79.93665 
" style="fill: none; opacity: 0.7; stroke: #ffa500; stroke-width: 2.5; stroke-linecap: round"/>
   </g>
   <g id="patch_32">
    <path d="M 547.183796 82.489127 
Q 576.179471 84.575537 602.387269 86.461342 
" style="fill: none; opacity: 0.7; stroke: #ffa500; stroke-width: 2.5; stroke-linecap: round"/>
    <path d="M 598.541125 84.179418 
L 602.387269 86.461342 
L 598.254044 88.169103 
" style="fill: none; opacity: 0.7; stroke: #ffa500; stroke-width: 2.5; stroke-linecap: round"/>
   </g>
   <g id="patch_33">
    <path d="M 606.475085 88.678637 
Q 585.952256 143.952742 566.402323 196.606547 
" style="fill: none; opacity: 0.7; stroke: #ffa500; stroke-width: 2.5; stroke-linecap: round"/>
    <path d="M 569.669553 193.552827 
L 566.402323 196.606547 
L 565.919685 192.160531 
" style="fill: none; opacity: 0.7; stroke: #ffa500; stroke-width: 2.5; stroke-linecap: round"/>
   </g>
   <g id="patch_34">
    <path d="M 565.445273 199.235768 
Q 588.609882 138.523789 610.778092 80.423264 
" style="fill: none; opacity: 0.7; stroke: #ffa500; stroke-width: 2.5; stroke-linecap: round"/>
    <path d="M 607.483559 83.447508 
L 610.778092 80.423264 
L 611.220767 84.873437 
" style="fill: none; opacity: 0.7; stroke: #ffa500; stroke-width: 2.5; stroke-linecap: round"/>
   </g>
   <g id="patch_35">
    <path d="M 612.487998 75.941782 
Q 612.487998 75.941782 612.487998 75.941782 
" style="fill: none; opacity: 0.7; stroke: #ffa500; stroke-width: 2.5; stroke-linecap: round"/>
   </g>
   <g id="patch_36">
    <path d="M 610.48969 75.990549 
Q 572.656613 76.913834 537.617788 77.768928 
" style="fill: none; opacity: 0.7; stroke: #ffa500; stroke-width: 2.5; stroke-linecap: round"/>
    <path d="M 541.665392 79.670745 
L 537.617788 77.768928 
L 541.567804 75.671936 
" style="fill: none; opacity: 0.7; stroke: #ffa500; stroke-width: 2.5; stroke-linecap: round"/>
   </g>
   <g id="patch_37">
    <path d="M 534.800323 78.225696 
Q 657.838888 99.427521 778.122965 120.154697 
" style="fill: none; opacity: 0.7; stroke: #ffa500; stroke-width: 2.5; stroke-linecap: round"/>
    <path d="M 774.520693 117.504482 
L 778.122965 120.154697 
L 773.84143 121.446385 
" style="fill: none; opacity: 0.7; stroke: #ffa500; stroke-width: 2.5; stroke-linecap: round"/>
   </g>
   <g id="patch_38">
    <path d="M 782.845887 122.972931 
Q 782.815527 140.283693 782.790069 154.799375 
" style="fill: none; opacity: 0.7; stroke: #ffa500; stroke-width: 2.5; stroke-linecap: round"/>
    <path d="M 784.797081 150.802889 
L 782.790069 154.799375 
L 780.797088 150.795873 
" style="fill: none; opacity: 0.7; stroke: #ffa500; stroke-width: 2.5; stroke-linecap: round"/>
   </g>
   <g id="patch_39">
    <path d="M 782.398775 157.627808 
Q 780.647569 148.641354 779.430989 142.398379 
" style="fill: none; opacity: 0.7; stroke: #ffa500; stroke-width: 2.5; stroke-linecap: round"/>
    <path d="M 778.233011 146.707073 
L 779.430989 142.398379 
L 782.159158 145.941978 
" style="fill: none; opacity: 0.7; stroke: #ffa500; stroke-width: 2.5; stroke-linecap: round"/>
   </g>
   <g id="patch_40">
    <path d="M 776.548941 138.078494 
Q 690.420393 154.947008 607.034817 171.278303 
" style="fill: none; opacity: 0.7; stroke: #ffa500; stroke-width: 2.5; stroke-linecap: round"/>
    <path d="M 611.344641 172.47221 
L 607.034817 171.278303 
L 610.575837 168.546788 
" style="fill: none; opacity: 0.7; stroke: #ffa500; stroke-width: 2.5; stroke-linecap: round"/>
   </g>
   <g id="patch_41">
    <path d="M 600.977079 173.678121 
Q 526.696203 254.980761 454.300631 334.219878 
" style="fill: none; opacity: 0.7; stroke: #ffa500; stroke-width: 2.5; stroke-linecap: round"/>
    <path d="M 458.475196 332.61582 
L 454.300631 334.219878 
L 455.522123 329.917791 
" style="fill: none; opacity: 0.7; stroke: #ffa500; stroke-width: 2.5; stroke-linecap: round"/>
   </g>
   <g id="patch_42">
    <path d="M 449.121922 337.307709 
Q 311.529149 305.467389 176.659499 274.257227 
" style="fill: none; opacity: 0.7; stroke: #800080; stroke-width: 2.5; stroke-linecap: round"/>
    <path d="M 180.105612 277.107543 
L 176.659499 274.257227 
L 181.00742 273.210526 
" style="fill: none; opacity: 0.7; stroke: #800080; stroke-width: 2.5; stroke-linecap: round"/>
   </g>
   <g id="patch_43">
    <path d="M 173.748649 274.120875 
Q 198.369204 287.326481 220.526615 299.210943 
" style="fill: none; opacity: 0.7; stroke: #800080; stroke-width: 2.5; stroke-linecap: round"/>
    <path d="M 217.946984 295.557793 
L 220.526615 299.210943 
L 216.056316 299.082758 
" style="fill: none; opacity: 0.7; stroke: #800080; stroke-width: 2.5; stroke-linecap: round"/>
   </g>
   <g id="patch_44">
    <path d="M 226.719765 301.112736 
Q 254.286582 295.975924 279.105611 291.351136 
" style="fill: none; opacity: 0.7; stroke: #800080; stroke-width: 2.5; stroke-linecap: round"/>
    <path d="M 274.806925 290.117728 
L 279.105611 291.351136 
L 275.539673 294.050041 
" style="fill: none; opacity: 0.7; stroke: #800080; stroke-width: 2.5; stroke-linecap: round"/>
   </g>
   <g id="patch_45">
    <path d="M 281.972856 291.229324 
Q 241.672364 307.725585 203.958636 323.163001 
" style="fill: none; opacity: 0.7; stroke: #800080; stroke-width: 2.5; stroke-linecap: round"/>
    <path d="M 208.418159 323.498645 
L 203.958636 323.163001 
L 206.902865 319.796769 
" style="fill: none; opacity: 0.7; stroke: #800080; stroke-width: 2.5; stroke-linecap: round"/>
   </g>
   <g id="patch_46">
    <path d="M 201.510861 325.177206 
Q 246.666645 329.681563 289.041148 333.908484 
" style="fill: none; opacity: 0.7; stroke: #800080; stroke-width: 2.5; stroke-linecap: round"/>
    <path d="M 285.25942 331.521325 
L 289.041148 333.908484 
L 284.862384 335.501571 
" style="fill: none; opacity: 0.7; stroke: #800080; stroke-width: 2.5; stroke-linecap: round"/>
   </g>
   <g id="patch_47">
    <path d="M 295.689623 333.696188 
Q 347.44594 314.701069 396.57831 296.668967 
" style="fill: none; opacity: 0.7; stroke: #800080; stroke-width: 2.5; stroke-linecap: round"/>
    <path d="M 392.134143 296.16958 
L 396.57831 296.668967 
L 393.512301 299.924668 
" style="fill: none; opacity: 0.7; stroke: #800080; stroke-width: 2.5; stroke-linecap: round"/>
   </g>
   <g id="patch_48">
    <path d="M 402.095923 296.73745 
Q 407.647411 306.109448 411.774393 313.076601 
" style="fill: none; opacity: 0.7; stroke: #800080; stroke-width: 2.5; stroke-linecap: round"/>
    <path d="M 411.456573 308.615773 
L 411.774393 313.076601 
L 408.015038 310.65436 
" style="fill: none; opacity: 0.7; stroke: #800080; stroke-width: 2.5; stroke-linecap: round"/>
   </g>
   <g id="patch_49">
    <path d="M 412.285834 317.724898 
Q 317.826172 343.247365 226.064835 368.04076 
" style="fill: none; opacity: 0.7; stroke: #800080; stroke-width: 2.5; stroke-linecap: round"/>
    <path d="M 230.448044 368.92816 
L 226.064835 368.04076 
L 229.404681 365.066633 
" style="fill: none; opacity: 0.7; stroke: #800080; stroke-width: 2.5; stroke-linecap: round"/>
   </g>
   <g id="patch_50">
    <path d="M 221.435761 369.291509 
Q 221.435761 369.291509 221.435761 369.291509 
" style="fill: none; opacity: 0.7; stroke: #800080; stroke-width: 2.5; stroke-linecap: round"/>
   </g>
   <g id="patch_51">
    <path d="M 223.400784 368.941302 
Q 301.719885 354.983257 377.28726 341.515625 
" style="fill: none; opacity: 0.7; stroke: #800080; stroke-width: 2.5; stroke-linecap: round"/>
    <path d="M 372.998399 340.248473 
L 377.28726 341.515625 
L 373.700221 344.186422 
" style="fill: none; opacity: 0.7; stroke: #800080; stroke-width: 2.5; stroke-linecap: round"/>
   </g>
   <g id="patch_52">
    <path d="M 380.084798 341.227896 
Q 328.663858 356.026697 279.928975 370.052458 
" style="fill: none; opacity: 0.7; stroke: #800080; stroke-width: 2.5; stroke-linecap: round"/>
    <path d="M 284.326091 370.86816 
L 279.928975 370.052458 
L 283.219806 367.024186 
" style="fill: none; opacity: 0.7; stroke: #800080; stroke-width: 2.5; stroke-linecap: round"/>
   </g>
   <g id="patch_53">
    <path d="M 276.094439 373.220918 
Q 291.172626 409.159688 305.169446 442.521028 
" style="fill: none; opacity: 0.7; stroke: #800080; stroke-width: 2.5; stroke-linecap: round"/>
    <path d="M 305.46618 438.058747 
L 305.169446 442.521028 
L 301.777662 439.606273 
" style="fill: none; opacity: 0.7; stroke: #800080; stroke-width: 2.5; stroke-linecap: round"/>
   </g>
   <g id="patch_54">
    <path d="M 308.616408 445.730879 
Q 379.04558 392.34829 447.247225 340.654079 
" style="fill: none; opacity: 0.7; stroke: #800080; stroke-width: 2.5; stroke-linecap: round"/>
    <path d="M 442.851342 341.476403 
L 447.247225 340.654079 
L 445.267554 344.664179 
" style="fill: none; opacity: 0.7; stroke: #800080; stroke-width: 2.5; stroke-linecap: round"/>
   </g>
   <g id="patch_55">
    <path d="M 452.793648 338.77101 
Q 562.15854 402.969106 669.11296 465.752235 
" style="fill: none; opacity: 0.7; stroke: #00ffff; stroke-width: 2.5; stroke-linecap: round"/>
    <path d="M 666.675842 462.002508 
L 669.11296 465.752235 
L 664.650907 465.452093 
" style="fill: none; opacity: 0.7; stroke: #00ffff; stroke-width: 2.5; stroke-linecap: round"/>
   </g>
   <g id="patch_56">
    <path d="M 674.568847 469.683837 
Q 681.141041 477.171873 685.869457 482.559198 
" style="fill: none; opacity: 0.7; stroke: #00ffff; stroke-width: 2.5; stroke-linecap: round"/>
    <path d="M 684.734003 478.233606 
L 685.869457 482.559198 
L 681.727711 480.872206 
" style="fill: none; opacity: 0.7; stroke: #00ffff; stroke-width: 2.5; stroke-linecap: round"/>
   </g>
   <g id="patch_57">
    <path d="M 691.013335 486.420759 
Q 724.237618 490.750869 754.690256 494.719752 
" style="fill: none; opacity: 0.7; stroke: #00ffff; stroke-width: 2.5; stroke-linecap: round"/>
    <path d="M 750.982274 492.219577 
L 754.690256 494.719752 
L 750.465327 496.186032 
" style="fill: none; opacity: 0.7; stroke: #00ffff; stroke-width: 2.5; stroke-linecap: round"/>
   </g>
   <g id="patch_58">
    <path d="M 758.486285 497.093577 
Q 725.779263 556.878345 694.413744 614.210997 
" style="fill: none; opacity: 0.7; stroke: #00ffff; stroke-width: 2.5; stroke-linecap: round"/>
    <path d="M 698.088137 611.661715 
L 694.413744 614.210997 
L 694.578955 609.741914 
" style="fill: none; opacity: 0.7; stroke: #00ffff; stroke-width: 2.5; stroke-linecap: round"/>
   </g>
   <g id="patch_59">
    <path d="M 691.859376 616.432999 
Q 684.222993 557.050917 676.943116 500.441092 
" style="fill: none; opacity: 0.7; stroke: #00ffff; stroke-width: 2.5; stroke-linecap: round"/>
    <path d="M 675.469639 504.663516 
L 676.943116 500.441092 
L 679.436969 504.153328 
" style="fill: none; opacity: 0.7; stroke: #00ffff; stroke-width: 2.5; stroke-linecap: round"/>
   </g>
   <g id="patch_60">
    <path d="M 676.592466 497.663788 
Q 681.343639 533.690136 685.729359 566.945392 
" style="fill: none; opacity: 0.7; stroke: #00ffff; stroke-width: 2.5; stroke-linecap: round"/>
    <path d="M 687.189196 562.718233 
L 685.729359 566.945392 
L 683.223534 563.241227 
" style="fill: none; opacity: 0.7; stroke: #00ffff; stroke-width: 2.5; stroke-linecap: round"/>
   </g>
   <g id="patch_61">
    <path d="M 686.601375 573.687537 
Q 689.235465 595.058624 691.527635 613.655619 
" style="fill: none; opacity: 0.7; stroke: #00ffff; stroke-width: 2.5; stroke-linecap: round"/>
    <path d="M 693.023298 609.441003 
L 691.527635 613.655619 
L 689.05334 609.930319 
" style="fill: none; opacity: 0.7; stroke: #00ffff; stroke-width: 2.5; stroke-linecap: round"/>
   </g>
   <g id="patch_62">
    <path d="M 690.210855 617.797584 
Q 635.519942 600.074954 583.487991 583.213963 
" style="fill: none; opacity: 0.7; stroke: #00ffff; stroke-width: 2.5; stroke-linecap: round"/>
    <path d="M 586.67665 586.349638 
L 583.487991 583.213963 
L 587.909726 582.544442 
" style="fill: none; opacity: 0.7; stroke: #00ffff; stroke-width: 2.5; stroke-linecap: round"/>
   </g>
   <g id="patch_63">
    <path d="M 578.881004 579.733104 
Q 577.56898 518.295812 576.316632 459.652968 
" style="fill: none; opacity: 0.7; stroke: #00ffff; stroke-width: 2.5; stroke-linecap: round"/>
    <path d="M 574.40249 463.694758 
L 576.316632 459.652968 
L 578.401578 463.609355 
" style="fill: none; opacity: 0.7; stroke: #00ffff; stroke-width: 2.5; stroke-linecap: round"/>
   </g>
   <g id="patch_64">
    <path d="M 574.7534 453.4909 
Q 513.640152 396.307016 454.567851 341.032853 
" style="fill: none; opacity: 0.7; stroke: #00ffff; stroke-width: 2.5; stroke-linecap: round"/>
    <path d="M 456.122131 345.226206 
L 454.567851 341.032853 
L 458.855101 342.305441 
" style="fill: none; opacity: 0.7; stroke: #00ffff; stroke-width: 2.5; stroke-linecap: round"/>
   </g>
   <g id="patch_65">
    <path d="M 450.277305 335.924368 
Q 422.720931 272.021139 396.271337 210.684531 
" style="fill: none; opacity: 0.7; stroke: #ff00ff; stroke-width: 2.5; stroke-linecap: round"/>
    <path d="M 396.018706 215.149526 
L 396.271337 210.684531 
L 399.691754 213.565633 
" style="fill: none; opacity: 0.7; stroke: #ff00ff; stroke-width: 2.5; stroke-linecap: round"/>
   </g>
   <g id="patch_66">
    <path d="M 394.973463 208.182405 
Q 396.437165 212.810495 397.058028 214.773604 
" style="fill: none; opacity: 0.7; stroke: #ff00ff; stroke-width: 2.5; stroke-linecap: round"/>
    <path d="M 397.758759 210.356708 
L 397.058028 214.773604 
L 393.944949 211.562881 
" style="fill: none; opacity: 0.7; stroke: #ff00ff; stroke-width: 2.5; stroke-linecap: round"/>
   </g>
   <g id="patch_67">
    <path d="M 397.462902 217.634742 
Q 374.862474 180.519374 353.71574 145.791321 
" style="fill: none; opacity: 0.7; stroke: #ff00ff; stroke-width: 2.5; stroke-linecap: round"/>
    <path d="M 354.087872 150.247947 
L 353.71574 145.791321 
L 357.50432 148.167591 
" style="fill: none; opacity: 0.7; stroke: #ff00ff; stroke-width: 2.5; stroke-linecap: round"/>
   </g>
   <g id="patch_68">
    <path d="M 352.262359 143.404518 
Q 374.862787 180.519886 396.009521 215.247939 
" style="fill: none; opacity: 0.7; stroke: #ff00ff; stroke-width: 2.5; stroke-linecap: round"/>
    <path d="M 395.637389 210.791313 
L 396.009521 215.247939 
L 392.220941 212.871669 
" style="fill: none; opacity: 0.7; stroke: #ff00ff; stroke-width: 2.5; stroke-linecap: round"/>
   </g>
   <g id="patch_69">
    <path d="M 399.313334 221.168163 
Q 424.785559 278.550472 449.123745 333.378089 
" style="fill: none; opacity: 0.7; stroke: #ff00ff; stroke-width: 2.5; stroke-linecap: round"/>
    <path d="M 449.328831 328.910658 
L 449.123745 333.378089 
L 445.672852 330.533561 
" style="fill: none; opacity: 0.7; stroke: #ff00ff; stroke-width: 2.5; stroke-linecap: round"/>
   </g>
   <g id="patch_70">
    <path d="M 450.043584 339.474035 
Q 404.379539 415.962705 360.148263 490.051442 
" style="fill: none; opacity: 0.7; stroke: #a52a2a; stroke-width: 2.5; stroke-linecap: round"/>
    <path d="M 363.915926 487.642145 
L 360.148263 490.051442 
L 360.481424 485.591733 
" style="fill: none; opacity: 0.7; stroke: #a52a2a; stroke-width: 2.5; stroke-linecap: round"/>
   </g>
   <g id="patch_71">
    <path d="M 359.200064 495.478807 
Q 383.499893 516.595892 405.689968 535.879555 
" style="fill: none; opacity: 0.7; stroke: #a52a2a; stroke-width: 2.5; stroke-linecap: round"/>
    <path d="M 403.982625 531.746157 
L 405.689968 535.879555 
L 401.358844 534.765391 
" style="fill: none; opacity: 0.7; stroke: #a52a2a; stroke-width: 2.5; stroke-linecap: round"/>
   </g>
   <g id="patch_72">
    <path d="M 407.79842 537.711846 
Q 383.498591 516.594761 361.308516 497.311098 
" style="fill: none; opacity: 0.7; stroke: #a52a2a; stroke-width: 2.5; stroke-linecap: round"/>
    <path d="M 363.01586 501.444496 
L 361.308516 497.311098 
L 365.639641 498.425262 
" style="fill: none; opacity: 0.7; stroke: #a52a2a; stroke-width: 2.5; stroke-linecap: round"/>
   </g>
   <g id="patch_73">
    <path d="M 357.447165 496.153293 
Q 354.6598 518.853289 352.21309 538.779036 
" style="fill: none; opacity: 0.7; stroke: #a52a2a; stroke-width: 2.5; stroke-linecap: round"/>
    <path d="M 354.685685 535.052607 
L 352.21309 538.779036 
L 350.715504 534.565103 
" style="fill: none; opacity: 0.7; stroke: #a52a2a; stroke-width: 2.5; stroke-linecap: round"/>
   </g>
   <g id="patch_74">
    <path d="M 352.49788 541.741063 
Q 401.347529 440.650638 448.981061 342.076871 
" style="fill: none; opacity: 0.7; stroke: #a52a2a; stroke-width: 2.5; stroke-linecap: round"/>
    <path d="M 445.439923 344.808234 
L 448.981061 342.076871 
L 449.041469 346.548599 
" style="fill: none; opacity: 0.7; stroke: #a52a2a; stroke-width: 2.5; stroke-linecap: round"/>
   </g>
   <g id="text_13">
    <g id="patch_75">
     <path d="M 459.068029 337.008057 
L 489.068029 337.008057 
Q 492.068029 337.008057 492.068029 334.008057 
L 492.068029 324.750245 
Q 492.068029 321.750245 489.068029 321.750245 
L 459.068029 321.750245 
Q 456.068029 321.750245 456.068029 324.750245 
L 456.068029 334.008057 
Q 456.068029 337.008057 459.068029 337.008057 
z
" style="fill: #ffffff; opacity: 0.8; stroke: #808080; stroke-linejoin: miter"/>
    </g>
    <!-- 起降点 -->
    <g transform="translate(459.068029 332.758057) scale(0.1 -0.1)">
     <defs>
      <path id="SimHei-8d77" d="M 225 -200 
Q 425 75 537 362 
Q 650 650 725 1025 
Q 800 1400 875 1950 
Q 1100 1875 1450 1850 
Q 1150 1350 1375 1012 
Q 1600 675 1775 525 
L 1775 2550 
Q 800 2550 475 2525 
L 475 2975 
Q 800 2950 1675 2950 
L 1675 3925 
Q 1125 3925 675 3900 
L 675 4350 
Q 1000 4325 1675 4325 
Q 1675 4800 1650 5225 
L 2150 5225 
Q 2125 4775 2125 4325 
Q 2700 4325 2975 4350 
L 2975 3900 
Q 2700 3925 2125 3925 
L 2125 2950 
Q 2825 2950 3225 2975 
L 3225 2525 
Q 2825 2550 2225 2550 
L 2225 1750 
Q 2675 1750 3150 1775 
L 3150 1325 
Q 2700 1350 2225 1350 
L 2225 275 
Q 2550 0 3887 -50 
Q 5225 -100 6200 50 
Q 6050 -200 5975 -550 
Q 4800 -550 4025 -537 
Q 3250 -525 2687 -400 
Q 2125 -275 1775 -12 
Q 1425 250 1125 675 
Q 875 0 625 -575 
Q 425 -275 225 -200 
z
M 6000 1475 
Q 5850 850 5725 650 
Q 5600 450 5225 450 
L 4025 450 
Q 3500 450 3500 1025 
L 3500 2225 
Q 3500 2575 3475 3000 
L 5150 3000 
L 5150 4275 
Q 3700 4275 3325 4250 
L 3325 4675 
Q 3700 4650 4125 4650 
L 5650 4650 
Q 5625 4275 5625 3600 
Q 5625 2950 5650 2575 
L 3975 2575 
L 3975 1250 
Q 3950 875 4350 875 
L 5050 875 
Q 5250 875 5312 1050 
Q 5375 1225 5425 1700 
Q 5650 1550 6000 1475 
z
" transform="scale(0.015625)"/>
      <path id="SimHei-964d" d="M 4075 5050 
Q 3850 4800 3775 4625 
L 5650 4625 
Q 5425 4175 5187 3837 
Q 4950 3500 4650 3200 
Q 4900 3025 5275 2925 
Q 5650 2825 6200 2800 
Q 6025 2525 5975 2300 
Q 5375 2400 4950 2562 
Q 4525 2725 4275 2900 
Q 3950 2700 3550 2500 
Q 3150 2300 2525 2125 
Q 2450 2350 2250 2550 
Q 2775 2650 3212 2825 
Q 3650 3000 3875 3200 
Q 3550 3525 3325 3875 
Q 3000 3450 2825 3275 
Q 2650 3450 2450 3550 
Q 2775 3850 3075 4325 
Q 3375 4800 3575 5300 
Q 3950 5100 4075 5050 
z
M 2350 4975 
Q 2225 4650 2025 4062 
Q 1825 3475 1675 2975 
Q 2075 2450 2200 2175 
Q 2325 1900 2287 1550 
Q 2250 1200 2012 1012 
Q 1775 825 1350 775 
Q 1300 1025 1150 1325 
Q 1650 1300 1737 1512 
Q 1825 1725 1787 1962 
Q 1750 2200 1200 2925 
L 1450 3600 
Q 1600 4025 1725 4550 
L 975 4550 
L 975 -600 
L 500 -600 
Q 525 325 525 875 
L 525 3750 
Q 525 4325 500 4975 
L 2350 4975 
z
M 5100 2075 
Q 5275 2075 5725 2100 
L 5725 1650 
Q 5450 1675 5150 1675 
L 4575 1675 
L 4575 900 
L 5200 900 
Q 5675 900 6050 925 
L 6050 475 
Q 5700 500 5225 500 
L 4575 500 
L 4575 125 
Q 4575 -250 4600 -600 
L 4100 -600 
Q 4125 -225 4125 100 
L 4125 500 
L 2375 500 
Q 2500 1100 2500 1400 
L 3025 1325 
Q 2925 1025 2925 900 
L 4125 900 
L 4125 1675 
L 3475 1675 
Q 3100 1675 2775 1650 
L 2775 2100 
Q 3225 2075 3475 2075 
L 4125 2075 
Q 4125 2375 4100 2625 
L 4575 2625 
Q 4550 2225 4550 2075 
L 5100 2075 
z
M 4275 3475 
Q 4600 3725 4925 4250 
L 3550 4250 
Q 4025 3650 4275 3475 
z
" transform="scale(0.015625)"/>
      <path id="SimHei-70b9" d="M 3325 5200 
Q 3300 4925 3300 4375 
L 4900 4375 
Q 5275 4375 5725 4400 
L 5725 3925 
Q 5300 3950 4900 3950 
L 3300 3950 
L 3300 3225 
L 5225 3225 
Q 5200 2700 5200 2150 
Q 5200 1625 5225 1175 
L 1175 1175 
Q 1200 1625 1200 2175 
Q 1200 2725 1175 3225 
L 2775 3225 
L 2775 4500 
Q 2775 4900 2750 5200 
L 3325 5200 
z
M 4700 1600 
L 4700 2800 
L 1725 2800 
L 1725 1600 
L 4700 1600 
z
M 1500 750 
Q 1025 -250 825 -625 
Q 625 -475 325 -375 
Q 650 50 950 925 
Q 1200 800 1500 750 
z
M 5325 850 
Q 5775 150 6075 -350 
Q 5925 -425 5575 -625 
Q 5375 -150 4900 575 
Q 5150 700 5325 850 
z
M 3975 -575 
Q 3775 -100 3400 575 
Q 3575 675 3825 825 
Q 4350 -75 4450 -325 
Q 4200 -450 3975 -575 
z
M 2375 -575 
Q 2350 -300 1975 550 
Q 2200 625 2425 775 
Q 2800 -75 2900 -350 
Q 2625 -450 2375 -575 
z
" transform="scale(0.015625)"/>
     </defs>
     <use xlink:href="#SimHei-8d77"/>
     <use xlink:href="#SimHei-964d" x="100"/>
     <use xlink:href="#SimHei-70b9" x="200"/>
    </g>
   </g>
   <g id="PathCollection_1">
    <defs>
     <path id="md2b85613e3" d="M 0 5.477226 
C 1.452577 5.477226 2.845856 4.900111 3.872983 3.872983 
C 4.900111 2.845856 5.477226 1.452577 5.477226 0 
C 5.477226 -1.452577 4.900111 -2.845856 3.872983 -3.872983 
C 2.845856 -4.900111 1.452577 -5.477226 0 -5.477226 
C -1.452577 -5.477226 -2.845856 -4.900111 -3.872983 -3.872983 
C -4.900111 -2.845856 -5.477226 -1.452577 -5.477226 0 
C -5.477226 1.452577 -4.900111 2.845856 -3.872983 3.872983 
C -2.845856 4.900111 -1.452577 5.477226 0 5.477226 
z
" style="stroke: #0000ff"/>
    </defs>
    <g clip-path="url(#pc69f37cd33)">
     <use xlink:href="#md2b85613e3" x="292.5608" y="100.842631" style="fill: #0000ff; stroke: #0000ff"/>
     <use xlink:href="#md2b85613e3" x="192.037412" y="77.199689" style="fill: #0000ff; stroke: #0000ff"/>
     <use xlink:href="#md2b85613e3" x="234.204399" y="120.22584" style="fill: #0000ff; stroke: #0000ff"/>
     <use xlink:href="#md2b85613e3" x="192.037412" y="77.199689" style="fill: #0000ff; stroke: #0000ff"/>
    </g>
   </g>
   <g id="PathCollection_2">
    <defs>
     <path id="m1af0b0c4e5" d="M -5.477226 5.477226 
L 5.477226 5.477226 
L 5.477226 -5.477226 
L -5.477226 -5.477226 
z
" style="stroke: #ff0000"/>
    </defs>
    <g clip-path="url(#pc69f37cd33)">
     <use xlink:href="#m1af0b0c4e5" x="670.167018" y="302.508061" style="fill: #ff0000; stroke: #ff0000"/>
     <use xlink:href="#m1af0b0c4e5" x="615.366869" y="389.646738" style="fill: #ff0000; stroke: #ff0000"/>
     <use xlink:href="#m1af0b0c4e5" x="758.836233" y="420.922891" style="fill: #ff0000; stroke: #ff0000"/>
     <use xlink:href="#m1af0b0c4e5" x="751.588253" y="353.367545" style="fill: #ff0000; stroke: #ff0000"/>
     <use xlink:href="#m1af0b0c4e5" x="674.705473" y="412.374838" style="fill: #ff0000; stroke: #ff0000"/>
     <use xlink:href="#m1af0b0c4e5" x="657.804809" y="288.871201" style="fill: #ff0000; stroke: #ff0000"/>
     <use xlink:href="#m1af0b0c4e5" x="726.999311" y="309.369374" style="fill: #ff0000; stroke: #ff0000"/>
     <use xlink:href="#m1af0b0c4e5" x="695.704294" y="430.843206" style="fill: #ff0000; stroke: #ff0000"/>
     <use xlink:href="#m1af0b0c4e5" x="758.836233" y="420.922891" style="fill: #ff0000; stroke: #ff0000"/>
    </g>
   </g>
   <g id="PathCollection_3">
    <defs>
     <path id="m1593c69528" d="M 0 -5.477226 
L -5.477226 5.477226 
L 5.477226 5.477226 
z
" style="stroke: #008000"/>
    </defs>
    <g clip-path="url(#pc69f37cd33)">
     <use xlink:href="#m1593c69528" x="115.696536" y="509.090765" style="fill: #008000; stroke: #008000"/>
     <use xlink:href="#m1593c69528" x="164.434123" y="559.578595" style="fill: #008000; stroke: #008000"/>
     <use xlink:href="#m1593c69528" x="245.347322" y="540.281152" style="fill: #008000; stroke: #008000"/>
     <use xlink:href="#m1593c69528" x="301.400626" y="607.436254" style="fill: #008000; stroke: #008000"/>
     <use xlink:href="#m1593c69528" x="245.347322" y="540.281152" style="fill: #008000; stroke: #008000"/>
     <use xlink:href="#m1593c69528" x="146.38191" y="617.613869" style="fill: #008000; stroke: #008000"/>
     <use xlink:href="#m1593c69528" x="126.128209" y="606.83589" style="fill: #008000; stroke: #008000"/>
    </g>
   </g>
   <g id="PathCollection_4">
    <defs>
     <path id="m7e8888a1c5" d="M -0 7.745967 
L 7.745967 0 
L 0 -7.745967 
L -7.745967 -0 
z
" style="stroke: #ffa500"/>
    </defs>
    <g clip-path="url(#pc69f37cd33)">
     <use xlink:href="#m7e8888a1c5" x="711.284064" y="74.569519" style="fill: #ffa500; stroke: #ffa500"/>
     <use xlink:href="#m7e8888a1c5" x="545.190164" y="82.345674" style="fill: #ffa500; stroke: #ffa500"/>
     <use xlink:href="#m7e8888a1c5" x="607.170555" y="86.805527" style="fill: #ffa500; stroke: #ffa500"/>
     <use xlink:href="#m7e8888a1c5" x="564.732615" y="201.10357" style="fill: #ffa500; stroke: #ffa500"/>
     <use xlink:href="#m7e8888a1c5" x="612.487998" y="75.941782" style="fill: #ffa500; stroke: #ffa500"/>
     <use xlink:href="#m7e8888a1c5" x="612.487998" y="75.941782" style="fill: #ffa500; stroke: #ffa500"/>
     <use xlink:href="#m7e8888a1c5" x="532.827955" y="77.88582" style="fill: #ffa500; stroke: #ffa500"/>
     <use xlink:href="#m7e8888a1c5" x="782.849401" y="120.969149" style="fill: #ffa500; stroke: #ffa500"/>
     <use xlink:href="#m7e8888a1c5" x="782.781663" y="159.592625" style="fill: #ffa500; stroke: #ffa500"/>
     <use xlink:href="#m7e8888a1c5" x="778.514161" y="137.6936" style="fill: #ffa500; stroke: #ffa500"/>
     <use xlink:href="#m7e8888a1c5" x="602.327279" y="172.200288" style="fill: #ffa500; stroke: #ffa500"/>
    </g>
   </g>
   <g id="PathCollection_5">
    <defs>
     <path id="m81af72f868" d="M -1.825742 5.477226 
L 1.825742 5.477226 
L 1.825742 1.825742 
L 5.477226 1.825742 
L 5.477226 -1.825742 
L 1.825742 -1.825742 
L 1.825742 -5.477226 
L -1.825742 -5.477226 
L -1.825742 -1.825742 
L -5.477226 -1.825742 
L -5.477226 1.825742 
L -1.825742 1.825742 
z
" style="stroke: #800080"/>
    </defs>
    <g clip-path="url(#pc69f37cd33)">
     <use xlink:href="#m81af72f868" x="171.986924" y="273.175947" style="fill: #800080; stroke: #800080"/>
     <use xlink:href="#m81af72f868" x="224.754929" y="301.478864" style="fill: #800080; stroke: #800080"/>
     <use xlink:href="#m81af72f868" x="283.822581" y="290.472174" style="fill: #800080; stroke: #800080"/>
     <use xlink:href="#m81af72f868" x="199.522475" y="324.978861" style="fill: #800080; stroke: #800080"/>
     <use xlink:href="#m81af72f868" x="293.813955" y="334.384578" style="fill: #800080; stroke: #800080"/>
     <use xlink:href="#m81af72f868" x="401.077288" y="295.017794" style="fill: #800080; stroke: #800080"/>
     <use xlink:href="#m81af72f868" x="414.218485" y="317.202707" style="fill: #800080; stroke: #800080"/>
     <use xlink:href="#m81af72f868" x="221.435761" y="369.291509" style="fill: #800080; stroke: #800080"/>
     <use xlink:href="#m81af72f868" x="221.435761" y="369.291509" style="fill: #800080; stroke: #800080"/>
     <use xlink:href="#m81af72f868" x="382.009003" y="340.674115" style="fill: #800080; stroke: #800080"/>
     <use xlink:href="#m81af72f868" x="275.321445" y="371.378492" style="fill: #800080; stroke: #800080"/>
     <use xlink:href="#m81af72f868" x="307.022891" y="446.938703" style="fill: #800080; stroke: #800080"/>
    </g>
   </g>
   <g id="PathCollection_6">
    <defs>
     <path id="m614411e980" d="M -2.738613 5.477226 
L 0 2.738613 
L 2.738613 5.477226 
L 5.477226 2.738613 
L 2.738613 0 
L 5.477226 -2.738613 
L 2.738613 -5.477226 
L 0 -2.738613 
L -2.738613 -5.477226 
L -5.477226 -2.738613 
L -2.738613 0 
L -5.477226 2.738613 
z
" style="stroke: #00ffff"/>
    </defs>
    <g clip-path="url(#pc69f37cd33)">
     <use xlink:href="#m614411e980" x="673.249103" y="468.180186" style="fill: #00ffff; stroke: #00ffff"/>
     <use xlink:href="#m614411e980" x="689.032088" y="486.162544" style="fill: #00ffff; stroke: #00ffff"/>
     <use xlink:href="#m614411e980" x="759.445876" y="495.33955" style="fill: #00ffff; stroke: #00ffff"/>
     <use xlink:href="#m614411e980" x="692.114173" y="618.414356" style="fill: #00ffff; stroke: #00ffff"/>
     <use xlink:href="#m614411e980" x="676.331188" y="495.682616" style="fill: #00ffff; stroke: #00ffff"/>
     <use xlink:href="#m614411e980" x="686.356432" y="571.700248" style="fill: #00ffff; stroke: #00ffff"/>
     <use xlink:href="#m614411e980" x="692.114173" y="618.414356" style="fill: #00ffff; stroke: #00ffff"/>
     <use xlink:href="#m614411e980" x="578.923754" y="581.734919" style="fill: #00ffff; stroke: #00ffff"/>
     <use xlink:href="#m614411e980" x="576.214229" y="454.857802" style="fill: #00ffff; stroke: #00ffff"/>
    </g>
   </g>
   <g id="PathCollection_7">
    <defs>
     <path id="ma2ac2c31fa" d="M 0 -5.477226 
L -1.229714 -1.692556 
L -5.209151 -1.692556 
L -1.989719 0.646499 
L -3.219432 4.431169 
L -0 2.092114 
L 3.219432 4.431169 
L 1.989719 0.646499 
L 5.209151 -1.692556 
L 1.229714 -1.692556 
z
" style="stroke: #ff00ff"/>
    </defs>
    <g clip-path="url(#pc69f37cd33)">
     <use xlink:href="#ma2ac2c31fa" x="394.371213" y="206.278143" style="fill: #ff00ff; stroke: #ff00ff"/>
     <use xlink:href="#ma2ac2c31fa" x="398.503239" y="219.343227" style="fill: #ff00ff; stroke: #ff00ff"/>
     <use xlink:href="#ma2ac2c31fa" x="351.222022" y="141.696033" style="fill: #ff00ff; stroke: #ff00ff"/>
     <use xlink:href="#ma2ac2c31fa" x="398.503239" y="219.343227" style="fill: #ff00ff; stroke: #ff00ff"/>
    </g>
   </g>
   <g id="PathCollection_8">
    <defs>
     <path id="mc42cdd1f44" d="M -0 5.477226 
L 5.477226 -5.477226 
L -5.477226 -5.477226 
z
" style="stroke: #a52a2a"/>
    </defs>
    <g clip-path="url(#pc69f37cd33)">
     <use xlink:href="#mc42cdd1f44" x="357.691014" y="494.167409" style="fill: #a52a2a; stroke: #a52a2a"/>
     <use xlink:href="#mc42cdd1f44" x="409.307471" y="539.023244" style="fill: #a52a2a; stroke: #a52a2a"/>
     <use xlink:href="#mc42cdd1f44" x="357.691014" y="494.167409" style="fill: #a52a2a; stroke: #a52a2a"/>
     <use xlink:href="#mc42cdd1f44" x="351.628451" y="543.540275" style="fill: #a52a2a; stroke: #a52a2a"/>
    </g>
   </g>
   <g id="PathCollection_9">
    <defs>
     <path id="m04ecd16860" d="M 0 -8.660254 
L -1.944348 -2.676166 
L -8.236391 -2.676166 
L -3.146021 1.022204 
L -5.09037 7.006293 
L -0 3.307923 
L 5.09037 7.006293 
L 3.146021 1.022204 
L 8.236391 -2.676166 
L 1.944348 -2.676166 
z
" style="stroke: #000000"/>
    </defs>
    <g clip-path="url(#pc69f37cd33)">
     <use xlink:href="#m04ecd16860" x="451.068029" y="337.758057" style="stroke: #000000"/>
    </g>
   </g>
   <g id="text_14">
    <!-- 1 -->
    <g style="fill: #ffffff" transform="translate(290.5608 103.092631) scale(0.08 -0.08)">
     <use xlink:href="#SimHei-31"/>
    </g>
   </g>
   <g id="text_15">
    <!-- 2 -->
    <g style="fill: #ffffff" transform="translate(190.037412 79.449689) scale(0.08 -0.08)">
     <use xlink:href="#SimHei-32"/>
    </g>
   </g>
   <g id="text_16">
    <!-- 3 -->
    <g style="fill: #ffffff" transform="translate(232.204399 122.47584) scale(0.08 -0.08)">
     <defs>
      <path id="SimHei-33" d="M 250 1225 
L 700 1300 
Q 800 975 1025 762 
Q 1250 550 1587 562 
Q 1925 575 2125 837 
Q 2325 1100 2300 1437 
Q 2275 1775 2037 1962 
Q 1800 2150 1275 2225 
L 1275 2550 
Q 1800 2600 2037 2825 
Q 2275 3050 2250 3412 
Q 2225 3775 1925 3937 
Q 1625 4100 1287 3975 
Q 950 3850 750 3275 
L 300 3350 
Q 450 3800 712 4100 
Q 975 4400 1425 4450 
Q 1875 4500 2212 4337 
Q 2550 4175 2687 3837 
Q 2825 3500 2725 3100 
Q 2625 2700 2150 2400 
Q 2500 2250 2687 1950 
Q 2875 1650 2812 1162 
Q 2750 675 2375 375 
Q 2000 75 1525 87 
Q 1050 100 700 387 
Q 350 675 250 1225 
z
" transform="scale(0.015625)"/>
     </defs>
     <use xlink:href="#SimHei-33"/>
    </g>
   </g>
   <g id="text_17">
    <!-- 4 -->
    <g style="fill: #ffffff" transform="translate(190.037412 79.449689) scale(0.08 -0.08)">
     <defs>
      <path id="SimHei-34" d="M 2000 1100 
L 75 1100 
L 75 1525 
L 2100 4450 
L 2475 4450 
L 2475 1525 
L 3075 1525 
L 3075 1100 
L 2475 1100 
L 2475 150 
L 2000 150 
L 2000 1100 
z
M 2000 1525 
L 2000 3500 
L 600 1525 
L 2000 1525 
z
" transform="scale(0.015625)"/>
     </defs>
     <use xlink:href="#SimHei-34"/>
    </g>
   </g>
   <g id="text_18">
    <!-- 1 -->
    <g style="fill: #ffffff" transform="translate(668.167018 304.758061) scale(0.08 -0.08)">
     <use xlink:href="#SimHei-31"/>
    </g>
   </g>
   <g id="text_19">
    <!-- 2 -->
    <g style="fill: #ffffff" transform="translate(613.366869 391.896738) scale(0.08 -0.08)">
     <use xlink:href="#SimHei-32"/>
    </g>
   </g>
   <g id="text_20">
    <!-- 3 -->
    <g style="fill: #ffffff" transform="translate(756.836233 423.172891) scale(0.08 -0.08)">
     <use xlink:href="#SimHei-33"/>
    </g>
   </g>
   <g id="text_21">
    <!-- 4 -->
    <g style="fill: #ffffff" transform="translate(749.588253 355.617545) scale(0.08 -0.08)">
     <use xlink:href="#SimHei-34"/>
    </g>
   </g>
   <g id="text_22">
    <!-- 5 -->
    <g style="fill: #ffffff" transform="translate(672.705473 414.624838) scale(0.08 -0.08)">
     <use xlink:href="#SimHei-35"/>
    </g>
   </g>
   <g id="text_23">
    <!-- 6 -->
    <g style="fill: #ffffff" transform="translate(655.804809 291.121201) scale(0.08 -0.08)">
     <defs>
      <path id="SimHei-36" d="M 250 1612 
Q 275 1975 387 2225 
Q 500 2475 725 2850 
L 1750 4450 
L 2325 4450 
L 1275 2800 
Q 1950 2975 2350 2750 
Q 2750 2525 2887 2237 
Q 3025 1950 3037 1612 
Q 3050 1275 2937 950 
Q 2825 625 2537 362 
Q 2250 100 1737 75 
Q 1225 50 862 262 
Q 500 475 362 862 
Q 225 1250 250 1612 
z
M 1025 787 
Q 1250 550 1625 525 
Q 2000 500 2250 775 
Q 2500 1050 2500 1575 
Q 2500 2100 2187 2300 
Q 1875 2500 1487 2450 
Q 1100 2400 925 2075 
Q 750 1750 775 1387 
Q 800 1025 1025 787 
z
" transform="scale(0.015625)"/>
     </defs>
     <use xlink:href="#SimHei-36"/>
    </g>
   </g>
   <g id="text_24">
    <!-- 7 -->
    <g style="fill: #ffffff" transform="translate(724.999311 311.619374) scale(0.08 -0.08)">
     <defs>
      <path id="SimHei-37" d="M 850 150 
Q 1300 2050 2425 3925 
L 275 3925 
L 275 4375 
L 2950 4375 
L 2950 3950 
Q 1775 2050 1400 150 
L 850 150 
z
" transform="scale(0.015625)"/>
     </defs>
     <use xlink:href="#SimHei-37"/>
    </g>
   </g>
   <g id="text_25">
    <!-- 8 -->
    <g style="fill: #ffffff" transform="translate(693.704294 433.093206) scale(0.08 -0.08)">
     <defs>
      <path id="SimHei-38" d="M 175 1375 
Q 175 1675 325 1962 
Q 475 2250 825 2425 
Q 525 2600 425 2812 
Q 325 3025 312 3300 
Q 300 3575 387 3775 
Q 475 3975 650 4150 
Q 825 4325 1037 4387 
Q 1250 4450 1500 4450 
Q 1750 4450 1950 4400 
Q 2150 4350 2375 4187 
Q 2600 4025 2700 3725 
Q 2800 3425 2687 3025 
Q 2575 2625 2100 2400 
Q 2525 2275 2700 2012 
Q 2875 1750 2875 1375 
Q 2875 1000 2762 775 
Q 2650 550 2512 400 
Q 2375 250 2137 162 
Q 1900 75 1537 75 
Q 1175 75 912 162 
Q 650 250 475 425 
Q 300 600 237 837 
Q 175 1075 175 1375 
z
M 687 1400 
Q 675 1100 787 875 
Q 900 650 1200 587 
Q 1500 525 1825 600 
Q 2150 675 2275 950 
Q 2400 1225 2362 1500 
Q 2325 1775 2050 1962 
Q 1775 2150 1450 2125 
Q 1125 2100 912 1900 
Q 700 1700 687 1400 
z
M 775 3350 
Q 775 3100 950 2875 
Q 1125 2650 1500 2650 
Q 1875 2650 2062 2875 
Q 2250 3100 2237 3412 
Q 2225 3725 2012 3875 
Q 1800 4025 1437 4000 
Q 1075 3975 925 3787 
Q 775 3600 775 3350 
z
" transform="scale(0.015625)"/>
     </defs>
     <use xlink:href="#SimHei-38"/>
    </g>
   </g>
   <g id="text_26">
    <!-- 9 -->
    <g style="fill: #ffffff" transform="translate(756.836233 423.172891) scale(0.08 -0.08)">
     <defs>
      <path id="SimHei-39" d="M 800 75 
Q 1350 1000 1700 1750 
Q 1075 1650 662 1912 
Q 250 2175 162 2625 
Q 75 3075 175 3437 
Q 275 3800 487 4037 
Q 700 4275 1000 4375 
Q 1300 4475 1537 4475 
Q 1775 4475 2025 4375 
Q 2275 4275 2475 4075 
Q 2675 3875 2750 3662 
Q 2825 3450 2825 3112 
Q 2825 2775 2575 2250 
Q 2325 1725 1350 75 
L 800 75 
z
M 662 2875 
Q 700 2550 937 2337 
Q 1175 2125 1450 2150 
Q 1725 2175 1887 2300 
Q 2050 2425 2200 2725 
Q 2300 3100 2250 3362 
Q 2200 3625 1987 3800 
Q 1775 3975 1525 3975 
Q 1375 4000 1137 3900 
Q 900 3800 762 3500 
Q 625 3200 662 2875 
z
" transform="scale(0.015625)"/>
     </defs>
     <use xlink:href="#SimHei-39"/>
    </g>
   </g>
   <g id="text_27">
    <!-- 1 -->
    <g style="fill: #ffffff" transform="translate(113.696536 511.340765) scale(0.08 -0.08)">
     <use xlink:href="#SimHei-31"/>
    </g>
   </g>
   <g id="text_28">
    <!-- 2 -->
    <g style="fill: #ffffff" transform="translate(162.434123 561.828595) scale(0.08 -0.08)">
     <use xlink:href="#SimHei-32"/>
    </g>
   </g>
   <g id="text_29">
    <!-- 3 -->
    <g style="fill: #ffffff" transform="translate(243.347322 542.531152) scale(0.08 -0.08)">
     <use xlink:href="#SimHei-33"/>
    </g>
   </g>
   <g id="text_30">
    <!-- 4 -->
    <g style="fill: #ffffff" transform="translate(299.400626 609.686254) scale(0.08 -0.08)">
     <use xlink:href="#SimHei-34"/>
    </g>
   </g>
   <g id="text_31">
    <!-- 5 -->
    <g style="fill: #ffffff" transform="translate(243.347322 542.531152) scale(0.08 -0.08)">
     <use xlink:href="#SimHei-35"/>
    </g>
   </g>
   <g id="text_32">
    <!-- 6 -->
    <g style="fill: #ffffff" transform="translate(144.38191 619.863869) scale(0.08 -0.08)">
     <use xlink:href="#SimHei-36"/>
    </g>
   </g>
   <g id="text_33">
    <!-- 7 -->
    <g style="fill: #ffffff" transform="translate(124.128209 609.08589) scale(0.08 -0.08)">
     <use xlink:href="#SimHei-37"/>
    </g>
   </g>
   <g id="text_34">
    <!-- 1 -->
    <g style="fill: #ffffff" transform="translate(709.284064 76.819519) scale(0.08 -0.08)">
     <use xlink:href="#SimHei-31"/>
    </g>
   </g>
   <g id="text_35">
    <!-- 2 -->
    <g style="fill: #ffffff" transform="translate(543.190164 84.595674) scale(0.08 -0.08)">
     <use xlink:href="#SimHei-32"/>
    </g>
   </g>
   <g id="text_36">
    <!-- 3 -->
    <g style="fill: #ffffff" transform="translate(605.170555 89.055527) scale(0.08 -0.08)">
     <use xlink:href="#SimHei-33"/>
    </g>
   </g>
   <g id="text_37">
    <!-- 4 -->
    <g style="fill: #ffffff" transform="translate(562.732615 203.35357) scale(0.08 -0.08)">
     <use xlink:href="#SimHei-34"/>
    </g>
   </g>
   <g id="text_38">
    <!-- 5 -->
    <g style="fill: #ffffff" transform="translate(610.487998 78.191782) scale(0.08 -0.08)">
     <use xlink:href="#SimHei-35"/>
    </g>
   </g>
   <g id="text_39">
    <!-- 6 -->
    <g style="fill: #ffffff" transform="translate(610.487998 78.191782) scale(0.08 -0.08)">
     <use xlink:href="#SimHei-36"/>
    </g>
   </g>
   <g id="text_40">
    <!-- 7 -->
    <g style="fill: #ffffff" transform="translate(530.827955 80.13582) scale(0.08 -0.08)">
     <use xlink:href="#SimHei-37"/>
    </g>
   </g>
   <g id="text_41">
    <!-- 8 -->
    <g style="fill: #ffffff" transform="translate(780.849401 123.219149) scale(0.08 -0.08)">
     <use xlink:href="#SimHei-38"/>
    </g>
   </g>
   <g id="text_42">
    <!-- 9 -->
    <g style="fill: #ffffff" transform="translate(780.781663 161.842625) scale(0.08 -0.08)">
     <use xlink:href="#SimHei-39"/>
    </g>
   </g>
   <g id="text_43">
    <!-- 10 -->
    <g style="fill: #ffffff" transform="translate(774.514161 139.9436) scale(0.08 -0.08)">
     <use xlink:href="#SimHei-31"/>
     <use xlink:href="#SimHei-30" x="50"/>
    </g>
   </g>
   <g id="text_44">
    <!-- 11 -->
    <g style="fill: #ffffff" transform="translate(598.327279 174.450288) scale(0.08 -0.08)">
     <use xlink:href="#SimHei-31"/>
     <use xlink:href="#SimHei-31" x="50"/>
    </g>
   </g>
   <g id="text_45">
    <!-- 1 -->
    <g style="fill: #ffffff" transform="translate(169.986924 275.425947) scale(0.08 -0.08)">
     <use xlink:href="#SimHei-31"/>
    </g>
   </g>
   <g id="text_46">
    <!-- 2 -->
    <g style="fill: #ffffff" transform="translate(222.754929 303.728864) scale(0.08 -0.08)">
     <use xlink:href="#SimHei-32"/>
    </g>
   </g>
   <g id="text_47">
    <!-- 3 -->
    <g style="fill: #ffffff" transform="translate(281.822581 292.722174) scale(0.08 -0.08)">
     <use xlink:href="#SimHei-33"/>
    </g>
   </g>
   <g id="text_48">
    <!-- 4 -->
    <g style="fill: #ffffff" transform="translate(197.522475 327.228861) scale(0.08 -0.08)">
     <use xlink:href="#SimHei-34"/>
    </g>
   </g>
   <g id="text_49">
    <!-- 5 -->
    <g style="fill: #ffffff" transform="translate(291.813955 336.634578) scale(0.08 -0.08)">
     <use xlink:href="#SimHei-35"/>
    </g>
   </g>
   <g id="text_50">
    <!-- 6 -->
    <g style="fill: #ffffff" transform="translate(399.077288 297.267794) scale(0.08 -0.08)">
     <use xlink:href="#SimHei-36"/>
    </g>
   </g>
   <g id="text_51">
    <!-- 7 -->
    <g style="fill: #ffffff" transform="translate(412.218485 319.452707) scale(0.08 -0.08)">
     <use xlink:href="#SimHei-37"/>
    </g>
   </g>
   <g id="text_52">
    <!-- 8 -->
    <g style="fill: #ffffff" transform="translate(219.435761 371.541509) scale(0.08 -0.08)">
     <use xlink:href="#SimHei-38"/>
    </g>
   </g>
   <g id="text_53">
    <!-- 9 -->
    <g style="fill: #ffffff" transform="translate(219.435761 371.541509) scale(0.08 -0.08)">
     <use xlink:href="#SimHei-39"/>
    </g>
   </g>
   <g id="text_54">
    <!-- 10 -->
    <g style="fill: #ffffff" transform="translate(378.009003 342.924115) scale(0.08 -0.08)">
     <use xlink:href="#SimHei-31"/>
     <use xlink:href="#SimHei-30" x="50"/>
    </g>
   </g>
   <g id="text_55">
    <!-- 11 -->
    <g style="fill: #ffffff" transform="translate(271.321445 373.628492) scale(0.08 -0.08)">
     <use xlink:href="#SimHei-31"/>
     <use xlink:href="#SimHei-31" x="50"/>
    </g>
   </g>
   <g id="text_56">
    <!-- 12 -->
    <g style="fill: #ffffff" transform="translate(303.022891 449.188703) scale(0.08 -0.08)">
     <use xlink:href="#SimHei-31"/>
     <use xlink:href="#SimHei-32" x="50"/>
    </g>
   </g>
   <g id="text_57">
    <!-- 1 -->
    <g style="fill: #ffffff" transform="translate(671.249103 470.430186) scale(0.08 -0.08)">
     <use xlink:href="#SimHei-31"/>
    </g>
   </g>
   <g id="text_58">
    <!-- 2 -->
    <g style="fill: #ffffff" transform="translate(687.032088 488.412544) scale(0.08 -0.08)">
     <use xlink:href="#SimHei-32"/>
    </g>
   </g>
   <g id="text_59">
    <!-- 3 -->
    <g style="fill: #ffffff" transform="translate(757.445876 497.58955) scale(0.08 -0.08)">
     <use xlink:href="#SimHei-33"/>
    </g>
   </g>
   <g id="text_60">
    <!-- 4 -->
    <g style="fill: #ffffff" transform="translate(690.114173 620.664356) scale(0.08 -0.08)">
     <use xlink:href="#SimHei-34"/>
    </g>
   </g>
   <g id="text_61">
    <!-- 5 -->
    <g style="fill: #ffffff" transform="translate(674.331188 497.932616) scale(0.08 -0.08)">
     <use xlink:href="#SimHei-35"/>
    </g>
   </g>
   <g id="text_62">
    <!-- 6 -->
    <g style="fill: #ffffff" transform="translate(684.356432 573.950248) scale(0.08 -0.08)">
     <use xlink:href="#SimHei-36"/>
    </g>
   </g>
   <g id="text_63">
    <!-- 7 -->
    <g style="fill: #ffffff" transform="translate(690.114173 620.664356) scale(0.08 -0.08)">
     <use xlink:href="#SimHei-37"/>
    </g>
   </g>
   <g id="text_64">
    <!-- 8 -->
    <g style="fill: #ffffff" transform="translate(576.923754 583.984919) scale(0.08 -0.08)">
     <use xlink:href="#SimHei-38"/>
    </g>
   </g>
   <g id="text_65">
    <!-- 9 -->
    <g style="fill: #ffffff" transform="translate(574.214229 457.107802) scale(0.08 -0.08)">
     <use xlink:href="#SimHei-39"/>
    </g>
   </g>
   <g id="text_66">
    <!-- 1 -->
    <g style="fill: #ffffff" transform="translate(392.371213 208.528143) scale(0.08 -0.08)">
     <use xlink:href="#SimHei-31"/>
    </g>
   </g>
   <g id="text_67">
    <!-- 2 -->
    <g style="fill: #ffffff" transform="translate(396.503239 221.593227) scale(0.08 -0.08)">
     <use xlink:href="#SimHei-32"/>
    </g>
   </g>
   <g id="text_68">
    <!-- 3 -->
    <g style="fill: #ffffff" transform="translate(349.222022 143.946033) scale(0.08 -0.08)">
     <use xlink:href="#SimHei-33"/>
    </g>
   </g>
   <g id="text_69">
    <!-- 4 -->
    <g style="fill: #ffffff" transform="translate(396.503239 221.593227) scale(0.08 -0.08)">
     <use xlink:href="#SimHei-34"/>
    </g>
   </g>
   <g id="text_70">
    <!-- 1 -->
    <g style="fill: #ffffff" transform="translate(355.691014 496.417409) scale(0.08 -0.08)">
     <use xlink:href="#SimHei-31"/>
    </g>
   </g>
   <g id="text_71">
    <!-- 2 -->
    <g style="fill: #ffffff" transform="translate(407.307471 541.273244) scale(0.08 -0.08)">
     <use xlink:href="#SimHei-32"/>
    </g>
   </g>
   <g id="text_72">
    <!-- 3 -->
    <g style="fill: #ffffff" transform="translate(355.691014 496.417409) scale(0.08 -0.08)">
     <use xlink:href="#SimHei-33"/>
    </g>
   </g>
   <g id="text_73">
    <!-- 4 -->
    <g style="fill: #ffffff" transform="translate(349.628451 545.790275) scale(0.08 -0.08)">
     <use xlink:href="#SimHei-34"/>
    </g>
   </g>
  </g>
 </g>
 <defs>
  <clipPath id="pc69f37cd33">
   <rect x="48.98125" y="7.2" width="800.583437" height="668.463438"/>
  </clipPath>
 </defs>
</svg>
