<?xml version="1.0" encoding="utf-8" standalone="no"?>
<!DOCTYPE svg PUBLIC "-//W3C//DTD SVG 1.1//EN"
  "http://www.w3.org/Graphics/SVG/1.1/DTD/svg11.dtd">
<svg xmlns:xlink="http://www.w3.org/1999/xlink" width="856.764687pt" height="712.769687pt" viewBox="0 0 856.764687 712.769687" xmlns="http://www.w3.org/2000/svg" version="1.1">
 <metadata>
  <rdf:RDF xmlns:dc="http://purl.org/dc/elements/1.1/" xmlns:cc="http://creativecommons.org/ns#" xmlns:rdf="http://www.w3.org/1999/02/22-rdf-syntax-ns#">
   <cc:Work>
    <dc:type rdf:resource="http://purl.org/dc/dcmitype/StillImage"/>
    <dc:date>2025-05-09T18:30:26.610180</dc:date>
    <dc:format>image/svg+xml</dc:format>
    <dc:creator>
     <cc:Agent>
      <dc:title>Matplotlib v3.9.4, https://matplotlib.org/</dc:title>
     </cc:Agent>
    </dc:creator>
   </cc:Work>
  </rdf:RDF>
 </metadata>
 <defs>
  <style type="text/css">*{stroke-linejoin: round; stroke-linecap: butt}</style>
 </defs>
 <g id="figure_1">
  <g id="patch_1">
   <path d="M 0 712.769687 
L 856.764687 712.769687 
L 856.764687 0 
L 0 0 
z
" style="fill: #ffffff"/>
  </g>
  <g id="axes_1">
   <g id="patch_2">
    <path d="M 48.98125 675.663437 
L 849.564687 675.663437 
L 849.564687 7.2 
L 48.98125 7.2 
z
" style="fill: #ffffff"/>
   </g>
   <g id="matplotlib.axis_1">
    <g id="xtick_1">
     <g id="line2d_1">
      <path d="M 98.370126 675.663437 
L 98.370126 7.2 
" clip-path="url(#p8f707c2b13)" style="fill: none; stroke-dasharray: 2.96,1.28; stroke-dashoffset: 0; stroke: #b0b0b0; stroke-opacity: 0.7; stroke-width: 0.8"/>
     </g>
     <g id="line2d_2">
      <defs>
       <path id="m601d2498a2" d="M 0 0 
L 0 3.5 
" style="stroke: #000000; stroke-width: 0.8"/>
      </defs>
      <g>
       <use xlink:href="#m601d2498a2" x="98.370126" y="675.663437" style="stroke: #000000; stroke-width: 0.8"/>
      </g>
     </g>
     <g id="text_1">
      <!-- 0 -->
      <g transform="translate(95.870126 689.538437) scale(0.1 -0.1)">
       <defs>
        <path id="SimHei-30" d="M 225 2537 
Q 250 3200 412 3587 
Q 575 3975 875 4225 
Q 1175 4475 1612 4475 
Q 2050 4475 2375 4112 
Q 2700 3750 2800 3200 
Q 2900 2650 2862 1937 
Q 2825 1225 2612 775 
Q 2400 325 1975 150 
Q 1550 -25 1125 187 
Q 700 400 525 750 
Q 350 1100 275 1487 
Q 200 1875 225 2537 
z
M 750 2687 
Q 675 2000 800 1462 
Q 925 925 1212 700 
Q 1500 475 1800 612 
Q 2100 750 2237 1162 
Q 2375 1575 2375 2062 
Q 2375 2550 2337 2950 
Q 2300 3350 2112 3675 
Q 1925 4000 1612 4012 
Q 1300 4025 1062 3700 
Q 825 3375 750 2687 
z
" transform="scale(0.015625)"/>
       </defs>
       <use xlink:href="#SimHei-30"/>
      </g>
     </g>
    </g>
    <g id="xtick_2">
     <g id="line2d_3">
      <path d="M 241.800677 675.663437 
L 241.800677 7.2 
" clip-path="url(#p8f707c2b13)" style="fill: none; stroke-dasharray: 2.96,1.28; stroke-dashoffset: 0; stroke: #b0b0b0; stroke-opacity: 0.7; stroke-width: 0.8"/>
     </g>
     <g id="line2d_4">
      <g>
       <use xlink:href="#m601d2498a2" x="241.800677" y="675.663437" style="stroke: #000000; stroke-width: 0.8"/>
      </g>
     </g>
     <g id="text_2">
      <!-- 500 -->
      <g transform="translate(234.300677 689.538437) scale(0.1 -0.1)">
       <defs>
        <path id="SimHei-35" d="M 550 1325 
Q 725 650 1150 575 
Q 1575 500 1837 662 
Q 2100 825 2212 1087 
Q 2325 1350 2312 1675 
Q 2300 2000 2137 2225 
Q 1975 2450 1725 2525 
Q 1475 2600 1162 2525 
Q 850 2450 650 2175 
L 225 2225 
Q 275 2375 700 4375 
L 2675 4375 
L 2675 3925 
L 1075 3925 
Q 950 3250 825 2850 
Q 1200 3025 1525 3012 
Q 1850 3000 2150 2862 
Q 2450 2725 2587 2487 
Q 2725 2250 2787 2012 
Q 2850 1775 2837 1500 
Q 2825 1225 2725 937 
Q 2625 650 2425 462 
Q 2225 275 1937 162 
Q 1650 50 1275 75 
Q 900 100 562 350 
Q 225 600 100 1200 
L 550 1325 
z
" transform="scale(0.015625)"/>
       </defs>
       <use xlink:href="#SimHei-35"/>
       <use xlink:href="#SimHei-30" x="50"/>
       <use xlink:href="#SimHei-30" x="100"/>
      </g>
     </g>
    </g>
    <g id="xtick_3">
     <g id="line2d_5">
      <path d="M 385.231228 675.663437 
L 385.231228 7.2 
" clip-path="url(#p8f707c2b13)" style="fill: none; stroke-dasharray: 2.96,1.28; stroke-dashoffset: 0; stroke: #b0b0b0; stroke-opacity: 0.7; stroke-width: 0.8"/>
     </g>
     <g id="line2d_6">
      <g>
       <use xlink:href="#m601d2498a2" x="385.231228" y="675.663437" style="stroke: #000000; stroke-width: 0.8"/>
      </g>
     </g>
     <g id="text_3">
      <!-- 1000 -->
      <g transform="translate(375.231228 689.538437) scale(0.1 -0.1)">
       <defs>
        <path id="SimHei-31" d="M 1400 3600 
Q 1075 3275 575 2975 
L 575 3450 
Q 1200 3875 1600 4450 
L 1900 4450 
L 1900 150 
L 1400 150 
L 1400 3600 
z
" transform="scale(0.015625)"/>
       </defs>
       <use xlink:href="#SimHei-31"/>
       <use xlink:href="#SimHei-30" x="50"/>
       <use xlink:href="#SimHei-30" x="100"/>
       <use xlink:href="#SimHei-30" x="150"/>
      </g>
     </g>
    </g>
    <g id="xtick_4">
     <g id="line2d_7">
      <path d="M 528.661779 675.663437 
L 528.661779 7.2 
" clip-path="url(#p8f707c2b13)" style="fill: none; stroke-dasharray: 2.96,1.28; stroke-dashoffset: 0; stroke: #b0b0b0; stroke-opacity: 0.7; stroke-width: 0.8"/>
     </g>
     <g id="line2d_8">
      <g>
       <use xlink:href="#m601d2498a2" x="528.661779" y="675.663437" style="stroke: #000000; stroke-width: 0.8"/>
      </g>
     </g>
     <g id="text_4">
      <!-- 1500 -->
      <g transform="translate(518.661779 689.538437) scale(0.1 -0.1)">
       <use xlink:href="#SimHei-31"/>
       <use xlink:href="#SimHei-35" x="50"/>
       <use xlink:href="#SimHei-30" x="100"/>
       <use xlink:href="#SimHei-30" x="150"/>
      </g>
     </g>
    </g>
    <g id="xtick_5">
     <g id="line2d_9">
      <path d="M 672.09233 675.663437 
L 672.09233 7.2 
" clip-path="url(#p8f707c2b13)" style="fill: none; stroke-dasharray: 2.96,1.28; stroke-dashoffset: 0; stroke: #b0b0b0; stroke-opacity: 0.7; stroke-width: 0.8"/>
     </g>
     <g id="line2d_10">
      <g>
       <use xlink:href="#m601d2498a2" x="672.09233" y="675.663437" style="stroke: #000000; stroke-width: 0.8"/>
      </g>
     </g>
     <g id="text_5">
      <!-- 2000 -->
      <g transform="translate(662.09233 689.538437) scale(0.1 -0.1)">
       <defs>
        <path id="SimHei-32" d="M 300 250 
Q 325 625 650 925 
Q 975 1225 1475 1862 
Q 1975 2500 2125 2850 
Q 2275 3200 2237 3450 
Q 2200 3700 2000 3862 
Q 1800 4025 1537 4000 
Q 1275 3975 1037 3800 
Q 800 3625 675 3275 
L 200 3350 
Q 400 3925 712 4187 
Q 1025 4450 1450 4475 
Q 1700 4500 1900 4462 
Q 2100 4425 2312 4287 
Q 2525 4150 2662 3875 
Q 2800 3600 2762 3212 
Q 2725 2825 2375 2287 
Q 2025 1750 1025 600 
L 2825 600 
L 2825 150 
L 300 150 
L 300 250 
z
" transform="scale(0.015625)"/>
       </defs>
       <use xlink:href="#SimHei-32"/>
       <use xlink:href="#SimHei-30" x="50"/>
       <use xlink:href="#SimHei-30" x="100"/>
       <use xlink:href="#SimHei-30" x="150"/>
      </g>
     </g>
    </g>
    <g id="xtick_6">
     <g id="line2d_11">
      <path d="M 815.522881 675.663437 
L 815.522881 7.2 
" clip-path="url(#p8f707c2b13)" style="fill: none; stroke-dasharray: 2.96,1.28; stroke-dashoffset: 0; stroke: #b0b0b0; stroke-opacity: 0.7; stroke-width: 0.8"/>
     </g>
     <g id="line2d_12">
      <g>
       <use xlink:href="#m601d2498a2" x="815.522881" y="675.663437" style="stroke: #000000; stroke-width: 0.8"/>
      </g>
     </g>
     <g id="text_6">
      <!-- 2500 -->
      <g transform="translate(805.522881 689.538437) scale(0.1 -0.1)">
       <use xlink:href="#SimHei-32"/>
       <use xlink:href="#SimHei-35" x="50"/>
       <use xlink:href="#SimHei-30" x="100"/>
       <use xlink:href="#SimHei-30" x="150"/>
      </g>
     </g>
    </g>
    <g id="text_7">
     <!-- X坐标 -->
     <g transform="translate(434.272969 704.069687) scale(0.12 -0.12)">
      <defs>
       <path id="SimHei-58" d="M 3000 125 
L 2400 125 
L 1550 1875 
L 700 125 
L 100 125 
L 1275 2375 
L 225 4400 
L 825 4400 
L 1550 2850 
L 2275 4400 
L 2875 4400 
L 1825 2375 
L 3000 125 
z
" transform="scale(0.015625)"/>
       <path id="SimHei-5750" d="M 3450 5100 
Q 3425 4675 3425 4150 
L 3425 1500 
L 4550 1500 
Q 4975 1500 5450 1525 
L 5450 1075 
Q 5000 1100 4500 1100 
L 3425 1100 
L 3425 50 
L 5075 50 
Q 5500 50 5975 75 
L 5975 -375 
Q 5525 -350 5075 -350 
L 1475 -350 
Q 925 -350 400 -375 
L 400 75 
Q 925 50 1475 50 
L 2925 50 
L 2925 1100 
L 2050 1100 
Q 1450 1100 950 1075 
L 950 1525 
Q 1450 1500 2050 1500 
L 2925 1500 
L 2925 4150 
Q 2925 4675 2900 5100 
L 3450 5100 
z
M 5200 4450 
Q 5050 4250 4825 3600 
Q 5200 3300 5975 2500 
Q 5775 2400 5575 2150 
Q 5075 2800 4650 3150 
Q 4375 2500 3975 1925 
Q 3725 2125 3525 2200 
Q 3875 2575 4212 3362 
Q 4550 4150 4600 4650 
Q 4900 4525 5200 4450 
z
M 350 2150 
Q 600 2375 950 3087 
Q 1300 3800 1450 4575 
Q 1625 4475 2050 4400 
Q 1950 4275 1862 4050 
Q 1775 3825 1700 3575 
Q 2400 2950 2700 2475 
Q 2425 2325 2250 2150 
Q 2025 2550 1887 2725 
Q 1750 2900 1500 3125 
Q 1250 2525 800 1875 
Q 575 2050 350 2150 
z
" transform="scale(0.015625)"/>
       <path id="SimHei-6807" d="M 1275 4400 
Q 1275 4800 1250 5175 
L 1750 5175 
Q 1725 4825 1725 4400 
L 1725 3800 
Q 2125 3800 2575 3825 
L 2575 3350 
Q 2125 3375 1725 3375 
L 1725 2525 
Q 1900 2650 2075 2800 
Q 2400 2275 2650 1775 
Q 2375 1650 2175 1500 
Q 2025 2000 1725 2425 
L 1725 475 
Q 1725 -50 1750 -575 
L 1250 -575 
Q 1275 -25 1275 475 
L 1275 2100 
Q 1025 1400 500 750 
Q 350 950 125 1125 
Q 550 1550 812 2187 
Q 1075 2825 1150 3375 
Q 675 3375 325 3325 
L 325 3825 
Q 800 3800 1275 3800 
L 1275 4400 
z
M 5175 3125 
Q 5675 3125 6050 3150 
L 6050 2675 
Q 5675 2700 5275 2700 
L 4500 2700 
L 4500 175 
Q 4500 -225 4275 -350 
Q 4050 -475 3475 -550 
Q 3425 -250 3275 25 
Q 3775 25 3900 62 
Q 4025 100 4025 350 
L 4025 2700 
L 3400 2700 
Q 2775 2700 2500 2650 
L 2500 3150 
Q 2825 3125 3400 3125 
L 5175 3125 
z
M 4900 4775 
Q 5425 4775 5750 4800 
L 5750 4300 
Q 5275 4350 4750 4350 
L 3525 4350 
Q 3125 4350 2750 4300 
L 2750 4800 
Q 3100 4775 3525 4775 
L 4900 4775 
z
M 5275 2025 
Q 5825 1175 6200 500 
Q 5925 375 5650 200 
Q 5375 925 4825 1725 
Q 5075 1850 5275 2025 
z
M 3600 1775 
Q 3500 1625 3225 975 
Q 2950 325 2800 50 
Q 2575 175 2300 275 
Q 2625 775 2787 1187 
Q 2950 1600 3050 2000 
Q 3325 1875 3600 1775 
z
" transform="scale(0.015625)"/>
      </defs>
      <use xlink:href="#SimHei-58"/>
      <use xlink:href="#SimHei-5750" x="50"/>
      <use xlink:href="#SimHei-6807" x="150"/>
     </g>
    </g>
   </g>
   <g id="matplotlib.axis_2">
    <g id="ytick_1">
     <g id="line2d_13">
      <path d="M 48.98125 670.8953 
L 849.564687 670.8953 
" clip-path="url(#p8f707c2b13)" style="fill: none; stroke-dasharray: 2.96,1.28; stroke-dashoffset: 0; stroke: #b0b0b0; stroke-opacity: 0.7; stroke-width: 0.8"/>
     </g>
     <g id="line2d_14">
      <defs>
       <path id="mffa740798b" d="M 0 0 
L -3.5 0 
" style="stroke: #000000; stroke-width: 0.8"/>
      </defs>
      <g>
       <use xlink:href="#mffa740798b" x="48.98125" y="670.8953" style="stroke: #000000; stroke-width: 0.8"/>
      </g>
     </g>
     <g id="text_8">
      <!-- 0 -->
      <g transform="translate(36.98125 674.3328) scale(0.1 -0.1)">
       <use xlink:href="#SimHei-30"/>
      </g>
     </g>
    </g>
    <g id="ytick_2">
     <g id="line2d_15">
      <path d="M 48.98125 539.613988 
L 849.564687 539.613988 
" clip-path="url(#p8f707c2b13)" style="fill: none; stroke-dasharray: 2.96,1.28; stroke-dashoffset: 0; stroke: #b0b0b0; stroke-opacity: 0.7; stroke-width: 0.8"/>
     </g>
     <g id="line2d_16">
      <g>
       <use xlink:href="#mffa740798b" x="48.98125" y="539.613988" style="stroke: #000000; stroke-width: 0.8"/>
      </g>
     </g>
     <g id="text_9">
      <!-- 500 -->
      <g transform="translate(26.98125 543.051488) scale(0.1 -0.1)">
       <use xlink:href="#SimHei-35"/>
       <use xlink:href="#SimHei-30" x="50"/>
       <use xlink:href="#SimHei-30" x="100"/>
      </g>
     </g>
    </g>
    <g id="ytick_3">
     <g id="line2d_17">
      <path d="M 48.98125 408.332676 
L 849.564687 408.332676 
" clip-path="url(#p8f707c2b13)" style="fill: none; stroke-dasharray: 2.96,1.28; stroke-dashoffset: 0; stroke: #b0b0b0; stroke-opacity: 0.7; stroke-width: 0.8"/>
     </g>
     <g id="line2d_18">
      <g>
       <use xlink:href="#mffa740798b" x="48.98125" y="408.332676" style="stroke: #000000; stroke-width: 0.8"/>
      </g>
     </g>
     <g id="text_10">
      <!-- 1000 -->
      <g transform="translate(21.98125 411.770176) scale(0.1 -0.1)">
       <use xlink:href="#SimHei-31"/>
       <use xlink:href="#SimHei-30" x="50"/>
       <use xlink:href="#SimHei-30" x="100"/>
       <use xlink:href="#SimHei-30" x="150"/>
      </g>
     </g>
    </g>
    <g id="ytick_4">
     <g id="line2d_19">
      <path d="M 48.98125 277.051363 
L 849.564687 277.051363 
" clip-path="url(#p8f707c2b13)" style="fill: none; stroke-dasharray: 2.96,1.28; stroke-dashoffset: 0; stroke: #b0b0b0; stroke-opacity: 0.7; stroke-width: 0.8"/>
     </g>
     <g id="line2d_20">
      <g>
       <use xlink:href="#mffa740798b" x="48.98125" y="277.051363" style="stroke: #000000; stroke-width: 0.8"/>
      </g>
     </g>
     <g id="text_11">
      <!-- 1500 -->
      <g transform="translate(21.98125 280.488863) scale(0.1 -0.1)">
       <use xlink:href="#SimHei-31"/>
       <use xlink:href="#SimHei-35" x="50"/>
       <use xlink:href="#SimHei-30" x="100"/>
       <use xlink:href="#SimHei-30" x="150"/>
      </g>
     </g>
    </g>
    <g id="ytick_5">
     <g id="line2d_21">
      <path d="M 48.98125 145.770051 
L 849.564687 145.770051 
" clip-path="url(#p8f707c2b13)" style="fill: none; stroke-dasharray: 2.96,1.28; stroke-dashoffset: 0; stroke: #b0b0b0; stroke-opacity: 0.7; stroke-width: 0.8"/>
     </g>
     <g id="line2d_22">
      <g>
       <use xlink:href="#mffa740798b" x="48.98125" y="145.770051" style="stroke: #000000; stroke-width: 0.8"/>
      </g>
     </g>
     <g id="text_12">
      <!-- 2000 -->
      <g transform="translate(21.98125 149.207551) scale(0.1 -0.1)">
       <use xlink:href="#SimHei-32"/>
       <use xlink:href="#SimHei-30" x="50"/>
       <use xlink:href="#SimHei-30" x="100"/>
       <use xlink:href="#SimHei-30" x="150"/>
      </g>
     </g>
    </g>
    <g id="ytick_6">
     <g id="line2d_23">
      <path d="M 48.98125 14.488738 
L 849.564687 14.488738 
" clip-path="url(#p8f707c2b13)" style="fill: none; stroke-dasharray: 2.96,1.28; stroke-dashoffset: 0; stroke: #b0b0b0; stroke-opacity: 0.7; stroke-width: 0.8"/>
     </g>
     <g id="line2d_24">
      <g>
       <use xlink:href="#mffa740798b" x="48.98125" y="14.488738" style="stroke: #000000; stroke-width: 0.8"/>
      </g>
     </g>
     <g id="text_13">
      <!-- 2500 -->
      <g transform="translate(21.98125 17.926238) scale(0.1 -0.1)">
       <use xlink:href="#SimHei-32"/>
       <use xlink:href="#SimHei-35" x="50"/>
       <use xlink:href="#SimHei-30" x="100"/>
       <use xlink:href="#SimHei-30" x="150"/>
      </g>
     </g>
    </g>
    <g id="text_14">
     <!-- Y坐标 -->
     <g transform="translate(16.48125 356.431719) rotate(-90) scale(0.12 -0.12)">
      <defs>
       <path id="SimHei-59" d="M 3025 4400 
L 1850 2050 
L 1850 125 
L 1275 125 
L 1275 2050 
L 100 4400 
L 675 4400 
L 1550 2575 
L 1575 2575 
L 2450 4400 
L 3025 4400 
z
" transform="scale(0.015625)"/>
      </defs>
      <use xlink:href="#SimHei-59"/>
      <use xlink:href="#SimHei-5750" x="50"/>
      <use xlink:href="#SimHei-6807" x="150"/>
     </g>
    </g>
   </g>
   <g id="patch_3">
    <path d="M 48.98125 675.663437 
L 48.98125 7.2 
" style="fill: none; stroke: #000000; stroke-width: 0.8; stroke-linejoin: miter; stroke-linecap: square"/>
   </g>
   <g id="patch_4">
    <path d="M 849.564687 675.663437 
L 849.564687 7.2 
" style="fill: none; stroke: #000000; stroke-width: 0.8; stroke-linejoin: miter; stroke-linecap: square"/>
   </g>
   <g id="patch_5">
    <path d="M 48.98125 675.663437 
L 849.564687 675.663437 
" style="fill: none; stroke: #000000; stroke-width: 0.8; stroke-linejoin: miter; stroke-linecap: square"/>
   </g>
   <g id="patch_6">
    <path d="M 48.98125 7.2 
L 849.564687 7.2 
" style="fill: none; stroke: #000000; stroke-width: 0.8; stroke-linejoin: miter; stroke-linecap: square"/>
   </g>
   <g id="patch_7">
    <path d="M 442.251743 353.850856 
Q 429.536919 282.65704 417.313506 214.214771 
" style="fill: none; opacity: 0.7; stroke: #0000ff; stroke-width: 2.5; stroke-linecap: round"/>
    <path d="M 416.047909 218.504091 
L 417.313506 214.214771 
L 419.985603 217.80084 
" style="fill: none; opacity: 0.7; stroke: #0000ff; stroke-width: 2.5; stroke-linecap: round"/>
   </g>
   <g id="patch_8">
    <path d="M 415.486945 211.237463 
Q 398.526546 241.304692 382.939395 268.937441 
" style="fill: none; opacity: 0.7; stroke: #0000ff; stroke-width: 2.5; stroke-linecap: round"/>
    <path d="M 386.646598 266.436114 
L 382.939395 268.937441 
L 383.162655 264.470882 
" style="fill: none; opacity: 0.7; stroke: #0000ff; stroke-width: 2.5; stroke-linecap: round"/>
   </g>
   <g id="patch_9">
    <path d="M 382.575279 272.92855 
Q 465.651561 265.236154 545.944664 257.801465 
" style="fill: none; opacity: 0.7; stroke: #0000ff; stroke-width: 2.5; stroke-linecap: round"/>
    <path d="M 541.777302 256.178784 
L 545.944664 257.801465 
L 542.146102 260.161746 
" style="fill: none; opacity: 0.7; stroke: #0000ff; stroke-width: 2.5; stroke-linecap: round"/>
   </g>
   <g id="patch_10">
    <path d="M 549.277147 255.974302 
Q 547.70842 254.47008 548.15716 254.900368 
" style="fill: none; opacity: 0.7; stroke: #0000ff; stroke-width: 2.5; stroke-linecap: round"/>
    <path d="M 549.6601 259.112395 
L 548.15716 254.900368 
L 552.428546 256.225232 
" style="fill: none; opacity: 0.7; stroke: #0000ff; stroke-width: 2.5; stroke-linecap: round"/>
   </g>
   <g id="patch_11">
    <path d="M 544.245459 249.63305 
Q 523.813904 161.47163 504.013389 76.03313 
" style="fill: none; opacity: 0.7; stroke: #0000ff; stroke-width: 2.5; stroke-linecap: round"/>
    <path d="M 502.968099 80.38139 
L 504.013389 76.03313 
L 506.864824 79.478318 
" style="fill: none; opacity: 0.7; stroke: #0000ff; stroke-width: 2.5; stroke-linecap: round"/>
   </g>
   <g id="patch_12">
    <path d="M 501.737352 72.963757 
Q 433.496786 164.71236 366.924327 254.218215 
" style="fill: none; opacity: 0.7; stroke: #0000ff; stroke-width: 2.5; stroke-linecap: round"/>
    <path d="M 370.916306 252.202254 
L 366.924327 254.218215 
L 367.706746 249.815054 
" style="fill: none; opacity: 0.7; stroke: #0000ff; stroke-width: 2.5; stroke-linecap: round"/>
   </g>
   <g id="patch_13">
    <path d="M 364.79492 256.209251 
Q 396.088295 176.964074 426.355058 100.318622 
" style="fill: none; opacity: 0.7; stroke: #0000ff; stroke-width: 2.5; stroke-linecap: round"/>
    <path d="M 423.025677 103.304459 
L 426.355058 100.318622 
L 426.7461 104.773629 
" style="fill: none; opacity: 0.7; stroke: #0000ff; stroke-width: 2.5; stroke-linecap: round"/>
   </g>
   <g id="patch_14">
    <path d="M 426.219988 95.224371 
Q 378.704679 79.380938 333.840937 64.421639 
" style="fill: none; opacity: 0.7; stroke: #0000ff; stroke-width: 2.5; stroke-linecap: round"/>
    <path d="M 337.002915 67.584216 
L 333.840937 64.421639 
L 338.268185 63.789603 
" style="fill: none; opacity: 0.7; stroke: #0000ff; stroke-width: 2.5; stroke-linecap: round"/>
   </g>
   <g id="patch_15">
    <path d="M 331.190288 63.537811 
Q 378.705597 79.381244 423.569339 94.340543 
" style="fill: none; opacity: 0.7; stroke: #0000ff; stroke-width: 2.5; stroke-linecap: round"/>
    <path d="M 420.40736 91.177966 
L 423.569339 94.340543 
L 419.14209 94.97258 
" style="fill: none; opacity: 0.7; stroke: #0000ff; stroke-width: 2.5; stroke-linecap: round"/>
   </g>
   <g id="patch_16">
    <path d="M 429.349502 97.432224 
Q 472.695648 152.833586 514.319441 206.033585 
" style="fill: none; opacity: 0.7; stroke: #0000ff; stroke-width: 2.5; stroke-linecap: round"/>
    <path d="M 513.429779 201.650834 
L 514.319441 206.033585 
L 510.279444 204.115663 
" style="fill: none; opacity: 0.7; stroke: #0000ff; stroke-width: 2.5; stroke-linecap: round"/>
   </g>
   <g id="patch_17">
    <path d="M 517.252779 207.805889 
Q 516.599233 144.296198 515.974449 83.581444 
" style="fill: none; opacity: 0.7; stroke: #0000ff; stroke-width: 2.5; stroke-linecap: round"/>
    <path d="M 514.015714 87.601812 
L 515.974449 83.581444 
L 518.015503 87.560653 
" style="fill: none; opacity: 0.7; stroke: #0000ff; stroke-width: 2.5; stroke-linecap: round"/>
   </g>
   <g id="patch_18">
    <path d="M 514.544911 80.237993 
Q 465.107508 132.090741 417.598851 181.920511 
" style="fill: none; opacity: 0.7; stroke: #0000ff; stroke-width: 2.5; stroke-linecap: round"/>
    <path d="M 421.806572 180.405559 
L 417.598851 181.920511 
L 418.911522 177.645362 
" style="fill: none; opacity: 0.7; stroke: #0000ff; stroke-width: 2.5; stroke-linecap: round"/>
   </g>
   <g id="patch_19">
    <path d="M 415.793026 186.713667 
Q 460.834422 226.364485 503.777842 264.168414 
" style="fill: none; opacity: 0.7; stroke: #0000ff; stroke-width: 2.5; stroke-linecap: round"/>
    <path d="M 502.09699 260.024173 
L 503.777842 264.168414 
L 499.453937 263.026551 
" style="fill: none; opacity: 0.7; stroke: #0000ff; stroke-width: 2.5; stroke-linecap: round"/>
   </g>
   <g id="patch_20">
    <path d="M 506.196582 268.948628 
Q 474.990961 311.577127 445.436349 351.950261 
" style="fill: none; opacity: 0.7; stroke: #0000ff; stroke-width: 2.5; stroke-linecap: round"/>
    <path d="M 449.412888 349.904012 
L 445.436349 351.950261 
L 446.185274 347.54128 
" style="fill: none; opacity: 0.7; stroke: #0000ff; stroke-width: 2.5; stroke-linecap: round"/>
   </g>
   <g id="patch_21">
    <path d="M 443.69148 357.494682 
Q 478.76178 411.469514 512.309198 463.100559 
" style="fill: none; opacity: 0.7; stroke: #ff0000; stroke-width: 2.5; stroke-linecap: round"/>
    <path d="M 511.806904 458.656721 
L 512.309198 463.100559 
L 508.452751 460.836092 
" style="fill: none; opacity: 0.7; stroke: #ff0000; stroke-width: 2.5; stroke-linecap: round"/>
   </g>
   <g id="patch_22">
    <path d="M 513.900818 468.84325 
Q 484.799305 517.981211 457.122107 564.714213 
" style="fill: none; opacity: 0.7; stroke: #ff0000; stroke-width: 2.5; stroke-linecap: round"/>
    <path d="M 460.881269 562.291674 
L 457.122107 564.714213 
L 457.439572 560.25336 
" style="fill: none; opacity: 0.7; stroke: #ff0000; stroke-width: 2.5; stroke-linecap: round"/>
   </g>
   <g id="patch_23">
    <path d="M 456.67428 568.654272 
Q 509.773509 563.782737 560.089343 559.166561 
" style="fill: none; opacity: 0.7; stroke: #ff0000; stroke-width: 2.5; stroke-linecap: round"/>
    <path d="M 555.92335 557.540366 
L 560.089343 559.166561 
L 556.288792 561.523638 
" style="fill: none; opacity: 0.7; stroke: #ff0000; stroke-width: 2.5; stroke-linecap: round"/>
   </g>
   <g id="patch_24">
    <path d="M 565.491712 560.629551 
Q 574.444922 587.728926 582.521296 612.174313 
" style="fill: none; opacity: 0.7; stroke: #ff0000; stroke-width: 2.5; stroke-linecap: round"/>
    <path d="M 583.16551 607.74882 
L 582.521296 612.174313 
L 579.36743 609.003646 
" style="fill: none; opacity: 0.7; stroke: #ff0000; stroke-width: 2.5; stroke-linecap: round"/>
   </g>
   <g id="patch_25">
    <path d="M 582.310621 615.706874 
Q 568.377632 607.407618 556.846 600.538743 
" style="fill: none; opacity: 0.7; stroke: #ff0000; stroke-width: 2.5; stroke-linecap: round"/>
    <path d="M 559.259045 604.304007 
L 556.846 600.538743 
L 561.306038 600.867466 
" style="fill: none; opacity: 0.7; stroke: #ff0000; stroke-width: 2.5; stroke-linecap: round"/>
   </g>
   <g id="patch_26">
    <path d="M 552.174439 596.164237 
Q 533.824616 532.60127 516.25004 471.723726 
" style="fill: none; opacity: 0.7; stroke: #ff0000; stroke-width: 2.5; stroke-linecap: round"/>
    <path d="M 515.437952 476.121511 
L 516.25004 471.723726 
L 519.281015 475.012067 
" style="fill: none; opacity: 0.7; stroke: #ff0000; stroke-width: 2.5; stroke-linecap: round"/>
   </g>
   <g id="patch_27">
    <path d="M 515.845054 468.894739 
Q 534.657401 505.021795 552.178809 538.669743 
" style="fill: none; opacity: 0.7; stroke: #ff0000; stroke-width: 2.5; stroke-linecap: round"/>
    <path d="M 552.105272 534.198212 
L 552.178809 538.669743 
L 548.557462 536.045654 
" style="fill: none; opacity: 0.7; stroke: #ff0000; stroke-width: 2.5; stroke-linecap: round"/>
   </g>
   <g id="patch_28">
    <path d="M 553.060744 544.411216 
Q 530.298487 569.846286 509.400186 593.198529 
" style="fill: none; opacity: 0.7; stroke: #ff0000; stroke-width: 2.5; stroke-linecap: round"/>
    <path d="M 513.558012 591.551568 
L 509.400186 593.198529 
L 510.577312 588.884092 
" style="fill: none; opacity: 0.7; stroke: #ff0000; stroke-width: 2.5; stroke-linecap: round"/>
   </g>
   <g id="patch_29">
    <path d="M 507.995425 597.660712 
Q 508.718755 598.018108 506.936196 597.13735 
" style="fill: none; opacity: 0.7; stroke: #ff0000; stroke-width: 2.5; stroke-linecap: round"/>
    <path d="M 504.236011 593.572382 
L 506.936196 597.13735 
L 502.464111 597.158517 
" style="fill: none; opacity: 0.7; stroke: #ff0000; stroke-width: 2.5; stroke-linecap: round"/>
   </g>
   <g id="patch_30">
    <path d="M 508.910729 596.44723 
Q 476.022678 477.097506 443.877165 360.442431 
" style="fill: none; opacity: 0.7; stroke: #ff0000; stroke-width: 2.5; stroke-linecap: round"/>
    <path d="M 443.011666 364.830017 
L 443.877165 360.442431 
L 446.867934 363.767382 
" style="fill: none; opacity: 0.7; stroke: #ff0000; stroke-width: 2.5; stroke-linecap: round"/>
   </g>
   <g id="patch_31">
    <path d="M 440.610661 356.017179 
Q 279.147637 371.981113 120.466136 387.670037 
" style="fill: none; opacity: 0.7; stroke: #008000; stroke-width: 2.5; stroke-linecap: round"/>
    <path d="M 124.643509 389.266769 
L 120.466136 387.670037 
L 124.249945 385.286178 
" style="fill: none; opacity: 0.7; stroke: #008000; stroke-width: 2.5; stroke-linecap: round"/>
   </g>
   <g id="patch_32">
    <path d="M 117.64098 388.613165 
Q 120.733243 389.363082 121.109159 389.454247 
" style="fill: none; opacity: 0.7; stroke: #008000; stroke-width: 2.5; stroke-linecap: round"/>
    <path d="M 117.693203 386.567857 
L 121.109159 389.454247 
L 116.750473 390.455177 
" style="fill: none; opacity: 0.7; stroke: #008000; stroke-width: 2.5; stroke-linecap: round"/>
   </g>
   <g id="patch_33">
    <path d="M 125.765361 390.583442 
Q 125.765361 390.583442 125.765361 390.583442 
" style="fill: none; opacity: 0.7; stroke: #008000; stroke-width: 2.5; stroke-linecap: round"/>
   </g>
   <g id="patch_34">
    <path d="M 126.861703 392.257898 
Q 173.858069 464.036015 219.323355 533.475695 
" style="fill: none; opacity: 0.7; stroke: #008000; stroke-width: 2.5; stroke-linecap: round"/>
    <path d="M 218.805501 529.033643 
L 219.323355 533.475695 
L 215.459001 531.224747 
" style="fill: none; opacity: 0.7; stroke: #008000; stroke-width: 2.5; stroke-linecap: round"/>
   </g>
   <g id="patch_35">
    <path d="M 220.225266 538.499227 
Q 185.862581 558.663012 153.910594 577.412217 
" style="fill: none; opacity: 0.7; stroke: #008000; stroke-width: 2.5; stroke-linecap: round"/>
    <path d="M 158.372695 577.112789 
L 153.910594 577.412217 
L 156.348312 573.662879 
" style="fill: none; opacity: 0.7; stroke: #008000; stroke-width: 2.5; stroke-linecap: round"/>
   </g>
   <g id="patch_36">
    <path d="M 151.36408 578.623394 
Q 296.189406 467.82947 438.794769 358.733857 
" style="fill: none; opacity: 0.7; stroke: #008000; stroke-width: 2.5; stroke-linecap: round"/>
    <path d="M 434.402603 359.575806 
L 438.794769 358.733857 
L 436.833028 362.752759 
" style="fill: none; opacity: 0.7; stroke: #008000; stroke-width: 2.5; stroke-linecap: round"/>
   </g>
   <g id="patch_37">
    <path d="M 444.103815 354.497114 
Q 570.802175 242.773371 695.404109 132.898276 
" style="fill: none; opacity: 0.7; stroke: #ffa500; stroke-width: 2.5; stroke-linecap: round"/>
    <path d="M 691.081163 134.043764 
L 695.404109 132.898276 
L 693.726732 137.043925 
" style="fill: none; opacity: 0.7; stroke: #ffa500; stroke-width: 2.5; stroke-linecap: round"/>
   </g>
   <g id="patch_38">
    <path d="M 697.409651 130.939399 
Q 655.211861 163.098188 615.237165 193.562765 
" style="fill: none; opacity: 0.7; stroke: #ffa500; stroke-width: 2.5; stroke-linecap: round"/>
    <path d="M 619.630877 192.728923 
L 615.237165 193.562765 
L 617.206318 189.54749 
" style="fill: none; opacity: 0.7; stroke: #ffa500; stroke-width: 2.5; stroke-linecap: round"/>
   </g>
   <g id="patch_39">
    <path d="M 611.875965 194.526074 
Q 623.98532 142.739177 635.458265 93.673949 
" style="fill: none; opacity: 0.7; stroke: #ffa500; stroke-width: 2.5; stroke-linecap: round"/>
    <path d="M 632.600043 97.113507 
L 635.458265 93.673949 
L 636.494979 98.024262 
" style="fill: none; opacity: 0.7; stroke: #ffa500; stroke-width: 2.5; stroke-linecap: round"/>
   </g>
   <g id="patch_40">
    <path d="M 636.464357 91.00134 
Q 634.269704 142.041408 632.195126 190.288972 
" style="fill: none; opacity: 0.7; stroke: #ffa500; stroke-width: 2.5; stroke-linecap: round"/>
    <path d="M 634.365115 186.378583 
L 632.195126 190.288972 
L 630.368808 186.206747 
" style="fill: none; opacity: 0.7; stroke: #ffa500; stroke-width: 2.5; stroke-linecap: round"/>
   </g>
   <g id="patch_41">
    <path d="M 631.989148 195.079312 
Q 631.989148 195.079312 631.989148 195.079312 
" style="fill: none; opacity: 0.7; stroke: #ffa500; stroke-width: 2.5; stroke-linecap: round"/>
   </g>
   <g id="patch_42">
    <path d="M 630.466225 196.37189 
Q 537.295908 275.450062 446.256591 352.719551 
" style="fill: none; opacity: 0.7; stroke: #ffa500; stroke-width: 2.5; stroke-linecap: round"/>
    <path d="M 450.60042 351.655993 
L 446.256591 352.719551 
L 448.012042 348.606353 
" style="fill: none; opacity: 0.7; stroke: #ffa500; stroke-width: 2.5; stroke-linecap: round"/>
   </g>
   <g id="patch_43">
    <path d="M 440.608654 355.658733 
Q 342.502402 347.720024 247.182128 340.006754 
" style="fill: none; opacity: 0.7; stroke: #800080; stroke-width: 2.5; stroke-linecap: round"/>
    <path d="M 251.007784 342.322862 
L 247.182128 340.006754 
L 251.330408 338.335894 
" style="fill: none; opacity: 0.7; stroke: #800080; stroke-width: 2.5; stroke-linecap: round"/>
   </g>
   <g id="patch_44">
    <path d="M 240.477983 339.079038 
Q 192.416955 325.572772 147.046778 312.822698 
" style="fill: none; opacity: 0.7; stroke: #800080; stroke-width: 2.5; stroke-linecap: round"/>
    <path d="M 150.356523 315.830287 
L 147.046778 312.822698 
L 151.438696 311.979456 
" style="fill: none; opacity: 0.7; stroke: #800080; stroke-width: 2.5; stroke-linecap: round"/>
   </g>
   <g id="patch_45">
    <path d="M 143.707489 309.987339 
Q 203.446643 237.930382 261.401867 168.025189 
" style="fill: none; opacity: 0.7; stroke: #800080; stroke-width: 2.5; stroke-linecap: round"/>
    <path d="M 257.309235 169.828068 
L 261.401867 168.025189 
L 260.38859 172.381021 
" style="fill: none; opacity: 0.7; stroke: #800080; stroke-width: 2.5; stroke-linecap: round"/>
   </g>
   <g id="patch_46">
    <path d="M 262.73407 165.334138 
Q 241.587809 177.578194 222.860414 188.421684 
" style="fill: none; opacity: 0.7; stroke: #800080; stroke-width: 2.5; stroke-linecap: round"/>
    <path d="M 227.324178 188.148157 
L 222.860414 188.421684 
L 225.319851 184.686557 
" style="fill: none; opacity: 0.7; stroke: #800080; stroke-width: 2.5; stroke-linecap: round"/>
   </g>
   <g id="patch_47">
    <path d="M 218.708358 190.825797 
Q 218.708358 190.825797 218.708358 190.825797 
" style="fill: none; opacity: 0.7; stroke: #800080; stroke-width: 2.5; stroke-linecap: round"/>
   </g>
   <g id="patch_48">
    <path d="M 220.161139 192.195815 
Q 225.33381 197.073808 228.472985 200.034148 
" style="fill: none; opacity: 0.7; stroke: #800080; stroke-width: 2.5; stroke-linecap: round"/>
    <path d="M 226.935041 195.834776 
L 228.472985 200.034148 
L 224.190721 198.74488 
" style="fill: none; opacity: 0.7; stroke: #800080; stroke-width: 2.5; stroke-linecap: round"/>
   </g>
   <g id="patch_49">
    <path d="M 233.272543 201.811655 
Q 245.646607 187.541468 256.189529 175.383015 
" style="fill: none; opacity: 0.7; stroke: #800080; stroke-width: 2.5; stroke-linecap: round"/>
    <path d="M 252.057978 177.094825 
L 256.189529 175.383015 
L 255.080046 179.715341 
" style="fill: none; opacity: 0.7; stroke: #800080; stroke-width: 2.5; stroke-linecap: round"/>
   </g>
   <g id="patch_50">
    <path d="M 260.722238 173.193774 
Q 292.774435 206.06606 322.875329 236.937117 
" style="fill: none; opacity: 0.7; stroke: #800080; stroke-width: 2.5; stroke-linecap: round"/>
    <path d="M 321.514814 232.676953 
L 322.875329 236.937117 
L 318.650889 235.46943 
" style="fill: none; opacity: 0.7; stroke: #800080; stroke-width: 2.5; stroke-linecap: round"/>
   </g>
   <g id="patch_51">
    <path d="M 325.227502 242.107837 
Q 298.125444 289.34001 272.414476 334.147854 
" style="fill: none; opacity: 0.7; stroke: #800080; stroke-width: 2.5; stroke-linecap: round"/>
    <path d="M 276.139952 331.673823 
L 272.414476 334.147854 
L 272.670537 329.683055 
" style="fill: none; opacity: 0.7; stroke: #800080; stroke-width: 2.5; stroke-linecap: round"/>
   </g>
   <g id="patch_52">
    <path d="M 272.015947 338.508979 
Q 356.314066 347.063528 437.831382 355.335883 
" style="fill: none; opacity: 0.7; stroke: #800080; stroke-width: 2.5; stroke-linecap: round"/>
    <path d="M 434.053743 352.942257 
L 437.831382 355.335883 
L 433.649898 356.921819 
" style="fill: none; opacity: 0.7; stroke: #800080; stroke-width: 2.5; stroke-linecap: round"/>
   </g>
   <g id="patch_53">
    <path d="M 440.815587 356.721326 
Q 386.162929 384.269112 334.006212 410.558814 
" style="fill: none; opacity: 0.7; stroke: #00ffff; stroke-width: 2.5; stroke-linecap: round"/>
    <path d="M 338.478325 410.54434 
L 334.006212 410.558814 
L 336.677901 406.97244 
" style="fill: none; opacity: 0.7; stroke: #00ffff; stroke-width: 2.5; stroke-linecap: round"/>
   </g>
   <g id="patch_54">
    <path d="M 328.442111 414.253972 
Q 320.93039 423.260466 315.208925 430.120457 
" style="fill: none; opacity: 0.7; stroke: #00ffff; stroke-width: 2.5; stroke-linecap: round"/>
    <path d="M 319.306846 428.329634 
L 315.208925 430.120457 
L 316.23502 425.767626 
" style="fill: none; opacity: 0.7; stroke: #00ffff; stroke-width: 2.5; stroke-linecap: round"/>
   </g>
   <g id="patch_55">
    <path d="M 314.003206 434.531038 
Q 331.088066 441.219377 345.570177 446.888798 
" style="fill: none; opacity: 0.7; stroke: #00ffff; stroke-width: 2.5; stroke-linecap: round"/>
    <path d="M 342.574503 443.568265 
L 345.570177 446.888798 
L 341.116346 447.293017 
" style="fill: none; opacity: 0.7; stroke: #00ffff; stroke-width: 2.5; stroke-linecap: round"/>
   </g>
   <g id="patch_56">
    <path d="M 348.113184 448.084719 
Q 312.313625 437.806045 279.20061 428.298724 
" style="fill: none; opacity: 0.7; stroke: #00ffff; stroke-width: 2.5; stroke-linecap: round"/>
    <path d="M 282.493342 431.324928 
L 279.20061 428.298724 
L 283.597213 427.480261 
" style="fill: none; opacity: 0.7; stroke: #00ffff; stroke-width: 2.5; stroke-linecap: round"/>
   </g>
   <g id="patch_57">
    <path d="M 276.369855 426.067728 
Q 337.337301 395.022006 395.813998 365.244619 
" style="fill: none; opacity: 0.7; stroke: #00ffff; stroke-width: 2.5; stroke-linecap: round"/>
    <path d="M 391.341982 365.277476 
L 395.813998 365.244619 
L 393.157074 368.841945 
" style="fill: none; opacity: 0.7; stroke: #00ffff; stroke-width: 2.5; stroke-linecap: round"/>
   </g>
   <g id="patch_58">
    <path d="M 399.171758 364.845744 
Q 359.456467 441.731204 321.023951 516.133321 
" style="fill: none; opacity: 0.7; stroke: #00ffff; stroke-width: 2.5; stroke-linecap: round"/>
    <path d="M 324.636643 513.497329 
L 321.023951 516.133321 
L 321.082772 511.661572 
" style="fill: none; opacity: 0.7; stroke: #00ffff; stroke-width: 2.5; stroke-linecap: round"/>
   </g>
   <g id="patch_59">
    <path d="M 320.61211 519.493748 
Q 374.661316 492.286612 426.213903 466.336217 
" style="fill: none; opacity: 0.7; stroke: #00ffff; stroke-width: 2.5; stroke-linecap: round"/>
    <path d="M 421.741784 466.348283 
L 426.213903 466.336217 
L 423.540284 469.921152 
" style="fill: none; opacity: 0.7; stroke: #00ffff; stroke-width: 2.5; stroke-linecap: round"/>
   </g>
   <g id="patch_60">
    <path d="M 432.248631 465.155016 
Q 438.818127 468.81467 442.945848 471.11409 
" style="fill: none; opacity: 0.7; stroke: #00ffff; stroke-width: 2.5; stroke-linecap: round"/>
    <path d="M 440.424768 467.42029 
L 442.945848 471.11409 
L 438.47816 470.914673 
" style="fill: none; opacity: 0.7; stroke: #00ffff; stroke-width: 2.5; stroke-linecap: round"/>
   </g>
   <g id="patch_61">
    <path d="M 447.135854 473.448206 
Q 447.135854 473.448206 447.135854 473.448206 
" style="fill: none; opacity: 0.7; stroke: #00ffff; stroke-width: 2.5; stroke-linecap: round"/>
   </g>
   <g id="patch_62">
    <path d="M 445.886264 475.005457 
Q 409.844632 519.920891 375.552309 562.65632 
" style="fill: none; opacity: 0.7; stroke: #00ffff; stroke-width: 2.5; stroke-linecap: round"/>
    <path d="M 379.615599 560.788254 
L 375.552309 562.65632 
L 376.49583 558.284848 
" style="fill: none; opacity: 0.7; stroke: #00ffff; stroke-width: 2.5; stroke-linecap: round"/>
   </g>
   <g id="patch_63">
    <path d="M 371.100592 567.771714 
Q 344.311998 593.175335 319.551559 616.655656 
" style="fill: none; opacity: 0.7; stroke: #00ffff; stroke-width: 2.5; stroke-linecap: round"/>
    <path d="M 323.830221 615.354483 
L 319.551559 616.655656 
L 321.077818 612.452023 
" style="fill: none; opacity: 0.7; stroke: #00ffff; stroke-width: 2.5; stroke-linecap: round"/>
   </g>
   <g id="patch_64">
    <path d="M 316.932067 618.156551 
Q 379.33534 487.891013 440.531047 360.146245 
" style="fill: none; opacity: 0.7; stroke: #00ffff; stroke-width: 2.5; stroke-linecap: round"/>
    <path d="M 436.999202 362.889613 
L 440.531047 360.146245 
L 440.606635 364.617742 
" style="fill: none; opacity: 0.7; stroke: #00ffff; stroke-width: 2.5; stroke-linecap: round"/>
   </g>
   <g id="patch_65">
    <path d="M 444.586695 355.547009 
Q 586.065192 336.061968 724.774741 316.958278 
" style="fill: none; opacity: 0.7; stroke: #ff00ff; stroke-width: 2.5; stroke-linecap: round"/>
    <path d="M 720.539273 315.522727 
L 724.774741 316.958278 
L 721.085019 319.485322 
" style="fill: none; opacity: 0.7; stroke: #ff00ff; stroke-width: 2.5; stroke-linecap: round"/>
   </g>
   <g id="patch_66">
    <path d="M 729.521922 316.304476 
Q 729.521922 316.304476 729.521922 316.304476 
" style="fill: none; opacity: 0.7; stroke: #ff00ff; stroke-width: 2.5; stroke-linecap: round"/>
   </g>
   <g id="patch_67">
    <path d="M 727.527761 316.114015 
Q 716.325425 315.04409 707.905511 314.239912 
" style="fill: none; opacity: 0.7; stroke: #ff00ff; stroke-width: 2.5; stroke-linecap: round"/>
    <path d="M 711.697238 316.611158 
L 707.905511 314.239912 
L 712.077544 312.629278 
" style="fill: none; opacity: 0.7; stroke: #ff00ff; stroke-width: 2.5; stroke-linecap: round"/>
   </g>
   <g id="patch_68">
    <path d="M 703.619083 311.849001 
Q 708.021395 294.407892 711.739654 279.67687 
" style="fill: none; opacity: 0.7; stroke: #ff00ff; stroke-width: 2.5; stroke-linecap: round"/>
    <path d="M 708.821536 283.065762 
L 711.739654 279.67687 
L 712.699897 284.044699 
" style="fill: none; opacity: 0.7; stroke: #ff00ff; stroke-width: 2.5; stroke-linecap: round"/>
   </g>
   <g id="patch_69">
    <path d="M 710.994729 275.602867 
Q 577.755347 315.4257 447.193994 354.44812 
" style="fill: none; opacity: 0.7; stroke: #ff00ff; stroke-width: 2.5; stroke-linecap: round"/>
    <path d="M 451.599206 355.218902 
L 447.193994 354.44812 
L 450.453747 351.386419 
" style="fill: none; opacity: 0.7; stroke: #ff00ff; stroke-width: 2.5; stroke-linecap: round"/>
   </g>
   <g id="patch_70">
    <path d="M 444.427117 356.644864 
Q 606.100057 429.757842 765.226227 501.719099 
" style="fill: none; opacity: 0.7; stroke: #a52a2a; stroke-width: 2.5; stroke-linecap: round"/>
    <path d="M 762.405689 498.248571 
L 765.226227 501.719099 
L 760.757481 501.893212 
" style="fill: none; opacity: 0.7; stroke: #a52a2a; stroke-width: 2.5; stroke-linecap: round"/>
   </g>
   <g id="patch_71">
    <path d="M 769.276634 505.669225 
Q 760.76138 558.227928 752.69314 608.027523 
" style="fill: none; opacity: 0.7; stroke: #a52a2a; stroke-width: 2.5; stroke-linecap: round"/>
    <path d="M 755.307112 604.398866 
L 752.69314 608.027523 
L 751.358598 603.759151 
" style="fill: none; opacity: 0.7; stroke: #a52a2a; stroke-width: 2.5; stroke-linecap: round"/>
   </g>
   <g id="patch_72">
    <path d="M 751.610866 610.791259 
Q 746.776677 580.508492 742.383103 552.985864 
" style="fill: none; opacity: 0.7; stroke: #a52a2a; stroke-width: 2.5; stroke-linecap: round"/>
    <path d="M 741.038666 557.251129 
L 742.383103 552.985864 
L 744.988653 556.620573 
" style="fill: none; opacity: 0.7; stroke: #a52a2a; stroke-width: 2.5; stroke-linecap: round"/>
   </g>
   <g id="patch_73">
    <path d="M 741.942369 550.224975 
Q 746.776558 580.507741 751.170132 608.03037 
" style="fill: none; opacity: 0.7; stroke: #a52a2a; stroke-width: 2.5; stroke-linecap: round"/>
    <path d="M 752.514569 603.765104 
L 751.170132 608.03037 
L 748.564582 604.395661 
" style="fill: none; opacity: 0.7; stroke: #a52a2a; stroke-width: 2.5; stroke-linecap: round"/>
   </g>
   <g id="patch_74">
    <path d="M 750.389452 611.487763 
Q 597.265492 484.292775 446.291593 358.88377 
" style="fill: none; opacity: 0.7; stroke: #a52a2a; stroke-width: 2.5; stroke-linecap: round"/>
    <path d="M 448.090564 362.978121 
L 446.291593 358.88377 
L 450.646456 359.901205 
" style="fill: none; opacity: 0.7; stroke: #a52a2a; stroke-width: 2.5; stroke-linecap: round"/>
   </g>
   <g id="text_15">
    <g id="patch_75">
     <path d="M 450.603448 355.070151 
L 480.603448 355.070151 
Q 483.603448 355.070151 483.603448 352.070151 
L 483.603448 342.812338 
Q 483.603448 339.812338 480.603448 339.812338 
L 450.603448 339.812338 
Q 447.603448 339.812338 447.603448 342.812338 
L 447.603448 352.070151 
Q 447.603448 355.070151 450.603448 355.070151 
z
" style="fill: #ffffff; opacity: 0.8; stroke: #808080; stroke-linejoin: miter"/>
    </g>
    <!-- 起降点 -->
    <g transform="translate(450.603448 350.820151) scale(0.1 -0.1)">
     <defs>
      <path id="SimHei-8d77" d="M 225 -200 
Q 425 75 537 362 
Q 650 650 725 1025 
Q 800 1400 875 1950 
Q 1100 1875 1450 1850 
Q 1150 1350 1375 1012 
Q 1600 675 1775 525 
L 1775 2550 
Q 800 2550 475 2525 
L 475 2975 
Q 800 2950 1675 2950 
L 1675 3925 
Q 1125 3925 675 3900 
L 675 4350 
Q 1000 4325 1675 4325 
Q 1675 4800 1650 5225 
L 2150 5225 
Q 2125 4775 2125 4325 
Q 2700 4325 2975 4350 
L 2975 3900 
Q 2700 3925 2125 3925 
L 2125 2950 
Q 2825 2950 3225 2975 
L 3225 2525 
Q 2825 2550 2225 2550 
L 2225 1750 
Q 2675 1750 3150 1775 
L 3150 1325 
Q 2700 1350 2225 1350 
L 2225 275 
Q 2550 0 3887 -50 
Q 5225 -100 6200 50 
Q 6050 -200 5975 -550 
Q 4800 -550 4025 -537 
Q 3250 -525 2687 -400 
Q 2125 -275 1775 -12 
Q 1425 250 1125 675 
Q 875 0 625 -575 
Q 425 -275 225 -200 
z
M 6000 1475 
Q 5850 850 5725 650 
Q 5600 450 5225 450 
L 4025 450 
Q 3500 450 3500 1025 
L 3500 2225 
Q 3500 2575 3475 3000 
L 5150 3000 
L 5150 4275 
Q 3700 4275 3325 4250 
L 3325 4675 
Q 3700 4650 4125 4650 
L 5650 4650 
Q 5625 4275 5625 3600 
Q 5625 2950 5650 2575 
L 3975 2575 
L 3975 1250 
Q 3950 875 4350 875 
L 5050 875 
Q 5250 875 5312 1050 
Q 5375 1225 5425 1700 
Q 5650 1550 6000 1475 
z
" transform="scale(0.015625)"/>
      <path id="SimHei-964d" d="M 4075 5050 
Q 3850 4800 3775 4625 
L 5650 4625 
Q 5425 4175 5187 3837 
Q 4950 3500 4650 3200 
Q 4900 3025 5275 2925 
Q 5650 2825 6200 2800 
Q 6025 2525 5975 2300 
Q 5375 2400 4950 2562 
Q 4525 2725 4275 2900 
Q 3950 2700 3550 2500 
Q 3150 2300 2525 2125 
Q 2450 2350 2250 2550 
Q 2775 2650 3212 2825 
Q 3650 3000 3875 3200 
Q 3550 3525 3325 3875 
Q 3000 3450 2825 3275 
Q 2650 3450 2450 3550 
Q 2775 3850 3075 4325 
Q 3375 4800 3575 5300 
Q 3950 5100 4075 5050 
z
M 2350 4975 
Q 2225 4650 2025 4062 
Q 1825 3475 1675 2975 
Q 2075 2450 2200 2175 
Q 2325 1900 2287 1550 
Q 2250 1200 2012 1012 
Q 1775 825 1350 775 
Q 1300 1025 1150 1325 
Q 1650 1300 1737 1512 
Q 1825 1725 1787 1962 
Q 1750 2200 1200 2925 
L 1450 3600 
Q 1600 4025 1725 4550 
L 975 4550 
L 975 -600 
L 500 -600 
Q 525 325 525 875 
L 525 3750 
Q 525 4325 500 4975 
L 2350 4975 
z
M 5100 2075 
Q 5275 2075 5725 2100 
L 5725 1650 
Q 5450 1675 5150 1675 
L 4575 1675 
L 4575 900 
L 5200 900 
Q 5675 900 6050 925 
L 6050 475 
Q 5700 500 5225 500 
L 4575 500 
L 4575 125 
Q 4575 -250 4600 -600 
L 4100 -600 
Q 4125 -225 4125 100 
L 4125 500 
L 2375 500 
Q 2500 1100 2500 1400 
L 3025 1325 
Q 2925 1025 2925 900 
L 4125 900 
L 4125 1675 
L 3475 1675 
Q 3100 1675 2775 1650 
L 2775 2100 
Q 3225 2075 3475 2075 
L 4125 2075 
Q 4125 2375 4100 2625 
L 4575 2625 
Q 4550 2225 4550 2075 
L 5100 2075 
z
M 4275 3475 
Q 4600 3725 4925 4250 
L 3550 4250 
Q 4025 3650 4275 3475 
z
" transform="scale(0.015625)"/>
      <path id="SimHei-70b9" d="M 3325 5200 
Q 3300 4925 3300 4375 
L 4900 4375 
Q 5275 4375 5725 4400 
L 5725 3925 
Q 5300 3950 4900 3950 
L 3300 3950 
L 3300 3225 
L 5225 3225 
Q 5200 2700 5200 2150 
Q 5200 1625 5225 1175 
L 1175 1175 
Q 1200 1625 1200 2175 
Q 1200 2725 1175 3225 
L 2775 3225 
L 2775 4500 
Q 2775 4900 2750 5200 
L 3325 5200 
z
M 4700 1600 
L 4700 2800 
L 1725 2800 
L 1725 1600 
L 4700 1600 
z
M 1500 750 
Q 1025 -250 825 -625 
Q 625 -475 325 -375 
Q 650 50 950 925 
Q 1200 800 1500 750 
z
M 5325 850 
Q 5775 150 6075 -350 
Q 5925 -425 5575 -625 
Q 5375 -150 4900 575 
Q 5150 700 5325 850 
z
M 3975 -575 
Q 3775 -100 3400 575 
Q 3575 675 3825 825 
Q 4350 -75 4450 -325 
Q 4200 -450 3975 -575 
z
M 2375 -575 
Q 2350 -300 1975 550 
Q 2200 625 2425 775 
Q 2800 -75 2900 -350 
Q 2625 -450 2375 -575 
z
" transform="scale(0.015625)"/>
     </defs>
     <use xlink:href="#SimHei-8d77"/>
     <use xlink:href="#SimHei-964d" x="100"/>
     <use xlink:href="#SimHei-70b9" x="200"/>
    </g>
   </g>
   <g id="PathCollection_1">
    <defs>
     <path id="ma656978930" d="M 0 5.477226 
C 1.452577 5.477226 2.845856 4.900111 3.872983 3.872983 
C 4.900111 2.845856 5.477226 1.452577 5.477226 0 
C 5.477226 -1.452577 4.900111 -2.845856 3.872983 -3.872983 
C 2.845856 -4.900111 1.452577 -5.477226 0 -5.477226 
C -1.452577 -5.477226 -2.845856 -4.900111 -3.872983 -3.872983 
C -4.900111 -2.845856 -5.477226 -1.452577 -5.477226 0 
C -5.477226 1.452577 -4.900111 2.845856 -3.872983 3.872983 
C -2.845856 4.900111 -1.452577 5.477226 0 5.477226 
z
" style="stroke: #0000ff"/>
    </defs>
    <g clip-path="url(#p8f707c2b13)">
     <use xlink:href="#ma656978930" x="416.470402" y="209.494" style="fill: #0000ff; stroke: #0000ff"/>
     <use xlink:href="#ma656978930" x="380.584078" y="273.112924" style="fill: #0000ff; stroke: #0000ff"/>
     <use xlink:href="#ma656978930" x="550.721397" y="257.359166" style="fill: #0000ff; stroke: #0000ff"/>
     <use xlink:href="#ma656978930" x="544.697314" y="251.582789" style="fill: #0000ff; stroke: #0000ff"/>
     <use xlink:href="#ma656978930" x="502.930338" y="71.359803" style="fill: #0000ff; stroke: #0000ff"/>
     <use xlink:href="#ma656978930" x="364.060878" y="258.068085" style="fill: #0000ff; stroke: #0000ff"/>
     <use xlink:href="#ma656978930" x="428.116962" y="95.856896" style="fill: #0000ff; stroke: #0000ff"/>
     <use xlink:href="#ma656978930" x="329.293313" y="62.905286" style="fill: #0000ff; stroke: #0000ff"/>
     <use xlink:href="#ma656978930" x="428.116962" y="95.856896" style="fill: #0000ff; stroke: #0000ff"/>
     <use xlink:href="#ma656978930" x="517.273393" y="209.809075" style="fill: #0000ff; stroke: #0000ff"/>
     <use xlink:href="#ma656978930" x="515.925146" y="78.790325" style="fill: #0000ff; stroke: #0000ff"/>
     <use xlink:href="#ma656978930" x="414.290257" y="185.390751" style="fill: #0000ff; stroke: #0000ff"/>
     <use xlink:href="#ma656978930" x="507.376685" y="267.336546" style="fill: #0000ff; stroke: #0000ff"/>
    </g>
   </g>
   <g id="PathCollection_2">
    <defs>
     <path id="mf9cbc04ea9" d="M -5.477226 5.477226 
L 5.477226 5.477226 
L 5.477226 -5.477226 
L -5.477226 -5.477226 
z
" style="stroke: #ff0000"/>
    </defs>
    <g clip-path="url(#p8f707c2b13)">
     <use xlink:href="#mf9cbc04ea9" x="514.921132" y="467.120447" style="fill: #ff0000; stroke: #ff0000"/>
     <use xlink:href="#mf9cbc04ea9" x="454.680301" y="568.837208" style="fill: #ff0000; stroke: #ff0000"/>
     <use xlink:href="#mf9cbc04ea9" x="564.86365" y="558.728547" style="fill: #ff0000; stroke: #ff0000"/>
     <use xlink:href="#mf9cbc04ea9" x="584.025971" y="616.728631" style="fill: #ff0000; stroke: #ff0000"/>
     <use xlink:href="#mf9cbc04ea9" x="552.729425" y="598.086684" style="fill: #ff0000; stroke: #ff0000"/>
     <use xlink:href="#mf9cbc04ea9" x="514.921132" y="467.120447" style="fill: #ff0000; stroke: #ff0000"/>
     <use xlink:href="#mf9cbc04ea9" x="554.39322" y="542.922277" style="fill: #ff0000; stroke: #ff0000"/>
     <use xlink:href="#mf9cbc04ea9" x="506.200554" y="596.773871" style="fill: #ff0000; stroke: #ff0000"/>
     <use xlink:href="#mf9cbc04ea9" x="509.442085" y="598.375503" style="fill: #ff0000; stroke: #ff0000"/>
    </g>
   </g>
   <g id="PathCollection_3">
    <defs>
     <path id="ma4861da3d3" d="M 0 -5.477226 
L -5.477226 5.477226 
L 5.477226 5.477226 
z
" style="stroke: #008000"/>
    </defs>
    <g clip-path="url(#p8f707c2b13)">
     <use xlink:href="#ma4861da3d3" x="115.696536" y="388.14161" style="fill: #008000; stroke: #008000"/>
     <use xlink:href="#ma4861da3d3" x="125.765361" y="390.583442" style="fill: #008000; stroke: #008000"/>
     <use xlink:href="#ma4861da3d3" x="125.765361" y="390.583442" style="fill: #008000; stroke: #008000"/>
     <use xlink:href="#ma4861da3d3" x="221.949889" y="537.487231" style="fill: #008000; stroke: #008000"/>
     <use xlink:href="#ma4861da3d3" x="149.775635" y="579.838582" style="fill: #008000; stroke: #008000"/>
    </g>
   </g>
   <g id="PathCollection_4">
    <defs>
     <path id="m8d7c3b0ad4" d="M -0 7.745967 
L 7.745967 0 
L 0 -7.745967 
L -7.745967 -0 
z
" style="stroke: #ffa500"/>
    </defs>
    <g clip-path="url(#p8f707c2b13)">
     <use xlink:href="#m8d7c3b0ad4" x="698.999901" y="129.727474" style="fill: #ffa500; stroke: #ffa500"/>
     <use xlink:href="#m8d7c3b0ad4" x="611.421207" y="196.470894" style="fill: #ffa500; stroke: #ffa500"/>
     <use xlink:href="#m8d7c3b0ad4" x="636.550239" y="89.004011" style="fill: #ffa500; stroke: #ffa500"/>
     <use xlink:href="#m8d7c3b0ad4" x="631.989148" y="195.079312" style="fill: #ffa500; stroke: #ffa500"/>
     <use xlink:href="#m8d7c3b0ad4" x="631.989148" y="195.079312" style="fill: #ffa500; stroke: #ffa500"/>
    </g>
   </g>
   <g id="PathCollection_5">
    <defs>
     <path id="mb6becb732b" d="M -1.825742 5.477226 
L 1.825742 5.477226 
L 1.825742 1.825742 
L 5.477226 1.825742 
L 5.477226 -1.825742 
L 1.825742 -1.825742 
L 1.825742 -5.477226 
L -1.825742 -5.477226 
L -1.825742 -1.825742 
L -5.477226 -1.825742 
L -5.477226 1.825742 
L -1.825742 1.825742 
z
" style="stroke: #800080"/>
    </defs>
    <g clip-path="url(#p8f707c2b13)">
     <use xlink:href="#mb6becb732b" x="242.403085" y="339.620037" style="fill: #800080; stroke: #800080"/>
     <use xlink:href="#mb6becb732b" x="142.431991" y="311.525836" style="fill: #800080; stroke: #800080"/>
     <use xlink:href="#mb6becb732b" x="264.462704" y="164.333228" style="fill: #800080; stroke: #800080"/>
     <use xlink:href="#mb6becb732b" x="218.708358" y="190.825797" style="fill: #800080; stroke: #800080"/>
     <use xlink:href="#mb6becb732b" x="218.708358" y="190.825797" style="fill: #800080; stroke: #800080"/>
     <use xlink:href="#mb6becb732b" x="231.961341" y="203.323778" style="fill: #800080; stroke: #800080"/>
     <use xlink:href="#mb6becb732b" x="259.32789" y="171.763751" style="fill: #800080; stroke: #800080"/>
     <use xlink:href="#mb6becb732b" x="326.223899" y="240.371364" style="fill: #800080; stroke: #800080"/>
     <use xlink:href="#mb6becb732b" x="270.027809" y="338.307224" style="fill: #800080; stroke: #800080"/>
    </g>
   </g>
   <g id="PathCollection_6">
    <defs>
     <path id="m7c4a15db58" d="M -2.738613 5.477226 
L 0 2.738613 
L 2.738613 5.477226 
L 5.477226 2.738613 
L 2.738613 0 
L 5.477226 -2.738613 
L 2.738613 -5.477226 
L 0 -2.738613 
L -2.738613 -5.477226 
L -5.477226 -2.738613 
L -2.738613 0 
L -5.477226 2.738613 
z
" style="stroke: #00ffff"/>
    </defs>
    <g clip-path="url(#p8f707c2b13)">
     <use xlink:href="#m7c4a15db58" x="329.723605" y="412.717471" style="fill: #00ffff; stroke: #00ffff"/>
     <use xlink:href="#m7c4a15db58" x="312.139019" y="433.80125" style="fill: #00ffff; stroke: #00ffff"/>
     <use xlink:href="#m7c4a15db58" x="350.033371" y="448.636038" style="fill: #00ffff; stroke: #00ffff"/>
     <use xlink:href="#m7c4a15db58" x="274.588901" y="426.974622" style="fill: #00ffff; stroke: #00ffff"/>
     <use xlink:href="#m7c4a15db58" x="400.090633" y="363.066879" style="fill: #00ffff; stroke: #00ffff"/>
     <use xlink:href="#m7c4a15db58" x="318.822883" y="520.394404" style="fill: #00ffff; stroke: #00ffff"/>
     <use xlink:href="#m7c4a15db58" x="430.49791" y="464.179746" style="fill: #00ffff; stroke: #00ffff"/>
     <use xlink:href="#m7c4a15db58" x="447.135854" y="473.448206" style="fill: #00ffff; stroke: #00ffff"/>
     <use xlink:href="#m7c4a15db58" x="447.135854" y="473.448206" style="fill: #00ffff; stroke: #00ffff"/>
     <use xlink:href="#m7c4a15db58" x="372.551967" y="566.395376" style="fill: #00ffff; stroke: #00ffff"/>
     <use xlink:href="#m7c4a15db58" x="316.069016" y="619.958151" style="fill: #00ffff; stroke: #00ffff"/>
    </g>
   </g>
   <g id="PathCollection_7">
    <defs>
     <path id="m2ca69ce24e" d="M 0 -5.477226 
L -1.229714 -1.692556 
L -5.209151 -1.692556 
L -1.989719 0.646499 
L -3.219432 4.431169 
L -0 2.092114 
L 3.219432 4.431169 
L 1.989719 0.646499 
L 5.209151 -1.692556 
L 1.229714 -1.692556 
z
" style="stroke: #ff00ff"/>
    </defs>
    <g clip-path="url(#p8f707c2b13)">
     <use xlink:href="#m2ca69ce24e" x="729.521922" y="316.304476" style="fill: #ff00ff; stroke: #ff00ff"/>
     <use xlink:href="#m2ca69ce24e" x="729.521922" y="316.304476" style="fill: #ff00ff; stroke: #ff00ff"/>
     <use xlink:href="#m2ca69ce24e" x="703.130701" y="313.783874" style="fill: #ff00ff; stroke: #ff00ff"/>
     <use xlink:href="#m2ca69ce24e" x="712.912664" y="275.029631" style="fill: #ff00ff; stroke: #ff00ff"/>
    </g>
   </g>
   <g id="PathCollection_8">
    <defs>
     <path id="m558752398c" d="M -0 5.477226 
L 5.477226 -5.477226 
L -5.477226 -5.477226 
z
" style="stroke: #a52a2a"/>
    </defs>
    <g clip-path="url(#p8f707c2b13)">
     <use xlink:href="#m558752398c" x="769.596418" y="503.695421" style="fill: #a52a2a; stroke: #a52a2a"/>
     <use xlink:href="#m558752398c" x="751.925774" y="612.763935" style="fill: #a52a2a; stroke: #a52a2a"/>
     <use xlink:href="#m558752398c" x="741.627461" y="548.252298" style="fill: #a52a2a; stroke: #a52a2a"/>
     <use xlink:href="#m558752398c" x="751.925774" y="612.763935" style="fill: #a52a2a; stroke: #a52a2a"/>
    </g>
   </g>
   <g id="PathCollection_9">
    <defs>
     <path id="m73d329c92b" d="M 0 -8.660254 
L -1.944348 -2.676166 
L -8.236391 -2.676166 
L -3.146021 1.022204 
L -5.09037 7.006293 
L -0 3.307923 
L 5.09037 7.006293 
L 3.146021 1.022204 
L 8.236391 -2.676166 
L 1.944348 -2.676166 
z
" style="stroke: #000000"/>
    </defs>
    <g clip-path="url(#p8f707c2b13)">
     <use xlink:href="#m73d329c92b" x="442.603448" y="355.820151" style="stroke: #000000"/>
    </g>
   </g>
   <g id="text_16">
    <!-- 1 -->
    <g style="fill: #ffffff" transform="translate(414.470402 211.744) scale(0.08 -0.08)">
     <use xlink:href="#SimHei-31"/>
    </g>
   </g>
   <g id="text_17">
    <!-- 2 -->
    <g style="fill: #ffffff" transform="translate(378.584078 275.362924) scale(0.08 -0.08)">
     <use xlink:href="#SimHei-32"/>
    </g>
   </g>
   <g id="text_18">
    <!-- 3 -->
    <g style="fill: #ffffff" transform="translate(548.721397 259.609166) scale(0.08 -0.08)">
     <defs>
      <path id="SimHei-33" d="M 250 1225 
L 700 1300 
Q 800 975 1025 762 
Q 1250 550 1587 562 
Q 1925 575 2125 837 
Q 2325 1100 2300 1437 
Q 2275 1775 2037 1962 
Q 1800 2150 1275 2225 
L 1275 2550 
Q 1800 2600 2037 2825 
Q 2275 3050 2250 3412 
Q 2225 3775 1925 3937 
Q 1625 4100 1287 3975 
Q 950 3850 750 3275 
L 300 3350 
Q 450 3800 712 4100 
Q 975 4400 1425 4450 
Q 1875 4500 2212 4337 
Q 2550 4175 2687 3837 
Q 2825 3500 2725 3100 
Q 2625 2700 2150 2400 
Q 2500 2250 2687 1950 
Q 2875 1650 2812 1162 
Q 2750 675 2375 375 
Q 2000 75 1525 87 
Q 1050 100 700 387 
Q 350 675 250 1225 
z
" transform="scale(0.015625)"/>
     </defs>
     <use xlink:href="#SimHei-33"/>
    </g>
   </g>
   <g id="text_19">
    <!-- 4 -->
    <g style="fill: #ffffff" transform="translate(542.697314 253.832789) scale(0.08 -0.08)">
     <defs>
      <path id="SimHei-34" d="M 2000 1100 
L 75 1100 
L 75 1525 
L 2100 4450 
L 2475 4450 
L 2475 1525 
L 3075 1525 
L 3075 1100 
L 2475 1100 
L 2475 150 
L 2000 150 
L 2000 1100 
z
M 2000 1525 
L 2000 3500 
L 600 1525 
L 2000 1525 
z
" transform="scale(0.015625)"/>
     </defs>
     <use xlink:href="#SimHei-34"/>
    </g>
   </g>
   <g id="text_20">
    <!-- 5 -->
    <g style="fill: #ffffff" transform="translate(500.930338 73.609803) scale(0.08 -0.08)">
     <use xlink:href="#SimHei-35"/>
    </g>
   </g>
   <g id="text_21">
    <!-- 6 -->
    <g style="fill: #ffffff" transform="translate(362.060878 260.318085) scale(0.08 -0.08)">
     <defs>
      <path id="SimHei-36" d="M 250 1612 
Q 275 1975 387 2225 
Q 500 2475 725 2850 
L 1750 4450 
L 2325 4450 
L 1275 2800 
Q 1950 2975 2350 2750 
Q 2750 2525 2887 2237 
Q 3025 1950 3037 1612 
Q 3050 1275 2937 950 
Q 2825 625 2537 362 
Q 2250 100 1737 75 
Q 1225 50 862 262 
Q 500 475 362 862 
Q 225 1250 250 1612 
z
M 1025 787 
Q 1250 550 1625 525 
Q 2000 500 2250 775 
Q 2500 1050 2500 1575 
Q 2500 2100 2187 2300 
Q 1875 2500 1487 2450 
Q 1100 2400 925 2075 
Q 750 1750 775 1387 
Q 800 1025 1025 787 
z
" transform="scale(0.015625)"/>
     </defs>
     <use xlink:href="#SimHei-36"/>
    </g>
   </g>
   <g id="text_22">
    <!-- 7 -->
    <g style="fill: #ffffff" transform="translate(426.116962 98.106896) scale(0.08 -0.08)">
     <defs>
      <path id="SimHei-37" d="M 850 150 
Q 1300 2050 2425 3925 
L 275 3925 
L 275 4375 
L 2950 4375 
L 2950 3950 
Q 1775 2050 1400 150 
L 850 150 
z
" transform="scale(0.015625)"/>
     </defs>
     <use xlink:href="#SimHei-37"/>
    </g>
   </g>
   <g id="text_23">
    <!-- 8 -->
    <g style="fill: #ffffff" transform="translate(327.293313 65.155286) scale(0.08 -0.08)">
     <defs>
      <path id="SimHei-38" d="M 175 1375 
Q 175 1675 325 1962 
Q 475 2250 825 2425 
Q 525 2600 425 2812 
Q 325 3025 312 3300 
Q 300 3575 387 3775 
Q 475 3975 650 4150 
Q 825 4325 1037 4387 
Q 1250 4450 1500 4450 
Q 1750 4450 1950 4400 
Q 2150 4350 2375 4187 
Q 2600 4025 2700 3725 
Q 2800 3425 2687 3025 
Q 2575 2625 2100 2400 
Q 2525 2275 2700 2012 
Q 2875 1750 2875 1375 
Q 2875 1000 2762 775 
Q 2650 550 2512 400 
Q 2375 250 2137 162 
Q 1900 75 1537 75 
Q 1175 75 912 162 
Q 650 250 475 425 
Q 300 600 237 837 
Q 175 1075 175 1375 
z
M 687 1400 
Q 675 1100 787 875 
Q 900 650 1200 587 
Q 1500 525 1825 600 
Q 2150 675 2275 950 
Q 2400 1225 2362 1500 
Q 2325 1775 2050 1962 
Q 1775 2150 1450 2125 
Q 1125 2100 912 1900 
Q 700 1700 687 1400 
z
M 775 3350 
Q 775 3100 950 2875 
Q 1125 2650 1500 2650 
Q 1875 2650 2062 2875 
Q 2250 3100 2237 3412 
Q 2225 3725 2012 3875 
Q 1800 4025 1437 4000 
Q 1075 3975 925 3787 
Q 775 3600 775 3350 
z
" transform="scale(0.015625)"/>
     </defs>
     <use xlink:href="#SimHei-38"/>
    </g>
   </g>
   <g id="text_24">
    <!-- 9 -->
    <g style="fill: #ffffff" transform="translate(426.116962 98.106896) scale(0.08 -0.08)">
     <defs>
      <path id="SimHei-39" d="M 800 75 
Q 1350 1000 1700 1750 
Q 1075 1650 662 1912 
Q 250 2175 162 2625 
Q 75 3075 175 3437 
Q 275 3800 487 4037 
Q 700 4275 1000 4375 
Q 1300 4475 1537 4475 
Q 1775 4475 2025 4375 
Q 2275 4275 2475 4075 
Q 2675 3875 2750 3662 
Q 2825 3450 2825 3112 
Q 2825 2775 2575 2250 
Q 2325 1725 1350 75 
L 800 75 
z
M 662 2875 
Q 700 2550 937 2337 
Q 1175 2125 1450 2150 
Q 1725 2175 1887 2300 
Q 2050 2425 2200 2725 
Q 2300 3100 2250 3362 
Q 2200 3625 1987 3800 
Q 1775 3975 1525 3975 
Q 1375 4000 1137 3900 
Q 900 3800 762 3500 
Q 625 3200 662 2875 
z
" transform="scale(0.015625)"/>
     </defs>
     <use xlink:href="#SimHei-39"/>
    </g>
   </g>
   <g id="text_25">
    <!-- 10 -->
    <g style="fill: #ffffff" transform="translate(513.273393 212.059075) scale(0.08 -0.08)">
     <use xlink:href="#SimHei-31"/>
     <use xlink:href="#SimHei-30" x="50"/>
    </g>
   </g>
   <g id="text_26">
    <!-- 11 -->
    <g style="fill: #ffffff" transform="translate(511.925146 81.040325) scale(0.08 -0.08)">
     <use xlink:href="#SimHei-31"/>
     <use xlink:href="#SimHei-31" x="50"/>
    </g>
   </g>
   <g id="text_27">
    <!-- 12 -->
    <g style="fill: #ffffff" transform="translate(410.290257 187.640751) scale(0.08 -0.08)">
     <use xlink:href="#SimHei-31"/>
     <use xlink:href="#SimHei-32" x="50"/>
    </g>
   </g>
   <g id="text_28">
    <!-- 13 -->
    <g style="fill: #ffffff" transform="translate(503.376685 269.586546) scale(0.08 -0.08)">
     <use xlink:href="#SimHei-31"/>
     <use xlink:href="#SimHei-33" x="50"/>
    </g>
   </g>
   <g id="text_29">
    <!-- 1 -->
    <g style="fill: #ffffff" transform="translate(512.921132 469.370447) scale(0.08 -0.08)">
     <use xlink:href="#SimHei-31"/>
    </g>
   </g>
   <g id="text_30">
    <!-- 2 -->
    <g style="fill: #ffffff" transform="translate(452.680301 571.087208) scale(0.08 -0.08)">
     <use xlink:href="#SimHei-32"/>
    </g>
   </g>
   <g id="text_31">
    <!-- 3 -->
    <g style="fill: #ffffff" transform="translate(562.86365 560.978547) scale(0.08 -0.08)">
     <use xlink:href="#SimHei-33"/>
    </g>
   </g>
   <g id="text_32">
    <!-- 4 -->
    <g style="fill: #ffffff" transform="translate(582.025971 618.978631) scale(0.08 -0.08)">
     <use xlink:href="#SimHei-34"/>
    </g>
   </g>
   <g id="text_33">
    <!-- 5 -->
    <g style="fill: #ffffff" transform="translate(550.729425 600.336684) scale(0.08 -0.08)">
     <use xlink:href="#SimHei-35"/>
    </g>
   </g>
   <g id="text_34">
    <!-- 6 -->
    <g style="fill: #ffffff" transform="translate(512.921132 469.370447) scale(0.08 -0.08)">
     <use xlink:href="#SimHei-36"/>
    </g>
   </g>
   <g id="text_35">
    <!-- 7 -->
    <g style="fill: #ffffff" transform="translate(552.39322 545.172277) scale(0.08 -0.08)">
     <use xlink:href="#SimHei-37"/>
    </g>
   </g>
   <g id="text_36">
    <!-- 8 -->
    <g style="fill: #ffffff" transform="translate(504.200554 599.023871) scale(0.08 -0.08)">
     <use xlink:href="#SimHei-38"/>
    </g>
   </g>
   <g id="text_37">
    <!-- 9 -->
    <g style="fill: #ffffff" transform="translate(507.442085 600.625503) scale(0.08 -0.08)">
     <use xlink:href="#SimHei-39"/>
    </g>
   </g>
   <g id="text_38">
    <!-- 1 -->
    <g style="fill: #ffffff" transform="translate(113.696536 390.39161) scale(0.08 -0.08)">
     <use xlink:href="#SimHei-31"/>
    </g>
   </g>
   <g id="text_39">
    <!-- 2 -->
    <g style="fill: #ffffff" transform="translate(123.765361 392.833442) scale(0.08 -0.08)">
     <use xlink:href="#SimHei-32"/>
    </g>
   </g>
   <g id="text_40">
    <!-- 3 -->
    <g style="fill: #ffffff" transform="translate(123.765361 392.833442) scale(0.08 -0.08)">
     <use xlink:href="#SimHei-33"/>
    </g>
   </g>
   <g id="text_41">
    <!-- 4 -->
    <g style="fill: #ffffff" transform="translate(219.949889 539.737231) scale(0.08 -0.08)">
     <use xlink:href="#SimHei-34"/>
    </g>
   </g>
   <g id="text_42">
    <!-- 5 -->
    <g style="fill: #ffffff" transform="translate(147.775635 582.088582) scale(0.08 -0.08)">
     <use xlink:href="#SimHei-35"/>
    </g>
   </g>
   <g id="text_43">
    <!-- 1 -->
    <g style="fill: #ffffff" transform="translate(696.999901 131.977474) scale(0.08 -0.08)">
     <use xlink:href="#SimHei-31"/>
    </g>
   </g>
   <g id="text_44">
    <!-- 2 -->
    <g style="fill: #ffffff" transform="translate(609.421207 198.720894) scale(0.08 -0.08)">
     <use xlink:href="#SimHei-32"/>
    </g>
   </g>
   <g id="text_45">
    <!-- 3 -->
    <g style="fill: #ffffff" transform="translate(634.550239 91.254011) scale(0.08 -0.08)">
     <use xlink:href="#SimHei-33"/>
    </g>
   </g>
   <g id="text_46">
    <!-- 4 -->
    <g style="fill: #ffffff" transform="translate(629.989148 197.329312) scale(0.08 -0.08)">
     <use xlink:href="#SimHei-34"/>
    </g>
   </g>
   <g id="text_47">
    <!-- 5 -->
    <g style="fill: #ffffff" transform="translate(629.989148 197.329312) scale(0.08 -0.08)">
     <use xlink:href="#SimHei-35"/>
    </g>
   </g>
   <g id="text_48">
    <!-- 1 -->
    <g style="fill: #ffffff" transform="translate(240.403085 341.870037) scale(0.08 -0.08)">
     <use xlink:href="#SimHei-31"/>
    </g>
   </g>
   <g id="text_49">
    <!-- 2 -->
    <g style="fill: #ffffff" transform="translate(140.431991 313.775836) scale(0.08 -0.08)">
     <use xlink:href="#SimHei-32"/>
    </g>
   </g>
   <g id="text_50">
    <!-- 3 -->
    <g style="fill: #ffffff" transform="translate(262.462704 166.583228) scale(0.08 -0.08)">
     <use xlink:href="#SimHei-33"/>
    </g>
   </g>
   <g id="text_51">
    <!-- 4 -->
    <g style="fill: #ffffff" transform="translate(216.708358 193.075797) scale(0.08 -0.08)">
     <use xlink:href="#SimHei-34"/>
    </g>
   </g>
   <g id="text_52">
    <!-- 5 -->
    <g style="fill: #ffffff" transform="translate(216.708358 193.075797) scale(0.08 -0.08)">
     <use xlink:href="#SimHei-35"/>
    </g>
   </g>
   <g id="text_53">
    <!-- 6 -->
    <g style="fill: #ffffff" transform="translate(229.961341 205.573778) scale(0.08 -0.08)">
     <use xlink:href="#SimHei-36"/>
    </g>
   </g>
   <g id="text_54">
    <!-- 7 -->
    <g style="fill: #ffffff" transform="translate(257.32789 174.013751) scale(0.08 -0.08)">
     <use xlink:href="#SimHei-37"/>
    </g>
   </g>
   <g id="text_55">
    <!-- 8 -->
    <g style="fill: #ffffff" transform="translate(324.223899 242.621364) scale(0.08 -0.08)">
     <use xlink:href="#SimHei-38"/>
    </g>
   </g>
   <g id="text_56">
    <!-- 9 -->
    <g style="fill: #ffffff" transform="translate(268.027809 340.557224) scale(0.08 -0.08)">
     <use xlink:href="#SimHei-39"/>
    </g>
   </g>
   <g id="text_57">
    <!-- 1 -->
    <g style="fill: #ffffff" transform="translate(327.723605 414.967471) scale(0.08 -0.08)">
     <use xlink:href="#SimHei-31"/>
    </g>
   </g>
   <g id="text_58">
    <!-- 2 -->
    <g style="fill: #ffffff" transform="translate(310.139019 436.05125) scale(0.08 -0.08)">
     <use xlink:href="#SimHei-32"/>
    </g>
   </g>
   <g id="text_59">
    <!-- 3 -->
    <g style="fill: #ffffff" transform="translate(348.033371 450.886038) scale(0.08 -0.08)">
     <use xlink:href="#SimHei-33"/>
    </g>
   </g>
   <g id="text_60">
    <!-- 4 -->
    <g style="fill: #ffffff" transform="translate(272.588901 429.224622) scale(0.08 -0.08)">
     <use xlink:href="#SimHei-34"/>
    </g>
   </g>
   <g id="text_61">
    <!-- 5 -->
    <g style="fill: #ffffff" transform="translate(398.090633 365.316879) scale(0.08 -0.08)">
     <use xlink:href="#SimHei-35"/>
    </g>
   </g>
   <g id="text_62">
    <!-- 6 -->
    <g style="fill: #ffffff" transform="translate(316.822883 522.644404) scale(0.08 -0.08)">
     <use xlink:href="#SimHei-36"/>
    </g>
   </g>
   <g id="text_63">
    <!-- 7 -->
    <g style="fill: #ffffff" transform="translate(428.49791 466.429746) scale(0.08 -0.08)">
     <use xlink:href="#SimHei-37"/>
    </g>
   </g>
   <g id="text_64">
    <!-- 8 -->
    <g style="fill: #ffffff" transform="translate(445.135854 475.698206) scale(0.08 -0.08)">
     <use xlink:href="#SimHei-38"/>
    </g>
   </g>
   <g id="text_65">
    <!-- 9 -->
    <g style="fill: #ffffff" transform="translate(445.135854 475.698206) scale(0.08 -0.08)">
     <use xlink:href="#SimHei-39"/>
    </g>
   </g>
   <g id="text_66">
    <!-- 10 -->
    <g style="fill: #ffffff" transform="translate(368.551967 568.645376) scale(0.08 -0.08)">
     <use xlink:href="#SimHei-31"/>
     <use xlink:href="#SimHei-30" x="50"/>
    </g>
   </g>
   <g id="text_67">
    <!-- 11 -->
    <g style="fill: #ffffff" transform="translate(312.069016 622.208151) scale(0.08 -0.08)">
     <use xlink:href="#SimHei-31"/>
     <use xlink:href="#SimHei-31" x="50"/>
    </g>
   </g>
   <g id="text_68">
    <!-- 1 -->
    <g style="fill: #ffffff" transform="translate(727.521922 318.554476) scale(0.08 -0.08)">
     <use xlink:href="#SimHei-31"/>
    </g>
   </g>
   <g id="text_69">
    <!-- 2 -->
    <g style="fill: #ffffff" transform="translate(727.521922 318.554476) scale(0.08 -0.08)">
     <use xlink:href="#SimHei-32"/>
    </g>
   </g>
   <g id="text_70">
    <!-- 3 -->
    <g style="fill: #ffffff" transform="translate(701.130701 316.033874) scale(0.08 -0.08)">
     <use xlink:href="#SimHei-33"/>
    </g>
   </g>
   <g id="text_71">
    <!-- 4 -->
    <g style="fill: #ffffff" transform="translate(710.912664 277.279631) scale(0.08 -0.08)">
     <use xlink:href="#SimHei-34"/>
    </g>
   </g>
   <g id="text_72">
    <!-- 1 -->
    <g style="fill: #ffffff" transform="translate(767.596418 505.945421) scale(0.08 -0.08)">
     <use xlink:href="#SimHei-31"/>
    </g>
   </g>
   <g id="text_73">
    <!-- 2 -->
    <g style="fill: #ffffff" transform="translate(749.925774 615.013935) scale(0.08 -0.08)">
     <use xlink:href="#SimHei-32"/>
    </g>
   </g>
   <g id="text_74">
    <!-- 3 -->
    <g style="fill: #ffffff" transform="translate(739.627461 550.502298) scale(0.08 -0.08)">
     <use xlink:href="#SimHei-33"/>
    </g>
   </g>
   <g id="text_75">
    <!-- 4 -->
    <g style="fill: #ffffff" transform="translate(749.925774 615.013935) scale(0.08 -0.08)">
     <use xlink:href="#SimHei-34"/>
    </g>
   </g>
  </g>
 </g>
 <defs>
  <clipPath id="p8f707c2b13">
   <rect x="48.98125" y="7.2" width="800.583437" height="668.463438"/>
  </clipPath>
 </defs>
</svg>
