<?xml version="1.0" encoding="utf-8" standalone="no"?>
<!DOCTYPE svg PUBLIC "-//W3C//DTD SVG 1.1//EN"
  "http://www.w3.org/Graphics/SVG/1.1/DTD/svg11.dtd">
<svg xmlns:xlink="http://www.w3.org/1999/xlink" width="856.764687pt" height="712.769687pt" viewBox="0 0 856.764687 712.769687" xmlns="http://www.w3.org/2000/svg" version="1.1">
 <metadata>
  <rdf:RDF xmlns:dc="http://purl.org/dc/elements/1.1/" xmlns:cc="http://creativecommons.org/ns#" xmlns:rdf="http://www.w3.org/1999/02/22-rdf-syntax-ns#">
   <cc:Work>
    <dc:type rdf:resource="http://purl.org/dc/dcmitype/StillImage"/>
    <dc:date>2025-05-09T18:31:17.975452</dc:date>
    <dc:format>image/svg+xml</dc:format>
    <dc:creator>
     <cc:Agent>
      <dc:title>Matplotlib v3.9.4, https://matplotlib.org/</dc:title>
     </cc:Agent>
    </dc:creator>
   </cc:Work>
  </rdf:RDF>
 </metadata>
 <defs>
  <style type="text/css">*{stroke-linejoin: round; stroke-linecap: butt}</style>
 </defs>
 <g id="figure_1">
  <g id="patch_1">
   <path d="M 0 712.769687 
L 856.764687 712.769687 
L 856.764687 0 
L 0 0 
z
" style="fill: #ffffff"/>
  </g>
  <g id="axes_1">
   <g id="patch_2">
    <path d="M 48.98125 675.663437 
L 849.564687 675.663437 
L 849.564687 7.2 
L 48.98125 7.2 
z
" style="fill: #ffffff"/>
   </g>
   <g id="matplotlib.axis_1">
    <g id="xtick_1">
     <g id="line2d_1">
      <path d="M 106.277908 675.663437 
L 106.277908 7.2 
" clip-path="url(#pd50ae901a8)" style="fill: none; stroke-dasharray: 2.96,1.28; stroke-dashoffset: 0; stroke: #b0b0b0; stroke-opacity: 0.7; stroke-width: 0.8"/>
     </g>
     <g id="line2d_2">
      <defs>
       <path id="m5f73a4bba0" d="M 0 0 
L 0 3.5 
" style="stroke: #000000; stroke-width: 0.8"/>
      </defs>
      <g>
       <use xlink:href="#m5f73a4bba0" x="106.277908" y="675.663437" style="stroke: #000000; stroke-width: 0.8"/>
      </g>
     </g>
     <g id="text_1">
      <!-- 0 -->
      <g transform="translate(103.777908 689.538437) scale(0.1 -0.1)">
       <defs>
        <path id="SimHei-30" d="M 225 2537 
Q 250 3200 412 3587 
Q 575 3975 875 4225 
Q 1175 4475 1612 4475 
Q 2050 4475 2375 4112 
Q 2700 3750 2800 3200 
Q 2900 2650 2862 1937 
Q 2825 1225 2612 775 
Q 2400 325 1975 150 
Q 1550 -25 1125 187 
Q 700 400 525 750 
Q 350 1100 275 1487 
Q 200 1875 225 2537 
z
M 750 2687 
Q 675 2000 800 1462 
Q 925 925 1212 700 
Q 1500 475 1800 612 
Q 2100 750 2237 1162 
Q 2375 1575 2375 2062 
Q 2375 2550 2337 2950 
Q 2300 3350 2112 3675 
Q 1925 4000 1612 4012 
Q 1300 4025 1062 3700 
Q 825 3375 750 2687 
z
" transform="scale(0.015625)"/>
       </defs>
       <use xlink:href="#SimHei-30"/>
      </g>
     </g>
    </g>
    <g id="xtick_2">
     <g id="line2d_3">
      <path d="M 273.27487 675.663437 
L 273.27487 7.2 
" clip-path="url(#pd50ae901a8)" style="fill: none; stroke-dasharray: 2.96,1.28; stroke-dashoffset: 0; stroke: #b0b0b0; stroke-opacity: 0.7; stroke-width: 0.8"/>
     </g>
     <g id="line2d_4">
      <g>
       <use xlink:href="#m5f73a4bba0" x="273.27487" y="675.663437" style="stroke: #000000; stroke-width: 0.8"/>
      </g>
     </g>
     <g id="text_2">
      <!-- 500 -->
      <g transform="translate(265.77487 689.538437) scale(0.1 -0.1)">
       <defs>
        <path id="SimHei-35" d="M 550 1325 
Q 725 650 1150 575 
Q 1575 500 1837 662 
Q 2100 825 2212 1087 
Q 2325 1350 2312 1675 
Q 2300 2000 2137 2225 
Q 1975 2450 1725 2525 
Q 1475 2600 1162 2525 
Q 850 2450 650 2175 
L 225 2225 
Q 275 2375 700 4375 
L 2675 4375 
L 2675 3925 
L 1075 3925 
Q 950 3250 825 2850 
Q 1200 3025 1525 3012 
Q 1850 3000 2150 2862 
Q 2450 2725 2587 2487 
Q 2725 2250 2787 2012 
Q 2850 1775 2837 1500 
Q 2825 1225 2725 937 
Q 2625 650 2425 462 
Q 2225 275 1937 162 
Q 1650 50 1275 75 
Q 900 100 562 350 
Q 225 600 100 1200 
L 550 1325 
z
" transform="scale(0.015625)"/>
       </defs>
       <use xlink:href="#SimHei-35"/>
       <use xlink:href="#SimHei-30" x="50"/>
       <use xlink:href="#SimHei-30" x="100"/>
      </g>
     </g>
    </g>
    <g id="xtick_3">
     <g id="line2d_5">
      <path d="M 440.271832 675.663437 
L 440.271832 7.2 
" clip-path="url(#pd50ae901a8)" style="fill: none; stroke-dasharray: 2.96,1.28; stroke-dashoffset: 0; stroke: #b0b0b0; stroke-opacity: 0.7; stroke-width: 0.8"/>
     </g>
     <g id="line2d_6">
      <g>
       <use xlink:href="#m5f73a4bba0" x="440.271832" y="675.663437" style="stroke: #000000; stroke-width: 0.8"/>
      </g>
     </g>
     <g id="text_3">
      <!-- 1000 -->
      <g transform="translate(430.271832 689.538437) scale(0.1 -0.1)">
       <defs>
        <path id="SimHei-31" d="M 1400 3600 
Q 1075 3275 575 2975 
L 575 3450 
Q 1200 3875 1600 4450 
L 1900 4450 
L 1900 150 
L 1400 150 
L 1400 3600 
z
" transform="scale(0.015625)"/>
       </defs>
       <use xlink:href="#SimHei-31"/>
       <use xlink:href="#SimHei-30" x="50"/>
       <use xlink:href="#SimHei-30" x="100"/>
       <use xlink:href="#SimHei-30" x="150"/>
      </g>
     </g>
    </g>
    <g id="xtick_4">
     <g id="line2d_7">
      <path d="M 607.268795 675.663437 
L 607.268795 7.2 
" clip-path="url(#pd50ae901a8)" style="fill: none; stroke-dasharray: 2.96,1.28; stroke-dashoffset: 0; stroke: #b0b0b0; stroke-opacity: 0.7; stroke-width: 0.8"/>
     </g>
     <g id="line2d_8">
      <g>
       <use xlink:href="#m5f73a4bba0" x="607.268795" y="675.663437" style="stroke: #000000; stroke-width: 0.8"/>
      </g>
     </g>
     <g id="text_4">
      <!-- 1500 -->
      <g transform="translate(597.268795 689.538437) scale(0.1 -0.1)">
       <use xlink:href="#SimHei-31"/>
       <use xlink:href="#SimHei-35" x="50"/>
       <use xlink:href="#SimHei-30" x="100"/>
       <use xlink:href="#SimHei-30" x="150"/>
      </g>
     </g>
    </g>
    <g id="xtick_5">
     <g id="line2d_9">
      <path d="M 774.265757 675.663437 
L 774.265757 7.2 
" clip-path="url(#pd50ae901a8)" style="fill: none; stroke-dasharray: 2.96,1.28; stroke-dashoffset: 0; stroke: #b0b0b0; stroke-opacity: 0.7; stroke-width: 0.8"/>
     </g>
     <g id="line2d_10">
      <g>
       <use xlink:href="#m5f73a4bba0" x="774.265757" y="675.663437" style="stroke: #000000; stroke-width: 0.8"/>
      </g>
     </g>
     <g id="text_5">
      <!-- 2000 -->
      <g transform="translate(764.265757 689.538437) scale(0.1 -0.1)">
       <defs>
        <path id="SimHei-32" d="M 300 250 
Q 325 625 650 925 
Q 975 1225 1475 1862 
Q 1975 2500 2125 2850 
Q 2275 3200 2237 3450 
Q 2200 3700 2000 3862 
Q 1800 4025 1537 4000 
Q 1275 3975 1037 3800 
Q 800 3625 675 3275 
L 200 3350 
Q 400 3925 712 4187 
Q 1025 4450 1450 4475 
Q 1700 4500 1900 4462 
Q 2100 4425 2312 4287 
Q 2525 4150 2662 3875 
Q 2800 3600 2762 3212 
Q 2725 2825 2375 2287 
Q 2025 1750 1025 600 
L 2825 600 
L 2825 150 
L 300 150 
L 300 250 
z
" transform="scale(0.015625)"/>
       </defs>
       <use xlink:href="#SimHei-32"/>
       <use xlink:href="#SimHei-30" x="50"/>
       <use xlink:href="#SimHei-30" x="100"/>
       <use xlink:href="#SimHei-30" x="150"/>
      </g>
     </g>
    </g>
    <g id="text_6">
     <!-- X坐标 -->
     <g transform="translate(434.272969 704.069687) scale(0.12 -0.12)">
      <defs>
       <path id="SimHei-58" d="M 3000 125 
L 2400 125 
L 1550 1875 
L 700 125 
L 100 125 
L 1275 2375 
L 225 4400 
L 825 4400 
L 1550 2850 
L 2275 4400 
L 2875 4400 
L 1825 2375 
L 3000 125 
z
" transform="scale(0.015625)"/>
       <path id="SimHei-5750" d="M 3450 5100 
Q 3425 4675 3425 4150 
L 3425 1500 
L 4550 1500 
Q 4975 1500 5450 1525 
L 5450 1075 
Q 5000 1100 4500 1100 
L 3425 1100 
L 3425 50 
L 5075 50 
Q 5500 50 5975 75 
L 5975 -375 
Q 5525 -350 5075 -350 
L 1475 -350 
Q 925 -350 400 -375 
L 400 75 
Q 925 50 1475 50 
L 2925 50 
L 2925 1100 
L 2050 1100 
Q 1450 1100 950 1075 
L 950 1525 
Q 1450 1500 2050 1500 
L 2925 1500 
L 2925 4150 
Q 2925 4675 2900 5100 
L 3450 5100 
z
M 5200 4450 
Q 5050 4250 4825 3600 
Q 5200 3300 5975 2500 
Q 5775 2400 5575 2150 
Q 5075 2800 4650 3150 
Q 4375 2500 3975 1925 
Q 3725 2125 3525 2200 
Q 3875 2575 4212 3362 
Q 4550 4150 4600 4650 
Q 4900 4525 5200 4450 
z
M 350 2150 
Q 600 2375 950 3087 
Q 1300 3800 1450 4575 
Q 1625 4475 2050 4400 
Q 1950 4275 1862 4050 
Q 1775 3825 1700 3575 
Q 2400 2950 2700 2475 
Q 2425 2325 2250 2150 
Q 2025 2550 1887 2725 
Q 1750 2900 1500 3125 
Q 1250 2525 800 1875 
Q 575 2050 350 2150 
z
" transform="scale(0.015625)"/>
       <path id="SimHei-6807" d="M 1275 4400 
Q 1275 4800 1250 5175 
L 1750 5175 
Q 1725 4825 1725 4400 
L 1725 3800 
Q 2125 3800 2575 3825 
L 2575 3350 
Q 2125 3375 1725 3375 
L 1725 2525 
Q 1900 2650 2075 2800 
Q 2400 2275 2650 1775 
Q 2375 1650 2175 1500 
Q 2025 2000 1725 2425 
L 1725 475 
Q 1725 -50 1750 -575 
L 1250 -575 
Q 1275 -25 1275 475 
L 1275 2100 
Q 1025 1400 500 750 
Q 350 950 125 1125 
Q 550 1550 812 2187 
Q 1075 2825 1150 3375 
Q 675 3375 325 3325 
L 325 3825 
Q 800 3800 1275 3800 
L 1275 4400 
z
M 5175 3125 
Q 5675 3125 6050 3150 
L 6050 2675 
Q 5675 2700 5275 2700 
L 4500 2700 
L 4500 175 
Q 4500 -225 4275 -350 
Q 4050 -475 3475 -550 
Q 3425 -250 3275 25 
Q 3775 25 3900 62 
Q 4025 100 4025 350 
L 4025 2700 
L 3400 2700 
Q 2775 2700 2500 2650 
L 2500 3150 
Q 2825 3125 3400 3125 
L 5175 3125 
z
M 4900 4775 
Q 5425 4775 5750 4800 
L 5750 4300 
Q 5275 4350 4750 4350 
L 3525 4350 
Q 3125 4350 2750 4300 
L 2750 4800 
Q 3100 4775 3525 4775 
L 4900 4775 
z
M 5275 2025 
Q 5825 1175 6200 500 
Q 5925 375 5650 200 
Q 5375 925 4825 1725 
Q 5075 1850 5275 2025 
z
M 3600 1775 
Q 3500 1625 3225 975 
Q 2950 325 2800 50 
Q 2575 175 2300 275 
Q 2625 775 2787 1187 
Q 2950 1600 3050 2000 
Q 3325 1875 3600 1775 
z
" transform="scale(0.015625)"/>
      </defs>
      <use xlink:href="#SimHei-58"/>
      <use xlink:href="#SimHei-5750" x="50"/>
      <use xlink:href="#SimHei-6807" x="150"/>
     </g>
    </g>
   </g>
   <g id="matplotlib.axis_2">
    <g id="ytick_1">
     <g id="line2d_11">
      <path d="M 48.98125 628.71122 
L 849.564687 628.71122 
" clip-path="url(#pd50ae901a8)" style="fill: none; stroke-dasharray: 2.96,1.28; stroke-dashoffset: 0; stroke: #b0b0b0; stroke-opacity: 0.7; stroke-width: 0.8"/>
     </g>
     <g id="line2d_12">
      <defs>
       <path id="m459956ff30" d="M 0 0 
L -3.5 0 
" style="stroke: #000000; stroke-width: 0.8"/>
      </defs>
      <g>
       <use xlink:href="#m459956ff30" x="48.98125" y="628.71122" style="stroke: #000000; stroke-width: 0.8"/>
      </g>
     </g>
     <g id="text_7">
      <!-- 0 -->
      <g transform="translate(36.98125 632.14872) scale(0.1 -0.1)">
       <use xlink:href="#SimHei-30"/>
      </g>
     </g>
    </g>
    <g id="ytick_2">
     <g id="line2d_13">
      <path d="M 48.98125 493.214804 
L 849.564687 493.214804 
" clip-path="url(#pd50ae901a8)" style="fill: none; stroke-dasharray: 2.96,1.28; stroke-dashoffset: 0; stroke: #b0b0b0; stroke-opacity: 0.7; stroke-width: 0.8"/>
     </g>
     <g id="line2d_14">
      <g>
       <use xlink:href="#m459956ff30" x="48.98125" y="493.214804" style="stroke: #000000; stroke-width: 0.8"/>
      </g>
     </g>
     <g id="text_8">
      <!-- 500 -->
      <g transform="translate(26.98125 496.652304) scale(0.1 -0.1)">
       <use xlink:href="#SimHei-35"/>
       <use xlink:href="#SimHei-30" x="50"/>
       <use xlink:href="#SimHei-30" x="100"/>
      </g>
     </g>
    </g>
    <g id="ytick_3">
     <g id="line2d_15">
      <path d="M 48.98125 357.718388 
L 849.564687 357.718388 
" clip-path="url(#pd50ae901a8)" style="fill: none; stroke-dasharray: 2.96,1.28; stroke-dashoffset: 0; stroke: #b0b0b0; stroke-opacity: 0.7; stroke-width: 0.8"/>
     </g>
     <g id="line2d_16">
      <g>
       <use xlink:href="#m459956ff30" x="48.98125" y="357.718388" style="stroke: #000000; stroke-width: 0.8"/>
      </g>
     </g>
     <g id="text_9">
      <!-- 1000 -->
      <g transform="translate(21.98125 361.155888) scale(0.1 -0.1)">
       <use xlink:href="#SimHei-31"/>
       <use xlink:href="#SimHei-30" x="50"/>
       <use xlink:href="#SimHei-30" x="100"/>
       <use xlink:href="#SimHei-30" x="150"/>
      </g>
     </g>
    </g>
    <g id="ytick_4">
     <g id="line2d_17">
      <path d="M 48.98125 222.221972 
L 849.564687 222.221972 
" clip-path="url(#pd50ae901a8)" style="fill: none; stroke-dasharray: 2.96,1.28; stroke-dashoffset: 0; stroke: #b0b0b0; stroke-opacity: 0.7; stroke-width: 0.8"/>
     </g>
     <g id="line2d_18">
      <g>
       <use xlink:href="#m459956ff30" x="48.98125" y="222.221972" style="stroke: #000000; stroke-width: 0.8"/>
      </g>
     </g>
     <g id="text_10">
      <!-- 1500 -->
      <g transform="translate(21.98125 225.659472) scale(0.1 -0.1)">
       <use xlink:href="#SimHei-31"/>
       <use xlink:href="#SimHei-35" x="50"/>
       <use xlink:href="#SimHei-30" x="100"/>
       <use xlink:href="#SimHei-30" x="150"/>
      </g>
     </g>
    </g>
    <g id="ytick_5">
     <g id="line2d_19">
      <path d="M 48.98125 86.725556 
L 849.564687 86.725556 
" clip-path="url(#pd50ae901a8)" style="fill: none; stroke-dasharray: 2.96,1.28; stroke-dashoffset: 0; stroke: #b0b0b0; stroke-opacity: 0.7; stroke-width: 0.8"/>
     </g>
     <g id="line2d_20">
      <g>
       <use xlink:href="#m459956ff30" x="48.98125" y="86.725556" style="stroke: #000000; stroke-width: 0.8"/>
      </g>
     </g>
     <g id="text_11">
      <!-- 2000 -->
      <g transform="translate(21.98125 90.163056) scale(0.1 -0.1)">
       <use xlink:href="#SimHei-32"/>
       <use xlink:href="#SimHei-30" x="50"/>
       <use xlink:href="#SimHei-30" x="100"/>
       <use xlink:href="#SimHei-30" x="150"/>
      </g>
     </g>
    </g>
    <g id="text_12">
     <!-- Y坐标 -->
     <g transform="translate(16.48125 356.431719) rotate(-90) scale(0.12 -0.12)">
      <defs>
       <path id="SimHei-59" d="M 3025 4400 
L 1850 2050 
L 1850 125 
L 1275 125 
L 1275 2050 
L 100 4400 
L 675 4400 
L 1550 2575 
L 1575 2575 
L 2450 4400 
L 3025 4400 
z
" transform="scale(0.015625)"/>
      </defs>
      <use xlink:href="#SimHei-59"/>
      <use xlink:href="#SimHei-5750" x="50"/>
      <use xlink:href="#SimHei-6807" x="150"/>
     </g>
    </g>
   </g>
   <g id="patch_3">
    <path d="M 48.98125 675.663437 
L 48.98125 7.2 
" style="fill: none; stroke: #000000; stroke-width: 0.8; stroke-linejoin: miter; stroke-linecap: square"/>
   </g>
   <g id="patch_4">
    <path d="M 849.564687 675.663437 
L 849.564687 7.2 
" style="fill: none; stroke: #000000; stroke-width: 0.8; stroke-linejoin: miter; stroke-linecap: square"/>
   </g>
   <g id="patch_5">
    <path d="M 48.98125 675.663437 
L 849.564687 675.663437 
" style="fill: none; stroke: #000000; stroke-width: 0.8; stroke-linejoin: miter; stroke-linecap: square"/>
   </g>
   <g id="patch_6">
    <path d="M 48.98125 7.2 
L 849.564687 7.2 
" style="fill: none; stroke: #000000; stroke-width: 0.8; stroke-linejoin: miter; stroke-linecap: square"/>
   </g>
   <g id="patch_7">
    <path d="M 456.668223 342.191707 
Q 443.594967 256.976119 430.945557 174.523292 
" style="fill: none; opacity: 0.7; stroke: #0000ff; stroke-width: 2.5; stroke-linecap: round"/>
    <path d="M 429.575244 178.780315 
L 430.945557 174.523292 
L 433.528988 178.173756 
" style="fill: none; opacity: 0.7; stroke: #0000ff; stroke-width: 2.5; stroke-linecap: round"/>
   </g>
   <g id="patch_8">
    <path d="M 428.555164 168.67484 
Q 360.247552 123.093237 294.264912 79.063086 
" style="fill: none; opacity: 0.7; stroke: #0000ff; stroke-width: 2.5; stroke-linecap: round"/>
    <path d="M 296.482013 82.946958 
L 294.264912 79.063086 
L 298.70227 79.619729 
" style="fill: none; opacity: 0.7; stroke: #0000ff; stroke-width: 2.5; stroke-linecap: round"/>
   </g>
   <g id="patch_9">
    <path d="M 288.283184 76.245048 
Q 222.142232 71.075864 158.787868 66.124462 
" style="fill: none; opacity: 0.7; stroke: #0000ff; stroke-width: 2.5; stroke-linecap: round"/>
    <path d="M 162.619875 68.430048 
L 158.787868 66.124462 
L 162.931541 64.442208 
" style="fill: none; opacity: 0.7; stroke: #0000ff; stroke-width: 2.5; stroke-linecap: round"/>
   </g>
   <g id="patch_10">
    <path d="M 152.843074 67.37904 
Q 145.037079 78.312383 138.855207 86.970924 
" style="fill: none; opacity: 0.7; stroke: #0000ff; stroke-width: 2.5; stroke-linecap: round"/>
    <path d="M 142.807178 84.87762 
L 138.855207 86.970924 
L 139.551747 82.553364 
" style="fill: none; opacity: 0.7; stroke: #0000ff; stroke-width: 2.5; stroke-linecap: round"/>
   </g>
   <g id="patch_11">
    <path d="M 137.610612 92.150368 
Q 210.852563 152.943615 281.943783 211.951685 
" style="fill: none; opacity: 0.7; stroke: #0000ff; stroke-width: 2.5; stroke-linecap: round"/>
    <path d="M 280.143277 207.858009 
L 281.943783 211.951685 
L 277.588539 210.935884 
" style="fill: none; opacity: 0.7; stroke: #0000ff; stroke-width: 2.5; stroke-linecap: round"/>
   </g>
   <g id="patch_12">
    <path d="M 283.954618 213.932461 
Q 219.386301 172.333062 157.167638 132.247474 
" style="fill: none; opacity: 0.7; stroke: #0000ff; stroke-width: 2.5; stroke-linecap: round"/>
    <path d="M 159.446996 136.09514 
L 157.167638 132.247474 
L 161.613385 132.732588 
" style="fill: none; opacity: 0.7; stroke: #0000ff; stroke-width: 2.5; stroke-linecap: round"/>
   </g>
   <g id="patch_13">
    <path d="M 155.06495 129.109005 
Q 252.30043 101.779102 346.845091 75.205505 
" style="fill: none; opacity: 0.7; stroke: #0000ff; stroke-width: 2.5; stroke-linecap: round"/>
    <path d="M 342.453138 74.36245 
L 346.845091 75.205505 
L 343.535475 78.213235 
" style="fill: none; opacity: 0.7; stroke: #0000ff; stroke-width: 2.5; stroke-linecap: round"/>
   </g>
   <g id="patch_14">
    <path d="M 349.799414 75.018845 
Q 261.368481 134.094773 175.261718 191.618048 
" style="fill: none; opacity: 0.7; stroke: #0000ff; stroke-width: 2.5; stroke-linecap: round"/>
    <path d="M 179.698788 191.059113 
L 175.261718 191.618048 
L 177.476813 187.733031 
" style="fill: none; opacity: 0.7; stroke: #0000ff; stroke-width: 2.5; stroke-linecap: round"/>
   </g>
   <g id="patch_15">
    <path d="M 173.261273 194.50025 
Q 297.773476 208.130361 419.507192 221.456317 
" style="fill: none; opacity: 0.7; stroke: #0000ff; stroke-width: 2.5; stroke-linecap: round"/>
    <path d="M 415.748582 219.032922 
L 419.507192 221.456317 
L 415.31331 223.009169 
" style="fill: none; opacity: 0.7; stroke: #0000ff; stroke-width: 2.5; stroke-linecap: round"/>
   </g>
   <g id="patch_16">
    <path d="M 422.272268 221.877547 
Q 354.95115 218.495724 290.421597 215.254132 
" style="fill: none; opacity: 0.7; stroke: #0000ff; stroke-width: 2.5; stroke-linecap: round"/>
    <path d="M 294.316218 217.452297 
L 290.421597 215.254132 
L 294.516902 213.457335 
" style="fill: none; opacity: 0.7; stroke: #0000ff; stroke-width: 2.5; stroke-linecap: round"/>
   </g>
   <g id="patch_17">
    <path d="M 283.665296 215.385943 
Q 251.415088 221.490269 221.911201 227.07477 
" style="fill: none; opacity: 0.7; stroke: #0000ff; stroke-width: 2.5; stroke-linecap: round"/>
    <path d="M 226.213373 228.295966 
L 221.911201 227.07477 
L 225.469461 224.36575 
" style="fill: none; opacity: 0.7; stroke: #0000ff; stroke-width: 2.5; stroke-linecap: round"/>
   </g>
   <g id="patch_18">
    <path d="M 216.813481 226.003306 
Q 212.337508 203.102553 208.397692 182.944979 
" style="fill: none; opacity: 0.7; stroke: #0000ff; stroke-width: 2.5; stroke-linecap: round"/>
    <path d="M 207.202117 187.254341 
L 208.397692 182.944979 
L 211.127837 186.487056 
" style="fill: none; opacity: 0.7; stroke: #0000ff; stroke-width: 2.5; stroke-linecap: round"/>
   </g>
   <g id="patch_19">
    <path d="M 209.141712 179.346265 
Q 332.222781 261.20295 452.976478 341.511786 
" style="fill: none; opacity: 0.7; stroke: #0000ff; stroke-width: 2.5; stroke-linecap: round"/>
    <path d="M 450.753365 337.631352 
L 452.976478 341.511786 
L 448.538263 340.962016 
" style="fill: none; opacity: 0.7; stroke: #0000ff; stroke-width: 2.5; stroke-linecap: round"/>
   </g>
   <g id="patch_20">
    <path d="M 456.535873 346.116987 
Q 442.609939 408.39338 429.293964 467.942054 
" style="fill: none; opacity: 0.7; stroke: #ff0000; stroke-width: 2.5; stroke-linecap: round"/>
    <path d="M 432.118663 464.474912 
L 429.293964 467.942054 
L 428.215069 463.60201 
" style="fill: none; opacity: 0.7; stroke: #ff0000; stroke-width: 2.5; stroke-linecap: round"/>
   </g>
   <g id="patch_21">
    <path d="M 430.249805 472.662611 
Q 525.425087 474.719575 617.805937 476.716145 
" style="fill: none; opacity: 0.7; stroke: #ff0000; stroke-width: 2.5; stroke-linecap: round"/>
    <path d="M 613.850085 474.630183 
L 617.805937 476.716145 
L 613.763656 478.629249 
" style="fill: none; opacity: 0.7; stroke: #ff0000; stroke-width: 2.5; stroke-linecap: round"/>
   </g>
   <g id="patch_22">
    <path d="M 622.177096 478.779068 
Q 607.335433 547.68511 593.082305 613.85873 
" style="fill: none; opacity: 0.7; stroke: #ff0000; stroke-width: 2.5; stroke-linecap: round"/>
    <path d="M 595.879711 610.369529 
L 593.082305 613.85873 
L 591.969388 609.527286 
" style="fill: none; opacity: 0.7; stroke: #ff0000; stroke-width: 2.5; stroke-linecap: round"/>
   </g>
   <g id="patch_23">
    <path d="M 592.871397 616.71671 
Q 615.668432 564.45953 637.34784 514.764264 
" style="fill: none; opacity: 0.7; stroke: #ff0000; stroke-width: 2.5; stroke-linecap: round"/>
    <path d="M 633.915264 517.630869 
L 637.34784 514.764264 
L 637.581578 519.230288 
" style="fill: none; opacity: 0.7; stroke: #ff0000; stroke-width: 2.5; stroke-linecap: round"/>
   </g>
   <g id="patch_24">
    <path d="M 637.270745 510.172342 
Q 621.228667 508.593541 607.968236 507.288499 
" style="fill: none; opacity: 0.7; stroke: #ff0000; stroke-width: 2.5; stroke-linecap: round"/>
    <path d="M 611.753118 509.670656 
L 607.968236 507.288499 
L 612.14489 505.689888 
" style="fill: none; opacity: 0.7; stroke: #ff0000; stroke-width: 2.5; stroke-linecap: round"/>
   </g>
   <g id="patch_25">
    <path d="M 602.554013 504.920493 
Q 598.400635 492.603227 595.140351 482.934524 
" style="fill: none; opacity: 0.7; stroke: #ff0000; stroke-width: 2.5; stroke-linecap: round"/>
    <path d="M 594.523287 487.363884 
L 595.140351 482.934524 
L 598.313601 486.085791 
" style="fill: none; opacity: 0.7; stroke: #ff0000; stroke-width: 2.5; stroke-linecap: round"/>
   </g>
   <g id="patch_26">
    <path d="M 591.946358 479.501593 
Q 558.290082 501.980422 526.958141 522.906843 
" style="fill: none; opacity: 0.7; stroke: #ff0000; stroke-width: 2.5; stroke-linecap: round"/>
    <path d="M 531.39527 522.348374 
L 526.958141 522.906843 
L 529.173643 519.022058 
" style="fill: none; opacity: 0.7; stroke: #ff0000; stroke-width: 2.5; stroke-linecap: round"/>
   </g>
   <g id="patch_27">
    <path d="M 522.180155 527.407326 
Q 511.96375 551.193437 502.850422 572.411335 
" style="fill: none; opacity: 0.7; stroke: #ff0000; stroke-width: 2.5; stroke-linecap: round"/>
    <path d="M 506.266681 569.525304 
L 502.850422 572.411335 
L 502.591353 567.946709 
" style="fill: none; opacity: 0.7; stroke: #ff0000; stroke-width: 2.5; stroke-linecap: round"/>
   </g>
   <g id="patch_28">
    <path d="M 502.830505 577.524769 
Q 514.201441 581.82948 522.958339 585.144591 
" style="fill: none; opacity: 0.7; stroke: #ff0000; stroke-width: 2.5; stroke-linecap: round"/>
    <path d="M 519.925533 581.857938 
L 522.958339 585.144591 
L 518.509333 585.598844 
" style="fill: none; opacity: 0.7; stroke: #ff0000; stroke-width: 2.5; stroke-linecap: round"/>
   </g>
   <g id="patch_29">
    <path d="M 529.017523 588.081822 
Q 548.46895 603.40032 565.724485 616.989497 
" style="fill: none; opacity: 0.7; stroke: #ff0000; stroke-width: 2.5; stroke-linecap: round"/>
    <path d="M 563.819381 612.94344 
L 565.724485 616.989497 
L 561.344577 616.085946 
" style="fill: none; opacity: 0.7; stroke: #ff0000; stroke-width: 2.5; stroke-linecap: round"/>
   </g>
   <g id="patch_30">
    <path d="M 571.492256 619.833439 
Q 580.78357 619.253539 587.285228 618.84775 
" style="fill: none; opacity: 0.7; stroke: #ff0000; stroke-width: 2.5; stroke-linecap: round"/>
    <path d="M 583.168412 617.100802 
L 587.285228 618.84775 
L 583.41758 621.093034 
" style="fill: none; opacity: 0.7; stroke: #ff0000; stroke-width: 2.5; stroke-linecap: round"/>
   </g>
   <g id="patch_31">
    <path d="M 591.1877 616.75289 
Q 524.520953 481.357148 459.088906 348.468998 
" style="fill: none; opacity: 0.7; stroke: #ff0000; stroke-width: 2.5; stroke-linecap: round"/>
    <path d="M 459.061576 352.941051 
L 459.088906 348.468998 
L 462.65015 351.174093 
" style="fill: none; opacity: 0.7; stroke: #ff0000; stroke-width: 2.5; stroke-linecap: round"/>
   </g>
   <g id="patch_32">
    <path d="M 458.94772 343.847462 
Q 537.316233 331.106491 612.925883 318.81405 
" style="fill: none; opacity: 0.7; stroke: #008000; stroke-width: 2.5; stroke-linecap: round"/>
    <path d="M 608.656779 317.481852 
L 612.925883 318.81405 
L 609.298662 321.430014 
" style="fill: none; opacity: 0.7; stroke: #008000; stroke-width: 2.5; stroke-linecap: round"/>
   </g>
   <g id="patch_33">
    <path d="M 616.323155 319.533526 
Q 592.323102 346.336091 570.187609 371.056369 
" style="fill: none; opacity: 0.7; stroke: #008000; stroke-width: 2.5; stroke-linecap: round"/>
    <path d="M 574.345913 369.410614 
L 570.187609 371.056369 
L 571.365987 366.742273 
" style="fill: none; opacity: 0.7; stroke: #008000; stroke-width: 2.5; stroke-linecap: round"/>
   </g>
   <g id="patch_34">
    <path d="M 566.960418 372.628445 
Q 566.304425 326.932588 565.688554 284.031528 
" style="fill: none; opacity: 0.7; stroke: #008000; stroke-width: 2.5; stroke-linecap: round"/>
    <path d="M 563.746177 288.059824 
L 565.688554 284.031528 
L 567.745765 288.002407 
" style="fill: none; opacity: 0.7; stroke: #008000; stroke-width: 2.5; stroke-linecap: round"/>
   </g>
   <g id="patch_35">
    <path d="M 565.648462 281.238759 
Q 566.304455 326.934617 566.920326 369.835677 
" style="fill: none; opacity: 0.7; stroke: #008000; stroke-width: 2.5; stroke-linecap: round"/>
    <path d="M 568.862703 365.807381 
L 566.920326 369.835677 
L 564.863115 365.864797 
" style="fill: none; opacity: 0.7; stroke: #008000; stroke-width: 2.5; stroke-linecap: round"/>
   </g>
   <g id="patch_36">
    <path d="M 565.288098 373.579213 
Q 530.366592 352.041025 497.824081 331.970106 
" style="fill: none; opacity: 0.7; stroke: #008000; stroke-width: 2.5; stroke-linecap: round"/>
    <path d="M 500.17873 335.772162 
L 497.824081 331.970106 
L 502.278515 332.36762 
" style="fill: none; opacity: 0.7; stroke: #008000; stroke-width: 2.5; stroke-linecap: round"/>
   </g>
   <g id="patch_37">
    <path d="M 495.632966 328.803351 
Q 539.182033 313.804723 580.088361 299.716274 
" style="fill: none; opacity: 0.7; stroke: #008000; stroke-width: 2.5; stroke-linecap: round"/>
    <path d="M 575.655108 299.127827 
L 580.088361 299.716274 
L 576.957651 302.909808 
" style="fill: none; opacity: 0.7; stroke: #008000; stroke-width: 2.5; stroke-linecap: round"/>
   </g>
   <g id="patch_38">
    <path d="M 586.360804 297.167512 
Q 648.283598 261.989972 707.776088 228.193057 
" style="fill: none; opacity: 0.7; stroke: #008000; stroke-width: 2.5; stroke-linecap: round"/>
    <path d="M 703.310226 228.429861 
L 707.776088 228.193057 
L 705.286014 231.907829 
" style="fill: none; opacity: 0.7; stroke: #008000; stroke-width: 2.5; stroke-linecap: round"/>
   </g>
   <g id="patch_39">
    <path d="M 713.529826 227.045274 
Q 714.130169 227.506346 712.513758 226.264918 
" style="fill: none; opacity: 0.7; stroke: #008000; stroke-width: 2.5; stroke-linecap: round"/>
    <path d="M 710.559608 222.24232 
L 712.513758 226.264918 
L 708.123189 225.414679 
" style="fill: none; opacity: 0.7; stroke: #008000; stroke-width: 2.5; stroke-linecap: round"/>
   </g>
   <g id="patch_40">
    <path d="M 717.322633 230.916895 
Q 740.999858 271.691534 763.2735 310.049057 
" style="fill: none; opacity: 0.7; stroke: #008000; stroke-width: 2.5; stroke-linecap: round"/>
    <path d="M 762.994403 305.585639 
L 763.2735 310.049057 
L 759.535307 307.594284 
" style="fill: none; opacity: 0.7; stroke: #008000; stroke-width: 2.5; stroke-linecap: round"/>
   </g>
   <g id="patch_41">
    <path d="M 766.082066 312.237398 
Q 771.760923 284.414238 776.880812 259.3297 
" style="fill: none; opacity: 0.7; stroke: #008000; stroke-width: 2.5; stroke-linecap: round"/>
    <path d="M 774.121284 262.848933 
L 776.880812 259.3297 
L 778.040482 263.648863 
" style="fill: none; opacity: 0.7; stroke: #008000; stroke-width: 2.5; stroke-linecap: round"/>
   </g>
   <g id="patch_42">
    <path d="M 775.912894 255.170319 
Q 617.404593 299.400987 461.588526 342.880404 
" style="fill: none; opacity: 0.7; stroke: #008000; stroke-width: 2.5; stroke-linecap: round"/>
    <path d="M 465.978889 343.731709 
L 461.588526 342.880404 
L 464.903788 339.878898 
" style="fill: none; opacity: 0.7; stroke: #008000; stroke-width: 2.5; stroke-linecap: round"/>
   </g>
   <g id="patch_43">
    <path d="M 454.980729 344.359992 
Q 286.867759 360.509678 121.537066 376.392086 
" style="fill: none; opacity: 0.7; stroke: #ffa500; stroke-width: 2.5; stroke-linecap: round"/>
    <path d="M 125.709984 378.000424 
L 121.537066 376.392086 
L 125.327487 374.018754 
" style="fill: none; opacity: 0.7; stroke: #ffa500; stroke-width: 2.5; stroke-linecap: round"/>
   </g>
   <g id="patch_44">
    <path d="M 117.541272 378.691705 
Q 125.832899 398.366475 133.039038 415.465547 
" style="fill: none; opacity: 0.7; stroke: #ffa500; stroke-width: 2.5; stroke-linecap: round"/>
    <path d="M 133.328634 411.002798 
L 133.039038 415.465547 
L 129.642596 412.556221 
" style="fill: none; opacity: 0.7; stroke: #ffa500; stroke-width: 2.5; stroke-linecap: round"/>
   </g>
   <g id="patch_45">
    <path d="M 134.605217 417.903708 
Q 125.298889 355.631927 116.405691 296.124532 
" style="fill: none; opacity: 0.7; stroke: #ffa500; stroke-width: 2.5; stroke-linecap: round"/>
    <path d="M 115.01888 300.376209 
L 116.405691 296.124532 
L 118.974945 299.784987 
" style="fill: none; opacity: 0.7; stroke: #ffa500; stroke-width: 2.5; stroke-linecap: round"/>
   </g>
   <g id="patch_46">
    <path d="M 117.538977 292.153379 
Q 144.335694 303.411079 168.555499 313.58618 
" style="fill: none; opacity: 0.7; stroke: #ffa500; stroke-width: 2.5; stroke-linecap: round"/>
    <path d="M 165.642367 310.193002 
L 168.555499 313.58618 
L 164.093077 313.880779 
" style="fill: none; opacity: 0.7; stroke: #ffa500; stroke-width: 2.5; stroke-linecap: round"/>
   </g>
   <g id="patch_47">
    <path d="M 171.559393 316.851802 
Q 165.847443 322.52826 162.118067 326.234464 
" style="fill: none; opacity: 0.7; stroke: #ffa500; stroke-width: 2.5; stroke-linecap: round"/>
    <path d="M 166.365095 324.833479 
L 162.118067 326.234464 
L 163.545496 321.996251 
" style="fill: none; opacity: 0.7; stroke: #ffa500; stroke-width: 2.5; stroke-linecap: round"/>
   </g>
   <g id="patch_48">
    <path d="M 159.935231 331.205599 
Q 200.281955 383.749147 238.926378 434.075789 
" style="fill: none; opacity: 0.7; stroke: #ffa500; stroke-width: 2.5; stroke-linecap: round"/>
    <path d="M 238.076533 429.685144 
L 238.926378 434.075789 
L 234.903955 432.121278 
" style="fill: none; opacity: 0.7; stroke: #ffa500; stroke-width: 2.5; stroke-linecap: round"/>
   </g>
   <g id="patch_49">
    <path d="M 241.846042 437.878068 
Q 241.846042 437.878068 241.846042 437.878068 
" style="fill: none; opacity: 0.7; stroke: #ffa500; stroke-width: 2.5; stroke-linecap: round"/>
   </g>
   <g id="patch_50">
    <path d="M 240.662912 439.49505 
Q 229.937393 454.1536 220.862375 466.556413 
" style="fill: none; opacity: 0.7; stroke: #ffa500; stroke-width: 2.5; stroke-linecap: round"/>
    <path d="M 224.838453 464.509267 
L 220.862375 466.556413 
L 221.610306 462.147263 
" style="fill: none; opacity: 0.7; stroke: #ffa500; stroke-width: 2.5; stroke-linecap: round"/>
   </g>
   <g id="patch_51">
    <path d="M 219.650613 471.593576 
Q 277.349921 513.282058 332.783625 553.333611 
" style="fill: none; opacity: 0.7; stroke: #ffa500; stroke-width: 2.5; stroke-linecap: round"/>
    <path d="M 330.712645 549.369895 
L 332.783625 553.333611 
L 328.370064 552.612165 
" style="fill: none; opacity: 0.7; stroke: #ffa500; stroke-width: 2.5; stroke-linecap: round"/>
   </g>
   <g id="patch_52">
    <path d="M 334.927576 555.145363 
Q 288.770748 528.76824 245.040692 503.777939 
" style="fill: none; opacity: 0.7; stroke: #ffa500; stroke-width: 2.5; stroke-linecap: round"/>
    <path d="M 247.521278 507.499054 
L 245.040692 503.777939 
L 249.505935 504.026139 
" style="fill: none; opacity: 0.7; stroke: #ffa500; stroke-width: 2.5; stroke-linecap: round"/>
   </g>
   <g id="patch_53">
    <path d="M 239.035162 500.619551 
Q 220.887373 492.943578 205.313865 486.35645 
" style="fill: none; opacity: 0.7; stroke: #ffa500; stroke-width: 2.5; stroke-linecap: round"/>
    <path d="M 208.218762 489.756681 
L 205.313865 486.35645 
L 209.776988 486.072671 
" style="fill: none; opacity: 0.7; stroke: #ffa500; stroke-width: 2.5; stroke-linecap: round"/>
   </g>
   <g id="patch_54">
    <path d="M 200.992417 486.485738 
Q 203.587054 541.587363 206.05022 593.896998 
" style="fill: none; opacity: 0.7; stroke: #ffa500; stroke-width: 2.5; stroke-linecap: round"/>
    <path d="M 207.859862 589.807353 
L 206.05022 593.896998 
L 203.86429 589.995497 
" style="fill: none; opacity: 0.7; stroke: #ffa500; stroke-width: 2.5; stroke-linecap: round"/>
   </g>
   <g id="patch_55">
    <path d="M 206.252358 596.682225 
Q 205.92498 568.576573 205.630157 543.265816 
" style="fill: none; opacity: 0.7; stroke: #ffa500; stroke-width: 2.5; stroke-linecap: round"/>
    <path d="M 203.676882 547.288839 
L 205.630157 543.265816 
L 207.67661 547.24225 
" style="fill: none; opacity: 0.7; stroke: #ffa500; stroke-width: 2.5; stroke-linecap: round"/>
   </g>
   <g id="patch_56">
    <path d="M 203.958011 537.289818 
Q 180.255699 519.973985 158.810345 504.306983 
" style="fill: none; opacity: 0.7; stroke: #ffa500; stroke-width: 2.5; stroke-linecap: round"/>
    <path d="M 160.860433 508.281544 
L 158.810345 504.306983 
L 163.220047 505.05165 
" style="fill: none; opacity: 0.7; stroke: #ffa500; stroke-width: 2.5; stroke-linecap: round"/>
   </g>
   <g id="patch_57">
    <path d="M 155.182381 499.498276 
Q 158.681477 470.790781 161.842389 444.857837 
" style="fill: none; opacity: 0.7; stroke: #ffa500; stroke-width: 2.5; stroke-linecap: round"/>
    <path d="M 159.373113 448.586466 
L 161.842389 444.857837 
L 163.343726 449.070436 
" style="fill: none; opacity: 0.7; stroke: #ffa500; stroke-width: 2.5; stroke-linecap: round"/>
   </g>
   <g id="patch_58">
    <path d="M 161.213332 441.695087 
Q 148.76228 458.120777 137.999695 472.319006 
" style="fill: none; opacity: 0.7; stroke: #ffa500; stroke-width: 2.5; stroke-linecap: round"/>
    <path d="M 142.009872 470.339492 
L 137.999695 472.319006 
L 138.82219 467.923156 
" style="fill: none; opacity: 0.7; stroke: #ffa500; stroke-width: 2.5; stroke-linecap: round"/>
   </g>
   <g id="patch_59">
    <path d="M 134.719399 478.101975 
Q 132.229615 490.868772 130.27485 500.892168 
" style="fill: none; opacity: 0.7; stroke: #ffa500; stroke-width: 2.5; stroke-linecap: round"/>
    <path d="M 133.003525 497.348959 
L 130.27485 500.892168 
L 129.077488 496.583302 
" style="fill: none; opacity: 0.7; stroke: #ffa500; stroke-width: 2.5; stroke-linecap: round"/>
   </g>
   <g id="patch_60">
    <path d="M 131.14903 504.716107 
Q 293.164138 424.883996 452.672013 346.287311 
" style="fill: none; opacity: 0.7; stroke: #ffa500; stroke-width: 2.5; stroke-linecap: round"/>
    <path d="M 448.199952 346.261279 
L 452.672013 346.287311 
L 449.967951 349.84934 
" style="fill: none; opacity: 0.7; stroke: #ffa500; stroke-width: 2.5; stroke-linecap: round"/>
   </g>
   <g id="patch_61">
    <path d="M 458.908318 344.660299 
Q 619.908806 385.521831 778.200101 425.695778 
" style="fill: none; opacity: 0.7; stroke: #800080; stroke-width: 2.5; stroke-linecap: round"/>
    <path d="M 774.815017 422.773243 
L 778.200101 425.695778 
L 773.831023 426.650324 
" style="fill: none; opacity: 0.7; stroke: #800080; stroke-width: 2.5; stroke-linecap: round"/>
   </g>
   <g id="patch_62">
    <path d="M 781.439985 428.299344 
Q 769.004767 440.85958 758.536063 451.433532 
" style="fill: none; opacity: 0.7; stroke: #800080; stroke-width: 2.5; stroke-linecap: round"/>
    <path d="M 762.771577 449.998116 
L 758.536063 451.433532 
L 759.929039 447.183871 
" style="fill: none; opacity: 0.7; stroke: #800080; stroke-width: 2.5; stroke-linecap: round"/>
   </g>
   <g id="patch_63">
    <path d="M 755.583401 456.799594 
Q 768.537877 516.873014 780.903153 574.214156 
" style="fill: none; opacity: 0.7; stroke: #800080; stroke-width: 2.5; stroke-linecap: round"/>
    <path d="M 782.015019 569.88244 
L 780.903153 574.214156 
L 778.1049 570.725634 
" style="fill: none; opacity: 0.7; stroke: #800080; stroke-width: 2.5; stroke-linecap: round"/>
   </g>
   <g id="patch_64">
    <path d="M 781.914218 578.902737 
Q 781.914218 578.902737 781.914218 578.902737 
" style="fill: none; opacity: 0.7; stroke: #800080; stroke-width: 2.5; stroke-linecap: round"/>
   </g>
   <g id="patch_65">
    <path d="M 780.295355 577.733294 
Q 619.443774 461.536393 460.857935 346.976231 
" style="fill: none; opacity: 0.7; stroke: #800080; stroke-width: 2.5; stroke-linecap: round"/>
    <path d="M 462.929244 350.939774 
L 460.857935 346.976231 
L 465.271555 347.697309 
" style="fill: none; opacity: 0.7; stroke: #800080; stroke-width: 2.5; stroke-linecap: round"/>
   </g>
   <g id="patch_66">
    <path d="M 458.391829 342.758838 
Q 585.358825 216.720786 710.342155 92.651888 
" style="fill: none; opacity: 0.7; stroke: #00ffff; stroke-width: 2.5; stroke-linecap: round"/>
    <path d="M 706.09435 94.050515 
L 710.342155 92.651888 
L 708.912373 96.889308 
" style="fill: none; opacity: 0.7; stroke: #00ffff; stroke-width: 2.5; stroke-linecap: round"/>
   </g>
   <g id="patch_67">
    <path d="M 713.746058 89.272889 
Q 713.746058 89.272889 713.746058 89.272889 
" style="fill: none; opacity: 0.7; stroke: #00ffff; stroke-width: 2.5; stroke-linecap: round"/>
   </g>
   <g id="patch_68">
    <path d="M 711.749466 89.125533 
Q 627.09029 82.877381 545.218616 76.834957 
" style="fill: none; opacity: 0.7; stroke: #00ffff; stroke-width: 2.5; stroke-linecap: round"/>
    <path d="M 549.06056 79.123945 
L 545.218616 76.834957 
L 549.354974 75.134795 
" style="fill: none; opacity: 0.7; stroke: #00ffff; stroke-width: 2.5; stroke-linecap: round"/>
   </g>
   <g id="patch_69">
    <path d="M 542.377121 76.954786 
Q 647.664411 102.605505 750.236047 127.59462 
" style="fill: none; opacity: 0.7; stroke: #00ffff; stroke-width: 2.5; stroke-linecap: round"/>
    <path d="M 746.823123 124.704645 
L 750.236047 127.59462 
L 745.876313 128.590974 
" style="fill: none; opacity: 0.7; stroke: #00ffff; stroke-width: 2.5; stroke-linecap: round"/>
   </g>
   <g id="patch_70">
    <path d="M 753.036998 127.987196 
Q 672.547375 95.817153 594.653211 64.684462 
" style="fill: none; opacity: 0.7; stroke: #00ffff; stroke-width: 2.5; stroke-linecap: round"/>
    <path d="M 597.625261 68.026156 
L 594.653211 64.684462 
L 599.109797 64.311839 
" style="fill: none; opacity: 0.7; stroke: #00ffff; stroke-width: 2.5; stroke-linecap: round"/>
   </g>
   <g id="patch_71">
    <path d="M 588.537517 64.01951 
Q 562.878294 81.199116 539.541649 96.823688 
" style="fill: none; opacity: 0.7; stroke: #00ffff; stroke-width: 2.5; stroke-linecap: round"/>
    <path d="M 543.978144 96.260205 
L 539.541649 96.823688 
L 541.75276 92.936402 
" style="fill: none; opacity: 0.7; stroke: #00ffff; stroke-width: 2.5; stroke-linecap: round"/>
   </g>
   <g id="patch_72">
    <path d="M 534.947524 101.397143 
Q 496.265905 221.829062 458.439034 339.599795 
" style="fill: none; opacity: 0.7; stroke: #00ffff; stroke-width: 2.5; stroke-linecap: round"/>
    <path d="M 461.566438 336.403025 
L 458.439034 339.599795 
L 457.75806 335.179809 
" style="fill: none; opacity: 0.7; stroke: #00ffff; stroke-width: 2.5; stroke-linecap: round"/>
   </g>
   <g id="text_13">
    <g id="patch_73">
     <path d="M 464.971529 343.418746 
L 494.971529 343.418746 
Q 497.971529 343.418746 497.971529 340.418746 
L 497.971529 331.160934 
Q 497.971529 328.160934 494.971529 328.160934 
L 464.971529 328.160934 
Q 461.971529 328.160934 461.971529 331.160934 
L 461.971529 340.418746 
Q 461.971529 343.418746 464.971529 343.418746 
z
" style="fill: #ffffff; opacity: 0.8; stroke: #808080; stroke-linejoin: miter"/>
    </g>
    <!-- 起降点 -->
    <g transform="translate(464.971529 339.168746) scale(0.1 -0.1)">
     <defs>
      <path id="SimHei-8d77" d="M 225 -200 
Q 425 75 537 362 
Q 650 650 725 1025 
Q 800 1400 875 1950 
Q 1100 1875 1450 1850 
Q 1150 1350 1375 1012 
Q 1600 675 1775 525 
L 1775 2550 
Q 800 2550 475 2525 
L 475 2975 
Q 800 2950 1675 2950 
L 1675 3925 
Q 1125 3925 675 3900 
L 675 4350 
Q 1000 4325 1675 4325 
Q 1675 4800 1650 5225 
L 2150 5225 
Q 2125 4775 2125 4325 
Q 2700 4325 2975 4350 
L 2975 3900 
Q 2700 3925 2125 3925 
L 2125 2950 
Q 2825 2950 3225 2975 
L 3225 2525 
Q 2825 2550 2225 2550 
L 2225 1750 
Q 2675 1750 3150 1775 
L 3150 1325 
Q 2700 1350 2225 1350 
L 2225 275 
Q 2550 0 3887 -50 
Q 5225 -100 6200 50 
Q 6050 -200 5975 -550 
Q 4800 -550 4025 -537 
Q 3250 -525 2687 -400 
Q 2125 -275 1775 -12 
Q 1425 250 1125 675 
Q 875 0 625 -575 
Q 425 -275 225 -200 
z
M 6000 1475 
Q 5850 850 5725 650 
Q 5600 450 5225 450 
L 4025 450 
Q 3500 450 3500 1025 
L 3500 2225 
Q 3500 2575 3475 3000 
L 5150 3000 
L 5150 4275 
Q 3700 4275 3325 4250 
L 3325 4675 
Q 3700 4650 4125 4650 
L 5650 4650 
Q 5625 4275 5625 3600 
Q 5625 2950 5650 2575 
L 3975 2575 
L 3975 1250 
Q 3950 875 4350 875 
L 5050 875 
Q 5250 875 5312 1050 
Q 5375 1225 5425 1700 
Q 5650 1550 6000 1475 
z
" transform="scale(0.015625)"/>
      <path id="SimHei-964d" d="M 4075 5050 
Q 3850 4800 3775 4625 
L 5650 4625 
Q 5425 4175 5187 3837 
Q 4950 3500 4650 3200 
Q 4900 3025 5275 2925 
Q 5650 2825 6200 2800 
Q 6025 2525 5975 2300 
Q 5375 2400 4950 2562 
Q 4525 2725 4275 2900 
Q 3950 2700 3550 2500 
Q 3150 2300 2525 2125 
Q 2450 2350 2250 2550 
Q 2775 2650 3212 2825 
Q 3650 3000 3875 3200 
Q 3550 3525 3325 3875 
Q 3000 3450 2825 3275 
Q 2650 3450 2450 3550 
Q 2775 3850 3075 4325 
Q 3375 4800 3575 5300 
Q 3950 5100 4075 5050 
z
M 2350 4975 
Q 2225 4650 2025 4062 
Q 1825 3475 1675 2975 
Q 2075 2450 2200 2175 
Q 2325 1900 2287 1550 
Q 2250 1200 2012 1012 
Q 1775 825 1350 775 
Q 1300 1025 1150 1325 
Q 1650 1300 1737 1512 
Q 1825 1725 1787 1962 
Q 1750 2200 1200 2925 
L 1450 3600 
Q 1600 4025 1725 4550 
L 975 4550 
L 975 -600 
L 500 -600 
Q 525 325 525 875 
L 525 3750 
Q 525 4325 500 4975 
L 2350 4975 
z
M 5100 2075 
Q 5275 2075 5725 2100 
L 5725 1650 
Q 5450 1675 5150 1675 
L 4575 1675 
L 4575 900 
L 5200 900 
Q 5675 900 6050 925 
L 6050 475 
Q 5700 500 5225 500 
L 4575 500 
L 4575 125 
Q 4575 -250 4600 -600 
L 4100 -600 
Q 4125 -225 4125 100 
L 4125 500 
L 2375 500 
Q 2500 1100 2500 1400 
L 3025 1325 
Q 2925 1025 2925 900 
L 4125 900 
L 4125 1675 
L 3475 1675 
Q 3100 1675 2775 1650 
L 2775 2100 
Q 3225 2075 3475 2075 
L 4125 2075 
Q 4125 2375 4100 2625 
L 4575 2625 
Q 4550 2225 4550 2075 
L 5100 2075 
z
M 4275 3475 
Q 4600 3725 4925 4250 
L 3550 4250 
Q 4025 3650 4275 3475 
z
" transform="scale(0.015625)"/>
      <path id="SimHei-70b9" d="M 3325 5200 
Q 3300 4925 3300 4375 
L 4900 4375 
Q 5275 4375 5725 4400 
L 5725 3925 
Q 5300 3950 4900 3950 
L 3300 3950 
L 3300 3225 
L 5225 3225 
Q 5200 2700 5200 2150 
Q 5200 1625 5225 1175 
L 1175 1175 
Q 1200 1625 1200 2175 
Q 1200 2725 1175 3225 
L 2775 3225 
L 2775 4500 
Q 2775 4900 2750 5200 
L 3325 5200 
z
M 4700 1600 
L 4700 2800 
L 1725 2800 
L 1725 1600 
L 4700 1600 
z
M 1500 750 
Q 1025 -250 825 -625 
Q 625 -475 325 -375 
Q 650 50 950 925 
Q 1200 800 1500 750 
z
M 5325 850 
Q 5775 150 6075 -350 
Q 5925 -425 5575 -625 
Q 5375 -150 4900 575 
Q 5150 700 5325 850 
z
M 3975 -575 
Q 3775 -100 3400 575 
Q 3575 675 3825 825 
Q 4350 -75 4450 -325 
Q 4200 -450 3975 -575 
z
M 2375 -575 
Q 2350 -300 1975 550 
Q 2200 625 2425 775 
Q 2800 -75 2900 -350 
Q 2625 -450 2375 -575 
z
" transform="scale(0.015625)"/>
     </defs>
     <use xlink:href="#SimHei-8d77"/>
     <use xlink:href="#SimHei-964d" x="100"/>
     <use xlink:href="#SimHei-70b9" x="200"/>
    </g>
   </g>
   <g id="PathCollection_1">
    <defs>
     <path id="md4663ab407" d="M 0 5.477226 
C 1.452577 5.477226 2.845856 4.900111 3.872983 3.872983 
C 4.900111 2.845856 5.477226 1.452577 5.477226 0 
C 5.477226 -1.452577 4.900111 -2.845856 3.872983 -3.872983 
C 2.845856 -4.900111 1.452577 -5.477226 0 -5.477226 
C -1.452577 -5.477226 -2.845856 -4.900111 -3.872983 -3.872983 
C -4.900111 -2.845856 -5.477226 -1.452577 -5.477226 0 
C -5.477226 1.452577 -4.900111 2.845856 -3.872983 3.872983 
C -2.845856 4.900111 -1.452577 5.477226 0 5.477226 
z
" style="stroke: #0000ff"/>
    </defs>
    <g clip-path="url(#pd50ae901a8)">
     <use xlink:href="#md4663ab407" x="430.218615" y="169.784859" style="fill: #0000ff; stroke: #0000ff"/>
     <use xlink:href="#md4663ab407" x="290.275161" y="76.400729" style="fill: #0000ff; stroke: #0000ff"/>
     <use xlink:href="#md4663ab407" x="154.00564" y="65.750711" style="fill: #0000ff; stroke: #0000ff"/>
     <use xlink:href="#md4663ab407" x="136.070166" y="90.871747" style="fill: #0000ff; stroke: #0000ff"/>
     <use xlink:href="#md4663ab407" x="285.632645" y="215.013563" style="fill: #0000ff; stroke: #0000ff"/>
     <use xlink:href="#md4663ab407" x="153.137255" y="129.650821" style="fill: #0000ff; stroke: #0000ff"/>
     <use xlink:href="#md4663ab407" x="351.462848" y="73.907595" style="fill: #0000ff; stroke: #0000ff"/>
     <use xlink:href="#md4663ab407" x="171.273126" y="194.282611" style="fill: #0000ff; stroke: #0000ff"/>
     <use xlink:href="#md4663ab407" x="424.273523" y="221.978079" style="fill: #0000ff; stroke: #0000ff"/>
     <use xlink:href="#md4663ab407" x="285.632645" y="215.013563" style="fill: #0000ff; stroke: #0000ff"/>
     <use xlink:href="#md4663ab407" x="217.19729" y="227.96702" style="fill: #0000ff; stroke: #0000ff"/>
     <use xlink:href="#md4663ab407" x="207.478067" y="178.239836" style="fill: #0000ff; stroke: #0000ff"/>
    </g>
   </g>
   <g id="PathCollection_2">
    <defs>
     <path id="m10c69ceeec" d="M -5.477226 5.477226 
L 5.477226 5.477226 
L 5.477226 -5.477226 
L -5.477226 -5.477226 
z
" style="stroke: #ff0000"/>
    </defs>
    <g clip-path="url(#pd50ae901a8)">
     <use xlink:href="#m10c69ceeec" x="428.248051" y="472.619349" style="fill: #ff0000; stroke: #ff0000"/>
     <use xlink:href="#m10c69ceeec" x="622.599116" y="476.819737" style="fill: #ff0000; stroke: #ff0000"/>
     <use xlink:href="#m10c69ceeec" x="592.072071" y="618.548988" style="fill: #ff0000; stroke: #ff0000"/>
     <use xlink:href="#m10c69ceeec" x="639.265413" y="510.36865" style="fill: #ff0000; stroke: #ff0000"/>
     <use xlink:href="#m10c69ceeec" x="603.194069" y="506.818644" style="fill: #ff0000; stroke: #ff0000"/>
     <use xlink:href="#m10c69ceeec" x="593.608443" y="478.391496" style="fill: #ff0000; stroke: #ff0000"/>
     <use xlink:href="#m10c69ceeec" x="522.968728" y="525.571348" style="fill: #ff0000; stroke: #ff0000"/>
     <use xlink:href="#m10c69ceeec" x="500.958529" y="576.816092" style="fill: #ff0000; stroke: #ff0000"/>
     <use xlink:href="#m10c69ceeec" x="527.444247" y="586.842827" style="fill: #ff0000; stroke: #ff0000"/>
     <use xlink:href="#m10c69ceeec" x="569.494082" y="619.958151" style="fill: #ff0000; stroke: #ff0000"/>
     <use xlink:href="#m10c69ceeec" x="592.072071" y="618.548988" style="fill: #ff0000; stroke: #ff0000"/>
    </g>
   </g>
   <g id="PathCollection_3">
    <defs>
     <path id="mb1a1ddfd34" d="M 0 -5.477226 
L -5.477226 5.477226 
L 5.477226 5.477226 
z
" style="stroke: #008000"/>
    </defs>
    <g clip-path="url(#pd50ae901a8)">
     <use xlink:href="#mb1a1ddfd34" x="617.656006" y="318.045037" style="fill: #008000; stroke: #008000"/>
     <use xlink:href="#mb1a1ddfd34" x="566.989128" y="374.628341" style="fill: #008000; stroke: #008000"/>
     <use xlink:href="#mb1a1ddfd34" x="565.619752" y="279.238864" style="fill: #008000; stroke: #008000"/>
     <use xlink:href="#mb1a1ddfd34" x="566.989128" y="374.628341" style="fill: #008000; stroke: #008000"/>
     <use xlink:href="#mb1a1ddfd34" x="493.74426" y="329.453836" style="fill: #008000; stroke: #008000"/>
     <use xlink:href="#mb1a1ddfd34" x="584.624007" y="298.154164" style="fill: #008000; stroke: #008000"/>
     <use xlink:href="#mb1a1ddfd34" x="711.942491" y="225.826177" style="fill: #008000; stroke: #008000"/>
     <use xlink:href="#mb1a1ddfd34" x="716.317811" y="229.186488" style="fill: #008000; stroke: #008000"/>
     <use xlink:href="#mb1a1ddfd34" x="765.682113" y="314.196939" style="fill: #008000; stroke: #008000"/>
     <use xlink:href="#mb1a1ddfd34" x="777.839492" y="254.632715" style="fill: #008000; stroke: #008000"/>
    </g>
   </g>
   <g id="PathCollection_4">
    <defs>
     <path id="m033fdf7e82" d="M -0 7.745967 
L 7.745967 0 
L 0 -7.745967 
L -7.745967 -0 
z
" style="stroke: #ffa500"/>
    </defs>
    <g clip-path="url(#pd50ae901a8)">
     <use xlink:href="#m033fdf7e82" x="116.765317" y="376.850482" style="fill: #ffa500; stroke: #ffa500"/>
     <use xlink:href="#m033fdf7e82" x="134.901187" y="419.884143" style="fill: #ffa500; stroke: #ffa500"/>
     <use xlink:href="#m033fdf7e82" x="115.696536" y="291.379343" style="fill: #ffa500; stroke: #ffa500"/>
     <use xlink:href="#m033fdf7e82" x="172.976495" y="315.443506" style="fill: #ffa500; stroke: #ffa500"/>
     <use xlink:href="#m033fdf7e82" x="158.714954" y="329.616431" style="fill: #ffa500; stroke: #ffa500"/>
     <use xlink:href="#m033fdf7e82" x="241.846042" y="437.878068" style="fill: #ffa500; stroke: #ffa500"/>
     <use xlink:href="#m033fdf7e82" x="241.846042" y="437.878068" style="fill: #ffa500; stroke: #ffa500"/>
     <use xlink:href="#m033fdf7e82" x="218.032275" y="470.424307" style="fill: #ffa500; stroke: #ffa500"/>
     <use xlink:href="#m033fdf7e82" x="336.666917" y="556.139339" style="fill: #ffa500; stroke: #ffa500"/>
     <use xlink:href="#m033fdf7e82" x="240.877459" y="501.398787" style="fill: #ffa500; stroke: #ffa500"/>
     <use xlink:href="#m033fdf7e82" x="200.898387" y="484.488835" style="fill: #ffa500; stroke: #ffa500"/>
     <use xlink:href="#m033fdf7e82" x="206.275689" y="598.685214" style="fill: #ffa500; stroke: #ffa500"/>
     <use xlink:href="#m033fdf7e82" x="205.574302" y="538.470607" style="fill: #ffa500; stroke: #ffa500"/>
     <use xlink:href="#m033fdf7e82" x="154.940823" y="501.480085" style="fill: #ffa500; stroke: #ffa500"/>
     <use xlink:href="#m033fdf7e82" x="162.422287" y="440.100209" style="fill: #ffa500; stroke: #ffa500"/>
     <use xlink:href="#m033fdf7e82" x="135.101583" y="476.142255" style="fill: #ffa500; stroke: #ffa500"/>
     <use xlink:href="#m033fdf7e82" x="129.356888" y="505.599176" style="fill: #ffa500; stroke: #ffa500"/>
    </g>
   </g>
   <g id="PathCollection_5">
    <defs>
     <path id="m48329008da" d="M -1.825742 5.477226 
L 1.825742 5.477226 
L 1.825742 1.825742 
L 5.477226 1.825742 
L 5.477226 -1.825742 
L 1.825742 -1.825742 
L 1.825742 -5.477226 
L -1.825742 -5.477226 
L -1.825742 -1.825742 
L -5.477226 -1.825742 
L -5.477226 1.825742 
L -1.825742 1.825742 
z
" style="stroke: #800080"/>
    </defs>
    <g clip-path="url(#pd50ae901a8)">
     <use xlink:href="#m48329008da" x="782.849401" y="426.875759" style="fill: #800080; stroke: #800080"/>
     <use xlink:href="#m48329008da" x="755.161305" y="454.842219" style="fill: #800080; stroke: #800080"/>
     <use xlink:href="#m48329008da" x="781.914218" y="578.902737" style="fill: #800080; stroke: #800080"/>
     <use xlink:href="#m48329008da" x="781.914218" y="578.902737" style="fill: #800080; stroke: #800080"/>
    </g>
   </g>
   <g id="PathCollection_6">
    <defs>
     <path id="m14370bccf2" d="M -2.738613 5.477226 
L 0 2.738613 
L 2.738613 5.477226 
L 5.477226 2.738613 
L 2.738613 0 
L 5.477226 -2.738613 
L 2.738613 -5.477226 
L 0 -2.738613 
L -2.738613 -5.477226 
L -5.477226 -2.738613 
L -2.738613 0 
L -5.477226 2.738613 
z
" style="stroke: #00ffff"/>
    </defs>
    <g clip-path="url(#pd50ae901a8)">
     <use xlink:href="#m14370bccf2" x="713.746058" y="89.272889" style="fill: #00ffff; stroke: #00ffff"/>
     <use xlink:href="#m14370bccf2" x="713.746058" y="89.272889" style="fill: #00ffff; stroke: #00ffff"/>
     <use xlink:href="#m14370bccf2" x="540.43661" y="76.482027" style="fill: #00ffff; stroke: #00ffff"/>
     <use xlink:href="#m14370bccf2" x="754.89411" y="128.729445" style="fill: #00ffff; stroke: #00ffff"/>
     <use xlink:href="#m14370bccf2" x="590.201705" y="62.905286" style="fill: #00ffff; stroke: #00ffff"/>
     <use xlink:href="#m14370bccf2" x="535.560299" y="99.489319" style="fill: #00ffff; stroke: #00ffff"/>
    </g>
   </g>
   <g id="PathCollection_7">
    <defs>
     <path id="m29480fc5ff" d="M 0 -8.660254 
L -1.944348 -2.676166 
L -8.236391 -2.676166 
L -3.146021 1.022204 
L -5.09037 7.006293 
L -0 3.307923 
L 5.09037 7.006293 
L 3.146021 1.022204 
L 8.236391 -2.676166 
L 1.944348 -2.676166 
z
" style="stroke: #000000"/>
    </defs>
    <g clip-path="url(#pd50ae901a8)">
     <use xlink:href="#m29480fc5ff" x="456.971529" y="344.168746" style="stroke: #000000"/>
    </g>
   </g>
   <g id="text_14">
    <!-- 1 -->
    <g style="fill: #ffffff" transform="translate(428.218615 172.034859) scale(0.08 -0.08)">
     <use xlink:href="#SimHei-31"/>
    </g>
   </g>
   <g id="text_15">
    <!-- 2 -->
    <g style="fill: #ffffff" transform="translate(288.275161 78.650729) scale(0.08 -0.08)">
     <use xlink:href="#SimHei-32"/>
    </g>
   </g>
   <g id="text_16">
    <!-- 3 -->
    <g style="fill: #ffffff" transform="translate(152.00564 68.000711) scale(0.08 -0.08)">
     <defs>
      <path id="SimHei-33" d="M 250 1225 
L 700 1300 
Q 800 975 1025 762 
Q 1250 550 1587 562 
Q 1925 575 2125 837 
Q 2325 1100 2300 1437 
Q 2275 1775 2037 1962 
Q 1800 2150 1275 2225 
L 1275 2550 
Q 1800 2600 2037 2825 
Q 2275 3050 2250 3412 
Q 2225 3775 1925 3937 
Q 1625 4100 1287 3975 
Q 950 3850 750 3275 
L 300 3350 
Q 450 3800 712 4100 
Q 975 4400 1425 4450 
Q 1875 4500 2212 4337 
Q 2550 4175 2687 3837 
Q 2825 3500 2725 3100 
Q 2625 2700 2150 2400 
Q 2500 2250 2687 1950 
Q 2875 1650 2812 1162 
Q 2750 675 2375 375 
Q 2000 75 1525 87 
Q 1050 100 700 387 
Q 350 675 250 1225 
z
" transform="scale(0.015625)"/>
     </defs>
     <use xlink:href="#SimHei-33"/>
    </g>
   </g>
   <g id="text_17">
    <!-- 4 -->
    <g style="fill: #ffffff" transform="translate(134.070166 93.121747) scale(0.08 -0.08)">
     <defs>
      <path id="SimHei-34" d="M 2000 1100 
L 75 1100 
L 75 1525 
L 2100 4450 
L 2475 4450 
L 2475 1525 
L 3075 1525 
L 3075 1100 
L 2475 1100 
L 2475 150 
L 2000 150 
L 2000 1100 
z
M 2000 1525 
L 2000 3500 
L 600 1525 
L 2000 1525 
z
" transform="scale(0.015625)"/>
     </defs>
     <use xlink:href="#SimHei-34"/>
    </g>
   </g>
   <g id="text_18">
    <!-- 5 -->
    <g style="fill: #ffffff" transform="translate(283.632645 217.263563) scale(0.08 -0.08)">
     <use xlink:href="#SimHei-35"/>
    </g>
   </g>
   <g id="text_19">
    <!-- 6 -->
    <g style="fill: #ffffff" transform="translate(151.137255 131.900821) scale(0.08 -0.08)">
     <defs>
      <path id="SimHei-36" d="M 250 1612 
Q 275 1975 387 2225 
Q 500 2475 725 2850 
L 1750 4450 
L 2325 4450 
L 1275 2800 
Q 1950 2975 2350 2750 
Q 2750 2525 2887 2237 
Q 3025 1950 3037 1612 
Q 3050 1275 2937 950 
Q 2825 625 2537 362 
Q 2250 100 1737 75 
Q 1225 50 862 262 
Q 500 475 362 862 
Q 225 1250 250 1612 
z
M 1025 787 
Q 1250 550 1625 525 
Q 2000 500 2250 775 
Q 2500 1050 2500 1575 
Q 2500 2100 2187 2300 
Q 1875 2500 1487 2450 
Q 1100 2400 925 2075 
Q 750 1750 775 1387 
Q 800 1025 1025 787 
z
" transform="scale(0.015625)"/>
     </defs>
     <use xlink:href="#SimHei-36"/>
    </g>
   </g>
   <g id="text_20">
    <!-- 7 -->
    <g style="fill: #ffffff" transform="translate(349.462848 76.157595) scale(0.08 -0.08)">
     <defs>
      <path id="SimHei-37" d="M 850 150 
Q 1300 2050 2425 3925 
L 275 3925 
L 275 4375 
L 2950 4375 
L 2950 3950 
Q 1775 2050 1400 150 
L 850 150 
z
" transform="scale(0.015625)"/>
     </defs>
     <use xlink:href="#SimHei-37"/>
    </g>
   </g>
   <g id="text_21">
    <!-- 8 -->
    <g style="fill: #ffffff" transform="translate(169.273126 196.532611) scale(0.08 -0.08)">
     <defs>
      <path id="SimHei-38" d="M 175 1375 
Q 175 1675 325 1962 
Q 475 2250 825 2425 
Q 525 2600 425 2812 
Q 325 3025 312 3300 
Q 300 3575 387 3775 
Q 475 3975 650 4150 
Q 825 4325 1037 4387 
Q 1250 4450 1500 4450 
Q 1750 4450 1950 4400 
Q 2150 4350 2375 4187 
Q 2600 4025 2700 3725 
Q 2800 3425 2687 3025 
Q 2575 2625 2100 2400 
Q 2525 2275 2700 2012 
Q 2875 1750 2875 1375 
Q 2875 1000 2762 775 
Q 2650 550 2512 400 
Q 2375 250 2137 162 
Q 1900 75 1537 75 
Q 1175 75 912 162 
Q 650 250 475 425 
Q 300 600 237 837 
Q 175 1075 175 1375 
z
M 687 1400 
Q 675 1100 787 875 
Q 900 650 1200 587 
Q 1500 525 1825 600 
Q 2150 675 2275 950 
Q 2400 1225 2362 1500 
Q 2325 1775 2050 1962 
Q 1775 2150 1450 2125 
Q 1125 2100 912 1900 
Q 700 1700 687 1400 
z
M 775 3350 
Q 775 3100 950 2875 
Q 1125 2650 1500 2650 
Q 1875 2650 2062 2875 
Q 2250 3100 2237 3412 
Q 2225 3725 2012 3875 
Q 1800 4025 1437 4000 
Q 1075 3975 925 3787 
Q 775 3600 775 3350 
z
" transform="scale(0.015625)"/>
     </defs>
     <use xlink:href="#SimHei-38"/>
    </g>
   </g>
   <g id="text_22">
    <!-- 9 -->
    <g style="fill: #ffffff" transform="translate(422.273523 224.228079) scale(0.08 -0.08)">
     <defs>
      <path id="SimHei-39" d="M 800 75 
Q 1350 1000 1700 1750 
Q 1075 1650 662 1912 
Q 250 2175 162 2625 
Q 75 3075 175 3437 
Q 275 3800 487 4037 
Q 700 4275 1000 4375 
Q 1300 4475 1537 4475 
Q 1775 4475 2025 4375 
Q 2275 4275 2475 4075 
Q 2675 3875 2750 3662 
Q 2825 3450 2825 3112 
Q 2825 2775 2575 2250 
Q 2325 1725 1350 75 
L 800 75 
z
M 662 2875 
Q 700 2550 937 2337 
Q 1175 2125 1450 2150 
Q 1725 2175 1887 2300 
Q 2050 2425 2200 2725 
Q 2300 3100 2250 3362 
Q 2200 3625 1987 3800 
Q 1775 3975 1525 3975 
Q 1375 4000 1137 3900 
Q 900 3800 762 3500 
Q 625 3200 662 2875 
z
" transform="scale(0.015625)"/>
     </defs>
     <use xlink:href="#SimHei-39"/>
    </g>
   </g>
   <g id="text_23">
    <!-- 10 -->
    <g style="fill: #ffffff" transform="translate(281.632645 217.263563) scale(0.08 -0.08)">
     <use xlink:href="#SimHei-31"/>
     <use xlink:href="#SimHei-30" x="50"/>
    </g>
   </g>
   <g id="text_24">
    <!-- 11 -->
    <g style="fill: #ffffff" transform="translate(213.19729 230.21702) scale(0.08 -0.08)">
     <use xlink:href="#SimHei-31"/>
     <use xlink:href="#SimHei-31" x="50"/>
    </g>
   </g>
   <g id="text_25">
    <!-- 12 -->
    <g style="fill: #ffffff" transform="translate(203.478067 180.489836) scale(0.08 -0.08)">
     <use xlink:href="#SimHei-31"/>
     <use xlink:href="#SimHei-32" x="50"/>
    </g>
   </g>
   <g id="text_26">
    <!-- 1 -->
    <g style="fill: #ffffff" transform="translate(426.248051 474.869349) scale(0.08 -0.08)">
     <use xlink:href="#SimHei-31"/>
    </g>
   </g>
   <g id="text_27">
    <!-- 2 -->
    <g style="fill: #ffffff" transform="translate(620.599116 479.069737) scale(0.08 -0.08)">
     <use xlink:href="#SimHei-32"/>
    </g>
   </g>
   <g id="text_28">
    <!-- 3 -->
    <g style="fill: #ffffff" transform="translate(590.072071 620.798988) scale(0.08 -0.08)">
     <use xlink:href="#SimHei-33"/>
    </g>
   </g>
   <g id="text_29">
    <!-- 4 -->
    <g style="fill: #ffffff" transform="translate(637.265413 512.61865) scale(0.08 -0.08)">
     <use xlink:href="#SimHei-34"/>
    </g>
   </g>
   <g id="text_30">
    <!-- 5 -->
    <g style="fill: #ffffff" transform="translate(601.194069 509.068644) scale(0.08 -0.08)">
     <use xlink:href="#SimHei-35"/>
    </g>
   </g>
   <g id="text_31">
    <!-- 6 -->
    <g style="fill: #ffffff" transform="translate(591.608443 480.641496) scale(0.08 -0.08)">
     <use xlink:href="#SimHei-36"/>
    </g>
   </g>
   <g id="text_32">
    <!-- 7 -->
    <g style="fill: #ffffff" transform="translate(520.968728 527.821348) scale(0.08 -0.08)">
     <use xlink:href="#SimHei-37"/>
    </g>
   </g>
   <g id="text_33">
    <!-- 8 -->
    <g style="fill: #ffffff" transform="translate(498.958529 579.066092) scale(0.08 -0.08)">
     <use xlink:href="#SimHei-38"/>
    </g>
   </g>
   <g id="text_34">
    <!-- 9 -->
    <g style="fill: #ffffff" transform="translate(525.444247 589.092827) scale(0.08 -0.08)">
     <use xlink:href="#SimHei-39"/>
    </g>
   </g>
   <g id="text_35">
    <!-- 10 -->
    <g style="fill: #ffffff" transform="translate(565.494082 622.208151) scale(0.08 -0.08)">
     <use xlink:href="#SimHei-31"/>
     <use xlink:href="#SimHei-30" x="50"/>
    </g>
   </g>
   <g id="text_36">
    <!-- 11 -->
    <g style="fill: #ffffff" transform="translate(588.072071 620.798988) scale(0.08 -0.08)">
     <use xlink:href="#SimHei-31"/>
     <use xlink:href="#SimHei-31" x="50"/>
    </g>
   </g>
   <g id="text_37">
    <!-- 1 -->
    <g style="fill: #ffffff" transform="translate(615.656006 320.295037) scale(0.08 -0.08)">
     <use xlink:href="#SimHei-31"/>
    </g>
   </g>
   <g id="text_38">
    <!-- 2 -->
    <g style="fill: #ffffff" transform="translate(564.989128 376.878341) scale(0.08 -0.08)">
     <use xlink:href="#SimHei-32"/>
    </g>
   </g>
   <g id="text_39">
    <!-- 3 -->
    <g style="fill: #ffffff" transform="translate(563.619752 281.488864) scale(0.08 -0.08)">
     <use xlink:href="#SimHei-33"/>
    </g>
   </g>
   <g id="text_40">
    <!-- 4 -->
    <g style="fill: #ffffff" transform="translate(564.989128 376.878341) scale(0.08 -0.08)">
     <use xlink:href="#SimHei-34"/>
    </g>
   </g>
   <g id="text_41">
    <!-- 5 -->
    <g style="fill: #ffffff" transform="translate(491.74426 331.703836) scale(0.08 -0.08)">
     <use xlink:href="#SimHei-35"/>
    </g>
   </g>
   <g id="text_42">
    <!-- 6 -->
    <g style="fill: #ffffff" transform="translate(582.624007 300.404164) scale(0.08 -0.08)">
     <use xlink:href="#SimHei-36"/>
    </g>
   </g>
   <g id="text_43">
    <!-- 7 -->
    <g style="fill: #ffffff" transform="translate(709.942491 228.076177) scale(0.08 -0.08)">
     <use xlink:href="#SimHei-37"/>
    </g>
   </g>
   <g id="text_44">
    <!-- 8 -->
    <g style="fill: #ffffff" transform="translate(714.317811 231.436488) scale(0.08 -0.08)">
     <use xlink:href="#SimHei-38"/>
    </g>
   </g>
   <g id="text_45">
    <!-- 9 -->
    <g style="fill: #ffffff" transform="translate(763.682113 316.446939) scale(0.08 -0.08)">
     <use xlink:href="#SimHei-39"/>
    </g>
   </g>
   <g id="text_46">
    <!-- 10 -->
    <g style="fill: #ffffff" transform="translate(773.839492 256.882715) scale(0.08 -0.08)">
     <use xlink:href="#SimHei-31"/>
     <use xlink:href="#SimHei-30" x="50"/>
    </g>
   </g>
   <g id="text_47">
    <!-- 1 -->
    <g style="fill: #ffffff" transform="translate(114.765317 379.100482) scale(0.08 -0.08)">
     <use xlink:href="#SimHei-31"/>
    </g>
   </g>
   <g id="text_48">
    <!-- 2 -->
    <g style="fill: #ffffff" transform="translate(132.901187 422.134143) scale(0.08 -0.08)">
     <use xlink:href="#SimHei-32"/>
    </g>
   </g>
   <g id="text_49">
    <!-- 3 -->
    <g style="fill: #ffffff" transform="translate(113.696536 293.629343) scale(0.08 -0.08)">
     <use xlink:href="#SimHei-33"/>
    </g>
   </g>
   <g id="text_50">
    <!-- 4 -->
    <g style="fill: #ffffff" transform="translate(170.976495 317.693506) scale(0.08 -0.08)">
     <use xlink:href="#SimHei-34"/>
    </g>
   </g>
   <g id="text_51">
    <!-- 5 -->
    <g style="fill: #ffffff" transform="translate(156.714954 331.866431) scale(0.08 -0.08)">
     <use xlink:href="#SimHei-35"/>
    </g>
   </g>
   <g id="text_52">
    <!-- 6 -->
    <g style="fill: #ffffff" transform="translate(239.846042 440.128068) scale(0.08 -0.08)">
     <use xlink:href="#SimHei-36"/>
    </g>
   </g>
   <g id="text_53">
    <!-- 7 -->
    <g style="fill: #ffffff" transform="translate(239.846042 440.128068) scale(0.08 -0.08)">
     <use xlink:href="#SimHei-37"/>
    </g>
   </g>
   <g id="text_54">
    <!-- 8 -->
    <g style="fill: #ffffff" transform="translate(216.032275 472.674307) scale(0.08 -0.08)">
     <use xlink:href="#SimHei-38"/>
    </g>
   </g>
   <g id="text_55">
    <!-- 9 -->
    <g style="fill: #ffffff" transform="translate(334.666917 558.389339) scale(0.08 -0.08)">
     <use xlink:href="#SimHei-39"/>
    </g>
   </g>
   <g id="text_56">
    <!-- 10 -->
    <g style="fill: #ffffff" transform="translate(236.877459 503.648787) scale(0.08 -0.08)">
     <use xlink:href="#SimHei-31"/>
     <use xlink:href="#SimHei-30" x="50"/>
    </g>
   </g>
   <g id="text_57">
    <!-- 11 -->
    <g style="fill: #ffffff" transform="translate(196.898387 486.738835) scale(0.08 -0.08)">
     <use xlink:href="#SimHei-31"/>
     <use xlink:href="#SimHei-31" x="50"/>
    </g>
   </g>
   <g id="text_58">
    <!-- 12 -->
    <g style="fill: #ffffff" transform="translate(202.275689 600.935214) scale(0.08 -0.08)">
     <use xlink:href="#SimHei-31"/>
     <use xlink:href="#SimHei-32" x="50"/>
    </g>
   </g>
   <g id="text_59">
    <!-- 13 -->
    <g style="fill: #ffffff" transform="translate(201.574302 540.720607) scale(0.08 -0.08)">
     <use xlink:href="#SimHei-31"/>
     <use xlink:href="#SimHei-33" x="50"/>
    </g>
   </g>
   <g id="text_60">
    <!-- 14 -->
    <g style="fill: #ffffff" transform="translate(150.940823 503.730085) scale(0.08 -0.08)">
     <use xlink:href="#SimHei-31"/>
     <use xlink:href="#SimHei-34" x="50"/>
    </g>
   </g>
   <g id="text_61">
    <!-- 15 -->
    <g style="fill: #ffffff" transform="translate(158.422287 442.350209) scale(0.08 -0.08)">
     <use xlink:href="#SimHei-31"/>
     <use xlink:href="#SimHei-35" x="50"/>
    </g>
   </g>
   <g id="text_62">
    <!-- 16 -->
    <g style="fill: #ffffff" transform="translate(131.101583 478.392255) scale(0.08 -0.08)">
     <use xlink:href="#SimHei-31"/>
     <use xlink:href="#SimHei-36" x="50"/>
    </g>
   </g>
   <g id="text_63">
    <!-- 17 -->
    <g style="fill: #ffffff" transform="translate(125.356888 507.849176) scale(0.08 -0.08)">
     <use xlink:href="#SimHei-31"/>
     <use xlink:href="#SimHei-37" x="50"/>
    </g>
   </g>
   <g id="text_64">
    <!-- 1 -->
    <g style="fill: #ffffff" transform="translate(780.849401 429.125759) scale(0.08 -0.08)">
     <use xlink:href="#SimHei-31"/>
    </g>
   </g>
   <g id="text_65">
    <!-- 2 -->
    <g style="fill: #ffffff" transform="translate(753.161305 457.092219) scale(0.08 -0.08)">
     <use xlink:href="#SimHei-32"/>
    </g>
   </g>
   <g id="text_66">
    <!-- 3 -->
    <g style="fill: #ffffff" transform="translate(779.914218 581.152737) scale(0.08 -0.08)">
     <use xlink:href="#SimHei-33"/>
    </g>
   </g>
   <g id="text_67">
    <!-- 4 -->
    <g style="fill: #ffffff" transform="translate(779.914218 581.152737) scale(0.08 -0.08)">
     <use xlink:href="#SimHei-34"/>
    </g>
   </g>
   <g id="text_68">
    <!-- 1 -->
    <g style="fill: #ffffff" transform="translate(711.746058 91.522889) scale(0.08 -0.08)">
     <use xlink:href="#SimHei-31"/>
    </g>
   </g>
   <g id="text_69">
    <!-- 2 -->
    <g style="fill: #ffffff" transform="translate(711.746058 91.522889) scale(0.08 -0.08)">
     <use xlink:href="#SimHei-32"/>
    </g>
   </g>
   <g id="text_70">
    <!-- 3 -->
    <g style="fill: #ffffff" transform="translate(538.43661 78.732027) scale(0.08 -0.08)">
     <use xlink:href="#SimHei-33"/>
    </g>
   </g>
   <g id="text_71">
    <!-- 4 -->
    <g style="fill: #ffffff" transform="translate(752.89411 130.979445) scale(0.08 -0.08)">
     <use xlink:href="#SimHei-34"/>
    </g>
   </g>
   <g id="text_72">
    <!-- 5 -->
    <g style="fill: #ffffff" transform="translate(588.201705 65.155286) scale(0.08 -0.08)">
     <use xlink:href="#SimHei-35"/>
    </g>
   </g>
   <g id="text_73">
    <!-- 6 -->
    <g style="fill: #ffffff" transform="translate(533.560299 101.739319) scale(0.08 -0.08)">
     <use xlink:href="#SimHei-36"/>
    </g>
   </g>
  </g>
 </g>
 <defs>
  <clipPath id="pd50ae901a8">
   <rect x="48.98125" y="7.2" width="800.583437" height="668.463438"/>
  </clipPath>
 </defs>
</svg>
