<?xml version="1.0" encoding="utf-8" standalone="no"?>
<!DOCTYPE svg PUBLIC "-//W3C//DTD SVG 1.1//EN"
  "http://www.w3.org/Graphics/SVG/1.1/DTD/svg11.dtd">
<svg xmlns:xlink="http://www.w3.org/1999/xlink" width="864pt" height="576pt" viewBox="0 0 864 576" xmlns="http://www.w3.org/2000/svg" version="1.1">
 <metadata>
  <rdf:RDF xmlns:dc="http://purl.org/dc/elements/1.1/" xmlns:cc="http://creativecommons.org/ns#" xmlns:rdf="http://www.w3.org/1999/02/22-rdf-syntax-ns#">
   <cc:Work>
    <dc:type rdf:resource="http://purl.org/dc/dcmitype/StillImage"/>
    <dc:date>2025-05-04T13:19:17.329473</dc:date>
    <dc:format>image/svg+xml</dc:format>
    <dc:creator>
     <cc:Agent>
      <dc:title>Matplotlib v3.9.4, https://matplotlib.org/</dc:title>
     </cc:Agent>
    </dc:creator>
   </cc:Work>
  </rdf:RDF>
 </metadata>
 <defs>
  <style type="text/css">*{stroke-linejoin: round; stroke-linecap: butt}</style>
 </defs>
 <g id="figure_1">
  <g id="patch_1">
   <path d="M 0 576 
L 864 576 
L 864 0 
L 0 0 
z
" style="fill: #ffffff"/>
  </g>
  <g id="axes_1">
   <g id="patch_2">
    <path d="M 49.68875 533.30875 
L 853.2 533.30875 
L 853.2 29.47875 
L 49.68875 29.47875 
z
" style="fill: #ffffff"/>
   </g>
   <g id="matplotlib.axis_1">
    <g id="xtick_1">
     <g id="line2d_1">
      <path d="M 85.697999 533.30875 
L 85.697999 29.47875 
" clip-path="url(#p34315d24db)" style="fill: none; stroke-dasharray: 2.96,1.28; stroke-dashoffset: 0; stroke: #b0b0b0; stroke-opacity: 0.7; stroke-width: 0.8"/>
     </g>
     <g id="line2d_2">
      <defs>
       <path id="m1abce70769" d="M 0 0 
L 0 3.5 
" style="stroke: #000000; stroke-width: 0.8"/>
      </defs>
      <g>
       <use xlink:href="#m1abce70769" x="85.697999" y="533.30875" style="stroke: #000000; stroke-width: 0.8"/>
      </g>
     </g>
     <g id="text_1">
      <!-- 0.0 -->
      <g transform="translate(78.197999 547.18375) scale(0.1 -0.1)">
       <defs>
        <path id="SimHei-30" d="M 225 2537 
Q 250 3200 412 3587 
Q 575 3975 875 4225 
Q 1175 4475 1612 4475 
Q 2050 4475 2375 4112 
Q 2700 3750 2800 3200 
Q 2900 2650 2862 1937 
Q 2825 1225 2612 775 
Q 2400 325 1975 150 
Q 1550 -25 1125 187 
Q 700 400 525 750 
Q 350 1100 275 1487 
Q 200 1875 225 2537 
z
M 750 2687 
Q 675 2000 800 1462 
Q 925 925 1212 700 
Q 1500 475 1800 612 
Q 2100 750 2237 1162 
Q 2375 1575 2375 2062 
Q 2375 2550 2337 2950 
Q 2300 3350 2112 3675 
Q 1925 4000 1612 4012 
Q 1300 4025 1062 3700 
Q 825 3375 750 2687 
z
" transform="scale(0.015625)"/>
        <path id="SimHei-2e" d="M 1075 125 
L 500 125 
L 500 675 
L 1075 675 
L 1075 125 
z
" transform="scale(0.015625)"/>
       </defs>
       <use xlink:href="#SimHei-30"/>
       <use xlink:href="#SimHei-2e" x="50"/>
       <use xlink:href="#SimHei-30" x="100"/>
      </g>
     </g>
    </g>
    <g id="xtick_2">
     <g id="line2d_3">
      <path d="M 228.472866 533.30875 
L 228.472866 29.47875 
" clip-path="url(#p34315d24db)" style="fill: none; stroke-dasharray: 2.96,1.28; stroke-dashoffset: 0; stroke: #b0b0b0; stroke-opacity: 0.7; stroke-width: 0.8"/>
     </g>
     <g id="line2d_4">
      <g>
       <use xlink:href="#m1abce70769" x="228.472866" y="533.30875" style="stroke: #000000; stroke-width: 0.8"/>
      </g>
     </g>
     <g id="text_2">
      <!-- 0.5 -->
      <g transform="translate(220.972866 547.18375) scale(0.1 -0.1)">
       <defs>
        <path id="SimHei-35" d="M 550 1325 
Q 725 650 1150 575 
Q 1575 500 1837 662 
Q 2100 825 2212 1087 
Q 2325 1350 2312 1675 
Q 2300 2000 2137 2225 
Q 1975 2450 1725 2525 
Q 1475 2600 1162 2525 
Q 850 2450 650 2175 
L 225 2225 
Q 275 2375 700 4375 
L 2675 4375 
L 2675 3925 
L 1075 3925 
Q 950 3250 825 2850 
Q 1200 3025 1525 3012 
Q 1850 3000 2150 2862 
Q 2450 2725 2587 2487 
Q 2725 2250 2787 2012 
Q 2850 1775 2837 1500 
Q 2825 1225 2725 937 
Q 2625 650 2425 462 
Q 2225 275 1937 162 
Q 1650 50 1275 75 
Q 900 100 562 350 
Q 225 600 100 1200 
L 550 1325 
z
" transform="scale(0.015625)"/>
       </defs>
       <use xlink:href="#SimHei-30"/>
       <use xlink:href="#SimHei-2e" x="50"/>
       <use xlink:href="#SimHei-35" x="100"/>
      </g>
     </g>
    </g>
    <g id="xtick_3">
     <g id="line2d_5">
      <path d="M 371.247732 533.30875 
L 371.247732 29.47875 
" clip-path="url(#p34315d24db)" style="fill: none; stroke-dasharray: 2.96,1.28; stroke-dashoffset: 0; stroke: #b0b0b0; stroke-opacity: 0.7; stroke-width: 0.8"/>
     </g>
     <g id="line2d_6">
      <g>
       <use xlink:href="#m1abce70769" x="371.247732" y="533.30875" style="stroke: #000000; stroke-width: 0.8"/>
      </g>
     </g>
     <g id="text_3">
      <!-- 1.0 -->
      <g transform="translate(363.747732 547.18375) scale(0.1 -0.1)">
       <defs>
        <path id="SimHei-31" d="M 1400 3600 
Q 1075 3275 575 2975 
L 575 3450 
Q 1200 3875 1600 4450 
L 1900 4450 
L 1900 150 
L 1400 150 
L 1400 3600 
z
" transform="scale(0.015625)"/>
       </defs>
       <use xlink:href="#SimHei-31"/>
       <use xlink:href="#SimHei-2e" x="50"/>
       <use xlink:href="#SimHei-30" x="100"/>
      </g>
     </g>
    </g>
    <g id="xtick_4">
     <g id="line2d_7">
      <path d="M 514.022599 533.30875 
L 514.022599 29.47875 
" clip-path="url(#p34315d24db)" style="fill: none; stroke-dasharray: 2.96,1.28; stroke-dashoffset: 0; stroke: #b0b0b0; stroke-opacity: 0.7; stroke-width: 0.8"/>
     </g>
     <g id="line2d_8">
      <g>
       <use xlink:href="#m1abce70769" x="514.022599" y="533.30875" style="stroke: #000000; stroke-width: 0.8"/>
      </g>
     </g>
     <g id="text_4">
      <!-- 1.5 -->
      <g transform="translate(506.522599 547.18375) scale(0.1 -0.1)">
       <use xlink:href="#SimHei-31"/>
       <use xlink:href="#SimHei-2e" x="50"/>
       <use xlink:href="#SimHei-35" x="100"/>
      </g>
     </g>
    </g>
    <g id="xtick_5">
     <g id="line2d_9">
      <path d="M 656.797466 533.30875 
L 656.797466 29.47875 
" clip-path="url(#p34315d24db)" style="fill: none; stroke-dasharray: 2.96,1.28; stroke-dashoffset: 0; stroke: #b0b0b0; stroke-opacity: 0.7; stroke-width: 0.8"/>
     </g>
     <g id="line2d_10">
      <g>
       <use xlink:href="#m1abce70769" x="656.797466" y="533.30875" style="stroke: #000000; stroke-width: 0.8"/>
      </g>
     </g>
     <g id="text_5">
      <!-- 2.0 -->
      <g transform="translate(649.297466 547.18375) scale(0.1 -0.1)">
       <defs>
        <path id="SimHei-32" d="M 300 250 
Q 325 625 650 925 
Q 975 1225 1475 1862 
Q 1975 2500 2125 2850 
Q 2275 3200 2237 3450 
Q 2200 3700 2000 3862 
Q 1800 4025 1537 4000 
Q 1275 3975 1037 3800 
Q 800 3625 675 3275 
L 200 3350 
Q 400 3925 712 4187 
Q 1025 4450 1450 4475 
Q 1700 4500 1900 4462 
Q 2100 4425 2312 4287 
Q 2525 4150 2662 3875 
Q 2800 3600 2762 3212 
Q 2725 2825 2375 2287 
Q 2025 1750 1025 600 
L 2825 600 
L 2825 150 
L 300 150 
L 300 250 
z
" transform="scale(0.015625)"/>
       </defs>
       <use xlink:href="#SimHei-32"/>
       <use xlink:href="#SimHei-2e" x="50"/>
       <use xlink:href="#SimHei-30" x="100"/>
      </g>
     </g>
    </g>
    <g id="xtick_6">
     <g id="line2d_11">
      <path d="M 799.572332 533.30875 
L 799.572332 29.47875 
" clip-path="url(#p34315d24db)" style="fill: none; stroke-dasharray: 2.96,1.28; stroke-dashoffset: 0; stroke: #b0b0b0; stroke-opacity: 0.7; stroke-width: 0.8"/>
     </g>
     <g id="line2d_12">
      <g>
       <use xlink:href="#m1abce70769" x="799.572332" y="533.30875" style="stroke: #000000; stroke-width: 0.8"/>
      </g>
     </g>
     <g id="text_6">
      <!-- 2.5 -->
      <g transform="translate(792.072332 547.18375) scale(0.1 -0.1)">
       <use xlink:href="#SimHei-32"/>
       <use xlink:href="#SimHei-2e" x="50"/>
       <use xlink:href="#SimHei-35" x="100"/>
      </g>
     </g>
    </g>
    <g id="text_7">
     <!-- 训练步数 -->
     <g transform="translate(423.444375 563.425938) scale(0.14 -0.14)">
      <defs>
       <path id="SimHei-8bad" d="M 1650 3300 
Q 1625 2725 1625 2225 
L 1625 675 
Q 1950 1125 2050 1275 
Q 2175 1125 2350 900 
Q 2025 500 1800 212 
Q 1575 -75 1325 -425 
Q 1150 -200 950 -50 
Q 1150 225 1150 625 
L 1150 2875 
L 975 2875 
Q 600 2875 300 2850 
L 300 3325 
Q 600 3300 975 3300 
L 1650 3300 
z
M 3425 4600 
Q 3375 4350 3387 3362 
Q 3400 2375 3337 1887 
Q 3275 1400 3087 837 
Q 2900 275 2450 -375 
Q 2225 -200 1975 -125 
Q 2550 500 2762 1362 
Q 2975 2225 2950 3337 
Q 2925 4450 2900 4675 
Q 3150 4625 3425 4600 
z
M 5875 4700 
Q 5850 4500 5850 3975 
L 5850 625 
Q 5850 125 5875 -400 
L 5400 -400 
Q 5425 125 5425 600 
L 5425 3975 
Q 5425 4500 5400 4700 
L 5875 4700 
z
M 4600 175 
L 4125 175 
Q 4150 725 4150 1150 
L 4150 3600 
Q 4150 4050 4125 4350 
L 4600 4350 
L 4600 175 
z
M 1000 5150 
Q 1650 4600 2100 4100 
Q 1875 3925 1750 3750 
Q 1050 4550 700 4800 
Q 850 4950 1000 5150 
z
" transform="scale(0.015625)"/>
       <path id="SimHei-7ec3" d="M 3300 3825 
Q 2950 3825 2400 3800 
L 2400 4250 
Q 2950 4225 3325 4225 
L 3625 4225 
Q 3875 4950 3900 5175 
Q 4200 5025 4450 4925 
Q 4350 4825 4262 4612 
Q 4175 4400 4100 4225 
L 5025 4225 
Q 5425 4225 5900 4250 
L 5900 3800 
Q 5550 3825 5025 3825 
L 3975 3825 
Q 3850 3525 3700 3150 
L 4675 3150 
Q 4650 2875 4650 2475 
L 4650 1975 
L 4975 1975 
Q 5350 1975 5800 2000 
L 5800 1550 
Q 5350 1575 4975 1575 
L 4650 1575 
L 4650 125 
Q 4650 -300 4462 -425 
Q 4275 -550 3650 -625 
Q 3625 -375 3450 -100 
Q 4075 -125 4137 -25 
Q 4200 75 4200 325 
L 4200 1575 
L 3425 1575 
Q 3250 1575 3100 1562 
Q 2950 1550 2750 1475 
Q 2650 1725 2550 1950 
Q 2800 2025 3125 2775 
Q 2950 2775 2450 2750 
L 2450 3175 
Q 3025 3150 3250 3150 
Q 3400 3525 3500 3825 
L 3300 3825 
z
M 1650 2950 
Q 1875 3300 2100 3900 
Q 2325 3725 2575 3600 
Q 2325 3275 2025 2750 
Q 1725 2225 1075 1350 
Q 1300 1400 2400 1575 
Q 2350 1300 2375 1150 
Q 1825 1100 650 825 
Q 525 1075 400 1275 
Q 625 1400 887 1737 
Q 1150 2075 1450 2575 
Q 1300 2600 1012 2562 
Q 725 2525 450 2450 
Q 350 2675 250 2925 
Q 500 3075 812 3725 
Q 1125 4375 1325 5000 
Q 1600 4825 1850 4750 
Q 1600 4375 1387 3962 
Q 1175 3550 800 2925 
Q 1375 2925 1650 2950 
z
M 2425 700 
Q 2400 425 2425 250 
Q 2000 150 1462 -25 
Q 925 -200 475 -425 
Q 400 -150 300 125 
Q 950 275 1187 337 
Q 1425 400 2425 700 
z
M 3725 875 
Q 3650 800 3287 400 
Q 2925 0 2475 -475 
Q 2300 -250 2150 -125 
Q 2425 100 2750 462 
Q 3075 825 3325 1225 
Q 3475 1050 3725 875 
z
M 5275 1225 
Q 5925 375 6200 -100 
Q 5950 -200 5750 -375 
Q 5475 175 4900 950 
Q 5075 1050 5275 1225 
z
M 4200 1975 
L 4200 2775 
L 3575 2775 
Q 3325 2250 3175 1975 
L 4200 1975 
z
" transform="scale(0.015625)"/>
       <path id="SimHei-6b65" d="M 4800 4250 
Q 5150 4250 5550 4275 
L 5550 3825 
Q 5150 3850 4800 3850 
L 3700 3850 
L 3700 3000 
L 5125 3000 
Q 5675 3000 6100 3025 
L 6100 2550 
Q 5675 2575 5125 2575 
L 1475 2575 
Q 1050 2575 475 2525 
L 475 3025 
Q 1050 3000 1475 3000 
L 1725 3000 
L 1725 3775 
Q 1725 4225 1700 4500 
L 2225 4500 
Q 2200 4175 2200 3775 
L 2200 3000 
L 3225 3000 
Q 3225 4750 3200 5100 
L 3725 5100 
Q 3700 4750 3700 4250 
L 4800 4250 
z
M 3725 2400 
Q 3700 1975 3700 1600 
L 3700 450 
Q 4250 750 4725 1225 
Q 5200 1700 5400 2050 
Q 5650 1825 5900 1700 
Q 5675 1475 5362 1150 
Q 5050 825 4537 437 
Q 4025 50 3212 -225 
Q 2400 -500 800 -650 
Q 725 -400 500 -150 
Q 1275 -150 2100 -25 
Q 2925 100 3225 275 
L 3225 1600 
Q 3225 1975 3200 2400 
L 3725 2400 
z
M 2600 1875 
Q 2275 1600 1975 1275 
Q 1675 950 1075 400 
Q 875 600 700 725 
Q 1175 1075 1562 1512 
Q 1950 1950 2125 2200 
Q 2325 2025 2600 1875 
z
" transform="scale(0.015625)"/>
       <path id="SimHei-6570" d="M 4525 4925 
Q 4475 4800 4400 4587 
Q 4325 4375 4175 3825 
L 5325 3825 
Q 5575 3825 5925 3850 
L 5925 3400 
Q 5650 3425 5500 3425 
Q 5500 3025 5362 2162 
Q 5225 1300 4875 675 
Q 5125 375 5437 137 
Q 5750 -100 6025 -200 
Q 5725 -425 5625 -625 
Q 5325 -450 5075 -225 
Q 4825 0 4575 325 
Q 4300 25 3987 -187 
Q 3675 -400 3200 -650 
Q 3075 -425 2850 -300 
Q 3225 -150 3650 125 
Q 4075 400 4300 675 
Q 4125 1025 3962 1425 
Q 3800 1825 3675 2475 
Q 3600 2275 3425 1950 
Q 3250 2050 3000 2150 
Q 3400 2850 3650 3675 
Q 3900 4500 3975 5100 
Q 4275 4975 4525 4925 
z
M 2100 2250 
Q 2000 2150 1875 1925 
L 3250 1925 
Q 3100 1300 2725 675 
Q 3125 525 3350 400 
Q 3225 225 3125 25 
Q 2900 175 2450 325 
Q 1950 -225 725 -650 
Q 600 -375 400 -275 
Q 1575 0 2000 475 
Q 1300 650 850 775 
Q 1000 1000 1250 1525 
Q 1000 1525 425 1500 
L 425 1950 
Q 900 1925 1400 1925 
Q 1500 2150 1550 2425 
Q 1825 2325 2100 2250 
z
M 1775 3950 
Q 1775 4550 1750 5100 
L 2250 5100 
Q 2225 4575 2225 3950 
Q 3075 3950 3425 3975 
L 3425 3525 
Q 3075 3550 2225 3550 
Q 2225 2825 2250 2425 
L 1750 2425 
Q 1775 2775 1775 3300 
Q 1650 3100 1300 2787 
Q 950 2475 650 2300 
Q 525 2525 275 2625 
Q 500 2700 875 2975 
Q 1250 3250 1450 3550 
Q 950 3550 500 3525 
L 500 3975 
Q 925 3950 1775 3950 
z
M 3975 3175 
Q 4200 1700 4600 1125 
Q 4850 1700 4937 2287 
Q 5025 2875 5050 3425 
L 4075 3425 
L 3975 3175 
z
M 1450 1000 
Q 1750 925 2275 800 
Q 2475 1050 2650 1525 
L 1725 1525 
Q 1600 1275 1450 1000 
z
M 3325 4825 
Q 3200 4625 3125 4450 
Q 3050 4275 2925 4025 
Q 2725 4125 2525 4175 
Q 2725 4500 2900 5000 
Q 3150 4875 3325 4825 
z
M 2575 3375 
Q 2900 3050 3200 2725 
Q 3050 2600 2875 2425 
Q 2525 2850 2300 3100 
Q 2450 3225 2575 3375 
z
M 925 5000 
Q 1275 4650 1500 4300 
L 1125 4075 
Q 950 4425 600 4725 
Q 825 4875 925 5000 
z
" transform="scale(0.015625)"/>
      </defs>
      <use xlink:href="#SimHei-8bad"/>
      <use xlink:href="#SimHei-7ec3" x="100"/>
      <use xlink:href="#SimHei-6b65" x="200"/>
      <use xlink:href="#SimHei-6570" x="300"/>
     </g>
    </g>
    <g id="text_8">
     <!-- 1e6 -->
     <g transform="translate(838.2 558.30875) scale(0.1 -0.1)">
      <defs>
       <path id="SimHei-65" d="M 2850 1075 
Q 2800 625 2450 350 
Q 2100 75 1625 75 
Q 1025 75 637 462 
Q 250 850 250 1525 
Q 250 2200 637 2587 
Q 1025 2975 1625 2975 
Q 2150 2975 2487 2637 
Q 2825 2300 2825 1525 
L 800 1525 
Q 800 975 1037 750 
Q 1275 525 1625 525 
Q 1900 525 2075 662 
Q 2250 800 2300 1075 
L 2850 1075 
z
M 2250 1925 
Q 2200 2275 2025 2412 
Q 1850 2550 1575 2550 
Q 1325 2550 1125 2412 
Q 925 2275 825 1925 
L 2250 1925 
z
" transform="scale(0.015625)"/>
       <path id="SimHei-36" d="M 250 1612 
Q 275 1975 387 2225 
Q 500 2475 725 2850 
L 1750 4450 
L 2325 4450 
L 1275 2800 
Q 1950 2975 2350 2750 
Q 2750 2525 2887 2237 
Q 3025 1950 3037 1612 
Q 3050 1275 2937 950 
Q 2825 625 2537 362 
Q 2250 100 1737 75 
Q 1225 50 862 262 
Q 500 475 362 862 
Q 225 1250 250 1612 
z
M 1025 787 
Q 1250 550 1625 525 
Q 2000 500 2250 775 
Q 2500 1050 2500 1575 
Q 2500 2100 2187 2300 
Q 1875 2500 1487 2450 
Q 1100 2400 925 2075 
Q 750 1750 775 1387 
Q 800 1025 1025 787 
z
" transform="scale(0.015625)"/>
      </defs>
      <use xlink:href="#SimHei-31"/>
      <use xlink:href="#SimHei-65" x="50"/>
      <use xlink:href="#SimHei-36" x="100"/>
     </g>
    </g>
   </g>
   <g id="matplotlib.axis_2">
    <g id="ytick_1">
     <g id="line2d_13">
      <path d="M 49.68875 511.996069 
L 853.2 511.996069 
" clip-path="url(#p34315d24db)" style="fill: none; stroke-dasharray: 2.96,1.28; stroke-dashoffset: 0; stroke: #b0b0b0; stroke-opacity: 0.7; stroke-width: 0.8"/>
     </g>
     <g id="line2d_14">
      <defs>
       <path id="md126786f05" d="M 0 0 
L -3.5 0 
" style="stroke: #000000; stroke-width: 0.8"/>
      </defs>
      <g>
       <use xlink:href="#md126786f05" x="49.68875" y="511.996069" style="stroke: #000000; stroke-width: 0.8"/>
      </g>
     </g>
     <g id="text_9">
      <!-- -30 -->
      <g transform="translate(27.68875 515.433569) scale(0.1 -0.1)">
       <defs>
        <path id="SimHei-2d" d="M 2975 2125 
L 125 2125 
L 125 2525 
L 2975 2525 
L 2975 2125 
z
" transform="scale(0.015625)"/>
        <path id="SimHei-33" d="M 250 1225 
L 700 1300 
Q 800 975 1025 762 
Q 1250 550 1587 562 
Q 1925 575 2125 837 
Q 2325 1100 2300 1437 
Q 2275 1775 2037 1962 
Q 1800 2150 1275 2225 
L 1275 2550 
Q 1800 2600 2037 2825 
Q 2275 3050 2250 3412 
Q 2225 3775 1925 3937 
Q 1625 4100 1287 3975 
Q 950 3850 750 3275 
L 300 3350 
Q 450 3800 712 4100 
Q 975 4400 1425 4450 
Q 1875 4500 2212 4337 
Q 2550 4175 2687 3837 
Q 2825 3500 2725 3100 
Q 2625 2700 2150 2400 
Q 2500 2250 2687 1950 
Q 2875 1650 2812 1162 
Q 2750 675 2375 375 
Q 2000 75 1525 87 
Q 1050 100 700 387 
Q 350 675 250 1225 
z
" transform="scale(0.015625)"/>
       </defs>
       <use xlink:href="#SimHei-2d"/>
       <use xlink:href="#SimHei-33" x="50"/>
       <use xlink:href="#SimHei-30" x="100"/>
      </g>
     </g>
    </g>
    <g id="ytick_2">
     <g id="line2d_15">
      <path d="M 49.68875 444.347722 
L 853.2 444.347722 
" clip-path="url(#p34315d24db)" style="fill: none; stroke-dasharray: 2.96,1.28; stroke-dashoffset: 0; stroke: #b0b0b0; stroke-opacity: 0.7; stroke-width: 0.8"/>
     </g>
     <g id="line2d_16">
      <g>
       <use xlink:href="#md126786f05" x="49.68875" y="444.347722" style="stroke: #000000; stroke-width: 0.8"/>
      </g>
     </g>
     <g id="text_10">
      <!-- -25 -->
      <g transform="translate(27.68875 447.785222) scale(0.1 -0.1)">
       <use xlink:href="#SimHei-2d"/>
       <use xlink:href="#SimHei-32" x="50"/>
       <use xlink:href="#SimHei-35" x="100"/>
      </g>
     </g>
    </g>
    <g id="ytick_3">
     <g id="line2d_17">
      <path d="M 49.68875 376.699375 
L 853.2 376.699375 
" clip-path="url(#p34315d24db)" style="fill: none; stroke-dasharray: 2.96,1.28; stroke-dashoffset: 0; stroke: #b0b0b0; stroke-opacity: 0.7; stroke-width: 0.8"/>
     </g>
     <g id="line2d_18">
      <g>
       <use xlink:href="#md126786f05" x="49.68875" y="376.699375" style="stroke: #000000; stroke-width: 0.8"/>
      </g>
     </g>
     <g id="text_11">
      <!-- -20 -->
      <g transform="translate(27.68875 380.136875) scale(0.1 -0.1)">
       <use xlink:href="#SimHei-2d"/>
       <use xlink:href="#SimHei-32" x="50"/>
       <use xlink:href="#SimHei-30" x="100"/>
      </g>
     </g>
    </g>
    <g id="ytick_4">
     <g id="line2d_19">
      <path d="M 49.68875 309.051028 
L 853.2 309.051028 
" clip-path="url(#p34315d24db)" style="fill: none; stroke-dasharray: 2.96,1.28; stroke-dashoffset: 0; stroke: #b0b0b0; stroke-opacity: 0.7; stroke-width: 0.8"/>
     </g>
     <g id="line2d_20">
      <g>
       <use xlink:href="#md126786f05" x="49.68875" y="309.051028" style="stroke: #000000; stroke-width: 0.8"/>
      </g>
     </g>
     <g id="text_12">
      <!-- -15 -->
      <g transform="translate(27.68875 312.488528) scale(0.1 -0.1)">
       <use xlink:href="#SimHei-2d"/>
       <use xlink:href="#SimHei-31" x="50"/>
       <use xlink:href="#SimHei-35" x="100"/>
      </g>
     </g>
    </g>
    <g id="ytick_5">
     <g id="line2d_21">
      <path d="M 49.68875 241.402682 
L 853.2 241.402682 
" clip-path="url(#p34315d24db)" style="fill: none; stroke-dasharray: 2.96,1.28; stroke-dashoffset: 0; stroke: #b0b0b0; stroke-opacity: 0.7; stroke-width: 0.8"/>
     </g>
     <g id="line2d_22">
      <g>
       <use xlink:href="#md126786f05" x="49.68875" y="241.402682" style="stroke: #000000; stroke-width: 0.8"/>
      </g>
     </g>
     <g id="text_13">
      <!-- -10 -->
      <g transform="translate(27.68875 244.840182) scale(0.1 -0.1)">
       <use xlink:href="#SimHei-2d"/>
       <use xlink:href="#SimHei-31" x="50"/>
       <use xlink:href="#SimHei-30" x="100"/>
      </g>
     </g>
    </g>
    <g id="ytick_6">
     <g id="line2d_23">
      <path d="M 49.68875 173.754335 
L 853.2 173.754335 
" clip-path="url(#p34315d24db)" style="fill: none; stroke-dasharray: 2.96,1.28; stroke-dashoffset: 0; stroke: #b0b0b0; stroke-opacity: 0.7; stroke-width: 0.8"/>
     </g>
     <g id="line2d_24">
      <g>
       <use xlink:href="#md126786f05" x="49.68875" y="173.754335" style="stroke: #000000; stroke-width: 0.8"/>
      </g>
     </g>
     <g id="text_14">
      <!-- -5 -->
      <g transform="translate(32.68875 177.191835) scale(0.1 -0.1)">
       <use xlink:href="#SimHei-2d"/>
       <use xlink:href="#SimHei-35" x="50"/>
      </g>
     </g>
    </g>
    <g id="ytick_7">
     <g id="line2d_25">
      <path d="M 49.68875 106.105988 
L 853.2 106.105988 
" clip-path="url(#p34315d24db)" style="fill: none; stroke-dasharray: 2.96,1.28; stroke-dashoffset: 0; stroke: #b0b0b0; stroke-opacity: 0.7; stroke-width: 0.8"/>
     </g>
     <g id="line2d_26">
      <g>
       <use xlink:href="#md126786f05" x="49.68875" y="106.105988" style="stroke: #000000; stroke-width: 0.8"/>
      </g>
     </g>
     <g id="text_15">
      <!-- 0 -->
      <g transform="translate(37.68875 109.543488) scale(0.1 -0.1)">
       <use xlink:href="#SimHei-30"/>
      </g>
     </g>
    </g>
    <g id="ytick_8">
     <g id="line2d_27">
      <path d="M 49.68875 38.457641 
L 853.2 38.457641 
" clip-path="url(#p34315d24db)" style="fill: none; stroke-dasharray: 2.96,1.28; stroke-dashoffset: 0; stroke: #b0b0b0; stroke-opacity: 0.7; stroke-width: 0.8"/>
     </g>
     <g id="line2d_28">
      <g>
       <use xlink:href="#md126786f05" x="49.68875" y="38.457641" style="stroke: #000000; stroke-width: 0.8"/>
      </g>
     </g>
     <g id="text_16">
      <!-- 5 -->
      <g transform="translate(37.68875 41.895141) scale(0.1 -0.1)">
       <use xlink:href="#SimHei-35"/>
      </g>
     </g>
    </g>
    <g id="text_17">
     <!-- 演员损失值 -->
     <g transform="translate(21.93875 316.39375) rotate(-90) scale(0.14 -0.14)">
      <defs>
       <path id="SimHei-6f14" d="M 4475 3575 
Q 4825 3575 5250 3600 
L 5250 3200 
Q 4850 3225 4475 3225 
L 4175 3225 
L 4175 2700 
L 5675 2700 
Q 5650 2375 5650 2000 
L 5650 1275 
Q 5650 975 5675 625 
L 4750 625 
Q 5025 475 5375 250 
Q 5725 25 6100 -250 
Q 5925 -450 5800 -650 
Q 5425 -350 5075 -112 
Q 4725 125 4425 300 
Q 4600 500 4675 625 
L 2300 625 
Q 2325 975 2325 1275 
L 2325 2000 
Q 2325 2375 2300 2700 
L 3750 2700 
L 3750 3225 
L 3475 3225 
Q 3125 3225 2700 3200 
L 2700 3600 
Q 3150 3575 3450 3575 
L 4475 3575 
z
M 3850 5275 
Q 4125 4825 4275 4475 
L 6100 4475 
Q 6075 4175 6075 3925 
Q 6075 3700 6100 3400 
L 5600 3400 
L 5600 4125 
L 2425 4125 
L 2425 3450 
L 1925 3450 
Q 1950 3750 1950 3975 
Q 1950 4200 1925 4475 
L 3725 4475 
Q 3625 4775 3375 5100 
Q 3650 5175 3850 5275 
z
M 1775 1325 
Q 1500 850 1337 575 
Q 1175 300 1025 37 
Q 875 -225 700 -550 
Q 500 -350 275 -175 
Q 600 200 900 737 
Q 1200 1275 1400 1700 
Q 1575 1500 1775 1325 
z
M 3600 225 
Q 3425 125 3012 -162 
Q 2600 -450 2175 -700 
Q 2025 -500 1850 -350 
Q 2200 -200 2537 12 
Q 2875 225 3200 550 
Q 3375 375 3600 225 
z
M 525 3425 
Q 1275 2975 1550 2750 
Q 1400 2550 1275 2325 
Q 1050 2550 275 3050 
Q 400 3200 525 3425 
z
M 725 5025 
Q 1475 4575 1750 4375 
Q 1575 4225 1475 3975 
Q 750 4550 475 4650 
Q 650 4875 725 5025 
z
M 5200 975 
L 5200 1475 
L 4175 1475 
L 4175 975 
L 5200 975 
z
M 5200 1850 
L 5200 2350 
L 4175 2350 
L 4175 1850 
L 5200 1850 
z
M 3750 1850 
L 3750 2350 
L 2750 2350 
L 2750 1850 
L 3750 1850 
z
M 3750 975 
L 3750 1475 
L 2750 1475 
L 2750 975 
L 3750 975 
z
" transform="scale(0.015625)"/>
       <path id="SimHei-5458" d="M 5225 4950 
Q 5200 4625 5200 4300 
L 5200 3875 
Q 5200 3575 5225 3275 
L 1250 3275 
Q 1275 3575 1275 3875 
L 1275 4300 
Q 1275 4625 1250 4950 
L 5225 4950 
z
M 5400 1375 
Q 5400 1050 5450 750 
L 4850 750 
L 4850 2350 
L 1575 2350 
L 1575 700 
L 1000 700 
Q 1000 975 1025 1250 
L 1025 2025 
Q 1000 2375 1000 2750 
L 5450 2750 
Q 5400 2575 5400 2050 
L 5400 1375 
z
M 4675 3675 
L 4675 4525 
L 1775 4525 
L 1775 3675 
L 4675 3675 
z
M 3575 1900 
Q 3500 1600 3450 1237 
Q 3400 875 3162 500 
Q 2925 125 2350 -187 
Q 1775 -500 650 -700 
Q 600 -375 375 -125 
Q 1125 -100 1650 37 
Q 2175 175 2462 450 
Q 2750 725 2862 1100 
Q 2975 1475 2925 1950 
Q 3400 1900 3575 1900 
z
M 3900 825 
Q 4450 600 4925 387 
Q 5400 175 6050 -175 
Q 5800 -500 5750 -650 
Q 5100 -275 4725 -75 
Q 4350 125 3675 350 
Q 3750 500 3900 825 
z
" transform="scale(0.015625)"/>
       <path id="SimHei-635f" d="M 1175 4600 
Q 1175 4950 1150 5250 
L 1675 5250 
Q 1650 4975 1650 4600 
L 1650 4075 
Q 1950 4075 2325 4100 
L 2325 3625 
Q 1950 3650 1650 3650 
L 1650 2500 
Q 1875 2550 2275 2750 
Q 2275 2550 2300 2300 
Q 2025 2200 1650 2025 
L 1650 175 
Q 1650 -225 1425 -325 
Q 1200 -425 625 -500 
Q 600 -250 450 50 
Q 800 25 987 37 
Q 1175 50 1175 350 
L 1175 1850 
Q 675 1675 400 1500 
Q 375 1800 250 2100 
Q 600 2150 1175 2350 
L 1175 3650 
Q 650 3650 325 3625 
L 325 4100 
Q 625 4075 1175 4075 
L 1175 4600 
z
M 5550 5025 
Q 5525 4650 5525 4275 
Q 5525 3925 5550 3525 
L 2900 3525 
Q 2925 3925 2925 4275 
Q 2925 4650 2900 5025 
L 5550 5025 
z
M 5775 3075 
Q 5750 2725 5750 2350 
L 5750 1725 
Q 5750 1350 5775 875 
L 5275 875 
L 5275 2650 
L 3150 2650 
L 3150 850 
L 2650 850 
Q 2675 1275 2675 1700 
L 2675 2325 
Q 2675 2600 2650 3075 
L 5775 3075 
z
M 4525 2200 
Q 4425 1825 4362 1337 
Q 4300 850 4125 537 
Q 3950 225 3600 -62 
Q 3250 -350 2425 -650 
Q 2325 -450 2050 -175 
Q 2750 -50 3137 200 
Q 3525 450 3700 762 
Q 3875 1075 3900 1462 
Q 3925 1850 3925 2275 
Q 4225 2225 4525 2200 
z
M 5100 3925 
L 5100 4650 
L 3375 4650 
L 3375 3925 
L 5100 3925 
z
M 4675 750 
Q 4975 575 5412 337 
Q 5850 100 6175 -125 
Q 5975 -325 5850 -550 
Q 5525 -300 5200 -87 
Q 4875 125 4375 350 
Q 4550 550 4675 750 
z
" transform="scale(0.015625)"/>
       <path id="SimHei-5931" d="M 2050 4450 
Q 1925 4325 1675 3750 
L 2950 3750 
Q 2950 4650 2925 5100 
Q 3175 5075 3500 5050 
Q 3450 4700 3437 4425 
Q 3425 4150 3425 3750 
L 4600 3750 
Q 5000 3750 5425 3775 
L 5425 3300 
Q 5025 3325 4600 3325 
L 3425 3325 
Q 3425 2775 3375 2200 
L 5050 2200 
Q 5425 2200 5875 2225 
L 5875 1750 
Q 5425 1775 5050 1775 
L 3575 1775 
Q 3875 1100 4600 675 
Q 5325 250 6025 100 
Q 5825 -150 5675 -475 
Q 4950 -200 4250 287 
Q 3550 775 3200 1475 
Q 2900 825 2325 300 
Q 1750 -225 775 -650 
Q 650 -400 400 -175 
Q 1250 50 1912 587 
Q 2575 1125 2775 1775 
L 1325 1775 
Q 925 1775 450 1750 
L 450 2225 
Q 925 2200 1325 2200 
L 2875 2200 
Q 2950 2725 2950 3325 
L 1500 3325 
Q 1200 2800 975 2450 
Q 775 2575 500 2675 
Q 950 3225 1187 3750 
Q 1425 4275 1500 4675 
Q 1800 4525 2050 4450 
z
" transform="scale(0.015625)"/>
       <path id="SimHei-503c" d="M 3675 4450 
L 3675 5100 
Q 3975 5075 4350 5050 
Q 4225 4875 4200 4450 
L 5125 4450 
Q 5550 4450 5875 4475 
L 5875 4025 
Q 5525 4050 5125 4050 
L 4175 4050 
L 4125 3500 
L 5400 3500 
Q 5375 3200 5375 2700 
L 5375 150 
Q 5875 150 6100 175 
L 6100 -275 
Q 5775 -250 5200 -250 
L 2850 -250 
Q 2275 -250 1900 -275 
L 1900 175 
Q 2125 150 2600 150 
L 2600 2700 
Q 2600 3175 2575 3500 
L 3600 3500 
L 3650 4050 
L 3200 4050 
Q 2575 4050 2225 4025 
L 2225 4475 
Q 2550 4450 3200 4450 
L 3675 4450 
z
M 2225 4900 
Q 2025 4675 1650 3750 
L 1650 450 
Q 1650 -75 1675 -550 
L 1150 -550 
Q 1175 -125 1175 375 
L 1175 2950 
Q 875 2450 625 2150 
Q 425 2425 250 2575 
Q 500 2825 937 3537 
Q 1375 4250 1625 5150 
Q 1975 4975 2225 4900 
z
M 4925 2650 
L 4925 3150 
L 3075 3150 
L 3075 2650 
L 4925 2650 
z
M 4925 150 
L 4925 625 
L 3075 625 
L 3075 150 
L 4925 150 
z
M 4925 1000 
L 4925 1450 
L 3075 1450 
L 3075 1000 
L 4925 1000 
z
M 4925 1825 
L 4925 2275 
L 3075 2275 
L 3075 1825 
L 4925 1825 
z
" transform="scale(0.015625)"/>
      </defs>
      <use xlink:href="#SimHei-6f14"/>
      <use xlink:href="#SimHei-5458" x="100"/>
      <use xlink:href="#SimHei-635f" x="200"/>
      <use xlink:href="#SimHei-5931" x="300"/>
      <use xlink:href="#SimHei-503c" x="400"/>
     </g>
    </g>
   </g>
   <g id="line2d_29">
    <path d="M 86.211989 165.643244 
L 87.040083 130.58165 
L 87.496962 59.116691 
L 88.239392 52.380114 
L 88.639161 127.221755 
L 88.753381 173.383364 
L 89.353036 171.002514 
L 90.381015 101.079243 
L 91.151999 233.495037 
L 93.093737 95.082541 
L 93.750502 128.694568 
L 94.807036 166.268989 
L 96.149119 207.35392 
L 96.720219 197.234345 
L 97.177098 150.027157 
L 97.548313 182.244648 
L 98.176522 222.853385 
L 99.261611 123.660052 
L 99.432941 144.771958 
L 100.261036 128.666793 
L 100.9178 146.497911 
L 101.060575 124.725851 
L 101.117685 130.528641 
L 101.574564 131.734057 
L 102.716763 216.527094 
L 103.887517 189.302327 
L 104.058847 148.031711 
L 104.087402 177.308296 
L 104.487172 195.135805 
L 104.972606 228.690011 
L 107.513999 222.136977 
L 107.828103 342.216947 
L 108.656198 185.583105 
L 110.169611 193.765311 
L 110.426606 294.421903 
L 110.997705 209.583335 
L 112.596784 246.71025 
L 114.224417 210.188571 
L 114.681297 248.754495 
L 114.995402 398.076587 
L 115.309506 410.182809 
L 115.852051 244.775835 
L 116.280376 237.869558 
L 117.422574 278.803332 
L 117.822344 316.01969 
L 118.022229 380.21446 
L 118.593328 449.498714 
L 118.935988 510.407386 
L 119.221538 332.29147 
L 119.278648 353.412844 
L 119.507088 248.241579 
L 120.477957 365.367973 
L 121.505936 236.311921 
L 121.591601 309.778442 
L 121.87715 203.205387 
L 121.99137 238.770826 
L 124.104438 268.931415 
L 124.989642 186.774056 
L 126.160396 138.940038 
L 127.302595 174.081256 
L 127.33115 151.287376 
L 128.359129 225.155223 
L 128.816009 217.625685 
L 128.901674 284.460633 
L 129.901098 326.94358 
L 129.986763 372.791655 
L 130.386532 280.466348 
L 131.271737 214.018332 
L 132.156941 256.384611 
L 132.385381 230.907361 
L 133.384805 229.706746 
L 133.813129 193.924565 
L 134.298564 176.013632 
L 134.355674 157.994283 
L 134.555558 178.244976 
L 136.440187 219.878235 
L 138.439035 172.265289 
L 138.81025 167.089201 
L 139.923893 165.92425 
L 140.209443 163.187448 
L 141.094647 181.845742 
L 141.665747 172.588455 
L 141.694302 166.34842 
L 142.208291 160.242065 
L 144.806794 115.505131 
L 145.063789 165.066697 
L 145.349338 118.23786 
L 145.663443 140.606728 
L 148.775935 171.649969 
L 151.916982 160.902455 
L 153.059181 166.886748 
L 154.058605 150.605368 
L 155.257914 150.117606 
L 155.400689 154.928587 
L 155.771904 162.618592 
L 156.000343 155.644675 
L 156.086008 175.655254 
L 156.657108 160.857269 
L 157.171097 151.602936 
L 157.570867 147.46936 
L 157.942082 148.038039 
L 159.284165 193.126153 
L 159.31272 185.176845 
L 159.912375 189.100745 
L 160.711914 170.920884 
L 160.940354 153.042487 
L 161.168794 186.970541 
L 162.339548 185.726353 
L 162.596542 180.991674 
L 163.024867 162.025375 
L 163.281862 188.994812 
L 163.767296 181.664218 
L 163.938626 169.589995 
L 164.309841 177.4253 
L 164.338396 133.934078 
L 164.366951 180.705358 
L 164.738165 158.913002 
L 165.2236 162.549639 
L 165.994584 187.209245 
L 166.908343 147.117263 
L 167.393778 184.549287 
L 170.27783 174.426292 
L 170.591935 170.192219 
L 173.732982 170.713231 
L 173.761537 209.286581 
L 174.332636 165.76857 
L 174.361191 174.289476 
L 174.789516 163.062555 
L 175.50339 166.708611 
L 177.045359 162.287845 
L 177.559348 174.374106 
L 178.244668 145.087618 
L 178.929987 146.842263 
L 179.015652 172.81303 
L 181.52849 151.715911 
L 182.899128 152.631497 
L 184.526762 172.671124 
L 185.154971 187.369912 
L 185.383411 158.06693 
L 185.640406 147.209893 
L 186.382835 163.554181 
L 187.525034 159.052202 
L 187.610699 139.671075 
L 188.495903 166.614232 
L 188.952783 208.799974 
L 190.037872 158.64017 
L 190.123537 129.686722 
L 190.237756 170.012443 
L 190.437641 178.47166 
L 190.523306 157.683853 
L 191.065851 142.338139 
L 191.69406 149.139415 
L 193.093254 183.874388 
L 193.692908 159.278967 
L 195.577536 117.531771 
L 195.634646 156.036123 
L 197.119505 152.136168 
L 197.49072 148.777263 
L 197.66205 171.353725 
L 198.004709 130.086697 
L 198.090374 165.883761 
L 199.204018 161.681577 
L 200.260552 220.745787 
L 200.574657 186.763888 
L 201.259976 169.379459 
L 202.31651 226.510686 
L 203.030385 159.562408 
L 203.373044 188.536863 
L 203.458709 175.876784 
L 204.086919 205.723433 
L 205.086343 177.96815 
L 205.400447 164.754434 
L 206.399871 208.183757 
L 207.256521 189.289695 
L 208.998374 156.134279 
L 209.283924 176.304057 
L 212.88185 135.011783 
L 215.194803 158.07281 
L 215.309023 144.837882 
L 216.022897 145.345221 
L 217.393536 144.907003 
L 218.45007 133.812007 
L 219.620824 117.548959 
L 219.677934 134.544392 
L 219.849264 122.639326 
L 220.106259 149.855316 
L 220.763023 154.884201 
L 222.105107 139.01772 
L 223.67563 130.084618 
L 223.761295 148.986606 
L 223.78985 106.767477 
L 224.01829 139.841119 
L 225.103379 144.963121 
L 225.902918 158.010657 
L 226.445463 138.43298 
L 227.016562 126.497569 
L 227.901766 143.264032 
L 230.728709 123.596639 
L 230.985703 133.14329 
L 231.042813 127.103315 
L 232.242122 150.098042 
L 232.356342 121.484609 
L 232.784667 120.996944 
L 232.898887 140.676555 
L 233.812646 134.843313 
L 234.18386 122.892113 
L 235.268949 127.631172 
L 235.697274 122.213187 
L 235.954269 130.022858 
L 236.039934 143.768206 
L 237.581902 126.777905 
L 237.667567 126.733919 
L 238.809766 116.444485 
L 239.038206 119.323762 
L 239.98052 125.543901 
L 241.179829 120.696443 
L 241.436824 117.851051 
L 241.579599 132.599741 
L 243.007347 134.651199 
L 247.519033 122.908486 
L 249.317996 118.743112 
L 250.117536 125.499867 
L 250.7743 141.344574 
L 252.230604 123.838328 
L 253.201473 124.485129 
L 253.572687 123.721634 
L 255.54298 128.94656 
L 255.77142 134.191739 
L 256.485295 142.996026 
L 256.942174 117.437138 
L 257.284834 123.78491 
L 258.541253 122.394313 
L 260.197441 141.8273 
L 260.825651 129.457379 
L 260.968425 132.698881 
L 261.082645 129.760052 
L 263.452708 127.965746 
L 263.966698 118.938935 
L 264.994677 115.620075 
L 265.594331 119.434611 
L 266.50809 134.467578 
L 266.5652 124.626669 
L 267.25052 117.406756 
L 267.279075 131.350437 
L 267.421849 124.089833 
L 267.564624 126.896557 
L 270.534341 125.226412 
L 272.104865 120.045308 
L 272.618855 116.864322 
L 272.761629 118.733733 
L 273.132844 125.868825 
L 273.275619 120.471901 
L 273.732498 126.097913 
L 273.875273 122.499591 
L 274.132268 135.615581 
L 274.589148 119.725339 
L 276.245336 124.07623 
L 277.58742 131.960786 
L 277.87297 118.335974 
L 278.444069 108.889632 
L 279.928928 119.986334 
L 281.071127 125.452897 
L 281.299566 144.59814 
L 281.556561 131.102889 
L 282.013441 136.506445 
L 283.184195 125.317539 
L 283.26986 113.360276 
L 283.583964 131.528093 
L 285.468593 116.575195 
L 285.525702 107.546174 
L 287.124781 132.831948 
L 288.923744 116.515861 
L 289.009409 113.646759 
L 289.180739 115.792153 
L 290.265828 110.511576 
L 290.665598 119.373952 
L 291.493692 119.263704 
L 293.406875 114.552722 
L 294.377744 109.352693 
L 295.234393 116.480992 
L 295.662718 126.384299 
L 296.062488 115.26476 
L 297.690121 126.630107 
L 298.032781 118.131615 
L 298.83232 116.21506 
L 298.94654 126.98621 
L 299.00365 119.491159 
L 299.34631 115.879627 
L 300.031629 114.985573 
L 300.374289 129.113559 
L 300.602728 126.735497 
L 300.774058 117.279992 
L 301.088163 120.914033 
L 301.373713 115.741525 
L 302.515912 121.949041 
L 302.772906 116.399357 
L 302.830016 121.40429 
L 303.800885 121.262436 
L 303.972215 121.867227 
L 304.429095 128.163799 
L 306.342278 106.227342 
L 306.427943 124.189769 
L 307.170372 119.452525 
L 308.255461 124.215598 
L 308.284016 114.989801 
L 309.026446 114.696591 
L 309.51188 116.145398 
L 309.85454 113.39361 
L 309.997315 121.876165 
L 311.139514 124.893193 
L 311.310843 123.891059 
L 312.110383 122.204428 
L 313.738016 128.668989 
L 315.451315 115.536941 
L 316.365074 116.876161 
L 317.621492 108.928156 
L 318.249702 110.948038 
L 318.792246 118.759225 
L 318.820801 111.004554 
L 319.620341 121.515677 
L 320.30566 125.659037 
L 320.676875 116.797484 
L 322.047513 114.927039 
L 322.447283 112.262175 
L 322.590058 121.72693 
L 324.189136 122.394571 
L 324.503241 121.182225 
L 325.47411 113.222148 
L 325.87388 113.308927 
L 328.158278 127.022518 
L 329.014927 118.41141 
L 329.785911 112.205511 
L 329.957241 119.785139 
L 330.214236 116.510156 
L 331.784759 109.732461 
L 332.041754 127.820311 
L 332.955513 120.138027 
L 333.069733 127.376758 
L 333.954937 122.685788 
L 334.126267 108.172458 
L 334.811586 118.916141 
L 335.611126 112.313088 
L 335.668236 119.165873 
L 336.296445 117.902016 
L 336.353555 123.8675 
L 337.638529 138.825654 
L 337.924079 111.585498 
L 338.837838 121.690749 
L 338.980613 117.1789 
L 339.180497 117.71748 
L 340.322696 115.79901 
L 340.436916 129.433328 
L 342.264434 115.234487 
L 342.864089 127.853036 
L 343.635073 130.899905 
L 344.348948 121.086617 
L 346.033691 105.761283 
L 346.147911 115.841515 
L 347.033115 108.93887 
L 348.746413 121.436921 
L 349.888612 118.342219 
L 351.002256 120.557755 
L 351.344916 129.878922 
L 351.402026 117.516178 
L 351.601911 123.369924 
L 352.030235 120.723601 
L 352.544225 122.546488 
L 352.943995 117.610609 
L 353.315209 115.766408 
L 353.457984 123.115779 
L 353.743534 115.888324 
L 355.713827 124.435929 
L 358.055335 116.785081 
L 358.312329 118.560825 
L 358.569324 118.541272 
L 358.854874 112.103735 
L 359.625858 117.564638 
L 361.853146 116.605941 
L 361.881701 117.683329 
L 362.452801 124.374663 
L 362.79546 114.686585 
L 363.0239 113.560186 
L 364.194654 117.193224 
L 364.223209 115.775662 
L 364.737198 109.031734 
L 365.907952 115.652613 
L 366.222057 122.929654 
L 366.593272 113.672219 
L 366.964486 113.637618 
L 367.449921 122.346926 
L 368.220905 127.392931 
L 368.506455 117.967289 
L 368.87767 123.603789 
L 369.762874 128.938128 
L 369.791429 135.494577 
L 369.819984 122.112346 
L 370.105533 126.706055 
L 370.648078 120.589167 
L 371.047848 121.919054 
L 373.046696 118.419563 
L 373.81768 119.45281 
L 374.702884 116.020982 
L 375.188319 121.98063 
L 376.701732 113.006528 
L 377.187167 124.932844 
L 377.387052 122.559377 
L 378.92902 111.576627 
L 379.243125 116.111074 
L 381.013533 109.012534 
L 381.099198 114.037299 
L 381.127753 111.042939 
L 382.526947 137.354959 
L 383.954696 111.994755 
L 384.126025 121.288545 
L 384.15458 115.270537 
L 384.32591 127.934869 
L 385.553774 127.330783 
L 386.039209 124.635326 
L 387.267072 114.950672 
L 387.609732 125.004837 
L 388.266497 114.350001 
L 389.323031 109.58261 
L 389.60858 137.625765 
L 389.66569 113.654303 
L 391.436099 122.508752 
L 391.721648 116.087988 
L 391.921533 125.695207 
L 392.521188 109.116438 
L 393.263617 114.014108 
L 395.29102 136.851349 
L 396.861543 136.291728 
L 400.430915 115.047216 
L 400.45947 123.809224 
L 400.602245 119.649649 
L 400.830685 126.633977 
L 401.344674 117.297222 
L 402.486873 119.762643 
L 403.172193 111.051632 
L 403.372077 121.079674 
L 404.342946 107.670781 
L 404.657051 120.763322 
L 405.74214 118.235667 
L 406.02769 120.810037 
L 406.25613 113.327641 
L 409.225847 130.189472 
L 409.254402 120.959085 
L 411.338915 122.523836 
L 411.48169 120.42136 
L 412.452559 137.24232 
L 412.595334 121.862307 
L 412.966548 126.653539 
L 413.023658 125.892234 
L 414.822622 115.789009 
L 416.079041 123.208559 
L 416.30748 120.094218 
L 417.249794 128.20365 
L 419.676967 114.969969 
L 420.819166 119.441034 
L 421.390266 121.056284 
L 421.64726 117.397146 
L 422.246915 113.138299 
L 423.132119 128.028354 
L 423.189229 115.419363 
L 423.303449 123.664423 
L 423.903103 120.800117 
L 423.988768 113.867349 
L 424.102988 115.747792 
L 424.559868 113.469948 
L 424.988192 119.177306 
L 427.072705 114.104577 
L 427.55814 114.091595 
L 429.128663 114.950002 
L 430.527857 109.124796 
L 432.2126 109.142943 
L 433.354799 122.502106 
L 433.469019 112.841472 
L 434.354223 129.312196 
L 435.068098 108.793756 
L 436.096077 132.165701 
L 437.038391 124.007595 
L 437.381051 108.509668 
L 438.46614 112.18792 
L 438.808799 119.757238 
L 439.608339 119.645568 
L 439.722558 130.950265 
L 439.779668 119.223743 
L 440.379323 115.172976 
L 440.407878 125.244275 
L 440.836202 136.390503 
L 441.178862 125.306694 
L 441.949846 119.800765 
L 442.006956 121.767465 
L 442.064066 129.033748 
L 444.177134 137.695847 
L 445.519218 117.968929 
L 446.861302 109.88495 
L 448.5746 119.105323 
L 450.687668 112.911364 
L 450.944663 134.973939 
L 454.08571 118.465407 
L 454.19993 120.289386 
L 454.685364 131.573961 
L 455.313574 118.246231 
L 456.113113 113.28337 
L 456.826987 118.497815 
L 457.198202 130.878927 
L 457.597972 114.021234 
L 457.940631 110.741199 
L 457.969186 115.159502 
L 458.283291 114.682261 
L 459.53971 125.701271 
L 462.280987 108.650187 
L 463.394631 118.474672 
L 464.051396 125.28033 
L 464.3655 126.040148 
L 465.593364 116.061755 
L 467.991982 130.465307 
L 468.848631 127.531755 
L 469.905165 116.761132 
L 471.818348 117.173605 
L 472.103898 115.752032 
L 472.617888 122.505936 
L 472.846328 116.969015 
L 473.702977 118.166797 
L 474.702401 108.349956 
L 475.244945 127.307947 
L 475.302055 123.215086 
L 475.38772 130.429404 
L 475.758935 115.037287 
L 477.358013 122.934272 
L 477.929113 113.37299 
L 479.813741 113.075535 
L 480.641835 118.341452 
L 481.155825 117.430031 
L 482.326579 110.758281 
L 483.069008 115.807989 
L 484.639531 116.649411 
L 484.896526 120.11025 
L 485.638956 122.790945 
L 486.781154 119.085821 
L 488.380233 119.506658 
L 488.694338 115.211372 
L 489.094107 113.363174 
L 489.465322 122.627811 
L 489.979312 110.391372 
L 490.521856 112.398015 
L 490.835961 126.356871 
L 491.007291 115.337942 
L 491.34995 119.24714 
L 491.835385 118.032223 
L 492.834809 117.23511 
L 493.034694 141.283656 
L 495.433311 120.002351 
L 495.576086 123.141322 
L 495.775971 113.572415 
L 495.947301 116.228925 
L 496.86106 122.623456 
L 496.889615 133.31382 
L 497.03239 122.039417 
L 497.43216 120.422623 
L 497.660599 120.927809 
L 497.689154 117.697474 
L 499.573783 114.731464 
L 499.630892 117.814643 
L 500.744536 109.338898 
L 501.943845 115.391432 
L 503.257374 133.327516 
L 503.885584 118.299676 
L 506.741081 118.557978 
L 507.169405 119.928632 
L 507.65484 111.273956 
L 507.88328 114.292858 
L 508.854149 114.415861 
L 509.767908 127.732978 
L 510.253343 116.564681 
L 511.138547 122.059196 
L 511.880976 116.755518 
L 512.309301 113.956706 
L 514.565144 122.635475 
L 515.878672 118.494161 
L 515.907227 118.537075 
L 516.021447 120.756574 
L 517.163646 118.481625 
L 517.449196 118.257761 
L 517.563416 115.025733 
L 517.963185 120.527198 
L 518.39151 115.678394 
L 519.048274 133.770689 
L 519.305269 113.193487 
L 519.705039 123.708915 
L 523.103081 119.590305 
L 523.55996 111.083156 
L 524.359499 122.372804 
L 524.616494 117.614782 
L 525.444588 108.458524 
L 525.987133 115.20278 
L 526.444012 113.868088 
L 526.615342 114.103059 
L 527.043667 111.611218 
L 527.214997 119.21135 
L 528.014536 115.768598 
L 528.071646 111.03598 
L 531.441133 118.643181 
L 532.097897 118.063526 
L 532.240672 109.91282 
L 533.097321 116.621013 
L 534.35374 119.251653 
L 534.63929 109.124995 
L 535.410274 110.261023 
L 535.724379 141.667446 
L 536.666693 133.446326 
L 536.895133 109.125304 
L 537.437677 111.429442 
L 537.751782 118.799888 
L 538.951091 125.5934 
L 540.350284 120.652367 
L 542.948787 115.143231 
L 543.491332 121.154516 
L 544.74775 115.000138 
L 545.575845 122.765659 
L 545.918504 122.424888 
L 546.146944 117.587919 
L 547.860242 122.284442 
L 547.888797 111.880702 
L 549.316546 116.565543 
L 549.459321 114.304654 
L 549.630651 114.261184 
L 551.515279 127.769677 
L 552.457593 118.861075 
L 553.771122 125.179439 
L 554.313666 121.984214 
L 554.399331 117.967816 
L 554.770546 121.712289 
L 558.397028 115.168068 
L 559.796221 121.954465 
L 559.853331 121.455176 
L 560.138881 135.346797 
L 561.138305 119.446186 
L 561.3953 118.560722 
L 563.451258 110.746418 
L 563.565478 120.755508 
L 565.221666 129.222437 
L 566.39242 120.242708 
L 567.249069 128.596014 
L 567.306179 114.410305 
L 567.705949 127.514786 
L 567.791614 121.341467 
L 568.476933 122.020136 
L 569.619132 116.714574 
L 569.733352 123.131575 
L 571.189656 125.912946 
L 571.589425 115.639183 
L 572.674514 120.993252 
L 572.760179 122.751172 
L 573.302724 120.57051 
L 574.559143 118.88246 
L 574.759027 129.562705 
L 575.215907 121.079124 
L 575.558567 120.709074 
L 577.671635 120.244145 
L 577.728745 121.12622 
L 578.271289 112.027859 
L 578.928053 118.943693 
L 579.156493 116.744641 
L 582.383205 131.510433 
L 583.211299 117.119607 
L 583.439739 116.450954 
L 585.838357 116.36128 
L 587.208996 117.061294 
L 588.750964 111.871072 
L 589.179289 120.992565 
L 589.207844 125.514505 
L 589.636168 115.079655 
L 590.292933 121.87282 
L 590.778367 110.900376 
L 591.035362 117.137434 
L 592.006231 123.444261 
L 592.86288 118.310615 
L 593.062765 121.339366 
L 594.376294 121.754955 
L 595.775488 115.69058 
L 596.061037 119.6859 
L 596.260922 134.893312 
L 596.289477 110.867849 
L 596.403697 119.579436 
L 597.831446 119.514332 
L 598.31688 118.969295 
L 598.65954 147.508669 
L 599.830294 127.550129 
L 599.915959 112.408978 
L 600.686943 108.20898 
L 600.886828 123.029055 
L 601.515037 118.616249 
L 601.971917 120.72862 
L 602.200357 115.73855 
L 602.800011 128.83389 
L 603.142671 133.786047 
L 603.48533 120.14858 
L 603.59955 123.962548 
L 605.598399 116.234789 
L 607.568692 110.59305 
L 609.16777 121.986585 
L 609.538985 116.417167 
L 611.223728 120.669152 
L 611.252283 118.513876 
L 611.594943 133.213364 
L 611.937603 130.146003 
L 612.365927 133.094266 
L 612.651477 122.094548 
L 613.051247 121.277898 
L 613.422461 111.295206 
L 613.679456 115.65277 
L 614.593215 110.023716 
L 616.420733 131.266885 
L 617.277383 116.35981 
L 617.420157 115.920539 
L 617.448712 114.988985 
L 618.105477 123.890538 
L 621.332189 114.919295 
L 621.360744 112.904699 
L 621.532074 129.584598 
L 621.617739 121.567328 
L 621.960398 126.640357 
L 622.388723 114.22509 
L 624.587456 125.455821 
L 625.329885 125.048088 
L 625.501215 118.916131 
L 625.52977 120.823156 
L 627.243068 111.04756 
L 627.985498 129.641924 
L 629.270471 130.309959 
L 629.356136 122.867027 
L 629.984346 117.071315 
L 631.069435 126.879586 
L 631.354984 124.836724 
L 631.469204 131.970522 
L 631.497759 119.903978 
L 634.210482 117.169627 
L 634.267592 113.07618 
L 634.410367 126.13945 
L 636.180775 118.720686 
L 637.351529 119.955132 
L 638.779278 119.16381 
L 639.007717 122.224408 
L 639.436042 111.094109 
L 639.721592 118.445625 
L 639.835812 134.590607 
L 640.235581 108.421136 
L 641.520555 107.707649 
L 641.77755 123.137623 
L 642.462869 115.060477 
L 642.548534 123.592868 
L 643.833508 115.978307 
L 645.860911 121.904068 
L 646.31779 114.603348 
L 646.917445 118.520687 
L 647.11733 127.233719 
L 648.259529 127.018459 
L 650.029937 125.466385 
L 650.087047 119.426635 
L 652.257225 123.259612 
L 652.828324 120.376921 
L 653.799193 119.618679 
L 654.256073 106.638042 
L 654.570178 109.466353 
L 656.254921 127.26417 
L 656.283476 126.753296 
L 656.397696 112.212308 
L 656.768911 115.574738 
L 657.197235 133.183646 
L 658.939089 116.144917 
L 660.623832 115.520552 
L 665.678062 107.213441 
L 666.277717 128.636397 
L 667.134366 135.203646 
L 668.048125 120.377979 
L 668.30512 119.34861 
L 668.847664 107.056038 
L 669.361654 123.541242 
L 670.875068 112.960196 
L 671.446167 113.197903 
L 672.074376 117.156787 
L 672.731141 113.598027 
L 673.216575 125.177184 
L 673.30224 113.546862 
L 673.387905 116.003366 
L 674.444439 124.455509 
L 675.243978 116.568084 
L 675.757968 121.831957 
L 675.815078 119.843768 
L 678.185141 110.159818 
L 678.499245 124.525782 
L 679.27023 121.819663 
L 680.726533 106.688332 
L 680.812198 120.87731 
L 683.839025 117.798764 
L 683.953245 117.851817 
L 684.581455 127.111076 
L 684.752785 111.746787 
L 685.123999 122.833905 
L 685.352439 120.439171 
L 686.380418 130.22311 
L 686.837298 131.372227 
L 688.893256 113.305771 
L 689.036031 116.481235 
L 689.66424 127.215262 
L 689.72135 125.021498 
L 690.06401 122.471916 
L 690.292449 121.791385 
L 690.463779 109.125955 
L 691.206209 116.097955 
L 691.320428 107.719532 
L 692.005748 124.677138 
L 692.319853 112.310527 
L 692.976617 125.16497 
L 693.319277 127.547165 
L 694.233036 123.851058 
L 696.488879 118.186834 
L 697.316973 122.47864 
L 697.631078 120.195553 
L 698.630502 116.532809 
L 698.944606 127.837306 
L 701.971434 126.770544 
L 702.028543 118.878671 
L 702.285538 122.398486 
L 702.399758 116.937446 
L 702.428313 119.533562 
L 702.628198 132.442573 
L 703.085077 121.390319 
L 703.227852 113.913348 
L 704.541381 120.576822 
L 704.655601 117.679118 
L 704.712711 120.605625 
L 705.826355 137.142513 
L 705.91202 119.389597 
L 706.311789 113.1125 
L 708.539077 117.985645 
L 708.738962 108.175802 
L 709.481391 113.0838 
L 715.706376 128.486191 
L 716.391695 113.008652 
L 717.134124 133.007886 
L 717.162679 119.872445 
L 717.790889 128.950769 
L 718.076438 137.640487 
L 718.533318 117.001899 
L 719.190082 114.195139 
L 720.446501 131.953095 
L 721.70292 118.101188 
L 721.98847 109.971334 
L 722.04558 124.812032 
L 722.245465 126.916655 
L 722.673789 125.1878 
L 724.701192 120.445398 
L 724.758302 126.10378 
L 725.814836 108.055524 
L 727.185475 120.991533 
L 727.785129 125.083471 
L 728.584669 122.600871 
L 728.813108 118.48627 
L 729.098658 119.311468 
L 730.098082 121.36003 
L 731.154616 114.419124 
L 732.32537 107.91903 
L 732.72514 123.92784 
L 733.953004 117.169614 
L 734.809653 125.937533 
L 735.494972 124.746479 
L 736.180292 111.04111 
L 736.208847 127.40162 
L 739.264229 126.578054 
L 740.206543 113.089672 
L 740.977527 107.8037 
L 741.976951 116.183019 
L 742.148281 134.566782 
L 742.262501 113.773694 
L 743.975799 113.073103 
L 744.118574 124.16143 
L 744.489789 114.427511 
L 745.146553 124.868879 
L 745.489213 118.664834 
L 747.659391 114.165862 
L 748.80159 118.131341 
L 749.943789 123.597533 
L 750.029454 117.415227 
L 750.971768 117.373681 
L 751.599977 116.189345 
L 751.885527 115.931736 
L 752.799286 121.357436 
L 753.256166 110.709239 
L 754.055705 122.883078 
L 754.08426 122.594221 
L 756.739872 114.0197 
L 757.824961 122.312888 
L 759.281265 116.506097 
L 759.338375 126.165321 
L 760.366354 115.761318 
L 760.880343 115.92748 
L 760.966008 115.833044 
L 762.964857 125.442749 
L 764.30694 120.613991 
L 765.192144 112.588353 
L 765.791799 116.66551 
L 767.276658 118.717974 
L 768.904291 117.263585 
L 769.64672 115.684293 
L 771.759788 111.843717 
L 772.073893 108.701865 
L 772.159558 116.563989 
L 773.016207 126.827381 
L 773.187537 112.922727 
L 774.472511 116.568665 
L 777.299453 126.7073 
L 779.041307 116.228388 
L 779.726626 119.256076 
L 779.897956 132.508585 
L 780.49761 127.035374 
L 781.18293 107.128902 
L 781.811139 111.01823 
L 782.182354 114.036896 
L 783.438772 118.666898 
L 784.409642 115.543431 
L 784.523861 138.667877 
L 785.066406 114.817794 
L 788.321673 115.382444 
L 788.892772 109.216058 
L 789.178322 119.795465 
L 789.892196 121.871404 
L 791.12006 129.610053 
L 791.51983 102.765932 
L 792.662029 121.56325 
L 792.919024 105.562834 
L 794.261107 108.773257 
L 794.375327 121.048439 
L 794.660877 121.061907 
L 794.974982 125.294306 
L 795.089202 113.892095 
L 795.403306 129.09254 
L 796.002961 118.042683 
L 796.202845 120.807241 
L 796.8025 119.763915 
L 797.801924 116.939007 
L 798.373023 137.594189 
L 798.430133 117.124866 
L 798.915568 123.850839 
L 799.315338 123.206783 
L 801.085746 122.261117 
L 801.142856 110.650455 
L 801.542625 120.296366 
L 802.770489 117.825204 
L 803.056039 139.039984 
L 804.255348 119.714699 
L 804.540898 119.477311 
L 804.912112 127.826856 
L 806.054311 114.506431 
L 806.682521 109.463215 
L 807.36784 120.741457 
L 810.937212 115.905698 
L 812.25074 121.563518 
L 812.450625 110.877183 
L 812.907505 116.66403 
L 816.676761 116.218731 
L 816.676761 116.218731 
" clip-path="url(#p34315d24db)" style="fill: none; stroke: #008000; stroke-opacity: 0.5; stroke-width: 1.5; stroke-linecap: square"/>
   </g>
   <g id="line2d_30">
    <path d="M 118.022229 190.983221 
L 118.593328 196.66033 
L 119.221538 209.447929 
L 119.278648 215.333852 
L 119.507088 219.251082 
L 120.477957 224.014006 
L 121.448826 225.547268 
L 121.591601 231.02744 
L 121.99137 232.46958 
L 124.104438 235.414219 
L 124.989642 237.24805 
L 127.302595 237.609204 
L 127.33115 236.487873 
L 128.359129 237.046291 
L 128.816009 238.398262 
L 128.901674 240.442581 
L 129.901098 242.524385 
L 129.986763 246.984152 
L 130.386532 250.120278 
L 131.271737 251.505205 
L 132.156941 254.059562 
L 132.385381 255.747751 
L 133.384805 257.847369 
L 133.813129 259.115287 
L 134.298564 260.000879 
L 134.355674 258.830223 
L 134.555558 258.609076 
L 136.440187 260.046006 
L 138.439035 259.945146 
L 138.81025 259.384214 
L 139.923893 258.128899 
L 141.094647 253.742484 
L 141.665747 253.482591 
L 141.694302 252.934253 
L 142.208291 250.250656 
L 144.806794 248.369092 
L 145.663443 242.734252 
L 148.775935 238.205719 
L 151.916982 233.220112 
L 153.059181 231.66233 
L 154.058605 229.917047 
L 155.257914 227.343332 
L 155.400689 224.12151 
L 155.771904 219.769593 
L 156.000343 213.892512 
L 156.086008 207.197469 
L 156.657108 203.768785 
L 157.171097 199.732587 
L 157.570867 197.717143 
L 157.942082 193.370544 
L 159.284165 192.232138 
L 159.31272 191.209436 
L 159.912375 188.795882 
L 160.711914 188.150192 
L 161.168794 184.796408 
L 162.339548 184.775454 
L 162.596542 185.616486 
L 163.024867 185.375369 
L 163.281862 186.129518 
L 163.767296 185.259697 
L 164.309841 182.158277 
L 164.366951 174.456361 
L 164.738165 172.025294 
L 166.622794 168.218491 
L 166.908343 166.566701 
L 167.393778 166.379196 
L 170.27783 166.347449 
L 170.591935 166.591408 
L 173.732982 166.440773 
L 173.761537 166.22894 
L 174.332636 166.099006 
L 174.361191 166.243011 
L 174.789516 166.185777 
L 175.50339 166.2562 
L 177.045359 165.865042 
L 177.559348 165.900755 
L 178.244668 165.475539 
L 178.929987 165.207543 
L 179.015652 166.353701 
L 181.52849 166.086686 
L 182.899128 166.774558 
L 185.383411 167.673535 
L 185.640406 167.279998 
L 186.382835 167.538974 
L 187.525034 167.717666 
L 187.610699 167.412515 
L 188.495903 167.492428 
L 188.952783 168.555534 
L 190.037872 168.215233 
L 190.123537 167.591822 
L 190.523306 168.772974 
L 191.065851 167.757214 
L 191.69406 167.036465 
L 193.093254 166.931938 
L 195.577536 165.988885 
L 195.634646 165.370197 
L 197.119505 164.698393 
L 197.49072 164.054105 
L 197.66205 164.240672 
L 198.090374 162.746901 
L 199.204018 162.588732 
L 200.260552 163.455142 
L 200.574657 164.511738 
L 201.259976 164.28522 
L 202.31651 165.637174 
L 203.373044 165.603982 
L 203.458709 165.897292 
L 204.086919 167.069415 
L 205.086343 166.937792 
L 205.400447 166.744355 
L 206.399871 167.504186 
L 207.256521 167.875715 
L 208.998374 166.812669 
L 209.283924 167.023379 
L 212.88185 166.237825 
L 215.194803 166.13803 
L 215.309023 165.700616 
L 217.393536 164.772421 
L 218.45007 164.546909 
L 219.620824 163.961043 
L 219.677934 163.19567 
L 219.849264 162.614138 
L 220.106259 162.558615 
L 220.763023 162.202876 
L 222.105107 161.235833 
L 223.761295 160.711721 
L 223.78985 159.575986 
L 224.01829 159.191765 
L 225.103379 159.297606 
L 225.902918 159.125534 
L 226.445463 157.718194 
L 227.016562 157.075342 
L 227.901766 157.346889 
L 230.728709 156.418572 
L 230.985703 155.512005 
L 231.042813 154.900394 
L 232.242122 155.055592 
L 232.356342 154.502496 
L 232.898887 152.872899 
L 233.812646 153.21913 
L 234.18386 152.55625 
L 234.897735 152.030786 
L 235.268949 151.607864 
L 235.697274 150.625053 
L 235.954269 150.623777 
L 236.039934 150.181466 
L 236.896583 149.62802 
L 237.581902 147.748662 
L 237.667567 146.548062 
L 238.809766 145.489363 
L 239.038206 143.345625 
L 239.98052 142.665254 
L 241.179829 141.308446 
L 241.436824 140.147931 
L 241.579599 138.685458 
L 243.007347 137.819118 
L 247.519033 136.9822 
L 249.317996 135.193387 
L 250.117536 133.91759 
L 250.7743 133.621796 
L 252.230604 132.572481 
L 253.201473 132.361948 
L 253.572687 131.674925 
L 255.54298 131.357098 
L 255.77142 131.134029 
L 256.485295 131.095809 
L 256.942174 130.768312 
L 257.284834 130.893031 
L 258.541253 130.650029 
L 260.197441 131.033789 
L 260.825651 130.62583 
L 261.082645 129.99697 
L 263.452708 129.954593 
L 263.966698 129.353639 
L 264.994677 129.530691 
L 265.594331 129.122561 
L 266.50809 128.91265 
L 266.5652 128.244971 
L 267.25052 127.824446 
L 267.279075 127.921503 
L 267.421849 127.538019 
L 267.564624 127.604018 
L 272.104865 127.30452 
L 272.761629 126.584828 
L 273.132844 126.682266 
L 273.275619 126.278173 
L 273.875273 126.095414 
L 274.132268 126.290466 
L 274.589148 126.13235 
L 277.58742 126.208369 
L 277.87297 125.699724 
L 278.444069 125.197332 
L 281.071127 125.03588 
L 281.299566 125.598953 
L 281.556561 125.834535 
L 282.013441 126.053786 
L 283.26986 126.056393 
L 283.583964 126.03496 
L 285.468593 125.577132 
L 285.525702 125.353193 
L 287.124781 125.499835 
L 288.923744 125.003261 
L 289.180739 124.62557 
L 290.665598 124.169917 
L 293.406875 123.270147 
L 294.377744 122.981502 
L 295.234393 122.863236 
L 296.062488 122.270523 
L 297.690121 122.149148 
L 298.032781 121.916579 
L 298.83232 121.681565 
L 299.00365 121.919933 
L 299.34631 121.848833 
L 300.031629 121.459193 
L 300.374289 121.548931 
L 300.602728 121.735505 
L 300.774058 121.454097 
L 301.088163 121.390581 
L 301.373713 121.16748 
L 302.830016 121.119813 
L 304.429095 121.244193 
L 306.427943 120.880585 
L 307.170372 120.557324 
L 308.255461 120.647129 
L 308.284016 120.465401 
L 309.026446 120.120117 
L 309.51188 120.076305 
L 309.997315 120.204181 
L 311.139514 120.192987 
L 311.310843 119.778846 
L 312.110383 119.600876 
L 315.451315 119.248515 
L 316.365074 119.318833 
L 318.249702 118.723933 
L 318.820801 118.836781 
L 319.620341 118.610455 
L 320.676875 118.856333 
L 322.590058 118.921103 
L 324.503241 119.090965 
L 325.47411 119.232999 
L 325.87388 119.169558 
L 329.014927 119.245255 
L 329.957241 118.989834 
L 330.214236 118.995736 
L 331.784759 118.650661 
L 332.041754 118.817244 
L 332.955513 118.902412 
L 333.069733 119.150235 
L 333.954937 119.02168 
L 334.126267 118.650419 
L 335.611126 118.537982 
L 335.668236 118.482318 
L 336.353555 118.561636 
L 337.638529 118.9129 
L 337.924079 118.707265 
L 338.837838 118.577804 
L 338.980613 118.796836 
L 339.180497 118.66739 
L 340.322696 118.59432 
L 340.436916 118.698674 
L 342.264434 118.703568 
L 343.635073 119.261787 
L 344.348948 119.415647 
L 346.033691 119.093349 
L 346.147911 118.912316 
L 347.033115 118.613272 
L 348.746413 118.597922 
L 349.888612 118.391387 
L 351.002256 118.491803 
L 351.402026 118.923619 
L 351.601911 119.172056 
L 352.030235 119.211344 
L 352.544225 119.442182 
L 352.943995 119.364081 
L 353.315209 119.166228 
L 353.457984 119.292594 
L 355.713827 119.555295 
L 358.569324 119.326964 
L 358.854874 119.213339 
L 359.625858 119.300189 
L 361.853146 119.36613 
L 361.881701 119.179346 
L 362.79546 119.348232 
L 363.0239 119.223733 
L 364.194654 119.237395 
L 364.223209 119.358259 
L 364.737198 118.982487 
L 366.222057 118.803837 
L 366.593272 118.623565 
L 368.87767 119.209496 
L 369.762874 119.430219 
L 369.791429 119.66276 
L 369.819984 119.328494 
L 370.105533 119.630905 
L 370.648078 119.695254 
L 371.047848 119.779285 
L 373.046696 119.831697 
L 373.81768 119.632086 
L 374.702884 119.647816 
L 376.701732 119.1725 
L 377.187167 119.249425 
L 377.387052 119.585387 
L 378.92902 119.500089 
L 379.243125 119.643533 
L 381.099198 119.308947 
L 381.127753 119.118651 
L 382.526947 119.268171 
L 384.126025 119.116115 
L 384.15458 119.007054 
L 384.32591 119.114822 
L 386.039209 119.486604 
L 387.267072 119.323301 
L 387.609732 119.505632 
L 388.266497 119.303913 
L 389.323031 119.159864 
L 389.60858 119.541163 
L 389.66569 119.443423 
L 391.921533 119.803776 
L 393.263617 119.425227 
L 396.861543 120.323153 
L 400.430915 120.428197 
L 400.45947 120.723747 
L 400.830685 120.877774 
L 402.486873 121.072774 
L 403.172193 120.846869 
L 403.343522 120.672223 
L 403.372077 120.734471 
L 405.85636 119.852281 
L 406.25613 119.570955 
L 411.48169 119.971688 
L 412.452559 120.276922 
L 412.595334 120.454037 
L 416.079041 120.781305 
L 416.30748 121.002939 
L 417.249794 121.286266 
L 419.676967 121.364807 
L 420.819166 121.006528 
L 421.390266 121.187759 
L 421.64726 121.109931 
L 423.132119 121.069156 
L 423.303449 120.811509 
L 423.903103 120.928498 
L 423.988768 120.705748 
L 424.559868 120.811451 
L 424.816862 120.417935 
L 424.988192 120.528395 
L 432.2126 120.008224 
L 433.354799 119.721239 
L 433.469019 119.252234 
L 434.354223 119.375 
L 435.068098 119.249931 
L 437.038391 119.471345 
L 437.381051 119.295594 
L 438.46614 119.144099 
L 438.808799 119.318211 
L 439.608339 119.337909 
L 439.779668 119.76638 
L 440.379323 119.654574 
L 440.407878 119.794746 
L 440.836202 120.135164 
L 441.949846 120.354559 
L 442.006956 120.186119 
L 442.064066 120.347612 
L 444.177134 120.654641 
L 445.519218 120.563543 
L 450.687668 119.811056 
L 450.944663 119.977464 
L 454.19993 119.918935 
L 454.685364 120.086243 
L 455.313574 120.049283 
L 456.227333 119.735948 
L 456.826987 119.717084 
L 457.198202 119.913537 
L 457.940631 119.798076 
L 457.969186 119.540699 
L 462.280987 119.323696 
L 463.394631 119.415842 
L 464.051396 119.606493 
L 464.3655 119.857897 
L 465.593364 119.820132 
L 466.878338 119.906589 
L 468.848631 120.502607 
L 471.818348 120.699805 
L 472.103898 120.831987 
L 472.846328 120.914615 
L 473.702977 120.691707 
L 475.244945 120.585676 
L 475.302055 120.550173 
L 475.38772 120.678609 
L 475.758935 120.809161 
L 477.358013 121.024088 
L 477.929113 120.896403 
L 479.813741 120.765003 
L 480.641835 120.512826 
L 482.326579 120.388658 
L 484.896526 119.701182 
L 485.638956 119.760985 
L 486.781154 119.707353 
L 488.380233 119.516811 
L 488.694338 119.067121 
L 489.094107 118.975006 
L 489.465322 119.229863 
L 489.979312 119.055584 
L 490.521856 119.045317 
L 491.007291 118.810427 
L 491.34995 118.789582 
L 491.835385 118.518747 
L 492.834809 118.498525 
L 493.034694 119.05853 
L 495.576086 119.266977 
L 495.775971 118.920847 
L 496.86106 119.202646 
L 496.889615 119.565732 
L 497.03239 119.712875 
L 497.43216 119.607303 
L 497.689154 119.837311 
L 499.573783 119.626334 
L 499.630892 119.461824 
L 501.943845 119.165193 
L 503.257374 119.222437 
L 503.885584 119.037795 
L 507.65484 119.039271 
L 507.88328 118.87501 
L 508.854149 118.823947 
L 509.767908 119.01527 
L 510.139123 119.248636 
L 510.253343 119.033771 
L 511.138547 119.010653 
L 512.309301 118.596723 
L 516.021447 118.960789 
L 517.963185 119.140116 
L 518.39151 118.997865 
L 519.048274 119.291563 
L 519.305269 119.165299 
L 519.705039 119.33525 
L 523.103081 119.459793 
L 523.55996 119.2289 
L 524.359499 119.566612 
L 524.616494 119.391771 
L 526.615342 119.027371 
L 527.043667 118.433923 
L 528.014536 118.270648 
L 528.071646 118.219919 
L 532.097897 118.177006 
L 532.240672 117.708986 
L 533.097321 117.600618 
L 534.35374 117.577198 
L 534.63929 117.341142 
L 535.410274 117.192413 
L 535.724379 117.731133 
L 536.895133 118.039495 
L 537.437677 117.960255 
L 537.751782 117.669702 
L 538.951091 117.815577 
L 542.948787 117.95371 
L 543.491332 118.090943 
L 547.860242 118.076384 
L 547.888797 117.974154 
L 549.402211 118.00256 
L 549.459321 117.835943 
L 549.630651 117.751284 
L 551.515279 117.935936 
L 552.457593 117.898026 
L 554.770546 118.189055 
L 558.397028 118.178848 
L 559.796221 117.942524 
L 559.853331 118.107757 
L 560.138881 118.340515 
L 561.138305 118.337633 
L 561.3953 118.487184 
L 563.565478 118.323722 
L 566.39242 118.791559 
L 567.306179 119.070268 
L 567.705949 119.338502 
L 567.791614 119.533107 
L 569.619132 119.608202 
L 569.733352 119.850114 
L 572.674514 120.168631 
L 572.760179 120.291235 
L 573.302724 120.317612 
L 574.559143 120.512761 
L 574.730472 120.847559 
L 574.759027 120.605465 
L 575.215907 120.358121 
L 575.558567 120.589796 
L 577.728745 120.812617 
L 578.642504 120.433483 
L 579.156493 120.431337 
L 583.211299 120.680845 
L 583.439739 120.554551 
L 588.750964 120.214479 
L 589.179289 120.396716 
L 589.207844 120.575695 
L 589.636168 120.565949 
L 590.292933 120.717312 
L 590.778367 120.650096 
L 591.035362 120.437451 
L 592.006231 120.529115 
L 593.062765 120.378841 
L 594.376294 120.454584 
L 595.775488 120.33415 
L 596.061037 120.424506 
L 596.260922 120.683283 
L 596.403697 120.15619 
L 598.31688 120.165724 
L 598.65954 120.900969 
L 599.830294 121.036861 
L 599.915959 120.700592 
L 600.886828 120.348579 
L 601.515037 120.432697 
L 602.200357 120.184916 
L 602.800011 120.321191 
L 603.142671 120.66262 
L 603.371111 120.695151 
L 603.48533 120.579864 
L 603.59955 120.746331 
L 605.598399 120.651162 
L 607.568692 120.407999 
L 609.538985 120.387015 
L 611.223728 120.260379 
L 611.252283 120.039403 
L 612.365927 120.727828 
L 612.651477 120.747195 
L 613.051247 120.932196 
L 614.593215 120.648254 
L 617.791372 120.653376 
L 618.105477 120.893765 
L 621.332189 120.7723 
L 621.360744 120.520104 
L 621.617739 120.804093 
L 621.960398 121.118892 
L 622.388723 121.060646 
L 624.587456 121.100877 
L 625.52977 121.168525 
L 627.243068 121.075665 
L 627.985498 121.274786 
L 629.270471 121.183119 
L 629.356136 121.423102 
L 629.984346 121.37294 
L 631.354984 121.637593 
L 631.497759 121.173907 
L 634.267592 121.366464 
L 634.410367 121.428672 
L 639.007717 121.351607 
L 639.436042 120.897768 
L 639.721592 120.771518 
L 639.835812 121.060359 
L 640.235581 120.749531 
L 641.520555 120.578988 
L 641.77755 120.829879 
L 642.462869 120.691357 
L 642.548534 120.834871 
L 643.833508 120.741054 
L 645.860911 120.808858 
L 646.31779 120.436658 
L 647.11733 120.08694 
L 652.257225 120.583954 
L 652.828324 120.791018 
L 654.256073 120.363618 
L 654.570178 120.234535 
L 656.254921 120.531838 
L 656.283476 120.589093 
L 656.397696 120.534954 
L 657.197235 120.660335 
L 658.939089 120.551887 
L 659.995623 120.333132 
L 660.623832 120.359041 
L 665.678062 119.994194 
L 666.277717 120.06596 
L 667.134366 120.39171 
L 668.048125 120.382807 
L 668.30512 120.548828 
L 668.847664 120.09711 
L 669.361654 119.961736 
L 670.875068 119.727731 
L 671.446167 119.454098 
L 672.074376 119.300499 
L 672.731141 118.933049 
L 673.387905 119.024602 
L 675.815078 118.999006 
L 678.185141 118.757715 
L 678.499245 119.026348 
L 679.27023 119.093829 
L 680.012659 118.692793 
L 680.726533 118.658137 
L 680.812198 118.92153 
L 684.38157 118.898577 
L 684.581455 119.198384 
L 684.752785 119.141252 
L 685.123999 119.227517 
L 685.352439 119.091626 
L 686.837298 119.273836 
L 688.893256 119.151418 
L 689.036031 119.015851 
L 689.72135 119.260674 
L 690.292449 119.823852 
L 690.463779 119.550103 
L 691.206209 119.326778 
L 691.320428 118.946103 
L 692.005748 119.1954 
L 692.976617 118.969742 
L 693.319277 119.197787 
L 694.233036 119.360756 
L 696.488879 119.414081 
L 697.316973 119.719385 
L 697.631078 119.550568 
L 698.630502 119.177152 
L 698.944606 119.326338 
L 701.971434 119.474777 
L 702.028543 119.71123 
L 702.399758 119.721565 
L 702.428313 119.853032 
L 702.628198 120.237925 
L 703.227852 120.328902 
L 704.655601 120.31954 
L 704.712711 120.411585 
L 705.91202 120.721756 
L 706.311789 120.547367 
L 708.738962 120.470524 
L 709.481391 120.241684 
L 716.391695 120.344411 
L 717.162679 120.850705 
L 717.790889 121.073745 
L 718.076438 121.469519 
L 719.190082 121.078372 
L 721.70292 121.302301 
L 721.98847 121.045049 
L 722.04558 121.132507 
L 722.673789 120.942689 
L 724.701192 121.085482 
L 724.758302 121.277932 
L 725.814836 120.894738 
L 727.785129 120.866369 
L 728.584669 120.882559 
L 728.813108 121.069765 
L 730.098082 121.406846 
L 731.154616 121.201685 
L 734.809653 120.923291 
L 735.494972 121.054484 
L 736.180292 120.825734 
L 736.208847 120.969855 
L 739.264229 121.17076 
L 740.206543 120.875807 
L 740.977527 120.49647 
L 741.976951 120.442557 
L 742.148281 120.685923 
L 742.262501 120.622648 
L 743.975799 120.493439 
L 744.118574 120.327816 
L 744.489789 120.18856 
L 745.146553 120.407671 
L 745.489213 120.369431 
L 748.80159 120.24968 
L 750.029454 119.939293 
L 751.885527 120.143709 
L 752.799286 120.309182 
L 753.256166 119.953643 
L 754.055705 120.151132 
L 754.08426 119.942858 
L 757.824961 119.693046 
L 759.281265 119.270358 
L 759.338375 119.453626 
L 760.366354 119.48495 
L 760.966008 119.119075 
L 762.964857 119.428503 
L 764.30694 119.344542 
L 765.791799 118.88753 
L 767.276658 118.852982 
L 768.904291 118.676178 
L 769.64672 118.828753 
L 771.759788 118.645797 
L 772.159558 118.197427 
L 773.016207 118.36425 
L 773.187537 118.236475 
L 774.472511 118.140647 
L 779.041307 118.552598 
L 779.726626 118.459163 
L 779.897956 118.765942 
L 780.49761 118.787899 
L 781.18293 118.435548 
L 781.811139 118.43509 
L 782.182354 118.167796 
L 783.438772 118.009572 
L 784.409642 118.058648 
L 784.523861 118.675931 
L 785.009296 118.756417 
L 785.066406 118.361438 
L 788.892772 118.316472 
L 789.178322 118.229153 
L 789.892196 118.37803 
L 791.12006 118.472854 
L 791.51983 118.154876 
L 792.662029 118.302824 
L 792.919024 118.051453 
L 794.375327 117.827632 
L 795.174866 118.004811 
L 795.403306 118.372477 
L 796.202845 118.23993 
L 796.8025 118.354814 
L 797.801924 118.247337 
L 798.373023 118.669098 
L 798.430133 118.488289 
L 799.315338 118.795666 
L 801.085746 118.924227 
L 801.142856 118.628381 
L 801.542625 118.622029 
L 802.770489 118.726766 
L 803.056039 119.174255 
L 804.540898 119.238465 
L 804.912112 119.481316 
L 807.36784 119.633346 
L 810.937212 119.414913 
L 812.25074 119.587729 
L 812.907505 119.273034 
L 816.676761 119.27284 
L 816.676761 119.27284 
" clip-path="url(#p34315d24db)" style="fill: none; stroke: #ff0000; stroke-width: 2; stroke-linecap: square"/>
   </g>
   <g id="patch_3">
    <path d="M 49.68875 533.30875 
L 49.68875 29.47875 
" style="fill: none; stroke: #000000; stroke-width: 0.8; stroke-linejoin: miter; stroke-linecap: square"/>
   </g>
   <g id="patch_4">
    <path d="M 853.2 533.30875 
L 853.2 29.47875 
" style="fill: none; stroke: #000000; stroke-width: 0.8; stroke-linejoin: miter; stroke-linecap: square"/>
   </g>
   <g id="patch_5">
    <path d="M 49.68875 533.30875 
L 853.2 533.30875 
" style="fill: none; stroke: #000000; stroke-width: 0.8; stroke-linejoin: miter; stroke-linecap: square"/>
   </g>
   <g id="patch_6">
    <path d="M 49.68875 29.47875 
L 853.2 29.47875 
" style="fill: none; stroke: #000000; stroke-width: 0.8; stroke-linejoin: miter; stroke-linecap: square"/>
   </g>
   <g id="text_18">
    <!-- 演员损失与训练步数关系 -->
    <g transform="translate(363.444375 23.47875) scale(0.16 -0.16)">
     <defs>
      <path id="SimHei-4e0e" d="M 5350 100 
Q 5275 -300 4925 -425 
Q 4575 -550 3900 -600 
Q 3875 -375 3650 -25 
Q 4375 -50 4575 0 
Q 4775 50 4837 225 
Q 4900 400 5100 2350 
L 1125 2350 
Q 1450 4350 1475 5200 
Q 1800 5150 2075 5125 
Q 1975 4825 1900 4275 
L 4900 4275 
Q 5400 4275 5800 4300 
L 5800 3825 
Q 5400 3850 4950 3850 
L 1850 3850 
L 1700 2750 
L 5675 2750 
Q 5625 2450 5575 2050 
L 5350 100 
z
M 3675 1350 
Q 4125 1350 4500 1375 
L 4500 875 
Q 4125 900 3850 900 
L 1450 900 
Q 1000 900 500 875 
L 500 1375 
Q 1000 1350 1450 1350 
L 3675 1350 
z
" transform="scale(0.015625)"/>
      <path id="SimHei-5173" d="M 4675 4850 
Q 4525 4675 4362 4375 
Q 4200 4075 4075 3825 
L 4625 3825 
Q 5150 3825 5550 3850 
L 5550 3375 
Q 5225 3400 4700 3400 
L 3400 3400 
L 3400 2150 
L 4975 2150 
Q 5475 2150 5875 2175 
L 5875 1700 
Q 5475 1725 5025 1725 
L 3500 1725 
Q 4250 450 6000 75 
Q 5775 -175 5600 -525 
Q 4025 0 3225 1300 
Q 2800 200 875 -600 
Q 775 -350 500 -150 
Q 2425 375 2875 1725 
L 1550 1725 
Q 975 1725 600 1700 
L 600 2150 
Q 875 2125 1450 2125 
L 2925 2125 
L 2925 3400 
L 1750 3400 
Q 1275 3400 900 3375 
L 900 3850 
Q 1275 3825 1775 3825 
L 3575 3825 
Q 3925 4625 4075 5150 
Q 4325 5000 4675 4850 
z
M 2125 5125 
Q 2450 4725 2800 4175 
Q 2500 4025 2325 3875 
Q 2025 4450 1725 4825 
Q 1950 4975 2125 5125 
z
" transform="scale(0.015625)"/>
      <path id="SimHei-7cfb" d="M 5300 5200 
Q 5450 4950 5725 4675 
Q 4975 4650 4437 4587 
Q 3900 4525 3125 4450 
Q 3250 4325 3475 4225 
Q 3150 4025 2837 3762 
Q 2525 3500 2225 3275 
L 3475 3275 
Q 4100 3700 4525 4050 
Q 4775 3850 5125 3700 
Q 4775 3550 4450 3375 
Q 4125 3200 3387 2737 
Q 2650 2275 2125 1975 
Q 3600 2050 4875 2100 
Q 4750 2225 4225 2625 
Q 4475 2725 4650 2875 
Q 4950 2650 5337 2312 
Q 5725 1975 6075 1650 
Q 5775 1475 5600 1325 
Q 5400 1575 5225 1725 
Q 4550 1700 3625 1650 
L 3625 150 
Q 3625 -325 3387 -412 
Q 3150 -500 2525 -600 
Q 2475 -300 2300 -25 
Q 2875 -25 3012 12 
Q 3150 50 3150 300 
L 3150 1650 
Q 1625 1625 1075 1525 
Q 1000 1775 900 2050 
Q 1450 2100 1875 2300 
Q 2300 2500 2900 2900 
Q 2325 2900 2037 2875 
Q 1750 2850 1400 2800 
Q 1325 3075 1250 3325 
Q 1675 3325 2100 3662 
Q 2525 4000 2750 4400 
Q 1350 4350 925 4300 
Q 850 4550 750 4750 
Q 2150 4750 3250 4850 
Q 4350 4950 5300 5200 
z
M 4625 1250 
Q 4925 1025 5325 737 
Q 5725 450 6000 175 
Q 5800 0 5600 -225 
Q 5275 125 4925 400 
Q 4575 675 4275 875 
Q 4500 1050 4625 1250 
z
M 2200 875 
Q 1900 725 1537 375 
Q 1175 25 800 -300 
Q 575 -75 375 25 
Q 1075 450 1675 1225 
Q 1900 1050 2200 875 
z
" transform="scale(0.015625)"/>
     </defs>
     <use xlink:href="#SimHei-6f14"/>
     <use xlink:href="#SimHei-5458" x="100"/>
     <use xlink:href="#SimHei-635f" x="200"/>
     <use xlink:href="#SimHei-5931" x="300"/>
     <use xlink:href="#SimHei-4e0e" x="400"/>
     <use xlink:href="#SimHei-8bad" x="500"/>
     <use xlink:href="#SimHei-7ec3" x="600"/>
     <use xlink:href="#SimHei-6b65" x="700"/>
     <use xlink:href="#SimHei-6570" x="800"/>
     <use xlink:href="#SimHei-5173" x="900"/>
     <use xlink:href="#SimHei-7cfb" x="1000"/>
    </g>
   </g>
   <g id="legend_1">
    <g id="patch_7">
     <path d="M 668.4 73.485 
L 844.8 73.485 
Q 847.2 73.485 847.2 71.085 
L 847.2 37.87875 
Q 847.2 35.47875 844.8 35.47875 
L 668.4 35.47875 
Q 666 35.47875 666 37.87875 
L 666 71.085 
Q 666 73.485 668.4 73.485 
z
" style="fill: #ffffff; opacity: 0.8; stroke: #cccccc; stroke-linejoin: miter"/>
    </g>
    <g id="line2d_31">
     <path d="M 670.8 45.64125 
L 682.8 45.64125 
L 694.8 45.64125 
" style="fill: none; stroke: #008000; stroke-opacity: 0.5; stroke-width: 1.5; stroke-linecap: square"/>
    </g>
    <g id="text_19">
     <!-- 原始数据 -->
     <g transform="translate(704.4 49.84125) scale(0.12 -0.12)">
      <defs>
       <path id="SimHei-539f" d="M 3850 4275 
Q 3675 4025 3600 3700 
L 5450 3700 
Q 5425 3475 5425 3000 
L 5425 2225 
Q 5425 1825 5450 1475 
L 4050 1475 
L 4050 -50 
Q 4050 -400 3825 -487 
Q 3600 -575 3100 -625 
Q 3050 -325 2925 -50 
Q 3400 -75 3475 -37 
Q 3550 0 3550 175 
L 3550 1475 
L 2125 1475 
Q 2150 1775 2150 2200 
L 2150 3025 
Q 2150 3425 2125 3700 
L 3150 3700 
Q 3300 4250 3300 4425 
L 3850 4275 
z
M 275 -325 
Q 725 275 875 1037 
Q 1025 1800 1025 2300 
L 1025 4125 
Q 1025 4650 1000 4900 
L 5025 4900 
Q 5575 4900 5800 4925 
L 5800 4475 
Q 5600 4500 5025 4500 
L 1525 4500 
L 1525 2375 
Q 1500 1650 1412 1112 
Q 1325 575 1137 125 
Q 950 -325 800 -575 
Q 550 -400 275 -325 
z
M 4925 2775 
L 4925 3325 
L 2625 3325 
L 2625 2775 
L 4925 2775 
z
M 4925 1875 
L 4925 2400 
L 2625 2400 
L 2625 1875 
L 4925 1875 
z
M 1475 -50 
Q 1800 150 2087 450 
Q 2375 750 2575 1100 
Q 2800 875 2975 750 
Q 2300 -50 1825 -400 
Q 1675 -225 1475 -50 
z
M 4825 1075 
Q 5700 300 5925 25 
Q 5750 -125 5575 -325 
Q 5250 75 4500 725 
Q 4675 925 4825 1075 
z
" transform="scale(0.015625)"/>
       <path id="SimHei-59cb" d="M 1750 5075 
Q 1650 4900 1587 4587 
Q 1525 4275 1475 3875 
L 2550 3875 
Q 2400 2150 1950 1100 
Q 2275 850 2725 425 
Q 2550 275 2375 50 
Q 2000 500 1750 675 
Q 1525 275 1250 -62 
Q 975 -400 700 -675 
Q 600 -525 250 -350 
Q 575 -125 862 200 
Q 1150 525 1375 975 
Q 800 1400 500 1550 
Q 875 2925 950 3425 
Q 650 3425 325 3400 
L 325 3900 
Q 675 3875 1025 3875 
Q 1175 4825 1175 5225 
Q 1550 5125 1750 5075 
z
M 5725 2050 
Q 5700 1650 5700 650 
Q 5700 -325 5725 -650 
L 5200 -650 
L 5200 -100 
L 3450 -100 
L 3450 -675 
L 2950 -675 
Q 2975 -300 2975 675 
Q 2975 1650 2950 2050 
L 5725 2050 
z
M 4400 4950 
Q 3750 3875 3250 3150 
Q 3875 3150 4250 3175 
Q 4625 3200 5200 3225 
Q 4875 3675 4625 3900 
Q 4825 4000 5025 4225 
Q 5750 3300 6125 2850 
Q 6000 2775 5725 2550 
Q 5575 2775 5450 2875 
Q 4575 2825 3937 2762 
Q 3300 2700 2825 2575 
Q 2775 2800 2600 3100 
Q 2875 3225 3237 3850 
Q 3600 4475 3825 5200 
Q 4025 5050 4400 4950 
z
M 5200 325 
L 5200 1600 
L 3450 1600 
L 3450 325 
L 5200 325 
z
M 1025 1775 
Q 1300 1550 1575 1400 
Q 1725 1725 1875 2337 
Q 2025 2950 2050 3425 
L 1400 3425 
Q 1300 2950 1025 1775 
z
" transform="scale(0.015625)"/>
       <path id="SimHei-636e" d="M 5750 4775 
Q 5725 4550 5725 4225 
L 5725 3900 
Q 5725 3450 5750 3250 
L 3100 3250 
L 3100 2500 
L 4250 2500 
Q 4250 2725 4225 3175 
L 4700 3175 
Q 4675 2775 4675 2500 
L 5350 2500 
Q 5800 2500 6100 2525 
L 6100 2075 
Q 5800 2100 5375 2100 
L 4675 2100 
L 4675 1425 
L 5775 1425 
Q 5750 950 5750 800 
L 5750 175 
Q 5750 -225 5775 -575 
L 5325 -575 
L 5325 -225 
L 3675 -225 
L 3675 -600 
L 3225 -600 
Q 3250 -325 3250 100 
L 3250 825 
Q 3250 1075 3225 1425 
L 4250 1425 
L 4250 2100 
L 3075 2100 
Q 3050 1375 2887 737 
Q 2725 100 2425 -475 
Q 2200 -325 1950 -250 
Q 2250 150 2387 600 
Q 2525 1050 2600 1562 
Q 2675 2075 2675 2625 
L 2675 3575 
Q 2675 3975 2650 4775 
L 5750 4775 
z
M 1275 4425 
Q 1275 4775 1250 5075 
L 1750 5075 
Q 1725 4800 1725 4425 
L 1725 3775 
Q 1975 3775 2500 3800 
L 2500 3375 
Q 1975 3400 1725 3400 
L 1725 2450 
Q 2050 2625 2400 2850 
Q 2425 2650 2525 2475 
Q 2050 2200 1725 2000 
L 1725 175 
Q 1725 -300 1487 -400 
Q 1250 -500 775 -575 
Q 725 -325 600 -50 
Q 1025 -50 1150 -12 
Q 1275 25 1275 325 
L 1275 1800 
Q 900 1600 525 1325 
Q 450 1525 275 1800 
Q 775 1975 1275 2250 
L 1275 3400 
Q 800 3400 350 3375 
L 350 3800 
Q 800 3775 1275 3775 
L 1275 4425 
z
M 5300 3625 
L 5300 4400 
L 3100 4400 
L 3100 3625 
L 5300 3625 
z
M 5325 150 
L 5325 1075 
L 3675 1075 
L 3675 150 
L 5325 150 
z
" transform="scale(0.015625)"/>
      </defs>
      <use xlink:href="#SimHei-539f"/>
      <use xlink:href="#SimHei-59cb" x="100"/>
      <use xlink:href="#SimHei-6570" x="200"/>
      <use xlink:href="#SimHei-636e" x="300"/>
     </g>
    </g>
    <g id="line2d_32">
     <path d="M 670.8 62.985 
L 682.8 62.985 
L 694.8 62.985 
" style="fill: none; stroke: #ff0000; stroke-width: 2; stroke-linecap: square"/>
    </g>
    <g id="text_20">
     <!-- 平滑曲线（窗口大小=50） -->
     <g transform="translate(704.4 67.185) scale(0.12 -0.12)">
      <defs>
       <path id="SimHei-5e73" d="M 4525 4825 
Q 4900 4825 5450 4850 
L 5450 4375 
Q 4925 4400 4525 4400 
L 3475 4400 
L 3475 2025 
L 5000 2025 
Q 5550 2025 6025 2050 
L 6025 1575 
Q 5550 1600 5000 1600 
L 3475 1600 
L 3475 450 
Q 3475 -100 3500 -600 
L 2925 -600 
Q 2950 -100 2950 450 
L 2950 1600 
L 1125 1600 
Q 775 1600 375 1575 
L 375 2050 
Q 775 2025 1175 2025 
L 2950 2025 
L 2950 4400 
L 1775 4400 
Q 1400 4400 875 4375 
L 875 4850 
Q 1400 4825 1750 4825 
L 4525 4825 
z
M 3925 2600 
Q 4500 3300 4900 4125 
Q 5150 3950 5400 3825 
Q 4775 2850 4350 2300 
Q 4150 2475 3925 2600 
z
M 1975 2350 
Q 1600 3100 1050 3725 
Q 1250 3875 1450 4050 
Q 2075 3300 2450 2725 
Q 2150 2500 1975 2350 
z
" transform="scale(0.015625)"/>
       <path id="SimHei-6ed1" d="M 5350 5100 
Q 5325 4725 5325 4400 
L 5325 3325 
L 6125 3325 
Q 6100 3050 6100 2775 
Q 6100 2500 6125 2275 
L 5650 2275 
L 5650 2925 
L 2150 2925 
L 2150 2275 
L 1700 2275 
Q 1725 2550 1725 2800 
Q 1725 3075 1700 3325 
L 2475 3325 
L 2475 4375 
Q 2475 4675 2450 5100 
L 5350 5100 
z
M 5275 2500 
Q 5250 2150 5250 1725 
L 5250 -75 
Q 5250 -375 5025 -475 
Q 4800 -575 4375 -625 
Q 4375 -400 4225 -75 
Q 4775 -175 4775 75 
L 4775 425 
L 3000 425 
L 3000 -625 
L 2525 -625 
Q 2550 -125 2550 225 
L 2550 1750 
Q 2550 2125 2525 2500 
L 5275 2500 
z
M 4300 4225 
L 4300 3325 
L 4900 3325 
L 4900 4700 
L 2925 4700 
L 2925 4225 
L 4300 4225 
z
M 1675 1900 
Q 1525 1675 1375 1262 
Q 1225 850 1062 437 
Q 900 25 775 -300 
Q 500 -100 200 50 
Q 375 250 525 525 
Q 675 800 875 1275 
Q 1075 1750 1175 2125 
Q 1375 2000 1675 1900 
z
M 4775 1625 
L 4775 2125 
L 3000 2125 
L 3000 1625 
L 4775 1625 
z
M 4775 800 
L 4775 1250 
L 3000 1250 
L 3000 800 
L 4775 800 
z
M 950 5125 
Q 1100 5025 1362 4825 
Q 1625 4625 1850 4450 
Q 1700 4275 1550 4000 
Q 1325 4225 1112 4400 
Q 900 4575 650 4725 
Q 825 4950 950 5125 
z
M 1000 3375 
Q 1225 3225 1475 3025 
Q 1325 2875 1175 2625 
Q 950 2800 750 2950 
Q 550 3100 250 3275 
L 550 3675 
L 1000 3375 
z
M 3900 3325 
L 3900 3825 
L 2925 3825 
L 2925 3325 
L 3900 3325 
z
" transform="scale(0.015625)"/>
       <path id="SimHei-66f2" d="M 5825 500 
Q 5825 -200 5850 -550 
L 5275 -550 
L 5275 -50 
L 1150 -50 
L 1150 -550 
L 575 -550 
Q 600 125 600 550 
L 600 2775 
Q 600 3425 575 3900 
L 2150 3900 
L 2150 4450 
Q 2125 4850 2125 5150 
L 2700 5150 
Q 2650 4825 2650 4475 
L 2650 3900 
L 3700 3900 
L 3700 4525 
Q 3700 4850 3675 5175 
L 4250 5175 
Q 4225 4875 4225 4550 
L 4225 3900 
L 5850 3900 
Q 5825 3525 5825 2750 
L 5825 500 
z
M 3700 325 
L 3700 1875 
L 2650 1875 
L 2650 325 
L 3700 325 
z
M 5275 325 
L 5275 1875 
L 4225 1875 
L 4225 325 
L 5275 325 
z
M 2150 325 
L 2150 1875 
L 1150 1875 
L 1150 325 
L 2150 325 
z
M 3700 2250 
L 3700 3525 
L 2650 3525 
L 2650 2250 
L 3700 2250 
z
M 5275 2250 
L 5275 3525 
L 4225 3525 
L 4225 2250 
L 5275 2250 
z
M 2150 2250 
L 2150 3525 
L 1150 3525 
L 1150 2250 
L 2150 2250 
z
" transform="scale(0.015625)"/>
       <path id="SimHei-7ebf" d="M 3450 4300 
Q 3450 4675 3375 5125 
Q 3700 5100 4050 5050 
Q 3975 4900 3950 4562 
Q 3925 4225 3950 3600 
L 4800 3750 
Q 5225 3850 5650 3975 
L 5750 3500 
Q 5325 3450 4875 3375 
L 3975 3200 
Q 3975 2800 4025 2500 
L 5000 2675 
Q 5500 2775 5950 2925 
L 6025 2450 
Q 5575 2375 5075 2275 
L 4100 2100 
Q 4150 1600 4350 1175 
Q 4575 1350 4787 1575 
Q 5000 1800 5175 2075 
Q 5550 1775 5750 1675 
Q 5425 1525 5237 1337 
Q 5050 1150 4625 750 
Q 4925 250 5162 112 
Q 5400 -25 5500 100 
Q 5600 225 5675 625 
Q 5900 450 6200 350 
Q 5775 -750 5275 -537 
Q 4775 -325 4225 450 
Q 3875 175 3537 -62 
Q 3200 -300 2700 -550 
Q 2575 -300 2325 -100 
Q 2825 75 3175 275 
Q 3525 475 3975 850 
Q 3750 1350 3650 2025 
Q 2900 1900 2600 1800 
L 2525 2275 
Q 2825 2275 3550 2425 
Q 3500 2825 3500 3100 
Q 2825 2950 2575 2875 
L 2475 3350 
Q 2725 3350 3450 3500 
L 3450 4300 
z
M 1950 4875 
Q 1700 4650 1462 4237 
Q 1225 3825 825 3225 
Q 1425 3250 1650 3250 
Q 1875 3625 2050 4075 
Q 2300 3900 2600 3800 
Q 2350 3550 2087 3125 
Q 1825 2700 1175 1675 
Q 1850 1725 2375 1775 
Q 2300 1525 2300 1350 
Q 2125 1350 1525 1287 
Q 925 1225 550 1125 
Q 525 1375 400 1650 
Q 700 1725 950 2050 
Q 1200 2375 1475 2875 
Q 650 2825 425 2675 
Q 350 2950 200 3225 
Q 525 3450 825 3962 
Q 1125 4475 1375 5150 
Q 1625 4975 1950 4875 
z
M 2575 875 
Q 2550 600 2575 450 
Q 1950 325 1450 200 
Q 950 75 525 -75 
Q 450 200 250 475 
Q 950 550 1325 612 
Q 1700 675 2575 875 
z
M 4850 4025 
Q 4675 4300 4375 4675 
L 4775 4875 
Q 4875 4750 5275 4275 
Q 5025 4175 4850 4025 
z
" transform="scale(0.015625)"/>
       <path id="SimHei-ff08" d="M 5425 5100 
L 5700 4775 
Q 4275 3725 4325 2350 
Q 4350 1025 5675 50 
L 5400 -275 
Q 3875 825 3925 2500 
Q 3925 3875 5425 5100 
z
" transform="scale(0.015625)"/>
       <path id="SimHei-7a97" d="M 3300 3400 
Q 3050 3125 2875 2825 
L 5425 2825 
Q 5400 2300 5400 1875 
L 5400 425 
Q 5400 -25 5425 -600 
L 4925 -600 
L 4925 -250 
L 1500 -250 
L 1500 -600 
L 1000 -600 
Q 1025 -25 1025 500 
L 1025 1800 
Q 1025 2225 1000 2825 
L 2400 2825 
Q 2700 3325 2775 3600 
Q 3050 3500 3300 3400 
z
M 4925 150 
L 4925 2450 
L 1500 2450 
L 1500 150 
L 4925 150 
z
M 3225 5300 
Q 3375 4775 3425 4575 
L 5900 4575 
Q 5875 4300 5875 4075 
Q 5875 3850 5900 3600 
L 5425 3600 
L 5425 4175 
L 1025 4175 
L 1025 3500 
L 500 3500 
Q 525 3725 525 4000 
Q 525 4300 500 4575 
L 2900 4575 
Q 2800 4900 2700 5125 
Q 2900 5175 3225 5300 
z
M 4150 425 
Q 3975 350 3700 175 
Q 3475 450 3300 575 
Q 2900 425 2612 362 
Q 2325 300 2025 225 
Q 1975 450 1825 650 
Q 2150 675 2425 737 
Q 2700 800 2950 875 
Q 2725 1025 2475 1225 
Q 2625 1325 2775 1475 
Q 3025 1250 3350 1050 
Q 3700 1250 3900 1575 
L 2525 1575 
Q 2250 1325 1925 1100 
Q 1800 1300 1625 1400 
Q 1950 1600 2200 1825 
Q 2450 2050 2650 2375 
Q 2900 2225 3125 2125 
Q 3000 2025 2900 1925 
L 4625 1925 
Q 4400 1500 4200 1262 
Q 4000 1025 3700 800 
Q 3975 600 4150 425 
z
M 3900 4100 
Q 4175 4000 4625 3825 
Q 5075 3650 5675 3400 
Q 5550 3175 5450 2950 
Q 4825 3275 4425 3425 
Q 4025 3575 3650 3700 
Q 3775 3850 3900 4100 
z
M 2625 3650 
Q 2250 3500 1900 3350 
L 900 2900 
Q 800 3125 675 3300 
Q 1075 3425 1512 3625 
Q 1950 3825 2350 4075 
Q 2475 3825 2625 3650 
z
" transform="scale(0.015625)"/>
       <path id="SimHei-53e3" d="M 5425 4300 
Q 5400 3775 5400 3175 
L 5400 550 
Q 5400 100 5425 -425 
L 4900 -425 
L 4900 100 
L 1525 100 
L 1525 -425 
L 1000 -425 
Q 1025 0 1025 550 
L 1025 3175 
Q 1025 3775 1000 4300 
L 5425 4300 
z
M 4900 525 
L 4900 3875 
L 1525 3875 
L 1525 525 
L 4900 525 
z
" transform="scale(0.015625)"/>
       <path id="SimHei-5927" d="M 2900 3400 
Q 2925 4275 2912 4575 
Q 2900 4875 2875 5150 
Q 3175 5100 3550 5075 
Q 3475 4825 3437 4350 
Q 3400 3875 3400 3400 
L 4675 3400 
Q 5350 3400 5925 3450 
L 5925 2900 
Q 5425 2925 4900 2925 
L 3425 2925 
Q 3525 2500 3775 2062 
Q 4025 1625 4287 1287 
Q 4550 950 5012 575 
Q 5475 200 6025 -50 
Q 5825 -200 5625 -550 
Q 5175 -300 4737 75 
Q 4300 450 3862 1062 
Q 3425 1675 3200 2200 
Q 3000 1650 2775 1287 
Q 2550 925 2287 625 
Q 2025 325 1612 25 
Q 1200 -275 675 -575 
Q 475 -275 225 -50 
Q 750 125 1262 450 
Q 1775 775 2100 1187 
Q 2425 1600 2625 2050 
Q 2825 2500 2875 2925 
L 1500 2925 
Q 900 2925 550 2900 
L 550 3450 
Q 900 3425 1500 3400 
L 2900 3400 
z
" transform="scale(0.015625)"/>
       <path id="SimHei-5c0f" d="M 3500 5150 
Q 3475 4800 3475 4200 
L 3475 175 
Q 3475 -300 3225 -425 
Q 2975 -550 2375 -600 
Q 2325 -300 2150 -25 
Q 2700 -25 2837 0 
Q 2975 25 2975 300 
L 2975 4200 
Q 2975 4650 2950 5150 
L 3500 5150 
z
M 2075 3400 
Q 1850 2775 1550 1962 
Q 1250 1150 1025 750 
Q 775 950 500 1000 
Q 925 1750 1175 2487 
Q 1425 3225 1500 3575 
Q 1800 3425 2075 3400 
z
M 4675 3600 
Q 5675 1800 5875 1150 
Q 5625 1100 5375 925 
Q 5000 2000 4225 3325 
Q 4425 3425 4675 3600 
z
" transform="scale(0.015625)"/>
       <path id="SimHei-3d" d="M 2975 2900 
L 125 2900 
L 125 3300 
L 2975 3300 
L 2975 2900 
z
M 2975 1375 
L 125 1375 
L 125 1775 
L 2975 1775 
L 2975 1375 
z
" transform="scale(0.015625)"/>
       <path id="SimHei-ff09" d="M 1000 5100 
Q 2500 3875 2500 2500 
Q 2550 825 1025 -275 
L 750 50 
Q 2075 1025 2100 2350 
Q 2150 3725 725 4775 
L 1000 5100 
z
" transform="scale(0.015625)"/>
      </defs>
      <use xlink:href="#SimHei-5e73"/>
      <use xlink:href="#SimHei-6ed1" x="100"/>
      <use xlink:href="#SimHei-66f2" x="200"/>
      <use xlink:href="#SimHei-7ebf" x="300"/>
      <use xlink:href="#SimHei-ff08" x="400"/>
      <use xlink:href="#SimHei-7a97" x="500"/>
      <use xlink:href="#SimHei-53e3" x="600"/>
      <use xlink:href="#SimHei-5927" x="700"/>
      <use xlink:href="#SimHei-5c0f" x="800"/>
      <use xlink:href="#SimHei-3d" x="900"/>
      <use xlink:href="#SimHei-35" x="950"/>
      <use xlink:href="#SimHei-30" x="1000"/>
      <use xlink:href="#SimHei-ff09" x="1050"/>
     </g>
    </g>
   </g>
  </g>
 </g>
 <defs>
  <clipPath id="p34315d24db">
   <rect x="49.68875" y="29.47875" width="803.51125" height="503.83"/>
  </clipPath>
 </defs>
</svg>
