<?xml version="1.0" encoding="utf-8" standalone="no"?>
<!DOCTYPE svg PUBLIC "-//W3C//DTD SVG 1.1//EN"
  "http://www.w3.org/Graphics/SVG/1.1/DTD/svg11.dtd">
<svg xmlns:xlink="http://www.w3.org/1999/xlink" width="864pt" height="576pt" viewBox="0 0 864 576" xmlns="http://www.w3.org/2000/svg" version="1.1">
 <metadata>
  <rdf:RDF xmlns:dc="http://purl.org/dc/elements/1.1/" xmlns:cc="http://creativecommons.org/ns#" xmlns:rdf="http://www.w3.org/1999/02/22-rdf-syntax-ns#">
   <cc:Work>
    <dc:type rdf:resource="http://purl.org/dc/dcmitype/StillImage"/>
    <dc:date>2025-05-04T13:19:17.220971</dc:date>
    <dc:format>image/svg+xml</dc:format>
    <dc:creator>
     <cc:Agent>
      <dc:title>Matplotlib v3.9.4, https://matplotlib.org/</dc:title>
     </cc:Agent>
    </dc:creator>
   </cc:Work>
  </rdf:RDF>
 </metadata>
 <defs>
  <style type="text/css">*{stroke-linejoin: round; stroke-linecap: butt}</style>
 </defs>
 <g id="figure_1">
  <g id="patch_1">
   <path d="M 0 576 
L 864 576 
L 864 0 
L 0 0 
z
" style="fill: #ffffff"/>
  </g>
  <g id="axes_1">
   <g id="patch_2">
    <path d="M 45.00875 533.30875 
L 853.2 533.30875 
L 853.2 29.715 
L 45.00875 29.715 
z
" style="fill: #ffffff"/>
   </g>
   <g id="matplotlib.axis_1">
    <g id="xtick_1">
     <g id="line2d_1">
      <path d="M 81.227733 533.30875 
L 81.227733 29.715 
" clip-path="url(#p0e24fcbb2c)" style="fill: none; stroke-dasharray: 2.96,1.28; stroke-dashoffset: 0; stroke: #b0b0b0; stroke-opacity: 0.7; stroke-width: 0.8"/>
     </g>
     <g id="line2d_2">
      <defs>
       <path id="m4110de1d18" d="M 0 0 
L 0 3.5 
" style="stroke: #000000; stroke-width: 0.8"/>
      </defs>
      <g>
       <use xlink:href="#m4110de1d18" x="81.227733" y="533.30875" style="stroke: #000000; stroke-width: 0.8"/>
      </g>
     </g>
     <g id="text_1">
      <!-- 0.0 -->
      <g transform="translate(73.727733 547.18375) scale(0.1 -0.1)">
       <defs>
        <path id="SimHei-30" d="M 225 2537 
Q 250 3200 412 3587 
Q 575 3975 875 4225 
Q 1175 4475 1612 4475 
Q 2050 4475 2375 4112 
Q 2700 3750 2800 3200 
Q 2900 2650 2862 1937 
Q 2825 1225 2612 775 
Q 2400 325 1975 150 
Q 1550 -25 1125 187 
Q 700 400 525 750 
Q 350 1100 275 1487 
Q 200 1875 225 2537 
z
M 750 2687 
Q 675 2000 800 1462 
Q 925 925 1212 700 
Q 1500 475 1800 612 
Q 2100 750 2237 1162 
Q 2375 1575 2375 2062 
Q 2375 2550 2337 2950 
Q 2300 3350 2112 3675 
Q 1925 4000 1612 4012 
Q 1300 4025 1062 3700 
Q 825 3375 750 2687 
z
" transform="scale(0.015625)"/>
        <path id="SimHei-2e" d="M 1075 125 
L 500 125 
L 500 675 
L 1075 675 
L 1075 125 
z
" transform="scale(0.015625)"/>
       </defs>
       <use xlink:href="#SimHei-30"/>
       <use xlink:href="#SimHei-2e" x="50"/>
       <use xlink:href="#SimHei-30" x="100"/>
      </g>
     </g>
    </g>
    <g id="xtick_2">
     <g id="line2d_3">
      <path d="M 224.834182 533.30875 
L 224.834182 29.715 
" clip-path="url(#p0e24fcbb2c)" style="fill: none; stroke-dasharray: 2.96,1.28; stroke-dashoffset: 0; stroke: #b0b0b0; stroke-opacity: 0.7; stroke-width: 0.8"/>
     </g>
     <g id="line2d_4">
      <g>
       <use xlink:href="#m4110de1d18" x="224.834182" y="533.30875" style="stroke: #000000; stroke-width: 0.8"/>
      </g>
     </g>
     <g id="text_2">
      <!-- 0.5 -->
      <g transform="translate(217.334182 547.18375) scale(0.1 -0.1)">
       <defs>
        <path id="SimHei-35" d="M 550 1325 
Q 725 650 1150 575 
Q 1575 500 1837 662 
Q 2100 825 2212 1087 
Q 2325 1350 2312 1675 
Q 2300 2000 2137 2225 
Q 1975 2450 1725 2525 
Q 1475 2600 1162 2525 
Q 850 2450 650 2175 
L 225 2225 
Q 275 2375 700 4375 
L 2675 4375 
L 2675 3925 
L 1075 3925 
Q 950 3250 825 2850 
Q 1200 3025 1525 3012 
Q 1850 3000 2150 2862 
Q 2450 2725 2587 2487 
Q 2725 2250 2787 2012 
Q 2850 1775 2837 1500 
Q 2825 1225 2725 937 
Q 2625 650 2425 462 
Q 2225 275 1937 162 
Q 1650 50 1275 75 
Q 900 100 562 350 
Q 225 600 100 1200 
L 550 1325 
z
" transform="scale(0.015625)"/>
       </defs>
       <use xlink:href="#SimHei-30"/>
       <use xlink:href="#SimHei-2e" x="50"/>
       <use xlink:href="#SimHei-35" x="100"/>
      </g>
     </g>
    </g>
    <g id="xtick_3">
     <g id="line2d_5">
      <path d="M 368.440632 533.30875 
L 368.440632 29.715 
" clip-path="url(#p0e24fcbb2c)" style="fill: none; stroke-dasharray: 2.96,1.28; stroke-dashoffset: 0; stroke: #b0b0b0; stroke-opacity: 0.7; stroke-width: 0.8"/>
     </g>
     <g id="line2d_6">
      <g>
       <use xlink:href="#m4110de1d18" x="368.440632" y="533.30875" style="stroke: #000000; stroke-width: 0.8"/>
      </g>
     </g>
     <g id="text_3">
      <!-- 1.0 -->
      <g transform="translate(360.940632 547.18375) scale(0.1 -0.1)">
       <defs>
        <path id="SimHei-31" d="M 1400 3600 
Q 1075 3275 575 2975 
L 575 3450 
Q 1200 3875 1600 4450 
L 1900 4450 
L 1900 150 
L 1400 150 
L 1400 3600 
z
" transform="scale(0.015625)"/>
       </defs>
       <use xlink:href="#SimHei-31"/>
       <use xlink:href="#SimHei-2e" x="50"/>
       <use xlink:href="#SimHei-30" x="100"/>
      </g>
     </g>
    </g>
    <g id="xtick_4">
     <g id="line2d_7">
      <path d="M 512.047082 533.30875 
L 512.047082 29.715 
" clip-path="url(#p0e24fcbb2c)" style="fill: none; stroke-dasharray: 2.96,1.28; stroke-dashoffset: 0; stroke: #b0b0b0; stroke-opacity: 0.7; stroke-width: 0.8"/>
     </g>
     <g id="line2d_8">
      <g>
       <use xlink:href="#m4110de1d18" x="512.047082" y="533.30875" style="stroke: #000000; stroke-width: 0.8"/>
      </g>
     </g>
     <g id="text_4">
      <!-- 1.5 -->
      <g transform="translate(504.547082 547.18375) scale(0.1 -0.1)">
       <use xlink:href="#SimHei-31"/>
       <use xlink:href="#SimHei-2e" x="50"/>
       <use xlink:href="#SimHei-35" x="100"/>
      </g>
     </g>
    </g>
    <g id="xtick_5">
     <g id="line2d_9">
      <path d="M 655.653532 533.30875 
L 655.653532 29.715 
" clip-path="url(#p0e24fcbb2c)" style="fill: none; stroke-dasharray: 2.96,1.28; stroke-dashoffset: 0; stroke: #b0b0b0; stroke-opacity: 0.7; stroke-width: 0.8"/>
     </g>
     <g id="line2d_10">
      <g>
       <use xlink:href="#m4110de1d18" x="655.653532" y="533.30875" style="stroke: #000000; stroke-width: 0.8"/>
      </g>
     </g>
     <g id="text_5">
      <!-- 2.0 -->
      <g transform="translate(648.153532 547.18375) scale(0.1 -0.1)">
       <defs>
        <path id="SimHei-32" d="M 300 250 
Q 325 625 650 925 
Q 975 1225 1475 1862 
Q 1975 2500 2125 2850 
Q 2275 3200 2237 3450 
Q 2200 3700 2000 3862 
Q 1800 4025 1537 4000 
Q 1275 3975 1037 3800 
Q 800 3625 675 3275 
L 200 3350 
Q 400 3925 712 4187 
Q 1025 4450 1450 4475 
Q 1700 4500 1900 4462 
Q 2100 4425 2312 4287 
Q 2525 4150 2662 3875 
Q 2800 3600 2762 3212 
Q 2725 2825 2375 2287 
Q 2025 1750 1025 600 
L 2825 600 
L 2825 150 
L 300 150 
L 300 250 
z
" transform="scale(0.015625)"/>
       </defs>
       <use xlink:href="#SimHei-32"/>
       <use xlink:href="#SimHei-2e" x="50"/>
       <use xlink:href="#SimHei-30" x="100"/>
      </g>
     </g>
    </g>
    <g id="xtick_6">
     <g id="line2d_11">
      <path d="M 799.259981 533.30875 
L 799.259981 29.715 
" clip-path="url(#p0e24fcbb2c)" style="fill: none; stroke-dasharray: 2.96,1.28; stroke-dashoffset: 0; stroke: #b0b0b0; stroke-opacity: 0.7; stroke-width: 0.8"/>
     </g>
     <g id="line2d_12">
      <g>
       <use xlink:href="#m4110de1d18" x="799.259981" y="533.30875" style="stroke: #000000; stroke-width: 0.8"/>
      </g>
     </g>
     <g id="text_6">
      <!-- 2.5 -->
      <g transform="translate(791.759981 547.18375) scale(0.1 -0.1)">
       <use xlink:href="#SimHei-32"/>
       <use xlink:href="#SimHei-2e" x="50"/>
       <use xlink:href="#SimHei-35" x="100"/>
      </g>
     </g>
    </g>
    <g id="text_7">
     <!-- 训练步数 -->
     <g transform="translate(421.104375 563.425938) scale(0.14 -0.14)">
      <defs>
       <path id="SimHei-8bad" d="M 1650 3300 
Q 1625 2725 1625 2225 
L 1625 675 
Q 1950 1125 2050 1275 
Q 2175 1125 2350 900 
Q 2025 500 1800 212 
Q 1575 -75 1325 -425 
Q 1150 -200 950 -50 
Q 1150 225 1150 625 
L 1150 2875 
L 975 2875 
Q 600 2875 300 2850 
L 300 3325 
Q 600 3300 975 3300 
L 1650 3300 
z
M 3425 4600 
Q 3375 4350 3387 3362 
Q 3400 2375 3337 1887 
Q 3275 1400 3087 837 
Q 2900 275 2450 -375 
Q 2225 -200 1975 -125 
Q 2550 500 2762 1362 
Q 2975 2225 2950 3337 
Q 2925 4450 2900 4675 
Q 3150 4625 3425 4600 
z
M 5875 4700 
Q 5850 4500 5850 3975 
L 5850 625 
Q 5850 125 5875 -400 
L 5400 -400 
Q 5425 125 5425 600 
L 5425 3975 
Q 5425 4500 5400 4700 
L 5875 4700 
z
M 4600 175 
L 4125 175 
Q 4150 725 4150 1150 
L 4150 3600 
Q 4150 4050 4125 4350 
L 4600 4350 
L 4600 175 
z
M 1000 5150 
Q 1650 4600 2100 4100 
Q 1875 3925 1750 3750 
Q 1050 4550 700 4800 
Q 850 4950 1000 5150 
z
" transform="scale(0.015625)"/>
       <path id="SimHei-7ec3" d="M 3300 3825 
Q 2950 3825 2400 3800 
L 2400 4250 
Q 2950 4225 3325 4225 
L 3625 4225 
Q 3875 4950 3900 5175 
Q 4200 5025 4450 4925 
Q 4350 4825 4262 4612 
Q 4175 4400 4100 4225 
L 5025 4225 
Q 5425 4225 5900 4250 
L 5900 3800 
Q 5550 3825 5025 3825 
L 3975 3825 
Q 3850 3525 3700 3150 
L 4675 3150 
Q 4650 2875 4650 2475 
L 4650 1975 
L 4975 1975 
Q 5350 1975 5800 2000 
L 5800 1550 
Q 5350 1575 4975 1575 
L 4650 1575 
L 4650 125 
Q 4650 -300 4462 -425 
Q 4275 -550 3650 -625 
Q 3625 -375 3450 -100 
Q 4075 -125 4137 -25 
Q 4200 75 4200 325 
L 4200 1575 
L 3425 1575 
Q 3250 1575 3100 1562 
Q 2950 1550 2750 1475 
Q 2650 1725 2550 1950 
Q 2800 2025 3125 2775 
Q 2950 2775 2450 2750 
L 2450 3175 
Q 3025 3150 3250 3150 
Q 3400 3525 3500 3825 
L 3300 3825 
z
M 1650 2950 
Q 1875 3300 2100 3900 
Q 2325 3725 2575 3600 
Q 2325 3275 2025 2750 
Q 1725 2225 1075 1350 
Q 1300 1400 2400 1575 
Q 2350 1300 2375 1150 
Q 1825 1100 650 825 
Q 525 1075 400 1275 
Q 625 1400 887 1737 
Q 1150 2075 1450 2575 
Q 1300 2600 1012 2562 
Q 725 2525 450 2450 
Q 350 2675 250 2925 
Q 500 3075 812 3725 
Q 1125 4375 1325 5000 
Q 1600 4825 1850 4750 
Q 1600 4375 1387 3962 
Q 1175 3550 800 2925 
Q 1375 2925 1650 2950 
z
M 2425 700 
Q 2400 425 2425 250 
Q 2000 150 1462 -25 
Q 925 -200 475 -425 
Q 400 -150 300 125 
Q 950 275 1187 337 
Q 1425 400 2425 700 
z
M 3725 875 
Q 3650 800 3287 400 
Q 2925 0 2475 -475 
Q 2300 -250 2150 -125 
Q 2425 100 2750 462 
Q 3075 825 3325 1225 
Q 3475 1050 3725 875 
z
M 5275 1225 
Q 5925 375 6200 -100 
Q 5950 -200 5750 -375 
Q 5475 175 4900 950 
Q 5075 1050 5275 1225 
z
M 4200 1975 
L 4200 2775 
L 3575 2775 
Q 3325 2250 3175 1975 
L 4200 1975 
z
" transform="scale(0.015625)"/>
       <path id="SimHei-6b65" d="M 4800 4250 
Q 5150 4250 5550 4275 
L 5550 3825 
Q 5150 3850 4800 3850 
L 3700 3850 
L 3700 3000 
L 5125 3000 
Q 5675 3000 6100 3025 
L 6100 2550 
Q 5675 2575 5125 2575 
L 1475 2575 
Q 1050 2575 475 2525 
L 475 3025 
Q 1050 3000 1475 3000 
L 1725 3000 
L 1725 3775 
Q 1725 4225 1700 4500 
L 2225 4500 
Q 2200 4175 2200 3775 
L 2200 3000 
L 3225 3000 
Q 3225 4750 3200 5100 
L 3725 5100 
Q 3700 4750 3700 4250 
L 4800 4250 
z
M 3725 2400 
Q 3700 1975 3700 1600 
L 3700 450 
Q 4250 750 4725 1225 
Q 5200 1700 5400 2050 
Q 5650 1825 5900 1700 
Q 5675 1475 5362 1150 
Q 5050 825 4537 437 
Q 4025 50 3212 -225 
Q 2400 -500 800 -650 
Q 725 -400 500 -150 
Q 1275 -150 2100 -25 
Q 2925 100 3225 275 
L 3225 1600 
Q 3225 1975 3200 2400 
L 3725 2400 
z
M 2600 1875 
Q 2275 1600 1975 1275 
Q 1675 950 1075 400 
Q 875 600 700 725 
Q 1175 1075 1562 1512 
Q 1950 1950 2125 2200 
Q 2325 2025 2600 1875 
z
" transform="scale(0.015625)"/>
       <path id="SimHei-6570" d="M 4525 4925 
Q 4475 4800 4400 4587 
Q 4325 4375 4175 3825 
L 5325 3825 
Q 5575 3825 5925 3850 
L 5925 3400 
Q 5650 3425 5500 3425 
Q 5500 3025 5362 2162 
Q 5225 1300 4875 675 
Q 5125 375 5437 137 
Q 5750 -100 6025 -200 
Q 5725 -425 5625 -625 
Q 5325 -450 5075 -225 
Q 4825 0 4575 325 
Q 4300 25 3987 -187 
Q 3675 -400 3200 -650 
Q 3075 -425 2850 -300 
Q 3225 -150 3650 125 
Q 4075 400 4300 675 
Q 4125 1025 3962 1425 
Q 3800 1825 3675 2475 
Q 3600 2275 3425 1950 
Q 3250 2050 3000 2150 
Q 3400 2850 3650 3675 
Q 3900 4500 3975 5100 
Q 4275 4975 4525 4925 
z
M 2100 2250 
Q 2000 2150 1875 1925 
L 3250 1925 
Q 3100 1300 2725 675 
Q 3125 525 3350 400 
Q 3225 225 3125 25 
Q 2900 175 2450 325 
Q 1950 -225 725 -650 
Q 600 -375 400 -275 
Q 1575 0 2000 475 
Q 1300 650 850 775 
Q 1000 1000 1250 1525 
Q 1000 1525 425 1500 
L 425 1950 
Q 900 1925 1400 1925 
Q 1500 2150 1550 2425 
Q 1825 2325 2100 2250 
z
M 1775 3950 
Q 1775 4550 1750 5100 
L 2250 5100 
Q 2225 4575 2225 3950 
Q 3075 3950 3425 3975 
L 3425 3525 
Q 3075 3550 2225 3550 
Q 2225 2825 2250 2425 
L 1750 2425 
Q 1775 2775 1775 3300 
Q 1650 3100 1300 2787 
Q 950 2475 650 2300 
Q 525 2525 275 2625 
Q 500 2700 875 2975 
Q 1250 3250 1450 3550 
Q 950 3550 500 3525 
L 500 3975 
Q 925 3950 1775 3950 
z
M 3975 3175 
Q 4200 1700 4600 1125 
Q 4850 1700 4937 2287 
Q 5025 2875 5050 3425 
L 4075 3425 
L 3975 3175 
z
M 1450 1000 
Q 1750 925 2275 800 
Q 2475 1050 2650 1525 
L 1725 1525 
Q 1600 1275 1450 1000 
z
M 3325 4825 
Q 3200 4625 3125 4450 
Q 3050 4275 2925 4025 
Q 2725 4125 2525 4175 
Q 2725 4500 2900 5000 
Q 3150 4875 3325 4825 
z
M 2575 3375 
Q 2900 3050 3200 2725 
Q 3050 2600 2875 2425 
Q 2525 2850 2300 3100 
Q 2450 3225 2575 3375 
z
M 925 5000 
Q 1275 4650 1500 4300 
L 1125 4075 
Q 950 4425 600 4725 
Q 825 4875 925 5000 
z
" transform="scale(0.015625)"/>
      </defs>
      <use xlink:href="#SimHei-8bad"/>
      <use xlink:href="#SimHei-7ec3" x="100"/>
      <use xlink:href="#SimHei-6b65" x="200"/>
      <use xlink:href="#SimHei-6570" x="300"/>
     </g>
    </g>
    <g id="text_8">
     <!-- 1e6 -->
     <g transform="translate(838.2 558.30875) scale(0.1 -0.1)">
      <defs>
       <path id="SimHei-65" d="M 2850 1075 
Q 2800 625 2450 350 
Q 2100 75 1625 75 
Q 1025 75 637 462 
Q 250 850 250 1525 
Q 250 2200 637 2587 
Q 1025 2975 1625 2975 
Q 2150 2975 2487 2637 
Q 2825 2300 2825 1525 
L 800 1525 
Q 800 975 1037 750 
Q 1275 525 1625 525 
Q 1900 525 2075 662 
Q 2250 800 2300 1075 
L 2850 1075 
z
M 2250 1925 
Q 2200 2275 2025 2412 
Q 1850 2550 1575 2550 
Q 1325 2550 1125 2412 
Q 925 2275 825 1925 
L 2250 1925 
z
" transform="scale(0.015625)"/>
       <path id="SimHei-36" d="M 250 1612 
Q 275 1975 387 2225 
Q 500 2475 725 2850 
L 1750 4450 
L 2325 4450 
L 1275 2800 
Q 1950 2975 2350 2750 
Q 2750 2525 2887 2237 
Q 3025 1950 3037 1612 
Q 3050 1275 2937 950 
Q 2825 625 2537 362 
Q 2250 100 1737 75 
Q 1225 50 862 262 
Q 500 475 362 862 
Q 225 1250 250 1612 
z
M 1025 787 
Q 1250 550 1625 525 
Q 2000 500 2250 775 
Q 2500 1050 2500 1575 
Q 2500 2100 2187 2300 
Q 1875 2500 1487 2450 
Q 1100 2400 925 2075 
Q 750 1750 775 1387 
Q 800 1025 1025 787 
z
" transform="scale(0.015625)"/>
      </defs>
      <use xlink:href="#SimHei-31"/>
      <use xlink:href="#SimHei-65" x="50"/>
      <use xlink:href="#SimHei-36" x="100"/>
     </g>
    </g>
   </g>
   <g id="matplotlib.axis_2">
    <g id="ytick_1">
     <g id="line2d_13">
      <path d="M 45.00875 498.565738 
L 853.2 498.565738 
" clip-path="url(#p0e24fcbb2c)" style="fill: none; stroke-dasharray: 2.96,1.28; stroke-dashoffset: 0; stroke: #b0b0b0; stroke-opacity: 0.7; stroke-width: 0.8"/>
     </g>
     <g id="line2d_14">
      <defs>
       <path id="m243bb9345e" d="M 0 0 
L -3.5 0 
" style="stroke: #000000; stroke-width: 0.8"/>
      </defs>
      <g>
       <use xlink:href="#m243bb9345e" x="45.00875" y="498.565738" style="stroke: #000000; stroke-width: 0.8"/>
      </g>
     </g>
     <g id="text_9">
      <!-- 36 -->
      <g transform="translate(28.00875 502.003238) scale(0.1 -0.1)">
       <defs>
        <path id="SimHei-33" d="M 250 1225 
L 700 1300 
Q 800 975 1025 762 
Q 1250 550 1587 562 
Q 1925 575 2125 837 
Q 2325 1100 2300 1437 
Q 2275 1775 2037 1962 
Q 1800 2150 1275 2225 
L 1275 2550 
Q 1800 2600 2037 2825 
Q 2275 3050 2250 3412 
Q 2225 3775 1925 3937 
Q 1625 4100 1287 3975 
Q 950 3850 750 3275 
L 300 3350 
Q 450 3800 712 4100 
Q 975 4400 1425 4450 
Q 1875 4500 2212 4337 
Q 2550 4175 2687 3837 
Q 2825 3500 2725 3100 
Q 2625 2700 2150 2400 
Q 2500 2250 2687 1950 
Q 2875 1650 2812 1162 
Q 2750 675 2375 375 
Q 2000 75 1525 87 
Q 1050 100 700 387 
Q 350 675 250 1225 
z
" transform="scale(0.015625)"/>
       </defs>
       <use xlink:href="#SimHei-33"/>
       <use xlink:href="#SimHei-36" x="50"/>
      </g>
     </g>
    </g>
    <g id="ytick_2">
     <g id="line2d_15">
      <path d="M 45.00875 396.459815 
L 853.2 396.459815 
" clip-path="url(#p0e24fcbb2c)" style="fill: none; stroke-dasharray: 2.96,1.28; stroke-dashoffset: 0; stroke: #b0b0b0; stroke-opacity: 0.7; stroke-width: 0.8"/>
     </g>
     <g id="line2d_16">
      <g>
       <use xlink:href="#m243bb9345e" x="45.00875" y="396.459815" style="stroke: #000000; stroke-width: 0.8"/>
      </g>
     </g>
     <g id="text_10">
      <!-- 38 -->
      <g transform="translate(28.00875 399.897315) scale(0.1 -0.1)">
       <defs>
        <path id="SimHei-38" d="M 175 1375 
Q 175 1675 325 1962 
Q 475 2250 825 2425 
Q 525 2600 425 2812 
Q 325 3025 312 3300 
Q 300 3575 387 3775 
Q 475 3975 650 4150 
Q 825 4325 1037 4387 
Q 1250 4450 1500 4450 
Q 1750 4450 1950 4400 
Q 2150 4350 2375 4187 
Q 2600 4025 2700 3725 
Q 2800 3425 2687 3025 
Q 2575 2625 2100 2400 
Q 2525 2275 2700 2012 
Q 2875 1750 2875 1375 
Q 2875 1000 2762 775 
Q 2650 550 2512 400 
Q 2375 250 2137 162 
Q 1900 75 1537 75 
Q 1175 75 912 162 
Q 650 250 475 425 
Q 300 600 237 837 
Q 175 1075 175 1375 
z
M 687 1400 
Q 675 1100 787 875 
Q 900 650 1200 587 
Q 1500 525 1825 600 
Q 2150 675 2275 950 
Q 2400 1225 2362 1500 
Q 2325 1775 2050 1962 
Q 1775 2150 1450 2125 
Q 1125 2100 912 1900 
Q 700 1700 687 1400 
z
M 775 3350 
Q 775 3100 950 2875 
Q 1125 2650 1500 2650 
Q 1875 2650 2062 2875 
Q 2250 3100 2237 3412 
Q 2225 3725 2012 3875 
Q 1800 4025 1437 4000 
Q 1075 3975 925 3787 
Q 775 3600 775 3350 
z
" transform="scale(0.015625)"/>
       </defs>
       <use xlink:href="#SimHei-33"/>
       <use xlink:href="#SimHei-38" x="50"/>
      </g>
     </g>
    </g>
    <g id="ytick_3">
     <g id="line2d_17">
      <path d="M 45.00875 294.353892 
L 853.2 294.353892 
" clip-path="url(#p0e24fcbb2c)" style="fill: none; stroke-dasharray: 2.96,1.28; stroke-dashoffset: 0; stroke: #b0b0b0; stroke-opacity: 0.7; stroke-width: 0.8"/>
     </g>
     <g id="line2d_18">
      <g>
       <use xlink:href="#m243bb9345e" x="45.00875" y="294.353892" style="stroke: #000000; stroke-width: 0.8"/>
      </g>
     </g>
     <g id="text_11">
      <!-- 40 -->
      <g transform="translate(28.00875 297.791392) scale(0.1 -0.1)">
       <defs>
        <path id="SimHei-34" d="M 2000 1100 
L 75 1100 
L 75 1525 
L 2100 4450 
L 2475 4450 
L 2475 1525 
L 3075 1525 
L 3075 1100 
L 2475 1100 
L 2475 150 
L 2000 150 
L 2000 1100 
z
M 2000 1525 
L 2000 3500 
L 600 1525 
L 2000 1525 
z
" transform="scale(0.015625)"/>
       </defs>
       <use xlink:href="#SimHei-34"/>
       <use xlink:href="#SimHei-30" x="50"/>
      </g>
     </g>
    </g>
    <g id="ytick_4">
     <g id="line2d_19">
      <path d="M 45.00875 192.24797 
L 853.2 192.24797 
" clip-path="url(#p0e24fcbb2c)" style="fill: none; stroke-dasharray: 2.96,1.28; stroke-dashoffset: 0; stroke: #b0b0b0; stroke-opacity: 0.7; stroke-width: 0.8"/>
     </g>
     <g id="line2d_20">
      <g>
       <use xlink:href="#m243bb9345e" x="45.00875" y="192.24797" style="stroke: #000000; stroke-width: 0.8"/>
      </g>
     </g>
     <g id="text_12">
      <!-- 42 -->
      <g transform="translate(28.00875 195.68547) scale(0.1 -0.1)">
       <use xlink:href="#SimHei-34"/>
       <use xlink:href="#SimHei-32" x="50"/>
      </g>
     </g>
    </g>
    <g id="ytick_5">
     <g id="line2d_21">
      <path d="M 45.00875 90.142047 
L 853.2 90.142047 
" clip-path="url(#p0e24fcbb2c)" style="fill: none; stroke-dasharray: 2.96,1.28; stroke-dashoffset: 0; stroke: #b0b0b0; stroke-opacity: 0.7; stroke-width: 0.8"/>
     </g>
     <g id="line2d_22">
      <g>
       <use xlink:href="#m243bb9345e" x="45.00875" y="90.142047" style="stroke: #000000; stroke-width: 0.8"/>
      </g>
     </g>
     <g id="text_13">
      <!-- 44 -->
      <g transform="translate(28.00875 93.579547) scale(0.1 -0.1)">
       <use xlink:href="#SimHei-34"/>
       <use xlink:href="#SimHei-34" x="50"/>
      </g>
     </g>
    </g>
    <g id="text_14">
     <!-- 平均修复面积 -->
     <g transform="translate(22.25875 323.511875) rotate(-90) scale(0.14 -0.14)">
      <defs>
       <path id="SimHei-5e73" d="M 4525 4825 
Q 4900 4825 5450 4850 
L 5450 4375 
Q 4925 4400 4525 4400 
L 3475 4400 
L 3475 2025 
L 5000 2025 
Q 5550 2025 6025 2050 
L 6025 1575 
Q 5550 1600 5000 1600 
L 3475 1600 
L 3475 450 
Q 3475 -100 3500 -600 
L 2925 -600 
Q 2950 -100 2950 450 
L 2950 1600 
L 1125 1600 
Q 775 1600 375 1575 
L 375 2050 
Q 775 2025 1175 2025 
L 2950 2025 
L 2950 4400 
L 1775 4400 
Q 1400 4400 875 4375 
L 875 4850 
Q 1400 4825 1750 4825 
L 4525 4825 
z
M 3925 2600 
Q 4500 3300 4900 4125 
Q 5150 3950 5400 3825 
Q 4775 2850 4350 2300 
Q 4150 2475 3925 2600 
z
M 1975 2350 
Q 1600 3100 1050 3725 
Q 1250 3875 1450 4050 
Q 2075 3300 2450 2725 
Q 2150 2500 1975 2350 
z
" transform="scale(0.015625)"/>
       <path id="SimHei-5747" d="M 5775 275 
Q 5775 -325 5362 -450 
Q 4950 -575 4425 -600 
Q 4375 -275 4250 25 
Q 4950 -25 5125 62 
Q 5300 150 5300 500 
L 5375 3700 
L 3550 3700 
Q 3425 3375 3262 3037 
Q 3100 2700 2925 2400 
Q 2675 2550 2475 2625 
Q 3150 3625 3500 5200 
Q 3800 5100 4075 5025 
Q 3975 4875 3875 4650 
Q 3775 4425 3675 4125 
L 5900 4125 
L 5775 275 
z
M 1250 3625 
L 1250 4375 
Q 1250 4775 1225 5100 
L 1775 5100 
Q 1750 4725 1750 4375 
L 1750 3625 
L 1900 3625 
Q 2200 3625 2525 3650 
L 2525 3150 
Q 2200 3175 1900 3175 
L 1750 3175 
L 1750 1100 
L 2500 1375 
Q 2475 1125 2525 900 
Q 1225 475 962 362 
Q 700 250 475 150 
Q 375 475 250 750 
Q 575 800 800 850 
Q 1025 900 1250 975 
L 1250 3175 
L 1125 3175 
Q 850 3175 400 3150 
L 400 3650 
Q 850 3625 1100 3625 
L 1250 3625 
z
M 4950 1625 
Q 4675 1425 4137 1050 
Q 3600 675 3175 300 
Q 3000 575 2850 775 
Q 3350 1050 3762 1325 
Q 4175 1600 4775 2075 
Q 4825 1850 4950 1625 
z
M 3775 3150 
Q 4125 2800 4475 2300 
Q 4250 2125 4100 1975 
Q 3900 2325 3450 2825 
Q 3600 3000 3775 3150 
z
" transform="scale(0.015625)"/>
       <path id="SimHei-4fee" d="M 4150 5075 
Q 3925 4850 3825 4575 
L 5600 4575 
Q 5425 4225 5225 3887 
Q 5025 3550 4725 3250 
Q 5475 2775 6200 2800 
Q 6000 2625 5925 2300 
Q 5050 2450 4400 2950 
Q 3450 2350 2750 2150 
Q 2650 2375 2375 2600 
Q 3150 2725 4050 3250 
Q 3725 3500 3450 3900 
Q 3225 3525 2925 3125 
Q 2750 3275 2525 3375 
Q 2900 3775 3200 4375 
Q 3500 4975 3550 5300 
Q 3800 5175 4150 5075 
z
M 2000 5000 
Q 1825 4875 1475 3825 
L 1475 600 
Q 1475 -200 1500 -550 
L 1025 -550 
Q 1050 -50 1050 525 
L 1050 3125 
Q 925 2800 600 2300 
Q 500 2425 225 2650 
Q 450 2875 862 3700 
Q 1275 4525 1425 5225 
Q 1600 5125 2000 5000 
z
M 6100 700 
Q 5800 575 4950 125 
Q 4100 -325 2775 -675 
Q 2700 -425 2425 -225 
Q 3550 50 4387 400 
Q 5225 750 5675 1125 
Q 5925 825 6100 700 
z
M 2325 3950 
Q 2300 3675 2300 3325 
L 2300 1200 
Q 2300 875 2325 625 
L 1850 625 
Q 1875 900 1875 1200 
L 1875 3325 
Q 1875 3650 1850 3950 
L 2325 3950 
z
M 5425 1525 
Q 4775 1100 4175 775 
Q 3575 450 3250 275 
Q 3000 600 2825 700 
Q 3250 800 3875 1112 
Q 4500 1425 4975 1900 
Q 5275 1625 5425 1525 
z
M 4825 2200 
Q 4400 1975 3250 1325 
Q 3125 1525 2900 1725 
Q 4100 2175 4425 2575 
Q 4650 2325 4825 2200 
z
M 4400 3500 
Q 4675 3825 4900 4200 
L 3725 4200 
Q 4100 3700 4400 3500 
z
" transform="scale(0.015625)"/>
       <path id="SimHei-590d" d="M 2125 1200 
Q 1900 975 1687 787 
Q 1475 600 1100 350 
Q 1000 475 725 675 
Q 1225 950 1587 1275 
Q 1950 1600 2125 1950 
L 1450 1950 
Q 1475 2250 1475 2575 
L 1475 3825 
Q 1175 3525 700 3150 
Q 525 3375 325 3525 
Q 925 3850 1337 4300 
Q 1750 4750 1975 5200 
Q 2225 5050 2475 4975 
Q 2350 4875 2125 4600 
L 4850 4600 
Q 5150 4600 5750 4625 
L 5750 4200 
Q 5350 4225 5000 4225 
L 1900 4225 
Q 1700 4025 1500 3850 
L 5225 3850 
Q 5200 3500 5200 2875 
Q 5200 2275 5225 1950 
L 2675 1950 
Q 2575 1800 2400 1575 
L 5125 1575 
Q 4825 1100 4512 775 
Q 4200 450 3850 200 
Q 4250 75 4837 -25 
Q 5425 -125 6125 -150 
Q 6000 -325 5875 -650 
Q 4825 -500 4237 -350 
Q 3650 -200 3375 -75 
Q 2750 -325 2162 -450 
Q 1575 -575 725 -675 
Q 600 -350 500 -200 
Q 1225 -200 1950 -75 
Q 2675 50 2950 175 
Q 2425 475 1925 900 
Q 2175 1050 2275 1200 
L 2125 1200 
z
M 4750 3075 
L 4750 3475 
L 1925 3475 
L 1925 3075 
L 4750 3075 
z
M 4750 2325 
L 4750 2700 
L 1925 2700 
L 1925 2325 
L 4750 2325 
z
M 2325 1200 
Q 2800 725 3425 400 
Q 3900 675 4300 1200 
L 2325 1200 
z
" transform="scale(0.015625)"/>
       <path id="SimHei-9762" d="M 5275 4850 
Q 5650 4850 5950 4875 
L 5950 4400 
Q 5600 4425 5275 4425 
L 3275 4425 
Q 3175 4200 2950 3575 
L 5525 3575 
Q 5500 3100 5500 2600 
L 5500 450 
Q 5500 -100 5525 -525 
L 5025 -525 
L 5025 -175 
L 1350 -175 
L 1350 -525 
L 850 -525 
Q 875 -200 875 425 
L 875 2650 
Q 875 3125 850 3575 
L 2475 3575 
Q 2700 4150 2750 4425 
L 1175 4425 
Q 800 4425 425 4400 
L 425 4875 
Q 825 4850 1175 4850 
L 5275 4850 
z
M 2200 225 
L 2200 3175 
L 1350 3175 
L 1350 225 
L 2200 225 
z
M 5025 225 
L 5025 3175 
L 4175 3175 
L 4175 225 
L 5025 225 
z
M 3750 225 
L 3750 1050 
L 2625 1050 
L 2625 225 
L 3750 225 
z
M 3750 2475 
L 3750 3175 
L 2625 3175 
L 2625 2475 
L 3750 2475 
z
M 3750 1425 
L 3750 2100 
L 2625 2100 
L 2625 1425 
L 3750 1425 
z
" transform="scale(0.015625)"/>
       <path id="SimHei-79ef" d="M 5675 4700 
Q 5650 4275 5650 3575 
L 5650 2750 
Q 5650 2225 5675 1750 
L 3100 1750 
Q 3125 2225 3125 2750 
L 3125 3600 
Q 3125 4275 3100 4700 
L 5675 4700 
z
M 2850 4625 
Q 2600 4575 2400 4525 
Q 2200 4475 1925 4425 
L 1925 3275 
Q 2525 3275 2875 3300 
L 2875 2825 
Q 2525 2850 1925 2850 
L 1925 2075 
Q 2125 2225 2250 2350 
Q 2650 1775 2875 1450 
Q 2750 1375 2450 1150 
Q 2250 1575 1925 2000 
L 1925 300 
Q 1925 -75 1950 -675 
L 1425 -675 
Q 1475 -75 1475 300 
L 1475 1925 
Q 1275 1475 1125 1225 
Q 975 975 650 525 
Q 450 700 200 825 
Q 575 1200 900 1750 
Q 1225 2300 1375 2850 
Q 1025 2850 300 2825 
L 300 3300 
Q 1025 3275 1475 3275 
L 1475 4325 
Q 975 4250 525 4175 
Q 450 4400 350 4625 
Q 675 4600 1462 4750 
Q 2250 4900 2550 5075 
Q 2725 4775 2850 4625 
z
M 5175 2175 
L 5175 4300 
L 3575 4300 
L 3575 2175 
L 5175 2175 
z
M 4025 1075 
Q 3875 850 3512 350 
Q 3150 -150 2700 -650 
Q 2525 -475 2300 -300 
Q 2625 -50 2950 375 
Q 3275 800 3575 1400 
Q 3825 1200 4025 1075 
z
M 5050 1325 
Q 5275 1025 5587 625 
Q 5900 225 6200 -225 
Q 5900 -400 5725 -550 
Q 5550 -225 5200 287 
Q 4850 800 4650 1025 
Q 4850 1150 5050 1325 
z
" transform="scale(0.015625)"/>
      </defs>
      <use xlink:href="#SimHei-5e73"/>
      <use xlink:href="#SimHei-5747" x="100"/>
      <use xlink:href="#SimHei-4fee" x="200"/>
      <use xlink:href="#SimHei-590d" x="300"/>
      <use xlink:href="#SimHei-9762" x="400"/>
      <use xlink:href="#SimHei-79ef" x="500"/>
     </g>
    </g>
   </g>
   <g id="line2d_23">
    <path d="M 81.744716 476.974018 
L 82.577633 510.418125 
L 83.008453 379.49812 
L 83.037174 395.110381 
L 83.783927 353.796363 
L 84.186026 403.410889 
L 84.300911 364.765746 
L 84.904058 346.688319 
L 85.938024 354.440991 
L 86.167795 365.994824 
L 86.713499 487.56052 
L 88.235727 372.364953 
L 88.666547 252.394857 
L 90.389824 357.150764 
L 91.739725 383.878862 
L 92.314151 365.369281 
L 92.773691 331.934328 
L 93.147068 351.081526 
L 93.778936 353.756244 
L 94.583133 302.553519 
L 94.870345 310.934653 
L 95.042673 282.091943 
L 95.875591 283.255389 
L 96.53618 354.136399 
L 96.679787 255.278154 
L 96.737229 276.987114 
L 97.19677 235.503077 
L 98.345621 351.448632 
L 99.523194 264.137599 
L 99.695522 314.820727 
L 99.724243 290.79617 
L 100.126341 327.710945 
L 100.614603 405.063161 
L 103.170798 335.115401 
L 103.486732 400.231764 
L 104.31965 282.727222 
L 105.841878 305.677529 
L 106.10037 304.1795 
L 106.674796 323.297874 
L 108.283188 342.175146 
L 109.920301 350.334264 
L 110.379842 362.08168 
L 110.695776 389.078925 
L 111.01171 431.000178 
L 111.557415 362.261046 
L 111.988234 334.493169 
L 113.137086 355.301403 
L 113.539184 340.236004 
L 113.740233 416.53033 
L 114.314659 411.613047 
L 114.659314 474.55014 
L 114.946527 387.564147 
L 115.00397 445.521636 
L 115.23374 330.394233 
L 116.210264 445.894001 
L 117.186788 316.55869 
L 117.24423 357.373171 
L 117.330394 355.493233 
L 117.617607 263.34048 
L 117.732492 344.996123 
L 119.857868 358.473322 
L 120.748228 264.5791 
L 121.925801 199.88749 
L 123.074652 233.669686 
L 123.103373 213.798012 
L 124.13734 292.591196 
L 124.596881 317.204486 
L 124.683044 278.034293 
L 125.68829 448.182722 
L 125.774453 387.63601 
L 126.176551 368.958553 
L 127.066911 272.268672 
L 127.957271 315.230874 
L 128.187042 298.028271 
L 129.192287 240.875105 
L 129.623106 283.265126 
L 130.111368 198.001516 
L 130.168811 228.293179 
L 130.36986 206.476716 
L 132.265465 289.413434 
L 134.275955 302.411155 
L 134.649332 235.384668 
L 135.769462 277.132399 
L 136.056675 257.130631 
L 136.947035 203.946893 
L 137.521461 204.061406 
L 137.550182 172.416415 
L 138.067165 264.152984 
L 140.680803 145.461237 
L 140.939294 209.70375 
L 141.226507 216.601072 
L 141.542442 177.522023 
L 144.673062 193.547742 
L 147.832404 260.754958 
L 148.981256 147.257625 
L 149.986501 146.168185 
L 151.192795 167.892141 
L 151.336401 189.649204 
L 151.939549 223.598691 
L 152.025712 187.749208 
L 152.600138 134.248414 
L 153.117121 164.504047 
L 153.519219 154.657017 
L 153.892596 189.377136 
L 155.242497 227.12019 
L 155.271218 184.751202 
L 155.874365 188.689858 
L 156.678561 182.201709 
L 156.908332 193.246851 
L 157.138102 211.528377 
L 158.315675 205.086189 
L 158.574167 231.462761 
L 159.004986 224.845102 
L 159.263477 197.521648 
L 159.751739 202.673412 
L 159.924067 196.100935 
L 160.297444 229.211043 
L 160.326165 130.510546 
L 160.354886 176.061775 
L 160.728263 156.268392 
L 161.216525 161.226768 
L 161.992 196.51264 
L 162.623868 233.874564 
L 162.911081 180.571054 
L 163.399343 184.173763 
L 166.300194 183.269921 
L 166.616128 173.01586 
L 169.77547 163.093267 
L 169.804191 229.529267 
L 170.378617 217.946416 
L 170.407338 244.241581 
L 170.838157 222.756196 
L 171.55619 203.815435 
L 173.107139 133.289262 
L 173.624122 214.078649 
L 174.313433 152.621863 
L 175.002744 168.430434 
L 175.088908 210.513721 
L 177.616382 169.622509 
L 178.995004 143.821039 
L 180.632117 151.027237 
L 181.263986 212.20845 
L 181.752248 149.618015 
L 182.499001 220.497467 
L 183.647853 203.996359 
L 183.734017 98.772658 
L 184.624377 161.48345 
L 185.083917 180.819946 
L 186.175326 198.951904 
L 186.26149 128.618729 
L 186.376375 185.11344 
L 186.663588 218.391423 
L 187.209293 215.945733 
L 187.841161 161.82076 
L 189.248504 173.915807 
L 189.851651 185.821557 
L 191.747256 180.602993 
L 191.804699 209.250173 
L 193.298206 178.799204 
L 193.671583 226.126567 
L 193.843911 163.944721 
L 194.188566 121.59774 
L 194.27473 197.115201 
L 195.39486 242.897016 
L 196.457548 224.760969 
L 196.773482 196.58723 
L 197.462793 179.174295 
L 198.525481 223.962293 
L 199.243513 132.557775 
L 199.588169 229.218833 
L 199.674332 199.589326 
L 200.306201 194.759486 
L 201.311446 143.078061 
L 201.62738 175.200194 
L 202.632625 232.422691 
L 203.494264 204.325295 
L 205.246263 199.057459 
L 205.533476 215.052407 
L 209.152358 169.75455 
L 211.478783 190.333172 
L 211.593668 187.703831 
L 212.3117 145.471169 
L 213.690322 129.895326 
L 214.75301 174.204235 
L 215.930583 164.593633 
L 216.160353 98.715401 
L 216.418844 168.665694 
L 217.079434 181.449968 
L 218.429335 160.14317 
L 220.009006 203.894894 
L 220.123891 151.657453 
L 220.353661 126.364285 
L 221.44507 150.719724 
L 222.249266 224.243903 
L 222.794971 154.724401 
L 223.369397 157.951825 
L 224.259757 185.989238 
L 227.103164 176.015814 
L 227.361656 159.435442 
L 227.419099 217.370341 
L 228.625393 159.562615 
L 228.740278 171.493292 
L 229.171097 139.073774 
L 229.285982 186.675348 
L 230.57844 94.747533 
L 231.296473 139.781501 
L 231.669849 77.100312 
L 232.100669 210.269308 
L 232.35916 118.893809 
L 232.445324 144.39205 
L 233.306963 137.089255 
L 233.996274 155.443424 
L 234.082438 140.045 
L 235.231289 141.239996 
L 235.46106 152.857513 
L 236.408862 123.967282 
L 237.615156 103.876513 
L 237.873648 132.902096 
L 238.017255 123.411267 
L 239.453319 143.058391 
L 243.991283 157.79836 
L 245.800724 134.173629 
L 246.60492 181.965865 
L 247.26551 102.479755 
L 249.70682 175.722129 
L 250.080196 123.032475 
L 252.061965 168.140449 
L 252.291736 124.770438 
L 253.009768 132.413269 
L 253.469309 188.726471 
L 253.813964 127.491897 
L 255.077701 187.38697 
L 256.743536 108.612677 
L 257.375404 114.013334 
L 257.51901 90.576732 
L 257.633896 161.702351 
L 260.017763 131.27222 
L 260.534746 122.709187 
L 261.568712 107.636777 
L 262.171859 130.767618 
L 263.090941 155.630581 
L 263.148383 141.63281 
L 263.837694 164.454386 
L 263.866415 171.391632 
L 264.010022 119.587124 
L 264.153628 136.798491 
L 267.140643 148.557397 
L 268.720313 77.23469 
L 269.237297 73.540837 
L 269.380903 188.724913 
L 269.75428 144.766168 
L 269.897886 157.233776 
L 270.357427 160.607457 
L 270.501033 177.057151 
L 270.759525 149.144184 
L 271.219066 115.296163 
L 272.884901 98.147506 
L 274.234801 160.948273 
L 274.522014 149.121009 
L 275.09644 110.250149 
L 276.589947 161.923589 
L 277.738799 124.574907 
L 277.968569 166.315237 
L 278.22706 131.879455 
L 278.686601 154.174423 
L 279.864174 53.411702 
L 279.950338 120.426698 
L 280.266272 104.729915 
L 282.018271 117.042305 
L 282.161877 167.301459 
L 282.21932 67.366627 
L 283.827712 142.714071 
L 285.637153 84.223156 
L 285.723317 131.423737 
L 285.895645 108.269525 
L 286.987054 88.569233 
L 287.389152 148.588947 
L 288.222069 94.434567 
L 289.543249 138.254259 
L 290.146396 119.610689 
L 291.12292 139.800976 
L 291.984558 169.250923 
L 292.415378 123.94586 
L 292.817476 108.782501 
L 294.454589 127.495792 
L 294.799245 116.3412 
L 295.603441 134.79216 
L 295.718326 134.146169 
L 295.775769 132.500323 
L 296.120424 137.602231 
L 296.809735 115.733185 
L 297.154391 135.054101 
L 297.384161 158.382226 
L 297.556489 118.193287 
L 297.872423 143.043396 
L 298.159636 129.09295 
L 299.308487 108.264851 
L 299.566979 129.248556 
L 299.624421 145.345944 
L 300.600945 147.869535 
L 300.773273 114.201659 
L 301.232814 143.035216 
L 303.15714 104.724267 
L 303.243304 99.969602 
L 303.990058 145.813348 
L 305.081467 147.581692 
L 305.110188 143.900692 
L 306.345203 118.415694 
L 306.689859 105.854021 
L 306.833465 144.622247 
L 307.982317 128.653785 
L 308.154645 95.138788 
L 308.958841 145.093546 
L 310.595954 115.104722 
L 312.319232 131.707684 
L 313.238313 142.481148 
L 314.50205 140.464106 
L 315.133918 132.075181 
L 315.679623 151.600586 
L 315.708344 149.718117 
L 316.51254 81.705797 
L 317.201851 88.825916 
L 317.575228 172.283984 
L 318.95385 147.3402 
L 319.355948 67.478415 
L 319.499554 99.215718 
L 321.107946 128.983889 
L 321.423881 165.504291 
L 321.825979 122.483665 
L 322.400404 136.477735 
L 322.802502 127.26949 
L 325.100206 107.466175 
L 325.961844 139.095586 
L 326.737319 146.12865 
L 326.909647 130.439462 
L 327.168139 126.558452 
L 328.747809 101.023597 
L 329.006301 117.429861 
L 329.925382 90.223258 
L 330.040268 95.869691 
L 330.930628 111.252535 
L 331.102955 101.118636 
L 331.619938 110.236127 
L 331.792266 97.893939 
L 332.596462 151.429983 
L 332.653905 139.21049 
L 333.285773 130.380452 
L 333.343216 109.815074 
L 334.635674 164.095069 
L 334.922887 128.553098 
L 335.841968 181.676853 
L 336.186624 115.328297 
L 337.335475 174.06674 
L 337.45036 208.501158 
L 339.288523 123.04377 
L 339.89167 86.197938 
L 340.667145 139.926786 
L 341.385177 130.783978 
L 343.079733 117.859483 
L 343.194618 124.861582 
L 344.084978 109.734836 
L 345.808256 105.740481 
L 346.957107 131.886077 
L 348.077238 126.681925 
L 348.421893 135.144855 
L 348.479336 132.272854 
L 348.680385 142.611242 
L 349.111204 147.60253 
L 349.628187 111.38964 
L 350.030285 126.897904 
L 350.403662 128.244417 
L 350.547269 126.130973 
L 350.834481 107.74798 
L 352.81625 115.349135 
L 355.171396 181.489892 
L 355.429888 126.709385 
L 355.688379 171.468169 
L 355.975592 121.95394 
L 356.751067 98.12063 
L 358.991328 125.454406 
L 359.020049 134.944845 
L 359.594475 99.444746 
L 359.93913 177.54773 
L 360.168901 97.164789 
L 361.346474 130.54716 
L 361.375195 154.597618 
L 361.892178 128.695462 
L 363.069751 155.547811 
L 363.385685 138.100016 
L 363.759062 173.246252 
L 364.132439 108.444607 
L 364.620701 115.008125 
L 365.396175 95.843205 
L 365.683388 149.736034 
L 366.056765 142.763732 
L 366.947125 155.092482 
L 366.975846 73.955853 
L 367.004568 152.165755 
L 367.291781 130.585331 
L 367.665157 125.376505 
L 367.837485 139.684515 
L 368.239583 146.668112 
L 370.250073 139.503396 
L 371.025548 158.144434 
L 371.915908 100.801775 
L 372.40417 116.095618 
L 373.926399 140.608027 
L 374.41466 121.730366 
L 374.61571 179.651047 
L 376.166659 126.541509 
L 376.482593 152.34181 
L 378.263313 135.933015 
L 378.349477 147.570981 
L 378.378199 111.069274 
L 379.785542 139.53962 
L 381.221606 125.978287 
L 381.393934 145.066086 
L 381.422655 162.325945 
L 381.594983 109.361692 
L 382.829998 130.202255 
L 383.31826 98.824073 
L 384.553276 98.805766 
L 384.897931 155.861556 
L 385.558521 110.017226 
L 386.621209 145.234546 
L 386.908422 106.354338 
L 386.965864 153.096862 
L 388.746584 119.733188 
L 389.234846 137.165014 
L 389.837993 59.812992 
L 390.584747 136.749414 
L 392.623958 130.459521 
L 394.203629 90.520644 
L 396.472611 100.00232 
L 397.793791 119.674178 
L 397.966118 189.076635 
L 398.195889 136.660802 
L 398.712872 115.753634 
L 399.861723 158.001292 
L 400.551034 146.697909 
L 400.723362 106.49417 
L 400.752083 171.664284 
L 401.728607 139.571169 
L 402.044541 108.54023 
L 403.13595 137.915002 
L 403.250836 125.727058 
L 403.423163 146.974456 
L 403.652934 100.613061 
L 406.639948 121.901942 
L 406.668669 128.025906 
L 408.47811 149.325498 
L 408.765323 145.487723 
L 408.90893 192.61644 
L 409.885454 141.121003 
L 410.02906 158.328864 
L 410.402437 138.472381 
L 410.459879 105.676408 
L 412.269321 153.923193 
L 413.533057 163.76477 
L 413.762828 120.873848 
L 414.71063 162.146385 
L 417.15194 151.383243 
L 418.300792 80.424721 
L 418.875217 155.003286 
L 419.133709 159.534571 
L 419.736856 123.065583 
L 420.627216 132.040515 
L 420.684659 143.891539 
L 420.799544 143.594153 
L 421.402691 96.18402 
L 421.60374 138.359425 
L 422.063281 159.122671 
L 422.321772 92.914531 
L 422.4941 108.400009 
L 424.590754 106.984749 
L 425.079016 124.729151 
L 426.658687 128.773752 
L 428.06603 160.719245 
L 429.760586 87.353204 
L 430.909438 182.070446 
L 431.024323 110.561167 
L 431.914683 143.241458 
L 432.632715 161.014878 
L 433.666682 70.12762 
L 434.557042 172.181934 
L 434.614484 122.881932 
L 434.95914 101.487106 
L 436.050549 105.815071 
L 436.395204 108.673829 
L 437.314285 131.166665 
L 437.371728 106.676068 
L 437.974875 173.982607 
L 438.003596 133.797759 
L 438.434416 109.764828 
L 438.779071 142.334695 
L 439.611989 131.780716 
L 439.669431 105.947891 
L 441.794807 164.311243 
L 443.144707 125.705635 
L 444.494608 142.399742 
L 446.217885 126.529434 
L 448.343261 118.269046 
L 448.601752 145.205333 
L 451.761094 153.126465 
L 451.875979 109.572024 
L 452.364241 167.529319 
L 452.99611 120.297383 
L 453.800306 154.483494 
L 453.915191 154.301206 
L 454.518338 188.159939 
L 454.891715 134.968995 
L 455.293813 97.59519 
L 455.638468 99.566466 
L 455.66719 157.991554 
L 455.983124 117.827933 
L 457.246861 114.02015 
L 460.004105 142.503349 
L 461.124235 136.273246 
L 461.784825 149.009416 
L 462.100759 79.847867 
L 463.335774 153.123933 
L 464.628232 95.967456 
L 465.748363 165.338363 
L 466.610001 107.209103 
L 467.672689 77.220668 
L 469.597015 150.131575 
L 469.884228 141.737586 
L 470.401211 147.672446 
L 470.630982 111.53473 
L 471.492621 145.859893 
L 472.497866 58.16403 
L 473.560553 169.771494 
L 475.168946 98.085964 
L 475.743371 107.223904 
L 477.638977 114.910944 
L 478.471894 106.802461 
L 478.988877 105.795206 
L 480.16645 130.229325 
L 480.913204 110.87647 
L 482.492875 115.094789 
L 482.751366 135.053906 
L 483.49812 106.836932 
L 484.646971 85.787207 
L 486.255364 140.6684 
L 486.571298 127.584598 
L 486.973396 130.621944 
L 487.346773 137.010965 
L 487.863756 114.096103 
L 488.40946 107.504151 
L 488.725394 102.067855 
L 488.897722 142.676289 
L 489.242378 109.526841 
L 489.73064 150.981276 
L 490.735885 112.949211 
L 490.936934 129.208048 
L 493.349522 115.615166 
L 493.493129 153.671185 
L 493.866505 150.435192 
L 494.785587 135.927562 
L 494.957914 146.087752 
L 495.360012 145.070175 
L 495.589783 142.631496 
L 495.618504 133.783931 
L 497.514109 141.212536 
L 497.571552 128.026295 
L 498.691682 136.178986 
L 499.897976 106.440808 
L 501.219156 121.20921 
L 501.851024 137.982386 
L 504.723153 126.857007 
L 505.153972 142.191357 
L 505.642234 148.497219 
L 505.872005 108.359695 
L 506.848528 114.764101 
L 508.140986 159.287236 
L 508.255872 91.59353 
L 509.146232 135.081756 
L 509.7781 130.871226 
L 509.892985 173.756695 
L 510.323805 140.458458 
L 512.592786 134.63188 
L 513.913966 62.776332 
L 513.942687 116.1371 
L 514.057572 108.372354 
L 515.206424 121.900189 
L 515.493637 166.753428 
L 515.608522 123.401334 
L 516.441439 144.189898 
L 517.360521 117.248352 
L 517.762619 122.644919 
L 521.180452 101.016976 
L 521.639993 71.293014 
L 522.042091 186.427429 
L 522.444189 84.570204 
L 522.70268 148.603164 
L 523.535598 102.915414 
L 524.081302 142.007512 
L 524.540843 148.042864 
L 524.713171 163.045942 
L 525.14399 93.24035 
L 525.316318 128.681634 
L 526.120514 104.863709 
L 526.177957 112.63683 
L 529.567069 138.789631 
L 530.371265 110.871406 
L 531.232904 136.410741 
L 532.49664 100.208367 
L 532.783853 120.833729 
L 533.875262 108.003494 
L 534.823065 154.886824 
L 535.052835 102.028516 
L 535.59854 135.25898 
L 535.914474 171.886106 
L 537.120768 139.555979 
L 538.49939 138.271592 
L 538.528111 158.667537 
L 541.141749 84.541381 
L 541.687453 137.344575 
L 542.95119 129.675452 
L 543.784107 146.162732 
L 544.128763 88.508081 
L 544.358533 144.175876 
L 546.081811 104.938494 
L 546.110532 128.529533 
L 547.546596 116.289785 
L 547.690203 177.288321 
L 547.86253 78.507392 
L 549.758136 167.068147 
L 550.705938 136.946697 
L 552.027118 174.219815 
L 552.572822 134.588645 
L 552.658986 152.179777 
L 553.032363 116.682599 
L 556.679967 147.71646 
L 558.08731 158.377552 
L 558.144752 132.602373 
L 558.431965 133.626961 
L 559.43721 126.616294 
L 559.695702 99.294982 
L 561.763635 136.539082 
L 561.87852 108.448891 
L 563.544355 126.951656 
L 564.721928 135.417897 
L 565.583566 165.011959 
L 565.641009 69.724679 
L 566.043107 124.232729 
L 566.129271 123.395881 
L 566.818582 182.464818 
L 567.967433 164.396934 
L 568.082319 190.140368 
L 569.547104 176.535022 
L 569.949202 134.300023 
L 571.040611 123.722674 
L 571.126775 148.419124 
L 571.67248 103.45955 
L 572.936217 131.630952 
L 573.108544 111.940982 
L 573.137266 116.766732 
L 573.596806 137.324905 
L 573.941462 114.732941 
L 576.066837 137.980049 
L 576.12428 140.893533 
L 576.669984 125.78042 
L 577.043361 101.251457 
L 577.330574 129.323146 
L 577.560344 117.133839 
L 581.638767 149.52726 
L 581.868538 145.34127 
L 584.281126 124.151712 
L 585.659748 81.095835 
L 587.210698 96.281786 
L 587.670238 162.717396 
L 588.101058 85.983321 
L 588.761647 135.920356 
L 589.249909 144.740656 
L 589.508401 128.933058 
L 590.484925 174.283888 
L 591.346563 136.860617 
L 591.547613 159.492505 
L 592.868792 112.61307 
L 594.276135 86.083813 
L 594.563348 126.656997 
L 594.764397 114.099414 
L 594.793118 147.267752 
L 594.908003 124.862555 
L 596.344068 115.514674 
L 596.83233 114.476648 
L 597.176985 136.869965 
L 598.354558 129.917917 
L 598.440722 134.123578 
L 599.216197 146.739586 
L 599.417246 107.20735 
L 600.049114 94.862436 
L 600.508655 147.260741 
L 600.738425 142.504713 
L 601.341572 97.049107 
L 601.686228 108.690968 
L 601.915998 160.065659 
L 602.030883 155.75269 
L 602.145768 169.666133 
L 604.156259 96.512177 
L 606.138028 57.298165 
L 607.74642 135.914319 
L 608.119797 175.390077 
L 609.814353 179.194939 
L 609.843074 152.125247 
L 610.18773 85.870755 
L 610.532385 101.284954 
L 610.963205 153.086346 
L 611.250417 142.333331 
L 611.652515 71.337612 
L 612.025892 103.128278 
L 612.284384 95.253887 
L 613.203465 177.309743 
L 615.041628 117.482833 
L 615.903266 128.078489 
L 616.046873 150.766465 
L 616.075594 104.140402 
L 616.42025 173.951447 
L 616.736184 118.261061 
L 619.98169 108.333209 
L 620.010411 124.156776 
L 620.182739 126.131557 
L 620.268902 101.244446 
L 620.613558 164.69023 
L 621.044377 139.457824 
L 623.255917 147.971585 
L 624.00267 132.504024 
L 624.174998 117.580988 
L 624.203719 168.156419 
L 625.926997 145.499603 
L 626.67375 171.908503 
L 627.966208 141.910915 
L 628.052372 95.879429 
L 628.68424 120.753686 
L 629.775649 96.83488 
L 630.062862 179.334381 
L 630.177747 96.34878 
L 630.206469 138.259517 
L 632.934991 170.91858 
L 633.13604 103.845353 
L 634.91676 144.411915 
L 636.094333 163.877726 
L 637.530398 132.449493 
L 637.760168 130.176547 
L 638.190987 152.072664 
L 638.4782 64.331424 
L 638.593085 96.043604 
L 638.995183 94.340112 
L 640.287642 172.676603 
L 640.546133 76.009703 
L 641.235444 139.153038 
L 641.321608 123.033838 
L 642.614066 105.572995 
L 644.653278 152.285332 
L 645.112818 132.770249 
L 645.715965 96.169609 
L 645.917014 185.568964 
L 647.065866 101.400442 
L 648.846586 184.972829 
L 648.904029 99.300046 
L 651.086847 119.285454 
L 651.661272 120.747454 
L 652.637796 180.95043 
L 653.097337 85.381149 
L 653.413271 117.739126 
L 654.677008 101.736388 
L 655.107827 169.985915 
L 655.136548 124.164371 
L 655.251434 134.960231 
L 655.62481 113.472509 
L 656.05563 162.333736 
L 657.807628 140.274612 
L 658.870316 109.685759 
L 659.502185 113.266072 
L 664.585853 131.292864 
L 665.189 144.818946 
L 666.050639 119.875551 
L 666.96972 212.199881 
L 667.228212 176.773398 
L 667.773916 141.671565 
L 668.290899 143.94529 
L 669.554636 70.323151 
L 669.813128 142.607931 
L 670.387553 172.140647 
L 671.019422 136.103423 
L 671.680011 110.991958 
L 672.168273 78.444487 
L 672.254437 105.204525 
L 672.340601 88.449266 
L 673.403289 127.356739 
L 674.207485 150.34288 
L 674.724468 176.907387 
L 674.781911 95.689546 
L 677.165778 129.019918 
L 677.481712 198.243592 
L 678.257187 82.332898 
L 679.00394 107.022725 
L 679.721973 139.68023 
L 679.808137 103.191183 
L 682.852593 169.440805 
L 682.967478 165.320835 
L 683.45574 125.717904 
L 683.599347 176.658689 
L 683.771675 134.603835 
L 684.145051 154.02758 
L 684.374822 121.782754 
L 685.408788 102.729816 
L 685.868329 129.492775 
L 687.936262 100.193177 
L 688.079868 115.91002 
L 688.711736 128.727011 
L 688.769179 92.854547 
L 689.113834 103.012401 
L 689.343605 147.707891 
L 689.515933 114.402642 
L 690.262686 170.35867 
L 690.377571 134.927902 
L 691.066882 104.398837 
L 691.382816 170.970969 
L 692.043406 110.519295 
L 692.388062 156.833951 
L 693.307143 166.794521 
L 695.576125 144.349595 
L 696.409042 160.084744 
L 696.724976 111.834842 
L 697.730221 129.317303 
L 698.046156 144.837253 
L 701.090612 121.968352 
L 701.148055 141.448575 
L 701.406547 133.207077 
L 701.521432 92.192781 
L 701.550153 124.823605 
L 701.751202 117.953158 
L 702.210743 123.673987 
L 702.354349 93.300918 
L 703.675528 132.574524 
L 703.790414 132.249289 
L 703.847856 112.070687 
L 704.967987 133.94986 
L 705.456248 95.607166 
L 707.696509 156.772409 
L 707.897558 134.940366 
L 708.644312 116.852422 
L 714.905553 113.091185 
L 715.594864 195.961688 
L 716.341617 149.987069 
L 716.370339 119.448266 
L 717.002207 116.726613 
L 717.28942 123.237353 
L 717.748961 122.97775 
L 718.40955 120.705777 
L 720.937024 96.54509 
L 721.224237 125.463754 
L 721.281679 194.390627 
L 721.482728 128.761093 
L 721.913548 120.408781 
L 723.952759 116.079259 
L 724.010202 141.90741 
L 725.072889 136.101086 
L 726.451511 190.983448 
L 727.054658 76.821038 
L 727.858855 79.489524 
L 728.088625 136.211315 
L 728.375838 147.007175 
L 729.381083 147.013796 
L 730.443771 103.371523 
L 731.621344 139.027813 
L 732.023442 180.367733 
L 733.258457 121.991722 
L 734.120096 114.598562 
L 734.809407 127.379915 
L 735.498718 123.00521 
L 735.527439 127.915676 
L 738.600617 93.695095 
L 739.54842 124.143533 
L 740.323894 130.779693 
L 741.32914 104.329311 
L 741.501467 135.287803 
L 741.616352 134.982822 
L 743.33963 127.357713 
L 743.483236 136.896451 
L 743.856613 146.926937 
L 744.517203 170.721687 
L 744.861858 159.55093 
L 747.044676 128.737138 
L 748.193528 137.310103 
L 749.342379 141.952202 
L 749.428543 123.992211 
L 750.376346 151.531839 
L 751.008214 156.329933 
L 751.295427 138.442 
L 752.214508 152.6873 
L 752.674049 114.871994 
L 753.478245 92.308853 
L 753.506967 140.806674 
L 756.178046 116.298744 
L 757.269456 184.616044 
L 758.734241 120.020836 
L 758.791684 157.071158 
L 759.82565 118.029306 
L 760.342634 120.356004 
L 760.428797 146.962771 
L 762.439288 120.113927 
L 763.789188 121.491795 
L 764.679548 98.279547 
L 765.282695 141.31926 
L 766.776202 98.787654 
L 768.413316 103.225848 
L 769.16007 154.849432 
L 771.601379 117.788009 
L 771.687543 55.189979 
L 772.549182 136.382891 
L 772.721509 78.043299 
L 774.013968 89.752544 
L 776.857375 185.037097 
L 778.609374 116.85846 
L 779.298685 144.919438 
L 779.471013 146.315417 
L 780.07416 168.974375 
L 780.763471 95.915068 
L 781.395339 69.42262 
L 781.768716 98.509549 
L 783.032453 115.404055 
L 784.008976 145.571077 
L 784.612124 71.70024 
L 784.669566 129.511276 
L 787.943793 106.923792 
L 788.518219 102.01722 
L 788.805432 150.598394 
L 789.523464 167.23836 
L 790.75848 154.045887 
L 791.160578 131.462103 
L 792.309429 137.840217 
L 792.567921 145.489476 
L 793.917821 94.406522 
L 794.032707 180.554305 
L 794.31992 200.577495 
L 794.635854 158.926362 
L 794.750739 101.501712 
L 795.066673 156.35194 
L 795.66982 177.687951 
L 795.870869 122.625833 
L 796.474016 150.305877 
L 797.479261 108.238365 
L 798.053687 52.605625 
L 798.11113 108.873255 
L 798.599392 141.959603 
L 799.00149 158.702008 
L 800.78221 137.663772 
L 800.839652 99.457405 
L 801.24175 117.970491 
L 802.476766 106.380435 
L 802.763979 107.033242 
L 803.970273 169.28072 
L 804.257486 116.812498 
L 804.630863 127.90516 
L 805.779714 102.288898 
L 806.411583 156.461001 
L 807.100894 162.138594 
L 810.691055 117.798915 
L 812.012234 143.102405 
L 812.213283 127.292082 
L 812.672824 157.623084 
L 816.464034 107.358088 
L 816.464034 107.358088 
" clip-path="url(#p0e24fcbb2c)" style="fill: none; stroke: #0000ff; stroke-opacity: 0.5; stroke-width: 1.5; stroke-linecap: square"/>
   </g>
   <g id="line2d_24">
    <path d="M 113.740233 347.771711 
L 114.659314 345.747132 
L 114.946527 345.908452 
L 115.00397 346.916677 
L 115.23374 346.448635 
L 116.210264 347.298297 
L 117.186788 346.334156 
L 117.330394 346.568898 
L 117.617607 344.515811 
L 117.732492 341.664523 
L 119.857868 341.38669 
L 120.748228 341.630375 
L 121.925801 339.776975 
L 123.074652 337.307353 
L 123.103373 333.905736 
L 124.13734 332.450174 
L 124.596881 332.155578 
L 124.683044 330.694633 
L 125.68829 332.583162 
L 125.774453 334.284812 
L 126.176551 335.44529 
L 127.066911 335.248825 
L 127.957271 335.888335 
L 128.187042 334.766172 
L 129.192287 334.478111 
L 129.623106 334.603671 
L 130.111368 333.85364 
L 130.168811 331.390531 
L 130.36986 330.237313 
L 132.265465 329.729168 
L 134.275955 329.961467 
L 134.649332 328.114942 
L 135.769462 325.556326 
L 136.056675 323.996631 
L 136.947035 320.070934 
L 137.521461 318.497617 
L 137.550182 315.832395 
L 138.067165 315.031865 
L 140.680803 311.475132 
L 141.542442 302.459847 
L 144.673062 298.549223 
L 147.832404 295.144319 
L 149.986501 287.077751 
L 151.192795 283.329566 
L 151.336401 280.31783 
L 151.709778 276.23815 
L 151.939549 272.477863 
L 152.025712 266.741844 
L 152.600138 261.675529 
L 153.892596 247.410096 
L 155.242497 245.621326 
L 155.271218 242.168887 
L 155.874365 238.832819 
L 156.678561 237.210044 
L 157.138102 231.236159 
L 158.315675 230.046301 
L 158.574167 230.677807 
L 159.004986 230.501315 
L 159.263477 230.175788 
L 159.751739 228.377432 
L 159.924067 225.955361 
L 160.297444 224.978896 
L 160.354886 214.393968 
L 160.728263 210.140165 
L 161.216525 207.919326 
L 161.992 205.544962 
L 162.623868 204.261888 
L 163.399343 201.073979 
L 166.300194 200.779347 
L 166.616128 199.673801 
L 169.77547 198.806132 
L 169.804191 197.608449 
L 170.378617 195.919154 
L 170.407338 196.096292 
L 170.838157 195.008768 
L 171.55619 193.942464 
L 173.107139 192.529312 
L 173.624122 192.729657 
L 174.313433 192.333765 
L 175.002744 190.419314 
L 175.088908 191.720364 
L 177.616382 190.918739 
L 178.995004 189.463139 
L 180.632117 188.933243 
L 181.263986 189.306457 
L 181.493756 187.6928 
L 181.752248 187.740008 
L 182.499001 189.226593 
L 183.647853 189.948678 
L 183.734017 188.131147 
L 184.624377 187.109889 
L 185.083917 186.254314 
L 186.175326 186.478368 
L 186.26149 186.365774 
L 186.577424 187.800073 
L 186.663588 188.380359 
L 187.209293 188.15687 
L 187.841161 187.698261 
L 189.248504 187.40278 
L 189.851651 187.475177 
L 191.804699 187.176736 
L 193.671583 186.544272 
L 193.843911 185.326264 
L 194.27473 183.696622 
L 195.39486 184.632544 
L 196.457548 184.543542 
L 196.773482 185.865076 
L 197.462793 185.927326 
L 198.525481 187.281204 
L 199.243513 186.707824 
L 199.588169 187.361948 
L 199.674332 186.676243 
L 200.306201 186.960012 
L 201.62738 185.976703 
L 202.632625 187.16484 
L 203.494264 187.989481 
L 205.533476 187.322164 
L 209.152358 185.832424 
L 211.478783 185.183963 
L 211.593668 184.861731 
L 212.3117 185.105369 
L 213.690322 183.421703 
L 214.75301 183.85335 
L 215.930583 183.776614 
L 216.160353 181.167313 
L 216.418844 181.664206 
L 217.079434 182.272661 
L 218.429335 181.231355 
L 220.009006 181.707811 
L 220.09517 181.961167 
L 220.123891 180.584367 
L 220.353661 179.031725 
L 221.44507 180.070667 
L 222.249266 181.325876 
L 222.794971 180.803965 
L 223.369397 179.983963 
L 224.259757 181.131373 
L 227.103164 180.949421 
L 227.419099 180.002457 
L 228.625393 178.874795 
L 228.740278 179.068245 
L 229.285982 178.38848 
L 230.205064 177.264974 
L 230.57844 174.974921 
L 231.296473 174.194567 
L 231.669849 171.214042 
L 232.100669 172.140534 
L 232.35916 172.086455 
L 232.445324 171.031992 
L 233.306963 168.915837 
L 233.996274 167.529486 
L 234.082438 166.398641 
L 235.231289 165.639955 
L 235.46106 164.21786 
L 236.408862 164.04605 
L 237.615156 161.539204 
L 237.873648 160.205459 
L 238.017255 158.778495 
L 239.453319 158.778101 
L 243.991283 158.430065 
L 245.800724 156.465083 
L 246.60492 156.017895 
L 247.26551 154.086341 
L 248.730296 152.683097 
L 249.70682 152.802449 
L 250.080196 151.456435 
L 252.061965 151.065167 
L 252.291736 150.651152 
L 253.009768 150.701511 
L 253.469309 150.991956 
L 253.813964 150.249921 
L 255.077701 150.978545 
L 256.743536 151.176491 
L 257.375404 150.083444 
L 257.51901 148.265979 
L 257.633896 148.297163 
L 260.017763 146.844709 
L 260.534746 146.053176 
L 261.568712 145.172763 
L 263.090941 145.359047 
L 263.148383 143.706825 
L 263.837694 143.901424 
L 263.866415 144.170221 
L 264.153628 142.057832 
L 267.140643 141.840271 
L 268.720313 139.037558 
L 269.237297 137.317122 
L 269.380903 137.661755 
L 269.75428 137.775603 
L 269.897886 137.186771 
L 270.357427 137.910367 
L 270.501033 139.556559 
L 270.759525 139.743813 
L 271.219066 140.50773 
L 272.884901 138.265294 
L 274.522014 139.200962 
L 275.09644 138.66418 
L 276.589947 138.793783 
L 277.738799 138.484382 
L 277.968569 138.985886 
L 278.22706 138.566325 
L 278.686601 139.170468 
L 279.864174 138.161172 
L 279.950338 137.911664 
L 280.266272 137.538037 
L 282.018271 137.017715 
L 282.161877 137.207777 
L 282.21932 135.871637 
L 283.827712 135.086601 
L 285.637153 134.721469 
L 285.723317 134.452139 
L 285.895645 133.103087 
L 286.987054 132.413823 
L 287.389152 132.022793 
L 288.222069 131.416075 
L 289.543249 131.532895 
L 290.146396 130.150579 
L 291.12292 130.396761 
L 291.984558 130.03404 
L 292.415378 130.340704 
L 292.817476 130.236087 
L 294.454589 130.974468 
L 294.799245 130.067245 
L 295.603441 130.137644 
L 295.718326 130.366383 
L 295.775769 130.863654 
L 296.120424 131.000347 
L 296.809735 130.202399 
L 297.384161 129.949381 
L 297.556489 128.885414 
L 297.872423 129.35454 
L 298.159636 129.200429 
L 299.308487 128.394578 
L 299.566979 129.434855 
L 299.624421 130.870958 
L 300.600945 130.05385 
L 300.773273 129.44256 
L 303.15714 128.040925 
L 303.243304 126.499174 
L 303.990058 126.432557 
L 305.081467 127.078268 
L 305.110188 127.993331 
L 305.856941 127.333603 
L 306.345203 126.719496 
L 306.689859 126.631574 
L 306.833465 126.285547 
L 307.982317 126.367124 
L 308.154645 124.943596 
L 308.958841 125.207877 
L 310.595954 124.426483 
L 312.319232 125.992403 
L 315.133918 127.448833 
L 315.679623 127.134816 
L 315.708344 128.781846 
L 316.51254 127.56168 
L 317.201851 127.653735 
L 317.575228 128.47094 
L 318.95385 129.252354 
L 319.355948 128.830537 
L 319.499554 127.843073 
L 321.107946 128.534059 
L 321.423881 129.07906 
L 321.825979 129.136519 
L 322.400404 129.070055 
L 322.802502 128.230426 
L 325.100206 127.900832 
L 325.961844 128.507094 
L 326.737319 128.879751 
L 326.909647 129.161716 
L 327.168139 128.997042 
L 328.747809 128.334591 
L 330.040268 126.688332 
L 330.930628 126.212301 
L 331.102955 125.067029 
L 331.619938 124.907886 
L 331.792266 124.004897 
L 332.596462 124.451637 
L 332.653905 125.07055 
L 333.285773 125.093188 
L 333.343216 124.382571 
L 334.635674 124.707081 
L 335.841968 125.766943 
L 335.985575 126.605715 
L 336.186624 126.912889 
L 337.335475 127.477956 
L 337.45036 128.696346 
L 339.288523 128.279207 
L 339.89167 127.443929 
L 341.385177 128.37275 
L 343.194618 127.761651 
L 344.084978 128.053572 
L 345.808256 127.266511 
L 346.957107 127.602138 
L 348.077238 127.501623 
L 348.421893 127.354897 
L 348.479336 127.191072 
L 348.680385 127.401793 
L 349.111204 127.321832 
L 349.628187 126.555262 
L 350.403662 128.247474 
L 350.547269 127.324414 
L 350.834481 126.53257 
L 352.81625 127.489984 
L 355.171396 129.135468 
L 355.429888 129.089978 
L 355.688379 129.209255 
L 355.975592 129.198661 
L 356.751067 128.431519 
L 358.991328 128.395217 
L 359.020049 128.94479 
L 359.594475 128.151774 
L 359.93913 128.780155 
L 360.168901 128.114662 
L 361.346474 128.194436 
L 361.375195 129.265916 
L 361.892178 129.491228 
L 363.069751 130.797719 
L 363.759062 132.8822 
L 364.620701 133.12416 
L 366.056765 133.120331 
L 366.947125 133.614571 
L 367.004568 132.658801 
L 367.291781 132.699445 
L 367.665157 131.573438 
L 367.837485 131.433871 
L 368.239583 132.060668 
L 370.250073 131.369401 
L 371.025548 130.362266 
L 371.915908 129.917427 
L 372.40417 130.51538 
L 373.926399 130.529005 
L 374.41466 130.347933 
L 374.61571 131.583764 
L 376.166659 131.617363 
L 376.482593 132.469502 
L 378.263313 133.073353 
L 378.349477 133.387051 
L 378.378199 133.074798 
L 379.785542 133.162693 
L 381.393934 133.085899 
L 381.422655 133.380367 
L 381.594983 133.339808 
L 382.829998 133.405895 
L 383.31826 132.817488 
L 384.553276 132.270984 
L 384.897931 133.233255 
L 385.558521 133.126617 
L 386.621209 132.40151 
L 386.908422 131.994409 
L 386.965864 131.626983 
L 388.746584 131.582568 
L 389.234846 132.46262 
L 389.837993 130.959982 
L 390.584747 131.706076 
L 392.623958 130.764312 
L 394.203629 130.631429 
L 396.472611 130.020532 
L 397.793791 129.322063 
L 397.966118 130.268116 
L 398.195889 130.239331 
L 398.712872 129.089479 
L 400.723362 130.927428 
L 400.752083 131.365993 
L 401.728607 131.302142 
L 402.044541 130.371096 
L 403.13595 131.650279 
L 403.250836 131.121506 
L 403.423163 131.449288 
L 403.652934 130.954019 
L 406.639948 130.598368 
L 406.668669 130.225524 
L 408.47811 130.421966 
L 408.765323 130.168831 
L 408.90893 132.005125 
L 409.885454 132.505632 
L 410.02906 132.860049 
L 410.402437 133.194889 
L 410.459879 131.715397 
L 412.269321 132.26303 
L 413.533057 132.491489 
L 413.762828 132.190306 
L 417.15194 133.288094 
L 418.300792 132.105796 
L 419.133709 132.975665 
L 419.736856 132.190458 
L 420.627216 132.644035 
L 420.799544 133.813222 
L 421.402691 133.760787 
L 421.488855 133.266324 
L 421.60374 133.833168 
L 422.063281 134.110931 
L 422.321772 133.842135 
L 422.4941 132.948198 
L 426.658687 132.411735 
L 428.06603 134.42986 
L 429.760586 133.441936 
L 430.909438 134.474154 
L 431.024323 134.874965 
L 432.632715 136.566561 
L 433.666682 135.119728 
L 434.557042 134.781834 
L 434.614484 134.506257 
L 436.050549 133.177202 
L 436.395204 132.41672 
L 437.1994 132.853996 
L 437.371728 131.386142 
L 437.974875 132.694989 
L 438.003596 132.612644 
L 438.434416 132.2934 
L 438.779071 132.200605 
L 439.554546 132.841185 
L 439.611989 133.038761 
L 439.669431 132.597201 
L 441.794807 132.896916 
L 443.144707 132.501274 
L 444.494608 131.49694 
L 446.217885 131.205108 
L 448.343261 130.403912 
L 448.601752 130.538571 
L 451.761094 131.487572 
L 451.875979 130.600549 
L 452.99611 130.664311 
L 453.915191 130.569412 
L 454.518338 132.724116 
L 454.891715 132.323431 
L 455.293813 131.084643 
L 455.638468 130.614661 
L 455.66719 131.133681 
L 455.983124 130.612409 
L 457.246861 130.020929 
L 460.004105 130.947316 
L 461.124235 131.050012 
L 461.784825 131.263012 
L 462.100759 129.677516 
L 463.335774 130.881704 
L 464.628232 130.633053 
L 465.748363 131.800125 
L 466.610001 131.449724 
L 467.672689 130.418663 
L 469.597015 130.206909 
L 469.884228 131.294597 
L 470.401211 130.606637 
L 471.492621 130.678477 
L 472.497866 128.62146 
L 473.04357 129.652432 
L 473.101013 128.741322 
L 473.187177 128.895997 
L 473.560553 130.261685 
L 477.638977 129.809164 
L 478.471894 129.32188 
L 478.988877 129.304263 
L 480.913204 127.970771 
L 482.492875 128.077371 
L 483.49812 127.415651 
L 484.646971 126.495781 
L 486.255364 127.190191 
L 486.571298 126.455659 
L 486.973396 126.553985 
L 487.863756 126.197543 
L 488.40946 125.982245 
L 488.897722 124.910492 
L 489.242378 124.909588 
L 489.73064 124.578627 
L 490.735885 124.431664 
L 490.936934 123.926155 
L 493.349522 123.152434 
L 493.493129 122.462659 
L 493.694178 122.78909 
L 493.866505 123.84589 
L 494.785587 124.573112 
L 494.814308 124.166248 
L 494.957914 124.731445 
L 495.360012 125.352445 
L 495.618504 125.305222 
L 497.514109 125.149284 
L 497.571552 126.112853 
L 498.691682 125.773954 
L 499.897976 125.983421 
L 501.219156 125.100838 
L 501.851024 125.716304 
L 504.723153 126.70903 
L 505.153972 126.550226 
L 505.642234 126.685419 
L 505.872005 125.899164 
L 507.76761 125.953862 
L 508.140986 127.976326 
L 508.255872 127.374672 
L 509.146232 127.543779 
L 509.892985 127.628593 
L 510.323805 128.476043 
L 512.592786 129.024202 
L 513.913966 127.98151 
L 514.057572 128.219746 
L 515.206424 128.053163 
L 515.608522 129.336833 
L 516.01062 129.282108 
L 516.441439 130.029167 
L 517.102029 130.846084 
L 517.360521 130.377683 
L 517.762619 130.278889 
L 521.180452 129.68679 
L 521.639993 128.372431 
L 522.042091 129.819057 
L 522.444189 129.360379 
L 522.70268 130.291085 
L 523.535598 129.495867 
L 524.081302 130.145481 
L 524.540843 130.086712 
L 524.713171 131.088647 
L 525.14399 130.369293 
L 525.316318 130.630622 
L 526.120514 129.654473 
L 526.177957 128.881399 
L 529.567069 128.648487 
L 530.227658 128.182599 
L 530.371265 127.647059 
L 531.232904 127.453519 
L 532.49664 126.556283 
L 532.783853 126.120327 
L 533.559328 125.668441 
L 533.875262 125.004261 
L 534.823065 125.541471 
L 535.052835 124.858462 
L 535.59854 125.434825 
L 535.914474 126.448363 
L 537.120768 126.479835 
L 538.49939 126.708127 
L 538.528111 127.03765 
L 541.141749 125.758534 
L 541.687453 126.338231 
L 542.95119 126.636458 
L 543.784107 126.652404 
L 544.128763 125.236821 
L 544.358533 126.288468 
L 546.110532 125.638769 
L 547.546596 124.489431 
L 547.63276 124.594511 
L 547.690203 125.44764 
L 547.86253 125.762261 
L 550.705938 127.352369 
L 552.027118 128.398761 
L 552.572822 127.755466 
L 552.658986 128.331035 
L 553.032363 128.018334 
L 556.679967 128.088865 
L 558.08731 128.723755 
L 558.144752 129.030835 
L 558.431965 129.250476 
L 559.43721 129.762463 
L 559.695702 130.322502 
L 561.763635 129.324735 
L 561.87852 129.802309 
L 563.544355 129.369279 
L 565.583566 130.479417 
L 565.641009 128.913054 
L 566.043107 128.136789 
L 566.129271 128.7399 
L 566.818582 129.815564 
L 567.967433 131.006228 
L 568.082319 132.556299 
L 569.547104 133.311207 
L 569.949202 133.744545 
L 571.040611 134.00157 
L 571.126775 134.241738 
L 573.108544 134.537733 
L 573.137266 134.712998 
L 573.596806 134.361759 
L 573.941462 134.615848 
L 576.066837 134.670269 
L 576.12428 134.050418 
L 576.669984 133.774906 
L 577.330574 132.447616 
L 577.560344 133.099465 
L 580.80585 133.19815 
L 581.638767 133.595186 
L 581.868538 133.578756 
L 584.281126 134.291629 
L 585.659748 133.030028 
L 587.210698 132.856894 
L 587.641517 133.317711 
L 587.670238 134.246264 
L 588.101058 133.051681 
L 588.761647 132.224321 
L 589.249909 133.548987 
L 589.508401 132.786285 
L 590.484925 133.533029 
L 591.346563 132.785845 
L 591.547613 133.283922 
L 592.868792 132.492588 
L 594.276135 131.880612 
L 594.563348 131.459423 
L 594.764397 130.57386 
L 594.793118 130.867168 
L 594.908003 130.69188 
L 596.344068 130.469847 
L 596.83233 130.773481 
L 597.176985 130.780098 
L 599.216197 131.579351 
L 599.417246 130.423259 
L 600.508655 131.386574 
L 600.738425 131.768751 
L 602.030883 127.929176 
L 602.145768 128.636499 
L 604.156259 128.092289 
L 606.138028 126.269869 
L 607.74642 126.918965 
L 608.119797 127.794147 
L 609.814353 129.139226 
L 609.843074 129.846397 
L 610.18773 128.817314 
L 610.532385 128.548354 
L 610.963205 128.85048 
L 611.250417 128.879276 
L 611.652515 127.79042 
L 612.025892 127.827956 
L 612.284384 127.146571 
L 613.203465 128.350089 
L 615.041628 127.85417 
L 615.903266 127.425194 
L 616.046873 127.533698 
L 616.075594 127.133472 
L 616.42025 128.990584 
L 616.736184 129.43017 
L 619.98169 128.565426 
L 620.010411 127.794214 
L 620.182739 128.597178 
L 620.268902 127.90366 
L 620.613558 128.302651 
L 621.044377 128.513147 
L 624.00267 127.899769 
L 624.174998 127.061539 
L 624.203719 128.172406 
L 625.926997 129.360721 
L 626.67375 130.265751 
L 627.966208 130.821981 
L 628.052372 129.794215 
L 628.68424 129.712038 
L 629.775649 129.338442 
L 630.062862 130.635596 
L 630.177747 129.825173 
L 630.206469 129.992005 
L 632.934991 130.727905 
L 632.992434 130.378902 
L 633.13604 130.311662 
L 634.91676 131.302652 
L 636.094333 131.634991 
L 637.530398 131.433887 
L 637.760168 132.096436 
L 638.190987 132.96407 
L 638.995183 128.348683 
L 640.546133 130.246202 
L 641.235444 130.310977 
L 641.321608 129.263852 
L 642.614066 127.791413 
L 644.653278 127.794615 
L 645.112818 128.732605 
L 645.715965 128.630298 
L 645.917014 129.27995 
L 647.065866 128.461292 
L 648.846586 130.733997 
L 648.904029 130.657432 
L 651.086847 131.138063 
L 651.661272 130.006818 
L 652.637796 131.276169 
L 653.413271 129.761676 
L 655.136548 129.752351 
L 655.251434 130.284892 
L 655.62481 130.071206 
L 656.05563 130.79525 
L 657.807628 131.575853 
L 659.502185 129.951929 
L 664.585853 129.618354 
L 665.189 129.864653 
L 666.050639 129.910544 
L 666.96972 130.791413 
L 667.228212 131.416889 
L 667.773916 130.81215 
L 668.290899 130.852838 
L 669.554636 130.341712 
L 669.813128 130.778797 
L 670.387553 132.284913 
L 671.019422 131.420293 
L 671.680011 131.713157 
L 672.168273 130.516856 
L 672.340601 128.385771 
L 673.403289 128.855999 
L 674.207485 128.974618 
L 674.724468 129.235212 
L 674.781911 128.500013 
L 677.165778 128.47688 
L 677.481712 129.400299 
L 678.257187 129.760328 
L 679.00394 129.979911 
L 679.721973 130.886713 
L 679.808137 129.497005 
L 682.852593 131.365627 
L 682.967478 131.888983 
L 683.398298 132.044772 
L 683.599347 132.935138 
L 683.771675 132.971809 
L 684.145051 134.128969 
L 684.374822 132.853244 
L 685.408788 132.879832 
L 685.868329 131.770231 
L 688.711736 131.880176 
L 688.769179 130.118258 
L 689.113834 130.470883 
L 689.515933 131.323584 
L 690.262686 131.331039 
L 690.377571 131.546309 
L 691.066882 130.935081 
L 691.382816 132.085051 
L 692.043406 131.048762 
L 692.388062 131.379949 
L 693.307143 132.522124 
L 695.576125 133.143794 
L 696.409042 133.719632 
L 696.724976 133.05995 
L 697.730221 133.248785 
L 698.046156 131.901532 
L 701.406547 130.586207 
L 701.521432 131.0236 
L 701.550153 130.667913 
L 701.751202 129.584164 
L 702.210743 129.335575 
L 702.354349 128.981754 
L 703.675528 130.064355 
L 703.847856 131.077679 
L 704.967987 131.209541 
L 705.456248 129.099244 
L 707.897558 130.43931 
L 708.644312 128.811487 
L 714.905553 129.426653 
L 715.594864 131.205432 
L 716.341617 131.411569 
L 716.370339 131.73671 
L 717.002207 130.682426 
L 717.28942 129.840757 
L 717.748961 129.683845 
L 718.40955 129.583603 
L 719.673287 128.221518 
L 720.937024 127.460343 
L 721.224237 126.889067 
L 721.281679 128.341224 
L 721.482728 128.86185 
L 721.913548 128.68017 
L 723.952759 128.997891 
L 724.010202 129.517839 
L 725.072889 129.665321 
L 726.451511 131.627899 
L 727.054658 131.104071 
L 727.858855 129.739704 
L 728.088625 130.175877 
L 728.375838 129.708848 
L 729.381083 129.950565 
L 730.443771 129.930019 
L 731.621344 129.291156 
L 732.023442 130.688125 
L 733.258457 129.99128 
L 734.120096 128.947361 
L 734.809407 128.607967 
L 735.498718 127.866377 
L 735.527439 128.187993 
L 738.600617 127.475549 
L 739.54842 127.061675 
L 740.323894 127.237902 
L 741.32914 126.495516 
L 741.501467 126.537131 
L 741.616352 127.392932 
L 743.33963 127.443614 
L 743.483236 127.82248 
L 743.856613 128.287539 
L 744.861858 130.375482 
L 747.044676 130.305239 
L 748.193528 130.810028 
L 749.428543 130.927354 
L 750.376346 132.045847 
L 751.295427 132.10703 
L 752.214508 132.823728 
L 752.674049 132.859344 
L 753.506967 130.602679 
L 756.178046 130.539689 
L 757.269456 131.897478 
L 758.734241 131.833147 
L 758.791684 132.515015 
L 759.82565 132.461486 
L 760.342634 132.697517 
L 760.428797 133.705871 
L 762.439288 133.598874 
L 763.789188 132.140898 
L 764.679548 131.531267 
L 765.282695 131.949476 
L 766.776202 131.603644 
L 768.413316 130.830013 
L 769.16007 131.20498 
L 771.285445 129.819194 
L 771.601379 130.638533 
L 771.687543 130.152542 
L 772.549182 130.155974 
L 772.721509 128.776696 
L 774.013968 127.631471 
L 776.857375 129.264783 
L 778.609374 128.821396 
L 779.298685 128.11243 
L 779.471013 128.598904 
L 780.07416 129.68642 
L 780.763471 129.057123 
L 781.768716 127.397349 
L 784.123862 128.250489 
L 784.669566 127.482377 
L 787.943793 126.921197 
L 788.518219 126.414387 
L 788.805432 126.688426 
L 789.523464 127.094654 
L 790.75848 126.761138 
L 791.160578 126.199362 
L 792.309429 126.381423 
L 792.567921 126.545011 
L 793.917821 125.594097 
L 794.032707 126.725339 
L 794.31992 127.706252 
L 794.635854 127.758181 
L 794.836903 126.318292 
L 795.066673 127.147891 
L 795.66982 128.855473 
L 795.870869 128.491857 
L 796.474016 129.171999 
L 797.479261 127.644446 
L 798.053687 126.296141 
L 798.11113 125.332183 
L 798.599392 125.810789 
L 799.00149 126.577709 
L 800.78221 126.391729 
L 800.839652 125.978599 
L 801.24175 125.908173 
L 802.476766 126.070191 
L 802.763979 125.38447 
L 804.257486 127.066065 
L 804.630863 126.527179 
L 805.779714 126.139074 
L 806.411583 126.912534 
L 807.100894 129.051506 
L 810.691055 128.679827 
L 812.012234 129.981009 
L 812.213283 130.7318 
L 812.672824 130.18352 
L 816.464034 129.993512 
L 816.464034 129.993512 
" clip-path="url(#p0e24fcbb2c)" style="fill: none; stroke: #ff0000; stroke-width: 2; stroke-linecap: square"/>
   </g>
   <g id="patch_3">
    <path d="M 45.00875 533.30875 
L 45.00875 29.715 
" style="fill: none; stroke: #000000; stroke-width: 0.8; stroke-linejoin: miter; stroke-linecap: square"/>
   </g>
   <g id="patch_4">
    <path d="M 853.2 533.30875 
L 853.2 29.715 
" style="fill: none; stroke: #000000; stroke-width: 0.8; stroke-linejoin: miter; stroke-linecap: square"/>
   </g>
   <g id="patch_5">
    <path d="M 45.00875 533.30875 
L 853.2 533.30875 
" style="fill: none; stroke: #000000; stroke-width: 0.8; stroke-linejoin: miter; stroke-linecap: square"/>
   </g>
   <g id="patch_6">
    <path d="M 45.00875 29.715 
L 853.2 29.715 
" style="fill: none; stroke: #000000; stroke-width: 0.8; stroke-linejoin: miter; stroke-linecap: square"/>
   </g>
   <g id="text_15">
    <!-- 平均修复面积与训练步数关系 -->
    <g transform="translate(345.104375 23.715) scale(0.16 -0.16)">
     <defs>
      <path id="SimHei-4e0e" d="M 5350 100 
Q 5275 -300 4925 -425 
Q 4575 -550 3900 -600 
Q 3875 -375 3650 -25 
Q 4375 -50 4575 0 
Q 4775 50 4837 225 
Q 4900 400 5100 2350 
L 1125 2350 
Q 1450 4350 1475 5200 
Q 1800 5150 2075 5125 
Q 1975 4825 1900 4275 
L 4900 4275 
Q 5400 4275 5800 4300 
L 5800 3825 
Q 5400 3850 4950 3850 
L 1850 3850 
L 1700 2750 
L 5675 2750 
Q 5625 2450 5575 2050 
L 5350 100 
z
M 3675 1350 
Q 4125 1350 4500 1375 
L 4500 875 
Q 4125 900 3850 900 
L 1450 900 
Q 1000 900 500 875 
L 500 1375 
Q 1000 1350 1450 1350 
L 3675 1350 
z
" transform="scale(0.015625)"/>
      <path id="SimHei-5173" d="M 4675 4850 
Q 4525 4675 4362 4375 
Q 4200 4075 4075 3825 
L 4625 3825 
Q 5150 3825 5550 3850 
L 5550 3375 
Q 5225 3400 4700 3400 
L 3400 3400 
L 3400 2150 
L 4975 2150 
Q 5475 2150 5875 2175 
L 5875 1700 
Q 5475 1725 5025 1725 
L 3500 1725 
Q 4250 450 6000 75 
Q 5775 -175 5600 -525 
Q 4025 0 3225 1300 
Q 2800 200 875 -600 
Q 775 -350 500 -150 
Q 2425 375 2875 1725 
L 1550 1725 
Q 975 1725 600 1700 
L 600 2150 
Q 875 2125 1450 2125 
L 2925 2125 
L 2925 3400 
L 1750 3400 
Q 1275 3400 900 3375 
L 900 3850 
Q 1275 3825 1775 3825 
L 3575 3825 
Q 3925 4625 4075 5150 
Q 4325 5000 4675 4850 
z
M 2125 5125 
Q 2450 4725 2800 4175 
Q 2500 4025 2325 3875 
Q 2025 4450 1725 4825 
Q 1950 4975 2125 5125 
z
" transform="scale(0.015625)"/>
      <path id="SimHei-7cfb" d="M 5300 5200 
Q 5450 4950 5725 4675 
Q 4975 4650 4437 4587 
Q 3900 4525 3125 4450 
Q 3250 4325 3475 4225 
Q 3150 4025 2837 3762 
Q 2525 3500 2225 3275 
L 3475 3275 
Q 4100 3700 4525 4050 
Q 4775 3850 5125 3700 
Q 4775 3550 4450 3375 
Q 4125 3200 3387 2737 
Q 2650 2275 2125 1975 
Q 3600 2050 4875 2100 
Q 4750 2225 4225 2625 
Q 4475 2725 4650 2875 
Q 4950 2650 5337 2312 
Q 5725 1975 6075 1650 
Q 5775 1475 5600 1325 
Q 5400 1575 5225 1725 
Q 4550 1700 3625 1650 
L 3625 150 
Q 3625 -325 3387 -412 
Q 3150 -500 2525 -600 
Q 2475 -300 2300 -25 
Q 2875 -25 3012 12 
Q 3150 50 3150 300 
L 3150 1650 
Q 1625 1625 1075 1525 
Q 1000 1775 900 2050 
Q 1450 2100 1875 2300 
Q 2300 2500 2900 2900 
Q 2325 2900 2037 2875 
Q 1750 2850 1400 2800 
Q 1325 3075 1250 3325 
Q 1675 3325 2100 3662 
Q 2525 4000 2750 4400 
Q 1350 4350 925 4300 
Q 850 4550 750 4750 
Q 2150 4750 3250 4850 
Q 4350 4950 5300 5200 
z
M 4625 1250 
Q 4925 1025 5325 737 
Q 5725 450 6000 175 
Q 5800 0 5600 -225 
Q 5275 125 4925 400 
Q 4575 675 4275 875 
Q 4500 1050 4625 1250 
z
M 2200 875 
Q 1900 725 1537 375 
Q 1175 25 800 -300 
Q 575 -75 375 25 
Q 1075 450 1675 1225 
Q 1900 1050 2200 875 
z
" transform="scale(0.015625)"/>
     </defs>
     <use xlink:href="#SimHei-5e73"/>
     <use xlink:href="#SimHei-5747" x="100"/>
     <use xlink:href="#SimHei-4fee" x="200"/>
     <use xlink:href="#SimHei-590d" x="300"/>
     <use xlink:href="#SimHei-9762" x="400"/>
     <use xlink:href="#SimHei-79ef" x="500"/>
     <use xlink:href="#SimHei-4e0e" x="600"/>
     <use xlink:href="#SimHei-8bad" x="700"/>
     <use xlink:href="#SimHei-7ec3" x="800"/>
     <use xlink:href="#SimHei-6b65" x="900"/>
     <use xlink:href="#SimHei-6570" x="1000"/>
     <use xlink:href="#SimHei-5173" x="1100"/>
     <use xlink:href="#SimHei-7cfb" x="1200"/>
    </g>
   </g>
   <g id="legend_1">
    <g id="patch_7">
     <path d="M 53.40875 73.72125 
L 229.80875 73.72125 
Q 232.20875 73.72125 232.20875 71.32125 
L 232.20875 38.115 
Q 232.20875 35.715 229.80875 35.715 
L 53.40875 35.715 
Q 51.00875 35.715 51.00875 38.115 
L 51.00875 71.32125 
Q 51.00875 73.72125 53.40875 73.72125 
z
" style="fill: #ffffff; opacity: 0.8; stroke: #cccccc; stroke-linejoin: miter"/>
    </g>
    <g id="line2d_25">
     <path d="M 55.80875 45.8775 
L 67.80875 45.8775 
L 79.80875 45.8775 
" style="fill: none; stroke: #0000ff; stroke-opacity: 0.5; stroke-width: 1.5; stroke-linecap: square"/>
    </g>
    <g id="text_16">
     <!-- 原始数据 -->
     <g transform="translate(89.40875 50.0775) scale(0.12 -0.12)">
      <defs>
       <path id="SimHei-539f" d="M 3850 4275 
Q 3675 4025 3600 3700 
L 5450 3700 
Q 5425 3475 5425 3000 
L 5425 2225 
Q 5425 1825 5450 1475 
L 4050 1475 
L 4050 -50 
Q 4050 -400 3825 -487 
Q 3600 -575 3100 -625 
Q 3050 -325 2925 -50 
Q 3400 -75 3475 -37 
Q 3550 0 3550 175 
L 3550 1475 
L 2125 1475 
Q 2150 1775 2150 2200 
L 2150 3025 
Q 2150 3425 2125 3700 
L 3150 3700 
Q 3300 4250 3300 4425 
L 3850 4275 
z
M 275 -325 
Q 725 275 875 1037 
Q 1025 1800 1025 2300 
L 1025 4125 
Q 1025 4650 1000 4900 
L 5025 4900 
Q 5575 4900 5800 4925 
L 5800 4475 
Q 5600 4500 5025 4500 
L 1525 4500 
L 1525 2375 
Q 1500 1650 1412 1112 
Q 1325 575 1137 125 
Q 950 -325 800 -575 
Q 550 -400 275 -325 
z
M 4925 2775 
L 4925 3325 
L 2625 3325 
L 2625 2775 
L 4925 2775 
z
M 4925 1875 
L 4925 2400 
L 2625 2400 
L 2625 1875 
L 4925 1875 
z
M 1475 -50 
Q 1800 150 2087 450 
Q 2375 750 2575 1100 
Q 2800 875 2975 750 
Q 2300 -50 1825 -400 
Q 1675 -225 1475 -50 
z
M 4825 1075 
Q 5700 300 5925 25 
Q 5750 -125 5575 -325 
Q 5250 75 4500 725 
Q 4675 925 4825 1075 
z
" transform="scale(0.015625)"/>
       <path id="SimHei-59cb" d="M 1750 5075 
Q 1650 4900 1587 4587 
Q 1525 4275 1475 3875 
L 2550 3875 
Q 2400 2150 1950 1100 
Q 2275 850 2725 425 
Q 2550 275 2375 50 
Q 2000 500 1750 675 
Q 1525 275 1250 -62 
Q 975 -400 700 -675 
Q 600 -525 250 -350 
Q 575 -125 862 200 
Q 1150 525 1375 975 
Q 800 1400 500 1550 
Q 875 2925 950 3425 
Q 650 3425 325 3400 
L 325 3900 
Q 675 3875 1025 3875 
Q 1175 4825 1175 5225 
Q 1550 5125 1750 5075 
z
M 5725 2050 
Q 5700 1650 5700 650 
Q 5700 -325 5725 -650 
L 5200 -650 
L 5200 -100 
L 3450 -100 
L 3450 -675 
L 2950 -675 
Q 2975 -300 2975 675 
Q 2975 1650 2950 2050 
L 5725 2050 
z
M 4400 4950 
Q 3750 3875 3250 3150 
Q 3875 3150 4250 3175 
Q 4625 3200 5200 3225 
Q 4875 3675 4625 3900 
Q 4825 4000 5025 4225 
Q 5750 3300 6125 2850 
Q 6000 2775 5725 2550 
Q 5575 2775 5450 2875 
Q 4575 2825 3937 2762 
Q 3300 2700 2825 2575 
Q 2775 2800 2600 3100 
Q 2875 3225 3237 3850 
Q 3600 4475 3825 5200 
Q 4025 5050 4400 4950 
z
M 5200 325 
L 5200 1600 
L 3450 1600 
L 3450 325 
L 5200 325 
z
M 1025 1775 
Q 1300 1550 1575 1400 
Q 1725 1725 1875 2337 
Q 2025 2950 2050 3425 
L 1400 3425 
Q 1300 2950 1025 1775 
z
" transform="scale(0.015625)"/>
       <path id="SimHei-636e" d="M 5750 4775 
Q 5725 4550 5725 4225 
L 5725 3900 
Q 5725 3450 5750 3250 
L 3100 3250 
L 3100 2500 
L 4250 2500 
Q 4250 2725 4225 3175 
L 4700 3175 
Q 4675 2775 4675 2500 
L 5350 2500 
Q 5800 2500 6100 2525 
L 6100 2075 
Q 5800 2100 5375 2100 
L 4675 2100 
L 4675 1425 
L 5775 1425 
Q 5750 950 5750 800 
L 5750 175 
Q 5750 -225 5775 -575 
L 5325 -575 
L 5325 -225 
L 3675 -225 
L 3675 -600 
L 3225 -600 
Q 3250 -325 3250 100 
L 3250 825 
Q 3250 1075 3225 1425 
L 4250 1425 
L 4250 2100 
L 3075 2100 
Q 3050 1375 2887 737 
Q 2725 100 2425 -475 
Q 2200 -325 1950 -250 
Q 2250 150 2387 600 
Q 2525 1050 2600 1562 
Q 2675 2075 2675 2625 
L 2675 3575 
Q 2675 3975 2650 4775 
L 5750 4775 
z
M 1275 4425 
Q 1275 4775 1250 5075 
L 1750 5075 
Q 1725 4800 1725 4425 
L 1725 3775 
Q 1975 3775 2500 3800 
L 2500 3375 
Q 1975 3400 1725 3400 
L 1725 2450 
Q 2050 2625 2400 2850 
Q 2425 2650 2525 2475 
Q 2050 2200 1725 2000 
L 1725 175 
Q 1725 -300 1487 -400 
Q 1250 -500 775 -575 
Q 725 -325 600 -50 
Q 1025 -50 1150 -12 
Q 1275 25 1275 325 
L 1275 1800 
Q 900 1600 525 1325 
Q 450 1525 275 1800 
Q 775 1975 1275 2250 
L 1275 3400 
Q 800 3400 350 3375 
L 350 3800 
Q 800 3775 1275 3775 
L 1275 4425 
z
M 5300 3625 
L 5300 4400 
L 3100 4400 
L 3100 3625 
L 5300 3625 
z
M 5325 150 
L 5325 1075 
L 3675 1075 
L 3675 150 
L 5325 150 
z
" transform="scale(0.015625)"/>
      </defs>
      <use xlink:href="#SimHei-539f"/>
      <use xlink:href="#SimHei-59cb" x="100"/>
      <use xlink:href="#SimHei-6570" x="200"/>
      <use xlink:href="#SimHei-636e" x="300"/>
     </g>
    </g>
    <g id="line2d_26">
     <path d="M 55.80875 63.22125 
L 67.80875 63.22125 
L 79.80875 63.22125 
" style="fill: none; stroke: #ff0000; stroke-width: 2; stroke-linecap: square"/>
    </g>
    <g id="text_17">
     <!-- 平滑曲线（窗口大小=50） -->
     <g transform="translate(89.40875 67.42125) scale(0.12 -0.12)">
      <defs>
       <path id="SimHei-6ed1" d="M 5350 5100 
Q 5325 4725 5325 4400 
L 5325 3325 
L 6125 3325 
Q 6100 3050 6100 2775 
Q 6100 2500 6125 2275 
L 5650 2275 
L 5650 2925 
L 2150 2925 
L 2150 2275 
L 1700 2275 
Q 1725 2550 1725 2800 
Q 1725 3075 1700 3325 
L 2475 3325 
L 2475 4375 
Q 2475 4675 2450 5100 
L 5350 5100 
z
M 5275 2500 
Q 5250 2150 5250 1725 
L 5250 -75 
Q 5250 -375 5025 -475 
Q 4800 -575 4375 -625 
Q 4375 -400 4225 -75 
Q 4775 -175 4775 75 
L 4775 425 
L 3000 425 
L 3000 -625 
L 2525 -625 
Q 2550 -125 2550 225 
L 2550 1750 
Q 2550 2125 2525 2500 
L 5275 2500 
z
M 4300 4225 
L 4300 3325 
L 4900 3325 
L 4900 4700 
L 2925 4700 
L 2925 4225 
L 4300 4225 
z
M 1675 1900 
Q 1525 1675 1375 1262 
Q 1225 850 1062 437 
Q 900 25 775 -300 
Q 500 -100 200 50 
Q 375 250 525 525 
Q 675 800 875 1275 
Q 1075 1750 1175 2125 
Q 1375 2000 1675 1900 
z
M 4775 1625 
L 4775 2125 
L 3000 2125 
L 3000 1625 
L 4775 1625 
z
M 4775 800 
L 4775 1250 
L 3000 1250 
L 3000 800 
L 4775 800 
z
M 950 5125 
Q 1100 5025 1362 4825 
Q 1625 4625 1850 4450 
Q 1700 4275 1550 4000 
Q 1325 4225 1112 4400 
Q 900 4575 650 4725 
Q 825 4950 950 5125 
z
M 1000 3375 
Q 1225 3225 1475 3025 
Q 1325 2875 1175 2625 
Q 950 2800 750 2950 
Q 550 3100 250 3275 
L 550 3675 
L 1000 3375 
z
M 3900 3325 
L 3900 3825 
L 2925 3825 
L 2925 3325 
L 3900 3325 
z
" transform="scale(0.015625)"/>
       <path id="SimHei-66f2" d="M 5825 500 
Q 5825 -200 5850 -550 
L 5275 -550 
L 5275 -50 
L 1150 -50 
L 1150 -550 
L 575 -550 
Q 600 125 600 550 
L 600 2775 
Q 600 3425 575 3900 
L 2150 3900 
L 2150 4450 
Q 2125 4850 2125 5150 
L 2700 5150 
Q 2650 4825 2650 4475 
L 2650 3900 
L 3700 3900 
L 3700 4525 
Q 3700 4850 3675 5175 
L 4250 5175 
Q 4225 4875 4225 4550 
L 4225 3900 
L 5850 3900 
Q 5825 3525 5825 2750 
L 5825 500 
z
M 3700 325 
L 3700 1875 
L 2650 1875 
L 2650 325 
L 3700 325 
z
M 5275 325 
L 5275 1875 
L 4225 1875 
L 4225 325 
L 5275 325 
z
M 2150 325 
L 2150 1875 
L 1150 1875 
L 1150 325 
L 2150 325 
z
M 3700 2250 
L 3700 3525 
L 2650 3525 
L 2650 2250 
L 3700 2250 
z
M 5275 2250 
L 5275 3525 
L 4225 3525 
L 4225 2250 
L 5275 2250 
z
M 2150 2250 
L 2150 3525 
L 1150 3525 
L 1150 2250 
L 2150 2250 
z
" transform="scale(0.015625)"/>
       <path id="SimHei-7ebf" d="M 3450 4300 
Q 3450 4675 3375 5125 
Q 3700 5100 4050 5050 
Q 3975 4900 3950 4562 
Q 3925 4225 3950 3600 
L 4800 3750 
Q 5225 3850 5650 3975 
L 5750 3500 
Q 5325 3450 4875 3375 
L 3975 3200 
Q 3975 2800 4025 2500 
L 5000 2675 
Q 5500 2775 5950 2925 
L 6025 2450 
Q 5575 2375 5075 2275 
L 4100 2100 
Q 4150 1600 4350 1175 
Q 4575 1350 4787 1575 
Q 5000 1800 5175 2075 
Q 5550 1775 5750 1675 
Q 5425 1525 5237 1337 
Q 5050 1150 4625 750 
Q 4925 250 5162 112 
Q 5400 -25 5500 100 
Q 5600 225 5675 625 
Q 5900 450 6200 350 
Q 5775 -750 5275 -537 
Q 4775 -325 4225 450 
Q 3875 175 3537 -62 
Q 3200 -300 2700 -550 
Q 2575 -300 2325 -100 
Q 2825 75 3175 275 
Q 3525 475 3975 850 
Q 3750 1350 3650 2025 
Q 2900 1900 2600 1800 
L 2525 2275 
Q 2825 2275 3550 2425 
Q 3500 2825 3500 3100 
Q 2825 2950 2575 2875 
L 2475 3350 
Q 2725 3350 3450 3500 
L 3450 4300 
z
M 1950 4875 
Q 1700 4650 1462 4237 
Q 1225 3825 825 3225 
Q 1425 3250 1650 3250 
Q 1875 3625 2050 4075 
Q 2300 3900 2600 3800 
Q 2350 3550 2087 3125 
Q 1825 2700 1175 1675 
Q 1850 1725 2375 1775 
Q 2300 1525 2300 1350 
Q 2125 1350 1525 1287 
Q 925 1225 550 1125 
Q 525 1375 400 1650 
Q 700 1725 950 2050 
Q 1200 2375 1475 2875 
Q 650 2825 425 2675 
Q 350 2950 200 3225 
Q 525 3450 825 3962 
Q 1125 4475 1375 5150 
Q 1625 4975 1950 4875 
z
M 2575 875 
Q 2550 600 2575 450 
Q 1950 325 1450 200 
Q 950 75 525 -75 
Q 450 200 250 475 
Q 950 550 1325 612 
Q 1700 675 2575 875 
z
M 4850 4025 
Q 4675 4300 4375 4675 
L 4775 4875 
Q 4875 4750 5275 4275 
Q 5025 4175 4850 4025 
z
" transform="scale(0.015625)"/>
       <path id="SimHei-ff08" d="M 5425 5100 
L 5700 4775 
Q 4275 3725 4325 2350 
Q 4350 1025 5675 50 
L 5400 -275 
Q 3875 825 3925 2500 
Q 3925 3875 5425 5100 
z
" transform="scale(0.015625)"/>
       <path id="SimHei-7a97" d="M 3300 3400 
Q 3050 3125 2875 2825 
L 5425 2825 
Q 5400 2300 5400 1875 
L 5400 425 
Q 5400 -25 5425 -600 
L 4925 -600 
L 4925 -250 
L 1500 -250 
L 1500 -600 
L 1000 -600 
Q 1025 -25 1025 500 
L 1025 1800 
Q 1025 2225 1000 2825 
L 2400 2825 
Q 2700 3325 2775 3600 
Q 3050 3500 3300 3400 
z
M 4925 150 
L 4925 2450 
L 1500 2450 
L 1500 150 
L 4925 150 
z
M 3225 5300 
Q 3375 4775 3425 4575 
L 5900 4575 
Q 5875 4300 5875 4075 
Q 5875 3850 5900 3600 
L 5425 3600 
L 5425 4175 
L 1025 4175 
L 1025 3500 
L 500 3500 
Q 525 3725 525 4000 
Q 525 4300 500 4575 
L 2900 4575 
Q 2800 4900 2700 5125 
Q 2900 5175 3225 5300 
z
M 4150 425 
Q 3975 350 3700 175 
Q 3475 450 3300 575 
Q 2900 425 2612 362 
Q 2325 300 2025 225 
Q 1975 450 1825 650 
Q 2150 675 2425 737 
Q 2700 800 2950 875 
Q 2725 1025 2475 1225 
Q 2625 1325 2775 1475 
Q 3025 1250 3350 1050 
Q 3700 1250 3900 1575 
L 2525 1575 
Q 2250 1325 1925 1100 
Q 1800 1300 1625 1400 
Q 1950 1600 2200 1825 
Q 2450 2050 2650 2375 
Q 2900 2225 3125 2125 
Q 3000 2025 2900 1925 
L 4625 1925 
Q 4400 1500 4200 1262 
Q 4000 1025 3700 800 
Q 3975 600 4150 425 
z
M 3900 4100 
Q 4175 4000 4625 3825 
Q 5075 3650 5675 3400 
Q 5550 3175 5450 2950 
Q 4825 3275 4425 3425 
Q 4025 3575 3650 3700 
Q 3775 3850 3900 4100 
z
M 2625 3650 
Q 2250 3500 1900 3350 
L 900 2900 
Q 800 3125 675 3300 
Q 1075 3425 1512 3625 
Q 1950 3825 2350 4075 
Q 2475 3825 2625 3650 
z
" transform="scale(0.015625)"/>
       <path id="SimHei-53e3" d="M 5425 4300 
Q 5400 3775 5400 3175 
L 5400 550 
Q 5400 100 5425 -425 
L 4900 -425 
L 4900 100 
L 1525 100 
L 1525 -425 
L 1000 -425 
Q 1025 0 1025 550 
L 1025 3175 
Q 1025 3775 1000 4300 
L 5425 4300 
z
M 4900 525 
L 4900 3875 
L 1525 3875 
L 1525 525 
L 4900 525 
z
" transform="scale(0.015625)"/>
       <path id="SimHei-5927" d="M 2900 3400 
Q 2925 4275 2912 4575 
Q 2900 4875 2875 5150 
Q 3175 5100 3550 5075 
Q 3475 4825 3437 4350 
Q 3400 3875 3400 3400 
L 4675 3400 
Q 5350 3400 5925 3450 
L 5925 2900 
Q 5425 2925 4900 2925 
L 3425 2925 
Q 3525 2500 3775 2062 
Q 4025 1625 4287 1287 
Q 4550 950 5012 575 
Q 5475 200 6025 -50 
Q 5825 -200 5625 -550 
Q 5175 -300 4737 75 
Q 4300 450 3862 1062 
Q 3425 1675 3200 2200 
Q 3000 1650 2775 1287 
Q 2550 925 2287 625 
Q 2025 325 1612 25 
Q 1200 -275 675 -575 
Q 475 -275 225 -50 
Q 750 125 1262 450 
Q 1775 775 2100 1187 
Q 2425 1600 2625 2050 
Q 2825 2500 2875 2925 
L 1500 2925 
Q 900 2925 550 2900 
L 550 3450 
Q 900 3425 1500 3400 
L 2900 3400 
z
" transform="scale(0.015625)"/>
       <path id="SimHei-5c0f" d="M 3500 5150 
Q 3475 4800 3475 4200 
L 3475 175 
Q 3475 -300 3225 -425 
Q 2975 -550 2375 -600 
Q 2325 -300 2150 -25 
Q 2700 -25 2837 0 
Q 2975 25 2975 300 
L 2975 4200 
Q 2975 4650 2950 5150 
L 3500 5150 
z
M 2075 3400 
Q 1850 2775 1550 1962 
Q 1250 1150 1025 750 
Q 775 950 500 1000 
Q 925 1750 1175 2487 
Q 1425 3225 1500 3575 
Q 1800 3425 2075 3400 
z
M 4675 3600 
Q 5675 1800 5875 1150 
Q 5625 1100 5375 925 
Q 5000 2000 4225 3325 
Q 4425 3425 4675 3600 
z
" transform="scale(0.015625)"/>
       <path id="SimHei-3d" d="M 2975 2900 
L 125 2900 
L 125 3300 
L 2975 3300 
L 2975 2900 
z
M 2975 1375 
L 125 1375 
L 125 1775 
L 2975 1775 
L 2975 1375 
z
" transform="scale(0.015625)"/>
       <path id="SimHei-ff09" d="M 1000 5100 
Q 2500 3875 2500 2500 
Q 2550 825 1025 -275 
L 750 50 
Q 2075 1025 2100 2350 
Q 2150 3725 725 4775 
L 1000 5100 
z
" transform="scale(0.015625)"/>
      </defs>
      <use xlink:href="#SimHei-5e73"/>
      <use xlink:href="#SimHei-6ed1" x="100"/>
      <use xlink:href="#SimHei-66f2" x="200"/>
      <use xlink:href="#SimHei-7ebf" x="300"/>
      <use xlink:href="#SimHei-ff08" x="400"/>
      <use xlink:href="#SimHei-7a97" x="500"/>
      <use xlink:href="#SimHei-53e3" x="600"/>
      <use xlink:href="#SimHei-5927" x="700"/>
      <use xlink:href="#SimHei-5c0f" x="800"/>
      <use xlink:href="#SimHei-3d" x="900"/>
      <use xlink:href="#SimHei-35" x="950"/>
      <use xlink:href="#SimHei-30" x="1000"/>
      <use xlink:href="#SimHei-ff09" x="1050"/>
     </g>
    </g>
   </g>
  </g>
 </g>
 <defs>
  <clipPath id="p0e24fcbb2c">
   <rect x="45.00875" y="29.715" width="808.19125" height="503.59375"/>
  </clipPath>
 </defs>
</svg>
